# Blender v2.79 (sub 0) OBJ File: ''
# www.blender.org
o Plane
v -1.359452 1.539035 2.189236
v 1.413879 0.383237 2.185483
v -1.358906 1.536487 -2.230868
v 1.394748 0.394585 -2.291225
v -0.226361 1.540379 2.185154
v 0.729977 1.150474 2.185154
v 0.713030 1.159631 -2.548390
v -0.216116 1.537647 -2.485806
v -1.322487 1.752017 -0.761379
v -1.380167 1.904068 0.853870
v 1.771853 0.419690 0.862737
v 1.316359 0.723411 -0.771411
v -0.260552 1.911790 0.748736
v -0.216607 1.682694 -0.736752
v 0.853545 1.395903 0.774648
v 0.697588 1.443266 -0.751607
v -2.548611 1.126534 2.246378
v -2.548065 1.123985 -2.173726
v -2.511647 1.339515 -0.704237
v -2.569327 1.491566 0.911012
v 1.709932 -0.433776 2.257518
v 1.690802 -0.422428 -2.219191
v 2.067906 -0.397323 0.934772
v 1.612412 -0.093602 -0.699376
vt 0.241436 0.848302
vt 0.327838 0.850322
vt 0.327895 0.920903
vt 0.238036 0.934419
vt 0.078863 0.848481
vt 0.165029 0.847011
vt 0.158571 0.934461
vt 0.073657 0.918561
vt 0.158799 0.705775
vt 0.241518 0.707725
vt 0.253792 0.775235
vt 0.155457 0.772448
vt 0.072679 0.705775
vt 0.071685 0.769485
vt 0.333577 0.710508
vt 0.373627 0.773959
vt 0.078863 0.848481
vt 0.071685 0.769485
vt 0.073657 0.918561
vt 0.072679 0.705775
vt 0.373627 0.773959
vt 0.327838 0.850322
vt 0.333577 0.710508
vt 0.327895 0.920903
vn 0.7564 0.6468 -0.0980
vn 0.0187 0.9936 -0.1115
vn 0.3113 0.9436 -0.1127
vn 0.3900 0.8973 0.2067
vn 0.3485 0.9347 -0.0694
vn 0.0086 0.9665 0.2566
vn 0.0231 0.9924 -0.1212
vn 0.7172 0.6690 0.1953
vn 0.7406 0.6684 -0.0690
vn -0.3304 0.9385 -0.1001
vn -0.3305 0.9350 -0.1289
vn -0.3059 0.9172 0.2555
vn 0.9268 0.3183 -0.1992
vn 0.9020 0.3492 0.2537
vn 0.9406 0.3386 -0.0248
s off
f 16/1/1 12/2/1 4/3/1 7/4/1
f 9/5/2 14/6/2 8/7/2 3/8/2
f 14/6/3 16/1/3 7/4/3 8/7/3
f 5/9/4 6/10/4 15/11/4 13/12/4
f 13/12/5 15/11/5 16/1/5 14/6/5
f 1/13/6 5/9/6 13/12/6 10/14/6
f 10/14/7 13/12/7 14/6/7 9/5/7
f 6/10/8 2/15/8 11/16/8 15/11/8
f 15/11/9 11/16/9 12/2/9 16/1/9
f 10/14/10 9/5/10 19/17/10 20/18/10
f 9/5/11 3/8/11 18/19/11 19/17/11
f 1/13/12 10/14/12 20/18/12 17/20/12
f 12/2/13 11/16/13 23/21/13 24/22/13
f 11/16/14 2/15/14 21/23/14 23/21/14
f 4/3/15 12/2/15 24/22/15 22/24/15
