# Blender v2.80 (sub 50) OBJ File: ''
# www.blender.org
mtllib SwordGrip.mtl.mtl
o Swords-OBJ
v 0.024053 -0.003729 0.000020
v 0.032939 0.000199 0.000020
v 0.024053 0.004127 0.000020
v 0.000201 -0.010879 0.000020
v -0.023649 0.004127 0.000020
v 0.000201 0.011275 0.000020
v -0.023649 -0.003729 0.000020
v -0.032535 0.000199 0.000020
v 0.163823 0.000199 -0.009706
v 0.066073 -0.024811 0.011465
v 0.066073 -0.024811 0.000020
v 0.174939 0.000199 -0.017602
v 0.066073 0.025207 0.000020
v 0.066073 0.025207 0.011465
v 0.000201 0.035511 0.000020
v 0.000201 0.035511 0.011465
v -0.163419 0.000199 -0.009706
v -0.065669 0.025207 0.011465
v -0.065669 0.025207 0.000020
v -0.174535 0.000199 -0.017602
v -0.065669 -0.024811 0.000020
v -0.065669 -0.024811 0.011465
v 0.000201 -0.035115 0.000020
v 0.000201 -0.035115 0.011465
v -0.017323 0.000199 0.022195
v -0.012565 -0.010499 0.020870
v -0.010035 -0.008379 0.188968
v -0.013851 0.000199 0.188968
v 0.000201 -0.016147 0.020870
v 0.000201 -0.012909 0.188968
v 0.010439 -0.008379 0.188968
v 0.012969 -0.010499 0.020870
v 0.017727 0.000199 0.022195
v 0.014255 0.000199 0.188968
v 0.012969 0.010897 0.020870
v 0.010439 0.008777 0.188968
v 0.000201 0.016543 0.020870
v 0.000201 0.013307 0.188968
v -0.010035 0.008777 0.188968
v -0.012565 0.010897 0.020870
v -0.024529 -0.020523 0.203392
v -0.033741 0.000199 0.203392
v 0.000201 -0.031463 0.203392
v 0.024931 -0.020523 0.203392
v 0.034145 0.000199 0.203392
v 0.024931 0.020921 0.203392
v 0.000201 0.031859 0.203392
v -0.024529 0.020921 0.203392
v -0.035561 0.000199 0.227425
v -0.025853 -0.021633 0.227425
v 0.000201 -0.033159 0.227425
v 0.026257 -0.021633 0.227425
v 0.035963 0.000199 0.227425
v 0.026257 0.022031 0.227425
v 0.000201 0.033557 0.227425
v -0.025853 0.022031 0.227425
v -0.017595 0.000199 0.242888
v -0.012765 -0.010667 0.242888
v 0.000201 -0.016403 0.242888
v 0.017999 0.000199 0.242888
v 0.013169 -0.010667 0.242888
v 0.013169 0.011065 0.242888
v 0.000201 0.016801 0.242888
v -0.012765 0.011065 0.242888
v -0.072159 0.000199 0.014873
v 0.072561 0.000199 0.014873
v 0.000201 0.000199 0.248744
vt 0.154800 0.767400
vt 0.217000 0.699600
vt 0.224500 0.710600
vt 0.151900 0.780400
vt 0.164600 0.784000
vt 0.247000 0.750700
vt 0.252900 0.763000
vt 0.302700 0.726300
vt 0.308300 0.738800
vt 0.171200 0.875600
vt 0.254200 0.900500
vt 0.248000 0.911800
vt 0.158800 0.878400
vt 0.160900 0.890900
vt 0.224100 0.950500
vt 0.216300 0.960600
vt 0.266600 0.984800
vt 0.258600 0.994400
vt 0.265700 0.709000
vt 0.260600 0.715700
vt 0.269300 0.714400
vt 0.290800 0.708100
vt 0.267000 0.947800
vt 0.258900 0.946100
vt 0.263400 0.952700
vt 0.277000 0.967900
vt 0.310900 0.882500
vt 0.312400 0.869100
vt 0.575100 0.884300
vt 0.574700 0.894400
vt 0.320500 0.854900
vt 0.574000 0.871700
vt 0.586700 0.795800
vt 0.312000 0.799100
vt 0.311100 0.785000
vt 0.586700 0.785100
vt 0.311800 0.770900
vt 0.586700 0.774500
vt 0.319300 0.755700
vt 0.585100 0.761600
vt 0.574300 0.904700
vt 0.311100 0.896100
vt 0.599400 0.881300
vt 0.599400 0.895300
vt 0.598200 0.859700
vt 0.612000 0.799600
vt 0.612500 0.785000
vt 0.611700 0.770600
vt 0.609700 0.748600
vt 0.598100 0.909300
vt 0.616000 0.896200
vt 0.618400 0.884000
vt 0.628600 0.863200
vt 0.631800 0.797300
vt 0.629700 0.784700
vt 0.631100 0.772300
vt 0.640400 0.751200
vt 0.616900 0.908300
vt 0.629400 0.897200
vt 0.632900 0.890900
vt 0.642000 0.884700
vt 0.643500 0.784200
vt 0.646600 0.790700
vt 0.645800 0.777600
vt 0.654100 0.772000
vt 0.631400 0.903900
vt 0.255900 0.859000
vt 0.251600 0.879500
vt 0.248900 0.784600
vt 0.252300 0.806500
vt 0.308400 0.831600
vt 0.319500 0.814500
vt 0.305800 0.926800
vt 0.317400 0.911100
vt 0.585000 0.808900
vt 0.572300 0.917000
vt 0.609700 0.822400
vt 0.595100 0.930400
vt 0.642300 0.820000
vt 0.625000 0.929300
vt 0.651700 0.793800
vt 0.639400 0.909600
vt 0.299500 0.938500
vt 0.271100 0.675700
vt 0.263200 0.665100
vt 0.287100 0.955200
vt 0.280900 0.694000
vt 0.310900 0.838000
vt 0.655000 0.783200
vt 0.666400 0.782100
vt 0.664500 0.789000
vt 0.663100 0.776000
vn 0.2549 -0.9163 0.3088
vn 0.1998 -0.9797 0.0182
vn 0.2055 -0.9783 0.0259
vn 0.2492 -0.9121 0.3256
vn 0.2549 0.9163 0.3088
vn 0.2492 0.9121 0.3257
vn 0.2055 0.9783 0.0258
vn 0.1998 0.9797 0.0182
vn -0.0000 1.0000 -0.0000
vn -0.2549 0.9163 0.3088
vn -0.1998 0.9797 0.0182
vn -0.2055 0.9783 0.0258
vn -0.2491 0.9121 0.3256
vn -0.2549 -0.9163 0.3088
vn -0.2492 -0.9121 0.3256
vn -0.2055 -0.9783 0.0259
vn -0.1998 -0.9797 0.0182
vn -0.0000 -1.0000 0.0000
vn -0.0904 -0.1198 -0.9887
vn 0.0095 0.0127 -0.9999
vn -0.0001 -0.0000 -1.0000
vn -0.1266 -0.0000 -0.9920
vn -0.0903 0.1197 -0.9887
vn 0.0095 -0.0127 -0.9999
vn -0.0000 -0.0000 -1.0000
vn 0.0903 0.1197 -0.9887
vn -0.0095 -0.0127 -0.9999
vn 0.0001 -0.0000 -1.0000
vn 0.1266 -0.0000 -0.9920
vn 0.0904 -0.1197 -0.9887
vn -0.0096 0.0127 -0.9999
vn -0.9998 -0.0000 0.0207
vn -0.6957 -0.7181 0.0195
vn -0.6136 -0.6272 -0.4797
vn -0.8652 -0.0000 -0.5014
vn -0.0000 -0.9998 0.0193
vn -0.0000 -0.8755 -0.4833
vn 0.6136 -0.6273 -0.4797
vn 0.6959 -0.7179 0.0196
vn 0.9998 -0.0000 0.0207
vn 0.8652 -0.0000 -0.5014
vn 0.6956 0.7181 0.0195
vn 0.6135 0.6273 -0.4797
vn -0.0000 0.9998 0.0193
vn -0.0000 0.8755 -0.4833
vn -0.6136 0.6273 -0.4797
vn -0.6959 0.7179 0.0196
vn -0.6368 -0.6337 -0.4392
vn -0.8948 -0.0000 -0.4464
vn -0.0000 -0.9019 -0.4319
vn 0.6368 -0.6337 -0.4392
vn 0.8948 -0.0000 -0.4464
vn 0.6368 0.6338 -0.4392
vn -0.0000 0.9019 -0.4319
vn -0.6368 0.6337 -0.4392
vn -0.9381 -0.0000 0.3463
vn -0.6676 -0.6617 0.3411
vn -0.0000 -0.9422 0.3351
vn 0.6676 -0.6617 0.3411
vn 0.9381 -0.0000 0.3463
vn 0.6676 0.6617 0.3411
vn -0.0000 0.9422 0.3351
vn -0.6676 0.6617 0.3411
vn -0.5126 -0.0213 0.8583
vn -0.2703 -0.2876 0.9188
vn -0.0202 -0.5396 0.8417
vn 0.5346 -0.0009 0.8451
vn 0.3806 -0.3876 0.8396
vn 0.3804 0.3875 0.8397
vn 0.0010 0.5590 0.8292
vn -0.3806 0.3876 0.8396
vn -0.2601 0.0000 0.9656
vn -0.1649 -0.2099 0.9637
vn -0.2056 0.0000 0.9786
vn -0.1649 0.2099 0.9637
vn 0.2601 0.0000 0.9656
vn 0.1649 0.2099 0.9637
vn 0.2056 0.0000 0.9786
vn 0.1649 -0.2099 0.9637
vn 0.0000 -0.4039 0.9148
vn 0.1141 -0.3214 0.9401
vn -0.0000 -0.4519 0.8921
vn -0.1279 -0.0000 0.9918
vn -0.1141 -0.3214 0.9401
vn -0.1141 0.3214 0.9401
vn 0.0000 0.4039 0.9148
vn -0.0000 0.4520 0.8920
vn 0.1279 -0.0000 0.9918
vn 0.1141 0.3214 0.9401
vn -0.0228 -0.0215 0.9995
vn -0.0436 -0.0489 -0.9979
vn 0.0437 -0.0489 -0.9978
vn 0.1174 0.0000 -0.9931
vn 0.0436 0.0489 -0.9979
vn -0.0436 0.0489 -0.9979
vn -0.1174 0.0000 -0.9931
usemtl Swords_texture
s 1
f 9/1/1 10/2/2 11/3/3 12/4/4
f 9/5/5 12/4/6 13/6/7 14/7/8
f 13/6/7 15/8/9 16/9/9 14/7/8
f 17/10/10 18/11/11 19/12/12 20/13/13
f 17/14/14 20/13/15 21/15/16 22/16/17
f 21/15/16 23/17/18 24/18/18 22/16/17
f 11/3/19 1/19/20 2/20/21 12/4/22
f 13/6/23 12/4/22 2/20/21 3/21/24
f 15/8/25 13/6/23 3/21/24 6/22/25
f 19/12/26 5/23/27 8/24/28 20/13/29
f 21/15/30 20/13/29 8/24/28 7/25/31
f 23/17/25 21/15/30 7/25/31 4/26/25
f 25/27/32 26/28/33 27/29/34 28/30/35
f 26/28/33 29/31/36 30/32/37 27/29/34
f 31/33/38 32/34/39 33/35/40 34/36/41
f 33/35/40 35/37/42 36/38/43 34/36/41
f 35/37/42 37/39/44 38/40/45 36/38/43
f 39/41/46 40/42/47 25/27/32 28/30/35
f 41/43/48 42/44/49 28/30/35 27/29/34
f 43/45/50 41/43/48 27/29/34 30/32/37
f 44/46/51 31/33/38 34/36/41 45/47/52
f 46/48/53 45/47/52 34/36/41 36/38/43
f 47/49/54 46/48/53 36/38/43 38/40/45
f 48/50/55 39/41/46 28/30/35 42/44/49
f 49/51/56 42/44/49 41/43/48 50/52/57
f 50/52/57 41/43/48 43/45/50 51/53/58
f 52/54/59 44/46/51 45/47/52 53/55/60
f 53/55/60 45/47/52 46/48/53 54/56/61
f 54/56/61 46/48/53 47/49/54 55/57/62
f 56/58/63 48/50/55 42/44/49 49/51/56
f 57/59/64 49/51/56 50/52/57 58/60/65
f 58/60/65 50/52/57 51/53/58 59/61/66
f 60/62/67 61/63/68 52/54/59 53/55/60
f 60/62/67 53/55/60 54/56/61 62/64/69
f 55/57/62 63/65/70 62/64/69 54/56/61
f 57/59/64 64/66/71 56/58/63 49/51/56
f 17/10/72 22/67/73 65/68/74
f 18/11/75 17/10/72 65/68/74
f 9/5/76 14/7/77 66/69/78
f 10/70/79 9/5/76 66/69/78
f 24/71/80 10/70/79 32/34/81 29/72/82
f 25/27/83 65/68/74 22/67/73 26/28/84
f 18/11/75 65/68/74 25/27/83 40/42/85
f 16/73/86 18/11/75 40/42/85 37/74/87
f 33/35/88 66/69/78 14/7/77 35/37/89
f 10/70/79 66/69/78 33/35/88 32/34/81
f 29/72/36 32/34/39 31/33/38 30/75/37
f 37/74/44 40/42/47 39/41/46 38/76/45
f 43/77/50 30/75/37 31/33/38 44/46/51
f 47/78/54 38/76/45 39/41/46 48/50/55
f 43/77/50 44/46/51 52/54/59 51/79/58
f 47/78/54 48/50/55 56/58/63 55/80/62
f 51/79/58 52/54/59 61/63/68 59/81/66
f 64/66/71 63/82/70 55/80/62 56/58/63
f 15/83/9 19/12/12 18/11/11 16/73/9
f 23/84/18 11/3/3 10/2/2 24/85/18
f 15/83/25 6/86/25 5/23/27 19/12/26
f 23/84/25 4/87/25 1/19/20 11/3/19
f 24/88/80 29/31/82 26/28/84 22/67/73
f 16/9/86 37/39/87 35/37/89 14/7/77
f 61/63/68 60/62/67 67/89/90 59/81/66
f 62/64/69 63/65/70 67/89/90 60/62/67
f 57/90/64 58/91/65 59/81/66 67/89/90
f 64/92/71 57/90/64 67/89/90 63/65/70
f 1/19/91 4/87/25 7/25/92 8/24/93 5/23/94 6/86/25 3/21/95 2/20/96
