# Blender v2.79 (sub 0) OBJ File: 'apple.blend'
# www.blender.org
mtllib apple.mtl
o Sphere.007
v -0.000503 0.120154 -0.012883
v -0.022890 0.088711 -0.082511
v -0.036825 0.020307 -0.120781
v -0.035110 -0.062959 -0.106556
v -0.019785 -0.101442 -0.052662
v 0.062827 0.103793 -0.006698
v 0.079583 0.062237 -0.072503
v 0.065648 -0.006167 -0.110773
v 0.021622 -0.077615 -0.101015
v 0.092012 0.070636 0.041941
v 0.126800 0.008589 0.006197
v 0.112866 -0.059815 -0.032073
v 0.047764 -0.107318 -0.057443
v 0.065070 0.045652 0.096408
v 0.083208 -0.031837 0.094327
v 0.069274 -0.100241 0.056058
v 0.023630 -0.129699 -0.008651
v 0.014690 0.067797 0.042021
v 0.002292 0.047653 0.115689
v -0.018368 -0.028599 0.125524
v -0.032303 -0.097003 0.087255
v -0.032607 -0.127906 0.008621
v -0.049050 0.075133 0.085265
v -0.101440 0.015865 0.076295
v -0.115375 -0.052539 0.038026
v -0.078599 -0.103289 -0.018633
v -0.050294 0.107399 0.028044
v -0.103452 0.068073 -0.016288
v -0.117387 -0.000331 -0.054558
v -0.079713 -0.074385 -0.069893
vt 0.058150 0.722213
vt 0.254350 0.722213
vt 0.254350 0.918412
vt 0.058150 0.918412
vt 0.058150 0.722213
vt 0.254350 0.722213
vt 0.254350 0.918412
vt 0.058150 0.918412
vt 0.058150 0.722213
vt 0.254350 0.722213
vt 0.254350 0.918412
vt 0.058150 0.722213
vt 0.254350 0.722213
vt 0.254350 0.918412
vt 0.058150 0.918412
vt 0.058150 0.722213
vt 0.254350 0.722213
vt 0.058150 0.722213
vt 0.254350 0.722213
vt 0.254350 0.918412
vt 0.058150 0.918412
vt 0.058150 0.722213
vt 0.254350 0.918412
vt 0.058150 0.722213
vt 0.254350 0.722213
vt 0.254350 0.918412
vt 0.058150 0.918412
vt 0.058150 0.722213
vt 0.254350 0.722213
vt 0.058150 0.918412
vt 0.254350 0.722213
vt 0.254350 0.918412
vt 0.058150 0.722213
vt 0.254350 0.722213
vt 0.254350 0.918412
vt 0.058150 0.918412
vt 0.058150 0.722213
vt 0.254350 0.918412
vt 0.058150 0.722213
vt 0.254350 0.722213
vt 0.254350 0.918412
vt 0.058150 0.918412
vt 0.058150 0.722213
vt 0.254350 0.722213
vt 0.058150 0.918412
vt 0.254350 0.722213
vt 0.254350 0.918412
vt 0.058150 0.722213
vt 0.254350 0.722213
vt 0.254350 0.918412
vt 0.058150 0.918412
vt 0.058150 0.722213
vt 0.254350 0.918412
vt 0.058150 0.722213
vt 0.254350 0.722213
vt 0.254350 0.918412
vt 0.058150 0.918412
vt 0.058150 0.722213
vt 0.254350 0.722213
vt 0.058150 0.918412
vt 0.254350 0.722213
vt 0.254350 0.918412
vt 0.058150 0.722213
vt 0.254350 0.722213
vt 0.254350 0.918412
vt 0.058150 0.918412
vt 0.058150 0.722213
vt 0.254350 0.918412
vt 0.058150 0.722213
vt 0.254350 0.722213
vt 0.254350 0.918412
vt 0.058150 0.918412
vt 0.058150 0.722213
vt 0.254350 0.722213
vt 0.058150 0.918412
vt 0.254350 0.722213
vt 0.254350 0.918412
vt 0.058150 0.722213
vt 0.254350 0.722213
vt 0.254350 0.918412
vt 0.058150 0.918412
vt 0.058150 0.722213
vt 0.254350 0.918412
vt 0.058150 0.722213
vt 0.254350 0.722213
vt 0.254350 0.918412
vt 0.058150 0.918412
vt 0.058150 0.722213
vt 0.254350 0.722213
vt 0.058150 0.918412
vt 0.254350 0.722213
vt 0.254350 0.918412
vt 0.058150 0.722213
vt 0.254350 0.722213
vt 0.254350 0.918412
vt 0.058150 0.918412
vt 0.058150 0.722213
vt 0.254350 0.918412
vt 0.058150 0.722213
vt 0.254350 0.722213
vt 0.254350 0.918412
vt 0.058150 0.918412
vt 0.058150 0.722213
vt 0.254350 0.722213
vt 0.058150 0.918412
vt 0.254350 0.722213
vt 0.254350 0.918412
vn 0.0530 -0.1671 -0.9845
vn 0.2637 0.8445 -0.4661
vn -0.1599 -0.8243 -0.5431
vn 0.2006 0.4469 -0.8718
vn 0.1248 0.7351 0.6664
vn 0.8787 0.0839 -0.4700
vn -0.0294 0.8176 0.5750
vn 0.5916 -0.4554 -0.6653
vn 0.8310 0.5408 -0.1299
vn -0.1104 -0.8508 -0.5138
vn 0.8951 -0.3422 0.2858
vn -0.0332 0.9146 0.4031
vn 0.6046 -0.7939 -0.0651
vn 0.8448 0.1843 0.5024
vn -0.1092 -0.8819 -0.4585
vn 0.2375 -0.5107 0.8263
vn 0.1164 0.9529 0.2801
vn 0.0823 -0.9277 0.3643
vn 0.2946 0.0433 0.9546
vn -0.1572 -0.8942 -0.4191
vn -0.5989 -0.2946 0.7446
vn 0.3067 0.9037 0.2987
vn -0.5821 -0.7560 0.2994
vn -0.4053 0.2241 0.8863
vn -0.2183 -0.8785 -0.4250
vn -0.9844 0.1433 0.1022
vn 0.3944 0.8041 0.4449
vn -0.8882 -0.4082 -0.2109
vn -0.7278 0.5905 0.3488
vn -0.2465 -0.8465 -0.4720
vn -0.6286 0.4733 -0.6172
vn 0.3134 0.7290 0.6085
vn -0.6056 -0.1461 -0.7823
vn -0.4300 0.8666 -0.2531
vn -0.2205 -0.8224 -0.5245
usemtl None
s off
f 4/1/1 3/2/1 8/3/1 9/4/1
f 2/5/2 1/6/2 6/7/2 7/8/2
f 5/9/3 4/10/3 9/11/3
f 3/12/4 2/13/4 7/14/4 8/15/4
f 1/16/5 18/17/5 6/7/5
f 8/18/6 7/19/6 11/20/6 12/21/6
f 6/22/7 18/17/7 10/23/7
f 9/24/8 8/25/8 12/26/8 13/27/8
f 7/28/9 6/29/9 10/23/9 11/30/9
f 5/9/10 9/31/10 13/32/10
f 12/33/11 11/34/11 15/35/11 16/36/11
f 10/37/12 18/17/12 14/38/12
f 13/39/13 12/40/13 16/41/13 17/42/13
f 11/43/14 10/44/14 14/38/14 15/45/14
f 5/9/15 13/46/15 17/47/15
f 16/48/16 15/49/16 20/50/16 21/51/16
f 14/52/17 18/17/17 19/53/17
f 17/54/18 16/55/18 21/56/18 22/57/18
f 15/58/19 14/59/19 19/53/19 20/60/19
f 5/9/20 17/61/20 22/62/20
f 21/63/21 20/64/21 24/65/21 25/66/21
f 19/67/22 18/17/22 23/68/22
f 22/69/23 21/70/23 25/71/23 26/72/23
f 20/73/24 19/74/24 23/68/24 24/75/24
f 5/9/25 22/76/25 26/77/25
f 25/78/26 24/79/26 28/80/26 29/81/26
f 23/82/27 18/17/27 27/83/27
f 26/84/28 25/85/28 29/86/28 30/87/28
f 24/88/29 23/89/29 27/83/29 28/90/29
f 5/9/30 26/91/30 30/92/30
f 29/93/31 28/94/31 2/95/31 3/96/31
f 27/97/32 18/17/32 1/98/32
f 30/99/33 29/100/33 3/101/33 4/102/33
f 28/103/34 27/104/34 1/98/34 2/105/34
f 5/9/35 30/106/35 4/107/35
