# Blender v2.79 (sub 0) OBJ File: 'axe.blend'
# www.blender.org
o Cylinder.038_Cylinder.000
v -0.004060 1.169768 -0.072311
v 0.052286 1.169768 -0.045176
v 0.066203 1.169768 0.015796
v 0.027210 1.169768 0.064691
v -0.035330 1.169768 0.064691
v -0.074323 1.169768 0.015796
v -0.060406 1.169768 -0.045176
v -0.004060 0.222368 -0.087256
v 0.063970 0.222368 -0.054493
v 0.080773 0.222368 0.019122
v 0.033694 0.222368 0.078156
v -0.041814 0.222368 0.078156
v -0.088893 0.222368 0.019122
v -0.072090 0.222368 -0.054493
v 0.047928 -1.060449 -0.041699
v 0.060767 -1.060449 0.014556
v 0.024791 -1.060449 0.059669
v -0.032910 -1.060449 0.059669
v -0.068887 -1.060449 0.014556
v -0.056048 -1.060449 -0.041699
v -0.004060 -1.060449 -0.066735
v -0.004060 -1.060449 -0.000241
v -0.435463 0.648997 -0.000241
v -0.435463 1.167277 -0.000241
v 0.427343 0.648997 -0.000241
v 0.427343 1.167277 -0.000241
v -0.004060 0.725141 -0.097652
v -0.004060 1.091134 -0.097652
v -0.004060 0.725141 0.097170
v -0.004060 1.091134 0.097170
v -0.497616 0.778567 -0.000241
v -0.524291 0.908137 -0.000241
v -0.497616 1.037707 -0.000241
v 0.489496 1.037707 -0.000241
v 0.516171 0.908137 -0.000241
v 0.489496 0.778567 -0.000241
v -0.004060 0.999635 0.097170
v -0.004060 0.908137 0.097170
v -0.004060 0.816639 0.097170
v -0.004060 0.999635 -0.097652
v -0.004060 0.908137 -0.097652
v -0.004060 0.816639 -0.097652
v -0.219761 0.706546 -0.084041
v -0.219761 1.109728 0.083559
v -0.219761 1.109728 -0.084041
v -0.219761 0.706546 0.083559
v -0.250838 0.807342 -0.084041
v -0.264176 0.908137 -0.084041
v -0.250838 1.008933 -0.084041
v -0.250838 0.807342 0.083559
v -0.264176 0.908137 0.083559
v -0.250838 1.008933 0.083559
v 0.211641 1.109728 -0.084041
v 0.211641 0.706546 0.083559
v 0.211641 0.706546 -0.084041
v 0.211641 1.109728 0.083559
v 0.242719 0.807342 0.083559
v 0.256056 0.908137 0.083559
v 0.242719 1.008933 0.083559
v 0.242719 0.807342 -0.084041
v 0.256056 0.908137 -0.084041
v 0.242719 1.008933 -0.084041
vt 0.676806 0.890916
vt 0.851278 0.672314
vt 0.878211 0.790305
vt 0.598515 0.790195
vt 0.802751 0.884932
vt 0.628449 0.666183
vt 0.681721 0.884932
vt 0.744071 0.612268
vt 0.606262 0.790304
vt 0.858311 0.669050
vt 0.633198 0.672311
vt 0.885146 0.793770
vt 0.742240 0.619796
vt 0.804366 0.892508
vt 0.691965 0.715611
vt 0.745029 0.692746
vt 0.676757 0.771352
vt 0.710858 0.817999
vt 0.768585 0.820422
vt 0.806474 0.776801
vt 0.795993 0.719978
vt 0.742237 0.759273
vt 0.048898 0.708295
vt 0.289611 0.708295
vt 0.289611 0.949007
vt 0.048898 0.949007
vt 0.048898 0.708295
vt 0.289611 0.708295
vt 0.289611 0.949007
vt 0.048898 0.949007
vt 0.048898 0.708295
vt 0.289611 0.708295
vt 0.289611 0.949007
vt 0.048898 0.708295
vt 0.289611 0.708295
vt 0.289611 0.949007
vt 0.048898 0.708295
vt 0.289611 0.708295
vt 0.289611 0.949007
vt 0.048898 0.949007
vt 0.048898 0.708295
vt 0.289611 0.708295
vt 0.289611 0.949007
vt 0.048898 0.949007
vt 0.048898 0.708295
vt 0.289611 0.708295
vt 0.048898 0.949007
vt 0.048898 0.708295
vt 0.289611 0.708295
vt 0.289611 0.949007
vt 0.048898 0.949007
vt 0.289611 0.708295
vt 0.289611 0.949007
vt 0.048898 0.949007
vt 0.048898 0.708295
vt 0.289611 0.708295
vt 0.289611 0.949007
vt 0.048898 0.949007
vt 0.048898 0.708295
vt 0.289611 0.708295
vt 0.289611 0.949007
vt 0.048898 0.949007
vt 0.048898 0.708295
vt 0.289611 0.708295
vt 0.289611 0.949007
vt 0.048898 0.949007
vt 0.048898 0.708295
vt 0.289611 0.708295
vt 0.289611 0.949007
vt 0.048898 0.949007
vt 0.048898 0.708295
vt 0.289611 0.708295
vt 0.289611 0.949007
vt 0.048898 0.949007
vt 0.048898 0.708295
vt 0.289611 0.708295
vt 0.289611 0.949007
vt 0.048898 0.949007
vt 0.048898 0.708295
vt 0.289611 0.708295
vt 0.289611 0.949007
vt 0.048898 0.949007
vt 0.048898 0.708295
vt 0.289611 0.708295
vt 0.289611 0.949007
vt 0.048898 0.949007
vt 0.289611 0.708295
vt 0.289611 0.949007
vt 0.048898 0.949007
vt 0.048898 0.708295
vt 0.289611 0.708295
vt 0.289611 0.949007
vt 0.048898 0.949007
vt 0.048898 0.708295
vt 0.289611 0.708295
vt 0.289611 0.949007
vt 0.048898 0.949007
vt 0.048898 0.708295
vt 0.289611 0.708295
vt 0.289611 0.949007
vt 0.048898 0.949007
vt 0.048898 0.708295
vt 0.289611 0.708295
vt 0.289611 0.949007
vt 0.048898 0.949007
vt 0.048898 0.708295
vt 0.289611 0.708295
vt 0.289611 0.949007
vt 0.048898 0.708295
vt 0.289611 0.708295
vt 0.289611 0.949007
vt 0.048898 0.949007
vt 0.048898 0.708295
vt 0.289611 0.708295
vt 0.289611 0.949007
vt 0.048898 0.949007
vt 0.048898 0.708295
vt 0.289611 0.708295
vt 0.289611 0.949007
vt 0.048898 0.949007
vt 0.048898 0.708295
vt 0.289611 0.949007
vt 0.048898 0.949007
vt 0.289611 0.708295
vt 0.289611 0.949007
vt 0.048898 0.708295
vt 0.048898 0.949007
vt 0.048898 0.708295
vt 0.289611 0.708295
vt 0.048898 0.949007
vt 0.048898 0.708295
vt 0.289611 0.708295
vt 0.289611 0.949007
vt 0.048898 0.949007
vt 0.048898 0.708295
vt 0.289611 0.708295
vt 0.289611 0.949007
vt 0.048898 0.949007
vt 0.048898 0.708295
vt 0.289611 0.708295
vt 0.289611 0.949007
vt 0.048898 0.949007
vt 0.048898 0.708295
vt 0.289611 0.708295
vt 0.289611 0.949007
vt 0.048898 0.949007
vt 0.048898 0.708295
vt 0.289611 0.708295
vt 0.289611 0.949007
vt 0.048898 0.949007
vt 0.048898 0.708295
vt 0.289611 0.708295
vt 0.289611 0.949007
vt 0.048898 0.949007
vt 0.048898 0.708295
vt 0.289611 0.708295
vt 0.289611 0.949007
vt 0.048898 0.949007
vt 0.048898 0.708295
vt 0.289611 0.708295
vt 0.048898 0.708295
vt 0.289611 0.949007
vt 0.048898 0.949007
vn 0.4338 0.0142 -0.9009
vn 0.9748 0.0142 -0.2225
vn 0.7818 0.0142 0.6234
vn 0.0000 0.0142 0.9999
vn -0.7818 0.0142 0.6234
vn -0.9748 0.0142 -0.2225
vn -0.4338 0.0142 -0.9009
vn -0.4338 -0.0144 -0.9009
vn -0.9748 -0.0144 -0.2225
vn -0.7817 -0.0144 0.6234
vn 0.0000 -0.0144 0.9999
vn 0.7817 -0.0144 0.6234
vn 0.9748 -0.0144 -0.2225
vn 0.4338 -0.0144 -0.9009
vn 0.0000 -1.0000 -0.0000
vn 0.3151 0.1276 -0.9404
vn 0.3167 0.1282 -0.9398
vn -0.3151 0.1276 0.9404
vn -0.3167 0.1282 0.9398
vn -0.2578 -0.9662 0.0000
vn 0.2578 0.9662 0.0000
vn -0.0859 0.9963 0.0000
vn 0.0859 -0.9963 0.0000
vn 0.0590 0.0111 0.9982
vn 0.0582 0.0094 0.9983
vn -0.0590 0.0111 -0.9982
vn -0.0582 0.0094 -0.9983
vn -0.0582 -0.0094 -0.9983
vn -0.0586 -0.0076 -0.9983
vn -0.0553 -0.0040 -0.9985
vn -0.0536 -0.0037 -0.9986
vn -0.0536 0.0037 -0.9986
vn -0.0521 0.0048 -0.9986
vn 0.0582 -0.0094 0.9983
vn 0.0586 -0.0076 0.9983
vn 0.0553 -0.0040 0.9985
vn 0.0536 -0.0037 0.9986
vn 0.0536 0.0037 0.9986
vn 0.0521 0.0048 0.9986
vn -0.3167 -0.1282 0.9398
vn -0.3181 -0.1272 0.9395
vn -0.3098 -0.0524 0.9494
vn -0.3107 -0.0540 0.9490
vn -0.3107 0.0540 0.9490
vn -0.3103 0.0558 0.9490
vn 0.3167 -0.1282 -0.9398
vn 0.3181 -0.1272 -0.9395
vn 0.3098 -0.0524 -0.9494
vn 0.3107 -0.0540 -0.9490
vn 0.3107 0.0540 -0.9490
vn 0.3103 0.0558 -0.9490
vn -0.0536 0.0037 0.9986
vn -0.0553 0.0040 0.9985
vn -0.0536 -0.0037 0.9986
vn -0.0521 -0.0048 0.9986
vn -0.0582 -0.0094 0.9983
vn -0.0590 -0.0111 0.9982
vn -0.3107 0.0540 -0.9490
vn -0.3098 0.0524 -0.9494
vn -0.3107 -0.0540 -0.9490
vn -0.3103 -0.0558 -0.9490
vn -0.3167 -0.1282 -0.9398
vn -0.3151 -0.1276 -0.9404
vn -0.3167 0.1282 -0.9398
vn -0.3181 0.1272 -0.9395
vn 0.2578 -0.9662 0.0000
vn 0.0859 0.9963 0.0000
vn -0.0582 0.0094 0.9983
vn -0.0586 0.0076 0.9983
vn 0.0536 0.0037 -0.9986
vn 0.0553 0.0040 -0.9985
vn 0.0536 -0.0037 -0.9986
vn 0.0521 -0.0048 -0.9986
vn 0.0582 -0.0094 -0.9983
vn 0.0590 -0.0111 -0.9982
vn 0.3107 0.0540 0.9490
vn 0.3098 0.0524 0.9494
vn 0.3107 -0.0540 0.9490
vn 0.3103 -0.0558 0.9490
vn 0.3167 -0.1282 0.9398
vn 0.3151 -0.1276 0.9404
vn 0.3167 0.1282 0.9398
vn 0.3181 0.1272 0.9395
vn -0.2578 0.9662 0.0000
vn -0.0859 -0.9963 0.0000
vn 0.0582 0.0094 -0.9983
vn 0.0586 0.0076 -0.9983
s off
f 8/1/1 1/2/1 2/3/1 9/4/1
f 9/4/2 2/3/2 3/5/2 10/6/2
f 10/6/3 3/5/3 4/7/3 11/8/3
f 11/8/4 4/7/4 5/9/4 12/10/4
f 12/10/5 5/9/5 6/11/5 13/12/5
f 13/12/6 6/11/6 7/13/6 14/14/6
f 14/14/7 7/13/7 1/2/7 8/1/7
f 20/15/8 14/14/8 8/1/8 21/16/8
f 19/17/9 13/12/9 14/14/9 20/15/9
f 18/18/10 12/10/10 13/12/10 19/17/10
f 17/19/11 11/8/11 12/10/11 18/18/11
f 16/20/12 10/6/12 11/8/12 17/19/12
f 15/21/13 9/4/13 10/6/13 16/20/13
f 21/16/14 8/1/14 9/4/14 15/21/14
f 15/21/15 16/20/15 22/22/15
f 20/15/15 21/16/15 22/22/15
f 18/18/15 19/17/15 22/22/15
f 16/20/15 17/19/15 22/22/15
f 21/16/15 15/21/15 22/22/15
f 19/17/15 20/15/15 22/22/15
f 17/19/15 18/18/15 22/22/15
f 62/23/16 53/24/17 26/25/17 34/26/17
f 52/27/18 44/28/19 24/29/19 33/30/19
f 55/31/20 25/32/20 54/33/20
f 45/34/21 24/35/21 44/36/21
f 53/37/22 28/38/22 30/39/22 56/40/22
f 43/41/23 27/42/23 29/43/23 46/44/23
f 59/45/24 56/46/25 30/39/25 37/47/25
f 49/48/26 45/49/27 28/50/27 40/51/27
f 43/41/28 47/52/29 42/53/28 27/54/28
f 47/55/30 48/56/31 41/57/31 42/58/31
f 48/59/32 49/60/33 40/61/32 41/62/32
f 54/63/34 57/64/35 39/65/34 29/66/34
f 57/67/36 58/68/37 38/69/37 39/70/37
f 58/71/38 59/72/39 37/73/38 38/74/38
f 46/75/40 50/76/41 31/77/40 23/78/40
f 50/79/42 51/80/43 32/81/43 31/82/43
f 51/83/44 52/84/45 33/85/44 32/86/44
f 55/31/46 60/87/47 36/88/46 25/89/46
f 60/90/48 61/91/49 35/92/49 36/93/49
f 61/94/50 62/95/51 34/96/50 35/97/50
f 38/98/52 37/99/52 52/100/53 51/101/52
f 39/102/54 38/103/54 51/104/54 50/105/55
f 29/106/56 39/107/56 50/108/57 46/44/56
f 32/109/58 33/110/58 49/111/59 48/112/58
f 31/113/60 32/114/60 48/115/60 47/116/61
f 23/117/62 31/118/62 47/119/63 43/120/62
f 33/121/64 24/35/64 45/122/64 49/123/65
f 23/117/66 43/124/66 46/125/66
f 28/126/67 45/49/67 44/36/67 30/127/67
f 37/128/68 30/129/68 44/36/68 52/130/69
f 41/131/70 40/132/70 62/133/71 61/134/70
f 42/135/72 41/136/72 61/137/72 60/138/73
f 27/139/74 42/140/74 60/141/75 55/142/74
f 35/143/76 34/144/76 59/145/77 58/146/76
f 36/147/78 35/148/78 58/149/78 57/150/79
f 25/151/80 36/152/80 57/153/81 54/154/80
f 34/155/82 26/156/82 56/157/82 59/158/83
f 26/159/84 53/24/84 56/157/84
f 27/139/85 55/160/85 54/33/85 29/66/85
f 40/161/86 28/38/86 53/162/86 62/163/87
