# Blender v2.79 (sub 0) OBJ File: 'bench_001.blend'
# www.blender.org
mtllib bench_001.mtl
o Cube.136_Cube.157
v -0.448479 0.499281 2.209525
v -0.448479 0.682162 2.209525
v -0.448479 0.499281 -2.089942
v -0.448479 0.682162 -2.089942
v 0.458381 0.499281 -2.089942
v 0.458381 0.682162 -2.089942
v -0.351175 0.001085 -1.558520
v -0.351175 0.550951 -1.558520
v -0.351175 0.001085 -1.761615
v -0.351175 0.550951 -1.761615
v 0.338504 0.001085 -1.558520
v 0.338504 0.550951 -1.558520
v 0.338504 0.001085 -1.761615
v 0.338504 0.550951 -1.761615
v -0.351175 0.001085 1.892514
v -0.351175 0.550951 1.892514
v -0.351175 0.001085 1.689424
v -0.351175 0.550951 1.689424
v 0.338504 0.001085 1.892514
v 0.338504 0.550951 1.892514
v 0.338504 0.001085 1.689424
v 0.338504 0.550951 1.689424
v 0.050339 0.216961 2.037908
v 0.050339 0.497808 2.037908
v -0.063010 0.216961 2.037908
v -0.063010 0.497808 2.037908
v 0.050339 0.216961 -1.886866
v 0.050339 0.497808 -1.886866
v -0.063010 0.216961 -1.886866
v -0.063010 0.497808 -1.886866
v -0.185940 0.499281 2.209525
v -0.185940 0.682162 2.209525
v -0.237429 0.499281 -2.089942
v -0.134451 0.499281 -2.089942
v -0.185940 0.499281 -1.945315
v -0.134451 0.682162 -2.089942
v -0.237429 0.682162 -2.089942
v -0.185940 0.682162 -1.945315
v 0.458381 0.506247 2.050555
v 0.299413 0.499281 2.209525
v 0.433275 0.499281 1.926469
v 0.458381 0.499281 1.924474
v 0.299413 0.637041 2.209525
v 0.458381 0.682162 2.050555
v 0.433275 0.682162 2.052550
v 0.299413 0.682162 2.209525
vt 0.039112 0.644465
vt 0.355535 0.644465
vt 0.355535 0.960888
vt 0.039112 0.644465
vt 0.355535 0.644465
vt 0.355535 0.960888
vt 0.039112 0.644465
vt 0.355535 0.644465
vt 0.355535 0.960888
vt 0.039112 0.644465
vt 0.039112 0.644465
vt 0.355535 0.644465
vt 0.355535 0.960888
vt 0.039112 0.644465
vt 0.355535 0.644465
vt 0.355535 0.960888
vt 0.039112 0.644465
vt 0.355535 0.644465
vt 0.355535 0.960888
vt 0.039112 0.644465
vt 0.355535 0.644465
vt 0.355535 0.960888
vt 0.039112 0.644465
vt 0.355535 0.644465
vt 0.355535 0.960888
vt 0.039112 0.644465
vt 0.355535 0.644465
vt 0.355535 0.960888
vt 0.039112 0.644465
vt 0.355535 0.644465
vt 0.355535 0.960888
vt 0.039112 0.644465
vt 0.355535 0.644465
vt 0.355535 0.960888
vt 0.039112 0.644465
vt 0.355535 0.644465
vt 0.355535 0.960888
vt 0.039112 0.644465
vt 0.355535 0.644465
vt 0.355535 0.960888
vt 0.039112 0.644465
vt 0.355535 0.644465
vt 0.355535 0.960888
vt 0.039112 0.644465
vt 0.355535 0.644465
vt 0.355535 0.960888
vt 0.039112 0.644465
vt 0.355535 0.644465
vt 0.355535 0.960888
vt 0.039112 0.644465
vt 0.355535 0.644465
vt 0.355535 0.960888
vt 0.039112 0.644465
vt 0.355535 0.644465
vt 0.355535 0.960888
vt 0.039112 0.644465
vt 0.355535 0.644465
vt 0.355535 0.960888
vt 0.039112 0.644465
vt 0.355535 0.644465
vt 0.355535 0.960888
vt 0.039112 0.644465
vt 0.355535 0.644465
vt 0.355535 0.960888
vt 0.039112 0.960888
vt 0.039112 0.644465
vt 0.355535 0.644465
vt 0.355535 0.960888
vt 0.039112 0.960888
vt 0.039112 0.644465
vt 0.355535 0.644465
vt 0.355535 0.960888
vt 0.355535 0.644465
vt 0.355535 0.644465
vt 0.355535 0.960888
vt 0.355535 0.644465
vt 0.355535 0.644465
vt 0.355535 0.960888
vt 0.039112 0.960888
vt 0.355535 0.960888
vt 0.039112 0.644465
vt 0.355535 0.644465
vt 0.039112 0.960888
vt 0.039112 0.644465
vt 0.355535 0.644465
vt 0.355535 0.644465
vt 0.355535 0.644465
vt 0.355535 0.960888
vt 0.355535 0.644465
vt 0.355535 0.644465
vt 0.355535 0.644465
vt 0.355535 0.960888
vt 0.355535 0.644465
vt 0.355535 0.644465
vt 0.355535 0.644465
vt 0.355535 0.960888
vt 0.355535 0.960888
vt 0.039112 0.644465
vt 0.355535 0.644465
vt 0.355535 0.960888
vt 0.039112 0.644465
vt 0.355535 0.644465
vt 0.355535 0.960888
vt 0.039112 0.960888
vt 0.355535 0.960888
vt 0.039112 0.644465
vt 0.355535 0.644465
vt 0.355535 0.960888
vt 0.355535 0.960888
vt 0.039112 0.644465
vt 0.355535 0.644465
vt 0.039112 0.960888
vt 0.355535 0.960888
vt 0.039112 0.960888
vt 0.039112 0.960888
vt 0.039112 0.644465
vt 0.355535 0.644465
vt 0.039112 0.960888
vn -1.0000 0.0000 0.0000
vn 0.0000 0.0000 1.0000
vn 0.0000 -1.0000 0.0000
vn 0.0000 0.0000 -1.0000
vn 1.0000 0.0000 0.0000
vn 0.0000 1.0000 0.0000
vn 0.9421 0.0000 -0.3354
vn -0.9421 0.0000 -0.3354
vn 0.0736 -0.9964 0.0410
vn 0.6649 0.3405 0.6648
vn 0.7071 0.0000 0.7071
usemtl None
s off
f 2/1/1 3/2/1 1/3/1
f 43/4/2 31/5/2 40/6/2
f 32/7/2 1/8/2 31/9/2
f 35/10/3 31/5/3 1/3/3
f 8/11/1 9/12/1 7/13/1
f 10/14/4 13/15/4 9/16/4
f 14/17/5 11/18/5 13/19/5
f 12/20/2 7/21/2 11/22/2
f 13/23/3 7/21/3 9/16/3
f 10/14/6 12/24/6 14/25/6
f 16/26/1 17/27/1 15/28/1
f 18/29/4 21/30/4 17/31/4
f 22/32/5 19/33/5 21/34/5
f 20/35/2 15/36/2 19/37/2
f 21/38/3 15/36/3 17/31/3
f 18/29/6 20/39/6 22/40/6
f 24/41/2 25/42/2 23/43/2
f 26/44/1 29/45/1 25/46/1
f 30/47/4 27/48/4 29/49/4
f 28/50/5 23/51/5 27/52/5
f 29/53/3 23/51/3 25/46/3
f 26/44/6 28/54/6 30/55/6
f 4/56/6 2/57/6 38/58/6
f 36/59/4 5/60/4 34/61/4
f 31/62/3 35/63/3 41/64/3 40/65/3
f 6/66/5 39/67/5 42/68/5 5/69/5
f 33/70/7 38/71/7 35/72/7
f 35/10/8 36/73/8 34/61/8
f 4/56/4 33/74/4 3/75/4
f 2/1/1 4/76/1 3/75/1
f 43/4/2 46/77/2 32/78/2 31/79/2
f 36/59/6 38/71/6 6/80/6
f 45/81/6 44/82/6 6/80/6 38/83/6
f 32/7/2 2/57/2 1/3/2
f 1/84/3 3/2/3 35/72/3
f 33/70/3 35/63/3 3/75/3
f 8/11/1 10/85/1 9/16/1
f 10/14/4 14/86/4 13/19/4
f 14/17/5 12/24/5 11/22/5
f 12/20/2 8/87/2 7/13/2
f 13/23/3 11/18/3 7/13/3
f 10/14/6 8/87/6 12/88/6
f 16/26/1 18/89/1 17/31/1
f 18/29/4 22/90/4 21/34/4
f 22/32/5 20/39/5 19/37/5
f 20/35/2 16/91/2 15/28/2
f 21/38/3 19/33/3 15/28/3
f 18/29/6 16/91/6 20/92/6
f 24/41/2 26/93/2 25/46/2
f 26/44/1 30/94/1 29/49/1
f 30/47/4 28/54/4 27/52/4
f 28/50/5 24/95/5 23/43/5
f 29/53/3 27/48/3 23/43/3
f 26/44/6 24/95/6 28/96/6
f 32/7/6 38/71/6 2/97/6
f 37/98/6 4/76/6 38/58/6
f 36/59/4 6/99/4 5/100/4
f 38/101/6 32/102/6 46/103/6 45/104/6
f 6/66/5 44/82/5 39/105/5
f 34/106/3 5/60/3 35/72/3
f 33/70/7 37/107/7 38/58/7
f 35/10/8 38/71/8 36/108/8
f 4/56/4 37/107/4 33/109/4
f 39/110/9 40/111/9 41/64/9 42/112/9
f 43/4/10 44/82/10 45/113/10 46/114/10
f 43/4/11 40/111/11 39/105/11 44/115/11
f 5/116/3 42/117/3 41/64/3 35/118/3
