# Blender v2.79 (sub 0) OBJ File: 'bottle_002.blend'
# www.blender.org
mtllib bottle_002.mtl
o Cylinder.019
v -0.001508 0.000141 -0.170704
v -0.001508 0.537978 -0.068218
v 0.113572 0.000141 -0.128818
v 0.047694 0.537978 -0.050308
v 0.174805 0.000141 -0.022762
v 0.073874 0.537978 -0.004963
v 0.153539 0.000141 0.097844
v 0.064782 0.537978 0.046601
v 0.059724 0.000141 0.176564
v 0.024672 0.537978 0.080258
v -0.062741 0.000141 0.176564
v -0.027688 0.537978 0.080258
v -0.156555 0.000141 0.097844
v -0.067798 0.537978 0.046601
v -0.177821 0.000141 -0.022762
v -0.076890 0.537978 -0.004963
v -0.116588 0.000141 -0.128818
v -0.050710 0.537978 -0.050308
v -0.001508 0.158891 -0.168052
v -0.001508 0.320939 -0.168052
v 0.111867 0.320939 -0.126785
v 0.111867 0.158891 -0.126785
v 0.172192 0.320939 -0.022300
v 0.172192 0.158891 -0.022300
v 0.151241 0.320939 0.096516
v 0.151241 0.158891 0.096516
v 0.058817 0.320939 0.174069
v 0.058817 0.158891 0.174069
v -0.061834 0.320939 0.174069
v -0.061834 0.158891 0.174069
v -0.154257 0.320939 0.096516
v -0.154257 0.158891 0.096516
v -0.175208 0.320939 -0.022300
v -0.175208 0.158891 -0.022300
v -0.114883 0.320939 -0.126785
v -0.114883 0.158891 -0.126785
v -0.001508 0.443155 -0.078098
v 0.054044 0.443155 -0.057876
v 0.083603 0.443155 -0.006679
v 0.073338 0.443155 0.051541
v 0.028051 0.443155 0.089539
v -0.031067 0.443155 0.089539
v -0.076354 0.443155 0.051541
v -0.086620 0.443155 -0.006679
v -0.057061 0.443155 -0.057876
v 0.039158 0.558151 -0.040138
v -0.001508 0.558151 -0.054939
v 0.060797 0.558151 -0.002658
v 0.053282 0.558151 0.039959
v 0.020130 0.558151 0.067780
v -0.023146 0.558151 0.067780
v -0.056298 0.558151 0.039959
v -0.063813 0.558151 -0.002658
v -0.042175 0.558151 -0.040138
v 0.060123 0.544794 -0.065120
v -0.001508 0.544794 -0.087555
v 0.092916 0.544794 -0.008323
v 0.081527 0.544794 0.056267
v 0.031285 0.544794 0.098427
v -0.034301 0.544794 0.098427
v -0.084544 0.544794 0.056267
v -0.095932 0.544794 -0.008323
v -0.063139 0.544794 -0.065120
v 0.060123 0.564967 -0.065120
v -0.001508 0.564967 -0.087555
v 0.092916 0.564967 -0.008323
v 0.081527 0.564967 0.056267
v 0.031285 0.564967 0.098427
v -0.034301 0.564967 0.098427
v -0.084544 0.564967 0.056267
v -0.095932 0.564967 -0.008323
v -0.063139 0.564967 -0.065120
v 0.085093 0.022251 -0.094879
v -0.001508 0.022251 -0.126400
v 0.131173 0.022251 -0.015068
v 0.115169 0.022251 0.075692
v 0.044572 0.022251 0.134930
v -0.047588 0.022251 0.134930
v -0.118186 0.022251 0.075692
v -0.134189 0.022251 -0.015068
v -0.088109 0.022251 -0.094879
vt 0.760862 0.846870
vt 0.788463 0.836643
vt 0.794812 0.842193
vt 0.779354 0.868641
vt 0.802520 0.842877
vt 0.808277 0.875629
vt 0.808314 0.838246
vt 0.834702 0.860106
vt 0.809944 0.831400
vt 0.845566 0.831082
vt 0.807128 0.825290
vt 0.832775 0.804157
vt 0.801433 0.821609
vt 0.807300 0.789191
vt 0.794243 0.822513
vt 0.777720 0.794465
vt 0.807755 0.831407
vt 0.805730 0.826426
vt 0.789132 0.828165
vt 0.760725 0.818007
vt 0.169062 0.827155
vt 0.179452 0.822852
vt 0.191188 0.826151
vt 0.198426 0.835290
vt 0.197008 0.846153
vt 0.189066 0.854046
vt 0.177396 0.855107
vt 0.167343 0.848455
vt 0.164784 0.836959
vt 0.133566 0.832966
vt 0.149636 0.804007
vt 0.045987 0.815397
vt 0.094122 0.733704
vt 0.143100 0.863885
vt 0.064553 0.908074
vt 0.167662 0.883264
vt 0.135781 0.966820
vt 0.199756 0.882463
vt 0.228737 0.966820
vt 0.224476 0.860761
vt 0.300022 0.906195
vt 0.225929 0.829096
vt 0.313388 0.814499
vt 0.209700 0.803031
vt 0.267757 0.736485
vt 0.179730 0.792772
vt 0.182369 0.703905
vt 0.678340 0.787988
vt 0.678340 0.875056
vt 0.732706 0.719246
vt 0.820830 0.700072
vt 0.904449 0.744561
vt 0.937880 0.836035
vt 0.900896 0.923577
vt 0.819195 0.963991
vt 0.731739 0.943238
vt 0.800371 0.827352
vt 0.802851 0.828813
vt 0.799448 0.831027
vt 0.799498 0.831246
vt 0.797482 0.827972
vt 0.795454 0.830260
vt 0.793414 0.829579
vt 0.796369 0.826038
vt 0.800761 0.825442
vt 0.801023 0.823822
vt 0.795455 0.824599
vt 0.795938 0.839819
vt 0.801957 0.840820
vt 0.804531 0.827471
vt 0.791647 0.829039
vt 0.791552 0.835315
vt 0.806436 0.836848
vt 0.804052 0.831425
vt 0.806139 0.831467
vt 0.805044 0.835860
vt 0.793267 0.834431
vt 0.796595 0.838079
vt 0.801507 0.839648
vt 0.795520 0.833426
vt 0.797518 0.835910
vt 0.800673 0.836457
vt 0.803374 0.834401
vt 0.799896 0.831149
vt 0.799833 0.831385
vt 0.799732 0.831438
vt 0.799613 0.831389
vt 0.799381 0.830636
vt 0.799407 0.829978
vt 0.799813 0.830681
vn 0.3404 0.0974 -0.9352
vn 0.8619 0.0974 -0.4976
vn 0.9801 0.0974 0.1728
vn 0.6397 0.0974 0.7624
vn 0.0000 0.0974 0.9952
vn -0.6397 0.0974 0.7624
vn -0.9801 0.0974 0.1728
vn 0.0000 -0.9363 0.3512
vn -0.8619 0.0974 -0.4976
vn -0.3404 0.0974 -0.9352
vn 0.0000 -1.0000 0.0000
vn -0.3420 0.0157 -0.9396
vn -0.3420 0.0000 -0.9397
vn -0.8659 0.0157 -0.4999
vn -0.8660 0.0000 -0.5000
vn -0.9847 0.0157 0.1736
vn -0.9848 0.0000 0.1737
vn -0.6427 0.0157 0.7659
vn -0.6428 0.0000 0.7660
vn 0.0000 0.0157 0.9999
vn 0.0000 0.0000 1.0000
vn 0.6427 0.0157 0.7659
vn 0.6428 0.0000 0.7660
vn 0.9847 0.0157 0.1736
vn 0.9848 0.0000 0.1737
vn 0.8659 0.0157 -0.4999
vn 0.8660 0.0000 -0.5000
vn 0.3420 0.0157 -0.9396
vn 0.3420 0.0000 -0.9397
vn -0.2813 0.5688 -0.7728
vn -0.7123 0.5688 -0.4112
vn -0.8100 0.5688 0.1428
vn -0.5287 0.5688 0.6300
vn 0.0000 0.5688 0.8224
vn 0.5287 0.5688 0.6300
vn 0.8100 0.5688 0.1428
vn 0.7123 0.5688 -0.4112
vn 0.2813 0.5688 -0.7728
vn 0.6378 -0.1243 -0.7601
vn 0.1880 0.9761 0.1086
vn 0.2138 0.9761 -0.0377
vn -0.3459 -0.9363 0.0610
vn 0.3042 -0.9363 -0.1756
vn 0.1396 0.9761 -0.1663
vn -0.1201 -0.9363 -0.3300
vn 0.2258 -0.9363 0.2691
vn 0.0000 0.9761 -0.2171
vn 0.3421 0.0000 -0.9397
vn -0.3421 0.0000 -0.9397
vn -0.9848 0.0000 0.1736
vn -0.0743 0.9761 0.2040
vn 0.0743 0.9761 0.2040
vn -0.1880 0.9761 0.1086
vn 0.3459 -0.9363 0.0610
vn -0.3042 -0.9363 -0.1756
vn 0.1201 -0.9363 -0.3300
vn -0.2138 0.9761 -0.0377
vn -0.2258 -0.9363 0.2691
vn -0.1396 0.9761 -0.1663
vn 0.0000 1.0000 0.0000
vn -0.9772 -0.1243 -0.1723
vn 0.9772 -0.1243 -0.1723
vn -0.6378 -0.1243 -0.7601
vn -0.3394 -0.1243 0.9324
vn 0.8593 -0.1243 0.4961
vn 0.0000 -0.1243 -0.9922
vn -0.8593 -0.1243 0.4961
vn 0.3394 -0.1243 0.9324
usemtl None
s off
f 37/1/1 2/2/1 4/3/1 38/4/1
f 38/4/2 4/3/2 6/5/2 39/6/2
f 39/6/3 6/5/3 8/7/3 40/8/3
f 40/8/4 8/7/4 10/9/4 41/10/4
f 41/10/5 10/9/5 12/11/5 42/12/5
f 42/12/6 12/11/6 14/13/6 43/14/6
f 43/14/7 14/13/7 16/15/7 44/16/7
f 12/11/8 10/9/8 59/17/8 60/18/8
f 44/16/9 16/15/9 18/19/9 45/20/9
f 45/20/10 18/19/10 2/2/10 37/1/10
f 1/21/11 3/22/11 5/23/11 7/24/11 9/25/11 11/26/11 13/27/11 15/28/11 17/29/11
f 17/29/12 36/30/12 19/31/12 1/21/12
f 36/30/13 35/32/13 20/33/13 19/31/13
f 15/28/14 34/34/14 36/30/14 17/29/14
f 34/34/15 33/35/15 35/32/15 36/30/15
f 13/27/16 32/36/16 34/34/16 15/28/16
f 32/36/17 31/37/17 33/35/17 34/34/17
f 11/26/18 30/38/18 32/36/18 13/27/18
f 30/38/19 29/39/19 31/37/19 32/36/19
f 9/25/20 28/40/20 30/38/20 11/26/20
f 28/40/21 27/41/21 29/39/21 30/38/21
f 7/24/22 26/42/22 28/40/22 9/25/22
f 26/42/23 25/43/23 27/41/23 28/40/23
f 5/23/24 24/44/24 26/42/24 7/24/24
f 24/44/25 23/45/25 25/43/25 26/42/25
f 3/22/26 22/46/26 24/44/26 5/23/26
f 22/46/27 21/47/27 23/45/27 24/44/27
f 1/21/28 19/31/28 22/46/28 3/22/28
f 19/31/29 20/33/29 21/47/29 22/46/29
f 35/48/30 45/20/30 37/1/30 20/49/30
f 33/50/31 44/16/31 45/20/31 35/48/31
f 31/51/32 43/14/32 44/16/32 33/50/32
f 29/52/33 42/12/33 43/14/33 31/51/33
f 27/53/34 41/10/34 42/12/34 29/52/34
f 25/54/35 40/8/35 41/10/35 27/53/35
f 23/55/36 39/6/36 40/8/36 25/54/36
f 21/56/37 38/4/37 39/6/37 23/55/37
f 20/49/38 37/1/38 38/4/38 21/56/38
f 52/57/39 51/58/39 78/59/39 79/60/39
f 53/61/40 54/62/40 72/63/40 71/64/40
f 52/57/41 53/61/41 71/64/41 70/65/41
f 16/15/42 14/13/42 61/66/42 62/67/42
f 6/5/43 4/3/43 55/68/43 57/69/43
f 51/58/44 52/57/44 70/65/44 69/70/44
f 2/2/45 18/19/45 63/71/45 56/72/45
f 10/9/46 8/7/46 58/73/46 59/17/46
f 50/74/47 51/58/47 69/70/47 68/75/47
f 59/17/23 58/73/23 67/76/23 68/75/23
f 55/68/48 56/72/48 65/77/48 64/78/48
f 58/73/25 57/69/25 66/79/25 67/76/25
f 57/69/27 55/68/27 64/78/27 66/79/27
f 56/72/49 63/71/49 72/63/49 65/77/49
f 63/71/15 62/67/15 71/64/15 72/63/15
f 62/67/50 61/66/50 70/65/50 71/64/50
f 61/66/19 60/18/19 69/70/19 70/65/19
f 60/18/21 59/17/21 68/75/21 69/70/21
f 47/80/51 46/81/51 64/78/51 65/77/51
f 54/62/52 47/80/52 65/77/52 72/63/52
f 46/81/53 48/82/53 66/79/53 64/78/53
f 8/7/54 6/5/54 57/69/54 58/73/54
f 18/19/55 16/15/55 62/67/55 63/71/55
f 4/3/56 2/2/56 56/72/56 55/68/56
f 48/82/57 49/83/57 67/76/57 66/79/57
f 14/13/58 12/11/58 60/18/58 61/66/58
f 49/83/59 50/74/59 68/75/59 67/76/59
f 73/84/60 74/85/60 81/86/60 80/87/60 79/60/60 78/59/60 77/88/60 76/89/60 75/90/60
f 49/83/61 48/82/61 75/90/61 76/89/61
f 53/61/62 52/57/62 79/60/62 80/87/62
f 50/74/63 49/83/63 76/89/63 77/88/63
f 46/81/64 47/80/64 74/85/64 73/84/64
f 54/62/65 53/61/65 80/87/65 81/86/65
f 51/58/66 50/74/66 77/88/66 78/59/66
f 48/82/67 46/81/67 73/84/67 75/90/67
f 47/80/68 54/62/68 81/86/68 74/85/68
