# Blender v2.79 (sub 0) OBJ File: 'bush_005.blend'
# www.blender.org
o Icosphere_Icosphere.004
v 0.302905 -0.583280 0.782794
v 2.229007 -0.222132 1.379832
v -0.825221 -0.175101 2.144421
v -2.934983 -0.311205 -0.000000
v -0.906944 -0.177605 -2.102651
v 2.374455 -0.265334 -1.299498
v 0.898034 1.331655 2.108455
v -2.035362 1.234003 1.389556
v -2.374455 1.357130 -1.299498
v 0.906944 1.486290 -2.102651
v 2.664384 1.146834 0.276857
v 0.000000 2.896183 -0.000000
v -0.357183 -0.680243 1.353806
v 1.256633 -0.586549 1.106268
v 0.861195 -0.282453 2.006692
v 2.182982 -0.234612 0.668060
v 1.327542 -0.716800 -0.411284
v -1.411615 -0.731848 0.263709
v -1.118793 -0.171903 1.573348
v -0.526755 -0.804676 -1.220199
v -2.258234 -0.384816 -1.235902
v 0.862581 -0.305343 -1.999731
v 2.545605 0.370969 1.112552
v 2.908940 0.408777 -0.493932
v 0.000143 0.621723 2.473619
v 2.008324 0.570353 1.976616
v -2.884369 0.416582 0.846803
v -1.037195 0.415696 2.070404
v -1.928768 0.540461 -1.999743
v -3.120815 0.430825 -0.763823
v 1.928768 0.540461 -1.999743
v 0.000000 0.622305 -2.471819
v 2.102446 1.387686 1.335909
v -0.484987 1.332333 2.033473
v -2.791328 1.466287 -0.000000
v -0.862581 1.658978 -1.999731
v 2.258234 1.534269 -1.235902
v 0.569847 2.178958 1.348313
v 1.642847 2.151743 0.198296
v -1.262400 2.258523 0.846799
v -1.395660 2.389940 -0.763820
v 0.533084 2.457063 -1.235898
v 0.832413 -0.717239 2.151198
v 2.180379 -0.299032 2.897241
v 0.339100 -0.264358 3.338804
v -0.791046 -0.340087 2.179570
v 0.336154 -0.252373 1.000674
v 2.131663 -0.300376 1.440142
v 1.345879 0.649853 3.339275
v -0.469811 0.563285 2.929762
v -0.466836 0.587400 1.440142
v 1.328673 0.658074 1.000674
v 2.672890 0.629994 2.104963
v 0.832413 1.429536 2.151198
v 0.540722 -0.598034 2.827455
v 1.596087 -0.615874 2.569144
v 1.325083 -0.328388 3.279648
v 2.397180 -0.387851 2.178067
v 1.596087 -0.615874 1.733253
v -0.111544 -0.626323 2.151198
v -0.408605 -0.385330 2.879903
v 0.540722 -0.598034 1.474942
v -0.403243 -0.365754 1.474940
v 1.304399 -0.322269 1.056990
v 2.805708 0.103882 2.713544
v 2.589016 0.097903 1.722031
v 0.851862 0.106207 3.748498
v 2.108547 0.146627 3.403949
v -0.937540 0.028524 2.670164
v -0.203517 0.061423 3.490189
v -0.222966 0.140537 1.056983
v -0.876374 0.079589 1.735110
v 1.887793 0.140537 1.056983
v 0.832413 0.185320 0.798674
v 2.299754 0.694615 2.982551
v 0.379876 0.673451 3.490182
v -0.701453 0.641690 2.161758
v 0.360428 0.752564 1.056990
v 2.079000 0.688525 1.471498
v 1.124105 1.189259 2.827455
v 1.778782 1.131311 2.152336
v 0.069077 1.151158 2.573391
v 0.068739 1.152531 1.733253
v 1.124105 1.189259 1.474942
vt 0.062086 0.694899
vt 0.336351 0.694899
vt 0.336351 0.969164
vt 0.062086 0.694899
vt 0.336351 0.969164
vt 0.336351 0.694899
vt 0.336351 0.969164
vt 0.336351 0.694899
vt 0.336351 0.969164
vt 0.336351 0.694899
vt 0.336351 0.969164
vt 0.336351 0.694899
vt 0.336351 0.969164
vt 0.062086 0.694899
vt 0.336351 0.694899
vt 0.336351 0.969164
vt 0.062086 0.694899
vt 0.336351 0.694899
vt 0.336351 0.969164
vt 0.062086 0.694899
vt 0.336351 0.694899
vt 0.336351 0.969164
vt 0.062086 0.694899
vt 0.336351 0.694899
vt 0.336351 0.969164
vt 0.336351 0.694899
vt 0.336351 0.969164
vt 0.336351 0.694899
vt 0.336351 0.969164
vt 0.336351 0.694899
vt 0.336351 0.969164
vt 0.336351 0.694899
vt 0.336351 0.969164
vt 0.336351 0.694899
vt 0.336351 0.969164
vt 0.062086 0.694899
vt 0.336351 0.694899
vt 0.336351 0.969164
vt 0.062086 0.694899
vt 0.336351 0.694899
vt 0.336351 0.969164
vt 0.062086 0.694899
vt 0.336351 0.694899
vt 0.336351 0.969164
vt 0.062086 0.694899
vt 0.336351 0.694899
vt 0.336351 0.969164
vt 0.062086 0.694899
vt 0.336351 0.694899
vt 0.336351 0.969164
vt 0.062086 0.694899
vt 0.336351 0.694899
vt 0.336351 0.969164
vt 0.062086 0.694899
vt 0.336351 0.694899
vt 0.062086 0.694899
vt 0.336351 0.694899
vt 0.062086 0.694899
vt 0.336351 0.694899
vt 0.062086 0.694899
vt 0.336351 0.694899
vt 0.062086 0.694899
vt 0.336351 0.694899
vt 0.062086 0.694899
vt 0.336351 0.694899
vt 0.062086 0.694899
vt 0.336351 0.694899
vt 0.062086 0.694899
vt 0.336351 0.694899
vt 0.062086 0.694899
vt 0.336351 0.694899
vt 0.062086 0.694899
vt 0.336351 0.969164
vt 0.336351 0.969164
vt 0.062086 0.694899
vt 0.062086 0.694899
vt 0.336351 0.969164
vt 0.336351 0.969164
vt 0.062086 0.694899
vt 0.062086 0.694899
vt 0.336351 0.969164
vt 0.336351 0.969164
vt 0.062086 0.694899
vt 0.062086 0.694899
vt 0.336351 0.969164
vt 0.336351 0.969164
vt 0.062086 0.694899
vt 0.062086 0.694899
vt 0.336351 0.969164
vt 0.336351 0.969164
vt 0.062086 0.694899
vt 0.336351 0.694899
vt 0.062086 0.694899
vt 0.336351 0.694899
vt 0.336351 0.694899
vt 0.062086 0.694899
vt 0.336351 0.694899
vt 0.336351 0.694899
vt 0.062086 0.694899
vt 0.336351 0.694899
vt 0.336351 0.694899
vt 0.062086 0.694899
vt 0.336351 0.694899
vt 0.336351 0.694899
vt 0.062086 0.694899
vt 0.336351 0.694899
vt 0.062086 0.694899
vt 0.336351 0.969164
vt 0.336351 0.969164
vt 0.062086 0.694899
vt 0.336351 0.969164
vt 0.336351 0.969164
vt 0.062086 0.694899
vt 0.336351 0.969164
vt 0.336351 0.969164
vt 0.062086 0.694899
vt 0.336351 0.694899
vt 0.062086 0.694899
vt 0.336351 0.694899
vt 0.336351 0.969164
vt 0.336351 0.969164
vt 0.062086 0.694899
vt 0.336351 0.694899
vt 0.336351 0.969164
vt 0.062086 0.694899
vt 0.336351 0.969164
vt 0.336351 0.694899
vt 0.336351 0.969164
vt 0.336351 0.694899
vt 0.336351 0.969164
vt 0.336351 0.694899
vt 0.336351 0.969164
vt 0.336351 0.694899
vt 0.336351 0.969164
vt 0.062086 0.694899
vt 0.336351 0.694899
vt 0.336351 0.969164
vt 0.062086 0.694899
vt 0.336351 0.694899
vt 0.336351 0.969164
vt 0.062086 0.694899
vt 0.336351 0.694899
vt 0.336351 0.969164
vt 0.062086 0.694899
vt 0.336351 0.694899
vt 0.336351 0.969164
vt 0.336351 0.694899
vt 0.336351 0.969164
vt 0.336351 0.694899
vt 0.336351 0.969164
vt 0.336351 0.694899
vt 0.336351 0.969164
vt 0.336351 0.694899
vt 0.336351 0.969164
vt 0.336351 0.694899
vt 0.336351 0.969164
vt 0.062086 0.694899
vt 0.336351 0.694899
vt 0.336351 0.969164
vt 0.062086 0.694899
vt 0.336351 0.694899
vt 0.336351 0.969164
vt 0.062086 0.694899
vt 0.336351 0.694899
vt 0.336351 0.969164
vt 0.062086 0.694899
vt 0.336351 0.694899
vt 0.336351 0.969164
vt 0.062086 0.694899
vt 0.336351 0.694899
vt 0.336351 0.969164
vt 0.062086 0.694899
vt 0.336351 0.694899
vt 0.336351 0.969164
vt 0.062086 0.694899
vt 0.336351 0.694899
vt 0.062086 0.694899
vt 0.336351 0.694899
vt 0.062086 0.694899
vt 0.336351 0.694899
vt 0.062086 0.694899
vt 0.336351 0.694899
vt 0.062086 0.694899
vt 0.336351 0.694899
vt 0.062086 0.694899
vt 0.336351 0.694899
vt 0.062086 0.694899
vt 0.336351 0.694899
vt 0.062086 0.694899
vt 0.336351 0.694899
vt 0.062086 0.694899
vt 0.336351 0.694899
vt 0.062086 0.694899
vt 0.336351 0.969164
vt 0.336351 0.969164
vt 0.062086 0.694899
vt 0.062086 0.694899
vt 0.336351 0.969164
vt 0.336351 0.969164
vt 0.062086 0.694899
vt 0.062086 0.694899
vt 0.336351 0.969164
vt 0.336351 0.969164
vt 0.062086 0.694899
vt 0.062086 0.694899
vt 0.336351 0.969164
vt 0.336351 0.969164
vt 0.062086 0.694899
vt 0.062086 0.694899
vt 0.336351 0.969164
vt 0.336351 0.969164
vt 0.062086 0.694899
vt 0.336351 0.694899
vt 0.062086 0.694899
vt 0.336351 0.694899
vt 0.336351 0.694899
vt 0.062086 0.694899
vt 0.336351 0.694899
vt 0.336351 0.694899
vt 0.062086 0.694899
vt 0.336351 0.694899
vt 0.336351 0.694899
vt 0.062086 0.694899
vt 0.336351 0.694899
vt 0.336351 0.694899
vt 0.062086 0.694899
vt 0.336351 0.694899
vt 0.062086 0.694899
vt 0.336351 0.969164
vt 0.336351 0.969164
vt 0.062086 0.694899
vt 0.336351 0.969164
vt 0.336351 0.969164
vt 0.062086 0.694899
vt 0.336351 0.969164
vt 0.336351 0.969164
vt 0.062086 0.694899
vt 0.336351 0.694899
vt 0.062086 0.694899
vt 0.336351 0.694899
vt 0.336351 0.969164
vt 0.336351 0.969164
vn 0.0386 -0.9916 -0.1238
vn 0.3525 -0.9358 -0.0064
vn 0.1016 -0.9935 -0.0512
vn 0.0605 -0.9946 0.0849
vn -0.0010 -0.9939 0.1103
vn 0.8721 -0.4871 -0.0478
vn 0.0470 -0.4226 0.9051
vn -0.4635 -0.6581 0.5933
vn -0.4182 -0.4851 -0.7680
vn 0.3795 -0.4783 -0.7920
vn 0.8143 -0.1870 0.5495
vn -0.3601 -0.0123 0.9328
vn -0.9847 -0.0987 0.1437
vn -0.2262 -0.1849 -0.9564
vn 0.8376 -0.0114 -0.5462
vn 0.3644 0.6961 0.6186
vn -0.3329 0.6251 0.7060
vn -0.6284 0.7320 -0.2631
vn 0.0223 0.6706 -0.7415
vn 0.7015 0.7126 -0.0058
vn 0.4225 0.8961 -0.1362
vn 0.4644 0.8682 -0.1745
vn 0.3712 0.6939 -0.6171
vn -0.1248 0.9167 -0.3795
vn -0.1639 0.8165 -0.5536
vn -0.4116 0.6955 -0.5889
vn -0.3902 0.9145 0.1069
vn -0.5052 0.8557 0.1116
vn -0.5924 0.6777 0.4356
vn -0.0994 0.8605 0.4997
vn -0.1512 0.7288 0.6678
vn -0.0404 0.6585 0.7515
vn 0.3599 0.8782 0.3150
vn 0.4270 0.8210 0.3789
vn 0.6793 0.7061 0.1998
vn 0.8930 0.4310 -0.1294
vn 0.8360 0.1322 -0.5326
vn 0.4763 0.4311 -0.7664
vn -0.0137 0.4050 -0.9142
vn -0.2406 0.2293 -0.9432
vn -0.4488 0.4278 -0.7846
vn -0.8200 0.4850 -0.3038
vn -0.9687 0.2020 0.1440
vn -0.7476 0.4559 0.4829
vn -0.3840 0.2670 0.8839
vn -0.3952 0.2734 0.8770
vn -0.0465 0.5028 0.8631
vn 0.4436 0.5207 0.7294
vn 0.8449 0.2664 0.4639
vn 0.8706 0.2926 0.3954
vn 0.2411 0.1562 -0.9579
vn 0.2176 -0.2743 -0.9367
vn 0.0206 -0.4381 -0.8987
vn -0.7153 0.1870 -0.6733
vn -0.6683 -0.3174 -0.6728
vn -0.7372 -0.5654 -0.3700
vn -0.5521 0.0200 0.8335
vn -0.4678 -0.5321 0.7058
vn -0.8609 -0.2536 0.4411
vn 0.2405 0.1858 0.9527
vn 0.2249 -0.2694 0.9364
vn 0.3818 -0.4858 0.7863
vn 0.9709 0.0902 0.2217
vn 0.7884 -0.5928 0.1644
vn 0.7311 -0.6773 0.0817
vn 0.1598 -0.9433 -0.2911
vn 0.1728 -0.9400 -0.2941
vn -0.0260 -0.8201 -0.5716
vn -0.1984 -0.8373 -0.5095
vn -0.2339 -0.9679 -0.0920
vn -0.2523 -0.9643 -0.0807
vn -0.3087 -0.8477 0.4315
vn -0.4100 -0.8019 0.4345
vn -0.4880 -0.8374 0.2462
vn 0.4353 -0.8985 0.0564
vn 0.3932 -0.9143 0.0969
vn -0.0319 -0.9960 0.0840
vn -0.0102 -0.8454 0.5341
vn 0.1091 -0.9263 0.3607
vn 0.2217 -0.8902 0.3980
vn 0.0288 -0.9822 0.1856
vn 0.3656 -0.9039 0.2219
vn -0.0950 -0.9866 0.1329
vn -0.0950 -0.9866 -0.1329
vn 0.0288 -0.9822 -0.1856
vn 0.5763 -0.7717 0.2690
vn -0.0073 -0.7370 0.6758
vn -0.6592 -0.6824 0.3159
vn 0.5518 -0.5859 0.5935
vn -0.1608 -0.6234 0.7652
vn -0.9577 -0.2771 -0.0778
vn 0.6576 -0.2529 -0.7096
vn 0.2143 0.7172 0.6630
vn -0.4421 0.7252 0.5278
vn -0.6300 0.7318 -0.2599
vn 0.4458 0.8274 -0.3415
vn 0.2944 0.9335 -0.2047
vn 0.4343 0.8306 -0.3487
vn 0.3620 0.6945 -0.6218
vn -0.3418 0.9398 0.0017
vn -0.5521 0.8338 0.0016
vn -0.6261 0.7338 0.2637
vn -0.1245 0.9168 0.3794
vn -0.1504 0.8549 0.4965
vn 0.1256 0.7096 0.6934
vn 0.2940 0.9336 0.2049
vn 0.3456 0.9023 0.2577
vn 0.4897 0.8597 0.1449
vn 0.7015 0.3401 -0.6263
vn 0.6685 0.2860 -0.6865
vn 0.4693 0.4227 -0.7753
vn -0.8201 0.4853 -0.3032
vn -0.9440 0.3271 -0.0439
vn -0.7856 0.5451 0.2926
vn -0.5217 0.4973 0.6932
vn -0.2406 0.2293 0.9432
vn 0.1451 0.5075 0.8493
vn 0.2769 0.5232 0.8060
vn 0.6842 0.2793 0.6737
vn 0.7879 0.5404 0.2952
vn -0.7158 0.1864 -0.6730
vn -0.6685 -0.3173 -0.6726
vn -0.7359 -0.5571 -0.3847
vn -0.7123 0.3197 0.6248
vn -0.6308 -0.5097 0.5851
vn -0.2656 -0.7332 0.6260
vn 0.2228 0.4489 0.8654
vn 0.2318 -0.5856 0.7768
vn 0.3150 -0.6901 0.6516
vn 0.9769 -0.0003 -0.2135
vn 0.8445 -0.5039 -0.1815
vn 0.7276 -0.5999 -0.3329
vn 0.2411 -0.8479 -0.4721
vn 0.0898 -0.8988 -0.4290
vn -0.0248 -0.8130 -0.5818
vn -0.2045 -0.8309 -0.5174
vn -0.2306 -0.9372 -0.2616
vn -0.3882 -0.9037 -0.1807
vn -0.3787 -0.9136 0.1478
vn -0.2003 -0.9516 0.2330
vn -0.1642 -0.8545 0.4928
vn 0.3889 -0.8880 -0.2452
vn 0.2738 -0.9618 0.0000
vn 0.1316 -0.9913 0.0000
vn -0.0222 -0.8413 0.5402
vn 0.0827 -0.9125 0.4007
vn 0.2258 -0.8701 0.4382
s off
f 1/1/1 14/2/1 13/3/1
f 2/4/2 14/2/2 16/5/2
f 1/1/3 13/6/3 18/7/3
f 1/1/4 18/8/4 20/9/4
f 1/1/5 20/10/5 17/11/5
f 2/4/6 16/12/6 23/13/6
f 3/14/7 15/15/7 25/16/7
f 4/17/8 19/18/8 27/19/8
f 5/20/9 21/21/9 29/22/9
f 6/23/10 22/24/10 31/25/10
f 2/4/11 23/26/11 26/27/11
f 3/14/12 25/28/12 28/29/12
f 4/17/13 27/30/13 30/31/13
f 5/20/14 29/32/14 32/33/14
f 6/23/15 31/34/15 24/35/15
f 7/36/16 33/37/16 38/38/16
f 8/39/17 34/40/17 40/41/17
f 9/42/18 35/43/18 41/44/18
f 10/45/19 36/46/19 42/47/19
f 11/48/20 37/49/20 39/50/20
f 39/51/21 42/52/21 12/53/21
f 39/51/22 37/49/22 42/47/22
f 37/54/23 10/55/23 42/47/23
f 42/56/24 41/57/24 12/53/24
f 42/56/25 36/46/25 41/44/25
f 36/58/26 9/59/26 41/44/26
f 41/60/27 40/61/27 12/53/27
f 41/60/28 35/43/28 40/41/28
f 35/62/29 8/63/29 40/41/29
f 40/64/30 38/65/30 12/53/30
f 40/64/31 34/40/31 38/38/31
f 34/66/32 7/67/32 38/38/32
f 38/68/33 39/69/33 12/53/33
f 38/68/34 33/37/34 39/50/34
f 33/70/35 11/71/35 39/50/35
f 24/72/36 37/49/36 11/73/36
f 24/72/37 31/34/37 37/74/37
f 31/75/38 10/55/38 37/74/38
f 32/76/39 36/46/39 10/77/39
f 32/76/40 29/32/40 36/78/40
f 29/79/41 9/59/41 36/78/41
f 30/80/42 35/43/42 9/81/42
f 30/80/43 27/30/43 35/82/43
f 27/83/44 8/63/44 35/82/44
f 28/84/45 34/40/45 8/85/45
f 28/84/46 25/28/46 34/86/46
f 25/87/47 7/67/47 34/86/47
f 26/88/48 33/37/48 7/89/48
f 26/88/49 23/26/49 33/90/49
f 23/91/50 11/71/50 33/90/50
f 31/75/51 32/92/51 10/77/51
f 31/75/52 22/24/52 32/33/52
f 22/93/53 5/94/53 32/33/53
f 29/79/54 30/95/54 9/81/54
f 29/79/55 21/21/55 30/31/55
f 21/96/56 4/97/56 30/31/56
f 27/83/57 28/98/57 8/85/57
f 27/83/58 19/18/58 28/29/58
f 19/99/59 3/100/59 28/29/59
f 25/87/60 26/101/60 7/89/60
f 25/87/61 15/15/61 26/27/61
f 15/102/62 2/103/62 26/27/62
f 23/91/63 24/104/63 11/73/63
f 23/91/64 16/12/64 24/35/64
f 16/105/65 6/106/65 24/35/65
f 17/107/66 22/24/66 6/108/66
f 17/107/67 20/10/67 22/109/67
f 20/110/68 5/94/68 22/109/68
f 20/110/69 21/21/69 5/111/69
f 20/110/70 18/8/70 21/112/70
f 18/113/71 4/97/71 21/112/71
f 18/113/72 19/18/72 4/114/72
f 18/113/73 13/6/73 19/115/73
f 13/116/74 3/100/74 19/115/74
f 16/105/75 17/117/75 6/108/75
f 16/105/76 14/2/76 17/11/76
f 14/118/77 1/119/77 17/11/77
f 13/116/78 15/15/78 3/120/78
f 13/116/79 14/2/79 15/121/79
f 14/118/80 2/103/80 15/121/80
f 43/122/81 56/123/81 55/124/81
f 44/125/82 56/123/82 58/126/82
f 43/122/83 55/127/83 60/128/83
f 43/122/84 60/129/84 62/130/84
f 43/122/85 62/131/85 59/132/85
f 44/125/86 58/133/86 65/134/86
f 45/135/87 57/136/87 67/137/87
f 46/138/88 61/139/88 69/140/88
f 47/141/9 63/142/9 71/143/9
f 48/144/10 64/145/10 73/146/10
f 44/125/89 65/147/89 68/148/89
f 45/135/90 67/149/90 70/150/90
f 46/138/91 69/151/91 72/152/91
f 47/141/14 71/153/14 74/154/14
f 48/144/92 73/155/92 66/156/92
f 49/157/93 75/158/93 80/159/93
f 50/160/94 76/161/94 82/162/94
f 51/163/95 77/164/95 83/165/95
f 52/166/19 78/167/19 84/168/19
f 53/169/96 79/170/96 81/171/96
f 81/172/97 84/173/97 54/174/97
f 81/172/98 79/170/98 84/168/98
f 79/175/99 52/176/99 84/168/99
f 84/177/24 83/178/24 54/174/24
f 84/177/25 78/167/25 83/165/25
f 78/179/26 51/180/26 83/165/26
f 83/181/100 82/182/100 54/174/100
f 83/181/101 77/164/101 82/162/101
f 77/183/102 50/184/102 82/162/102
f 82/185/103 80/186/103 54/174/103
f 82/185/104 76/161/104 80/159/104
f 76/187/105 49/188/105 80/159/105
f 80/189/106 81/190/106 54/174/106
f 80/189/107 75/158/107 81/171/107
f 75/191/108 53/192/108 81/171/108
f 66/193/109 79/170/109 53/194/109
f 66/193/110 73/155/110 79/195/110
f 73/196/111 52/176/111 79/195/111
f 74/197/39 78/167/39 52/198/39
f 74/197/40 71/153/40 78/199/40
f 71/200/41 51/180/41 78/199/41
f 72/201/112 77/164/112 51/202/112
f 72/201/113 69/151/113 77/203/113
f 69/204/114 50/184/114 77/203/114
f 70/205/115 76/161/115 50/206/115
f 70/205/116 67/149/116 76/207/116
f 67/208/117 49/188/117 76/207/117
f 68/209/118 75/158/118 49/210/118
f 68/209/119 65/147/119 75/211/119
f 65/212/120 53/192/120 75/211/120
f 73/196/51 74/213/51 52/198/51
f 73/196/52 64/145/52 74/154/52
f 64/214/53 47/215/53 74/154/53
f 71/200/121 72/216/121 51/202/121
f 71/200/122 63/142/122 72/152/122
f 63/217/123 46/218/123 72/152/123
f 69/204/124 70/219/124 50/206/124
f 69/204/125 61/139/125 70/150/125
f 61/220/126 45/221/126 70/150/126
f 67/208/127 68/222/127 49/210/127
f 67/208/128 57/136/128 68/148/128
f 57/223/129 44/224/129 68/148/129
f 65/212/130 66/225/130 53/194/130
f 65/212/131 58/133/131 66/156/131
f 58/226/132 48/227/132 66/156/132
f 59/228/133 64/145/133 48/229/133
f 59/228/134 62/131/134 64/230/134
f 62/231/135 47/215/135 64/230/135
f 62/231/136 63/142/136 47/232/136
f 62/231/137 60/129/137 63/233/137
f 60/234/138 46/218/138 63/233/138
f 60/234/139 61/139/139 46/235/139
f 60/234/140 55/127/140 61/236/140
f 55/237/141 45/221/141 61/236/141
f 58/226/142 59/238/142 48/229/142
f 58/226/143 56/123/143 59/132/143
f 56/239/144 43/240/144 59/132/144
f 55/237/145 57/136/145 45/241/145
f 55/237/146 56/123/146 57/242/146
f 56/239/147 44/224/147 57/242/147
