# Blender v2.79 (sub 0) OBJ File: 'bush_001.blend'
# www.blender.org
o Icosphere
v 0.050167 0.418212 -0.028202
v 1.093372 1.462811 0.912865
v -0.274151 1.568825 1.455032
v -1.181541 1.334984 -0.119633
v -0.391670 1.083032 -1.440590
v 1.076820 1.198995 -0.685661
v 0.283424 3.768094 1.240932
v -1.015762 3.723986 0.629387
v -1.018440 3.492913 -0.970940
v 0.387722 3.464750 -1.201054
v 1.167423 3.646345 0.181622
v -0.140823 4.947148 -0.010899
v -0.111534 0.765534 0.810394
v 0.693592 0.703207 0.521179
v 0.455444 1.392878 1.355453
v 1.294937 1.168926 0.111366
v 0.633968 0.556764 -0.449459
v -0.672794 0.641266 -0.102467
v -0.831455 1.326407 0.821930
v -0.233475 0.509289 -0.878082
v -0.947033 1.033569 -0.979103
v 0.367455 0.972488 -1.240597
v 1.335388 2.462316 0.696461
v 1.383373 2.306312 -0.229450
v -0.014469 2.638306 1.617764
v 0.786018 2.584465 1.395000
v -1.286446 2.465816 0.422817
v -0.780277 2.601027 1.277893
v -0.815342 2.104894 -1.392307
v -1.322067 2.266019 -0.645283
v 0.872238 2.165149 -1.078320
v 0.019180 2.077288 -1.538887
v 0.833210 3.921395 0.806564
v -0.430008 3.960957 1.053425
v -1.182556 3.827284 -0.190369
v -0.374958 3.673929 -1.276180
v 0.895779 3.782109 -0.600643
v 0.093700 4.664494 0.626183
v 0.528675 4.649002 0.023441
v -0.642250 4.644194 0.306007
v -0.656681 4.587795 -0.516476
v 0.071838 4.597018 -0.691116
v -0.000004 -0.525104 -0.235512
v -0.000004 0.667296 -0.166489
v 0.223980 -0.525104 -0.072777
v 0.158337 0.667296 -0.051449
v 0.138424 -0.525104 0.190533
v 0.097858 0.667296 0.134693
v -0.138432 -0.525104 0.190533
v -0.097866 0.667296 0.134693
v -0.223988 -0.525104 -0.072777
v -0.158344 0.667296 -0.051449
vt 0.052412 0.759443
vt 0.260088 0.759443
vt 0.260088 0.967119
vt 0.052412 0.759443
vt 0.260088 0.967119
vt 0.260088 0.759443
vt 0.260088 0.967119
vt 0.260088 0.759443
vt 0.260088 0.967119
vt 0.260088 0.759443
vt 0.260088 0.967119
vt 0.260088 0.759443
vt 0.260088 0.967119
vt 0.052412 0.759443
vt 0.260088 0.759443
vt 0.260088 0.967119
vt 0.052412 0.759443
vt 0.260088 0.759443
vt 0.260088 0.967119
vt 0.052412 0.759443
vt 0.260088 0.759443
vt 0.260088 0.967119
vt 0.052412 0.759443
vt 0.260088 0.759443
vt 0.260088 0.967119
vt 0.260088 0.759443
vt 0.260088 0.967119
vt 0.260088 0.759443
vt 0.260088 0.967119
vt 0.260088 0.759443
vt 0.260088 0.967119
vt 0.260088 0.759443
vt 0.260088 0.967119
vt 0.260088 0.759443
vt 0.260088 0.967119
vt 0.052412 0.759443
vt 0.260088 0.759443
vt 0.260088 0.967119
vt 0.052412 0.759443
vt 0.260088 0.759443
vt 0.260088 0.967119
vt 0.052412 0.759443
vt 0.260088 0.759443
vt 0.260088 0.967119
vt 0.052412 0.759443
vt 0.260088 0.759443
vt 0.260088 0.967119
vt 0.052412 0.759443
vt 0.260088 0.759443
vt 0.260088 0.967119
vt 0.052412 0.759443
vt 0.260088 0.759443
vt 0.260088 0.967119
vt 0.052412 0.759443
vt 0.260088 0.759443
vt 0.052412 0.759443
vt 0.260088 0.759443
vt 0.052412 0.759443
vt 0.260088 0.759443
vt 0.052412 0.759443
vt 0.260088 0.759443
vt 0.052412 0.759443
vt 0.260088 0.759443
vt 0.052412 0.759443
vt 0.260088 0.759443
vt 0.052412 0.759443
vt 0.260088 0.759443
vt 0.052412 0.759443
vt 0.260088 0.759443
vt 0.052412 0.759443
vt 0.260088 0.759443
vt 0.052412 0.759443
vt 0.260088 0.967119
vt 0.260088 0.967119
vt 0.052412 0.759443
vt 0.052412 0.759443
vt 0.260088 0.967119
vt 0.260088 0.967119
vt 0.052412 0.759443
vt 0.052412 0.759443
vt 0.260088 0.967119
vt 0.260088 0.967119
vt 0.052412 0.759443
vt 0.052412 0.759443
vt 0.260088 0.967119
vt 0.260088 0.967119
vt 0.052412 0.759443
vt 0.052412 0.759443
vt 0.260088 0.967119
vt 0.260088 0.967119
vt 0.052412 0.759443
vt 0.260088 0.759443
vt 0.052412 0.759443
vt 0.260088 0.759443
vt 0.260088 0.759443
vt 0.052412 0.759443
vt 0.260088 0.759443
vt 0.260088 0.759443
vt 0.052412 0.759443
vt 0.260088 0.759443
vt 0.260088 0.759443
vt 0.052412 0.759443
vt 0.260088 0.759443
vt 0.260088 0.759443
vt 0.052412 0.759443
vt 0.260088 0.759443
vt 0.052412 0.759443
vt 0.260088 0.967119
vt 0.260088 0.967119
vt 0.052412 0.759443
vt 0.260088 0.967119
vt 0.260088 0.967119
vt 0.052412 0.759443
vt 0.260088 0.967119
vt 0.260088 0.967119
vt 0.052412 0.759443
vt 0.260088 0.759443
vt 0.052412 0.759443
vt 0.260088 0.759443
vt 0.260088 0.967119
vt 0.260088 0.967119
vt 0.923488 0.832375
vt 0.772465 0.798894
vt 0.795843 0.822546
vt 0.874272 0.689988
vt 0.823543 0.804019
vt 0.722561 0.689988
vt 0.819776 0.770682
vt 0.678074 0.831916
vt 0.786758 0.768170
vt 0.801198 0.920281
vn 0.0703 -0.9167 0.3932
vn 0.7152 -0.5786 0.3920
vn -0.3092 -0.8982 0.3124
vn -0.2944 -0.9557 -0.0042
vn 0.1265 -0.9810 -0.1473
vn 0.9409 -0.1636 0.2966
vn 0.0925 -0.1717 0.9808
vn -0.9094 -0.2455 0.3359
vn -0.6122 -0.2179 -0.7601
vn 0.6402 -0.1690 -0.7494
vn 0.7803 -0.0540 0.6231
vn -0.4036 -0.0411 0.9140
vn -0.9914 -0.1185 0.0552
vn -0.1738 -0.0255 -0.9845
vn 0.8583 -0.0265 -0.5124
vn 0.4030 0.5741 0.7127
vn -0.6342 0.4725 0.6120
vn -0.8330 0.4232 -0.3564
vn 0.2088 0.4494 -0.8686
vn 0.8399 0.5028 -0.2044
vn 0.3993 0.8600 -0.3178
vn 0.6496 0.6058 -0.4594
vn 0.5383 0.4663 -0.7020
vn -0.1272 0.8652 -0.4851
vn -0.1952 0.5907 -0.7829
vn -0.4828 0.4670 -0.7408
vn -0.5387 0.8411 -0.0482
vn -0.8271 0.5616 -0.0240
vn -0.8702 0.4347 0.2318
vn -0.2252 0.8572 0.4632
vn -0.3171 0.6534 0.6874
vn -0.0681 0.5544 0.8294
vn 0.3827 0.8885 0.2533
vn 0.5943 0.6912 0.4111
vn 0.8133 0.5487 0.1935
vn 0.9299 0.2363 -0.2819
vn 0.8370 0.1438 -0.5279
vn 0.6959 0.1941 -0.6914
vn 0.1493 0.1963 -0.9691
vn -0.1679 0.1196 -0.9785
vn -0.4645 0.1943 -0.8640
vn -0.9490 0.1633 -0.2695
vn -0.9963 0.0839 0.0175
vn -0.9610 0.1711 0.2171
vn -0.6349 0.2822 0.7192
vn -0.4030 0.2491 0.8806
vn -0.1492 0.3480 0.9255
vn 0.5283 0.3264 0.7838
vn 0.7845 0.2264 0.5774
vn 0.8923 0.2804 0.3538
vn 0.4659 0.0906 -0.8802
vn 0.4801 -0.0844 -0.8731
vn 0.2246 -0.1874 -0.9563
vn -0.8212 0.0524 -0.5683
vn -0.8334 -0.1067 -0.5423
vn -0.9541 -0.2429 -0.1751
vn -0.8630 0.1045 0.4943
vn -0.8397 -0.1527 0.5212
vn -0.6891 -0.2194 0.6906
vn 0.2752 0.2381 0.9314
vn 0.2601 -0.1040 0.9600
vn 0.5738 -0.1857 0.7977
vn 0.9881 0.1514 0.0257
vn 0.9964 -0.0590 0.0616
vn 0.9516 -0.1538 -0.2662
vn 0.6011 -0.6061 -0.5210
vn 0.3012 -0.7986 -0.5211
vn 0.0910 -0.6843 -0.7235
vn -0.4247 -0.6908 -0.5852
vn -0.5651 -0.8044 -0.1832
vn -0.8062 -0.5915 -0.0125
vn -0.7766 -0.5625 0.2836
vn -0.5491 -0.7138 0.4348
vn -0.4646 -0.6095 0.6424
vn 0.7593 -0.6084 -0.2307
vn 0.6423 -0.7627 0.0756
vn 0.3123 -0.9420 0.1229
vn -0.0464 -0.6309 0.7745
vn 0.1792 -0.7325 0.6567
vn 0.5028 -0.5903 0.6315
vn 0.5871 0.0468 -0.8081
vn 0.9500 0.0468 0.3087
vn 0.0000 0.0468 0.9989
vn -0.9500 0.0468 0.3087
vn -0.5871 0.0468 -0.8081
s off
f 1/1/1 14/2/1 13/3/1
f 2/4/2 14/2/2 16/5/2
f 1/1/3 13/6/3 18/7/3
f 1/1/4 18/8/4 20/9/4
f 1/1/5 20/10/5 17/11/5
f 2/4/6 16/12/6 23/13/6
f 3/14/7 15/15/7 25/16/7
f 4/17/8 19/18/8 27/19/8
f 5/20/9 21/21/9 29/22/9
f 6/23/10 22/24/10 31/25/10
f 2/4/11 23/26/11 26/27/11
f 3/14/12 25/28/12 28/29/12
f 4/17/13 27/30/13 30/31/13
f 5/20/14 29/32/14 32/33/14
f 6/23/15 31/34/15 24/35/15
f 7/36/16 33/37/16 38/38/16
f 8/39/17 34/40/17 40/41/17
f 9/42/18 35/43/18 41/44/18
f 10/45/19 36/46/19 42/47/19
f 11/48/20 37/49/20 39/50/20
f 39/51/21 42/52/21 12/53/21
f 39/51/22 37/49/22 42/47/22
f 37/54/23 10/55/23 42/47/23
f 42/56/24 41/57/24 12/53/24
f 42/56/25 36/46/25 41/44/25
f 36/58/26 9/59/26 41/44/26
f 41/60/27 40/61/27 12/53/27
f 41/60/28 35/43/28 40/41/28
f 35/62/29 8/63/29 40/41/29
f 40/64/30 38/65/30 12/53/30
f 40/64/31 34/40/31 38/38/31
f 34/66/32 7/67/32 38/38/32
f 38/68/33 39/69/33 12/53/33
f 38/68/34 33/37/34 39/50/34
f 33/70/35 11/71/35 39/50/35
f 24/72/36 37/49/36 11/73/36
f 24/72/37 31/34/37 37/74/37
f 31/75/38 10/55/38 37/74/38
f 32/76/39 36/46/39 10/77/39
f 32/76/40 29/32/40 36/78/40
f 29/79/41 9/59/41 36/78/41
f 30/80/42 35/43/42 9/81/42
f 30/80/43 27/30/43 35/82/43
f 27/83/44 8/63/44 35/82/44
f 28/84/45 34/40/45 8/85/45
f 28/84/46 25/28/46 34/86/46
f 25/87/47 7/67/47 34/86/47
f 26/88/48 33/37/48 7/89/48
f 26/88/49 23/26/49 33/90/49
f 23/91/50 11/71/50 33/90/50
f 31/75/51 32/92/51 10/77/51
f 31/75/52 22/24/52 32/33/52
f 22/93/53 5/94/53 32/33/53
f 29/79/54 30/95/54 9/81/54
f 29/79/55 21/21/55 30/31/55
f 21/96/56 4/97/56 30/31/56
f 27/83/57 28/98/57 8/85/57
f 27/83/58 19/18/58 28/29/58
f 19/99/59 3/100/59 28/29/59
f 25/87/60 26/101/60 7/89/60
f 25/87/61 15/15/61 26/27/61
f 15/102/62 2/103/62 26/27/62
f 23/91/63 24/104/63 11/73/63
f 23/91/64 16/12/64 24/35/64
f 16/105/65 6/106/65 24/35/65
f 17/107/66 22/24/66 6/108/66
f 17/107/67 20/10/67 22/109/67
f 20/110/68 5/94/68 22/109/68
f 20/110/69 21/21/69 5/111/69
f 20/110/70 18/8/70 21/112/70
f 18/113/71 4/97/71 21/112/71
f 18/113/72 19/18/72 4/114/72
f 18/113/73 13/6/73 19/115/73
f 13/116/74 3/100/74 19/115/74
f 16/105/75 17/117/75 6/108/75
f 16/105/76 14/2/76 17/11/76
f 14/118/77 1/119/77 17/11/77
f 13/116/78 15/15/78 3/120/78
f 13/116/79 14/2/79 15/121/79
f 14/118/80 2/103/80 15/121/80
f 43/122/81 44/123/81 46/124/81 45/125/81
f 45/125/82 46/124/82 48/126/82 47/127/82
f 47/127/83 48/126/83 50/128/83 49/129/83
f 49/129/84 50/128/84 52/130/84 51/131/84
f 51/131/85 52/130/85 44/123/85 43/122/85
