# Blender v2.79 (sub 0) OBJ File: 'bush_006.blend'
# www.blender.org
o Icosphere_Icosphere.004
v 0.398250 -0.542263 1.156138
v 2.385080 -0.218855 1.584123
v -0.791300 -0.175118 2.753670
v -2.863891 -0.311489 0.107215
v -0.653140 -0.150503 -1.979228
v 2.917635 -0.267665 -1.628507
v 0.952030 1.437199 2.713214
v -2.015844 1.317055 1.741827
v -2.186061 1.483776 -1.102404
v 1.504108 1.622217 -2.447024
v 3.237141 1.205745 0.045073
v 0.262492 4.307567 0.054785
v -0.329698 -0.674527 1.847558
v 1.379347 -0.572411 1.431685
v 0.896153 -0.280544 2.588039
v 2.485259 -0.220453 0.705540
v 1.663463 -0.701490 -0.495160
v -1.381340 -0.722862 0.496575
v -1.089882 -0.160209 2.092844
v -0.356627 -0.790059 -1.166472
v -2.077707 -0.383859 -1.055708
v 1.251496 -0.299012 -2.214206
v 2.827732 0.393583 1.177194
v 3.527323 0.406606 -0.849768
v 0.040924 0.632353 3.206293
v 2.103179 0.593057 2.355602
v -2.863652 0.418945 0.998002
v -1.002591 0.431758 2.692255
v -1.670955 0.595766 -1.749333
v -2.969429 0.432741 -0.613278
v 2.593511 0.540521 -2.402433
v 0.386867 0.689499 -2.556740
v 2.376595 1.555279 1.508542
v -0.448620 1.463712 2.688806
v -2.723689 1.547522 0.125735
v -0.547297 2.217899 -1.949247
v 3.083457 1.572782 -1.729613
v 0.709697 3.473752 1.721210
v 2.180694 3.272237 0.056142
v -1.236762 3.444276 1.140916
v -1.269184 3.741657 -0.672116
v 1.030769 3.746496 -1.482355
v -1.996372 -0.889895 -1.662091
v -0.474685 -0.465853 -2.146223
v -1.618526 -0.416203 -0.481225
v -3.227883 -0.512435 -0.596422
v -3.102677 -0.425219 -2.106532
v -1.497910 -0.473230 -3.025328
v -0.723501 0.672867 -1.236390
v -2.481289 0.421886 -0.230443
v -3.426442 0.414740 -1.279491
v -2.320360 0.484968 -2.728251
v -0.631733 0.466791 -2.994143
v -1.958961 1.358741 -1.617784
v -1.790071 -0.770490 -1.014166
v -1.167377 -0.788482 -1.907085
v -0.872639 -0.474416 -1.258713
v -0.837407 -0.560542 -2.734992
v -1.697787 -0.788669 -2.457848
v -2.717985 -0.798823 -1.048649
v -2.482410 -0.557615 -0.344946
v -2.645613 -0.770806 -1.922314
v -3.377724 -0.538328 -1.319227
v -2.335254 -0.495227 -2.706450
v -0.112752 -0.063766 -2.749146
v -0.988016 -0.074887 -3.159822
v -0.906458 0.040883 -0.543007
v -0.096111 0.040470 -1.825102
v -3.021154 -0.143718 -0.152217
v -1.936479 -0.078047 0.026726
v -3.494079 -0.032206 -1.705208
v -3.573610 -0.092851 -0.836927
v -1.899445 -0.032477 -3.095617
v -2.838978 0.012296 -2.551877
v -0.219323 0.612661 -2.227456
v -1.452154 0.669646 -0.359338
v -3.146995 0.469301 -0.643159
v -3.018088 0.579604 -2.054702
v -1.482295 0.516620 -2.934505
v -1.262072 1.266743 -1.394116
v -1.227636 1.037776 -2.282472
v -2.278765 1.067112 -0.834109
v -2.807436 0.993834 -1.406847
v -2.162603 1.035990 -2.263140
vt 0.037896 0.768365
vt 0.235542 0.768365
vt 0.235542 0.966010
vt 0.037896 0.768365
vt 0.235542 0.966010
vt 0.235542 0.768365
vt 0.235542 0.966010
vt 0.235542 0.768365
vt 0.235542 0.966010
vt 0.235542 0.768365
vt 0.235542 0.966010
vt 0.235542 0.768365
vt 0.235542 0.966010
vt 0.037896 0.768365
vt 0.235542 0.768365
vt 0.235542 0.966010
vt 0.037896 0.768365
vt 0.235542 0.768365
vt 0.235542 0.966010
vt 0.037896 0.768365
vt 0.235542 0.768365
vt 0.235542 0.966010
vt 0.037896 0.768365
vt 0.235542 0.768365
vt 0.235542 0.966010
vt 0.235542 0.768365
vt 0.235542 0.966010
vt 0.235542 0.768365
vt 0.235542 0.966010
vt 0.235542 0.768365
vt 0.235542 0.966010
vt 0.235542 0.768365
vt 0.235542 0.966010
vt 0.235542 0.768365
vt 0.235542 0.966010
vt 0.037896 0.768365
vt 0.235542 0.768365
vt 0.235542 0.966010
vt 0.037896 0.768365
vt 0.235542 0.768365
vt 0.235542 0.966010
vt 0.037896 0.768365
vt 0.235542 0.768365
vt 0.235542 0.966010
vt 0.037896 0.768365
vt 0.235542 0.768365
vt 0.235542 0.966010
vt 0.037896 0.768365
vt 0.235542 0.768365
vt 0.235542 0.966010
vt 0.037896 0.768365
vt 0.235542 0.768365
vt 0.235542 0.966010
vt 0.037896 0.768365
vt 0.235542 0.768365
vt 0.037896 0.768365
vt 0.235542 0.768365
vt 0.037896 0.768365
vt 0.235542 0.768365
vt 0.037896 0.768365
vt 0.235542 0.768365
vt 0.037896 0.768365
vt 0.235542 0.768365
vt 0.037896 0.768365
vt 0.235542 0.768365
vt 0.037896 0.768365
vt 0.235542 0.768365
vt 0.037896 0.768365
vt 0.235542 0.768365
vt 0.037896 0.768365
vt 0.235542 0.768365
vt 0.037896 0.768365
vt 0.235542 0.966010
vt 0.235542 0.966010
vt 0.037896 0.768365
vt 0.037896 0.768365
vt 0.235542 0.966010
vt 0.235542 0.966010
vt 0.037896 0.768365
vt 0.037896 0.768365
vt 0.235542 0.966010
vt 0.235542 0.966010
vt 0.037896 0.768365
vt 0.037896 0.768365
vt 0.235542 0.966010
vt 0.235542 0.966010
vt 0.037896 0.768365
vt 0.037896 0.768365
vt 0.235542 0.966010
vt 0.235542 0.966010
vt 0.037896 0.768365
vt 0.235542 0.768365
vt 0.037896 0.768365
vt 0.235542 0.768365
vt 0.235542 0.768365
vt 0.037896 0.768365
vt 0.235542 0.768365
vt 0.235542 0.768365
vt 0.037896 0.768365
vt 0.235542 0.768365
vt 0.235542 0.768365
vt 0.037896 0.768365
vt 0.235542 0.768365
vt 0.235542 0.768365
vt 0.037896 0.768365
vt 0.235542 0.768365
vt 0.037896 0.768365
vt 0.235542 0.966010
vt 0.235542 0.966010
vt 0.037896 0.768365
vt 0.235542 0.966010
vt 0.235542 0.966010
vt 0.037896 0.768365
vt 0.235542 0.966010
vt 0.235542 0.966010
vt 0.037896 0.768365
vt 0.235542 0.768365
vt 0.037896 0.768365
vt 0.235542 0.768365
vt 0.235542 0.966010
vt 0.235542 0.966010
vt 0.037896 0.768365
vt 0.235542 0.768365
vt 0.235542 0.966010
vt 0.037896 0.768365
vt 0.235542 0.966010
vt 0.235542 0.768365
vt 0.235542 0.966010
vt 0.235542 0.768365
vt 0.235542 0.966010
vt 0.235542 0.768365
vt 0.235542 0.966010
vt 0.235542 0.768365
vt 0.235542 0.966010
vt 0.037896 0.768365
vt 0.235542 0.768365
vt 0.235542 0.966010
vt 0.037896 0.768365
vt 0.235542 0.768365
vt 0.235542 0.966010
vt 0.037896 0.768365
vt 0.235542 0.768365
vt 0.235542 0.966010
vt 0.037896 0.768365
vt 0.235542 0.768365
vt 0.235542 0.966010
vt 0.235542 0.768365
vt 0.235542 0.966010
vt 0.235542 0.768365
vt 0.235542 0.966010
vt 0.235542 0.768365
vt 0.235542 0.966010
vt 0.235542 0.768365
vt 0.235542 0.966010
vt 0.235542 0.768365
vt 0.235542 0.966010
vt 0.037896 0.768365
vt 0.235542 0.768365
vt 0.235542 0.966010
vt 0.037896 0.768365
vt 0.235542 0.768365
vt 0.235542 0.966010
vt 0.037896 0.768365
vt 0.235542 0.768365
vt 0.235542 0.966010
vt 0.037896 0.768365
vt 0.235542 0.768365
vt 0.235542 0.966010
vt 0.037896 0.768365
vt 0.235542 0.768365
vt 0.235542 0.966010
vt 0.037896 0.768365
vt 0.235542 0.768365
vt 0.235542 0.966010
vt 0.037896 0.768365
vt 0.235542 0.768365
vt 0.037896 0.768365
vt 0.235542 0.768365
vt 0.037896 0.768365
vt 0.235542 0.768365
vt 0.037896 0.768365
vt 0.235542 0.768365
vt 0.037896 0.768365
vt 0.235542 0.768365
vt 0.037896 0.768365
vt 0.235542 0.768365
vt 0.037896 0.768365
vt 0.235542 0.768365
vt 0.037896 0.768365
vt 0.235542 0.768365
vt 0.037896 0.768365
vt 0.235542 0.768365
vt 0.037896 0.768365
vt 0.235542 0.966010
vt 0.235542 0.966010
vt 0.037896 0.768365
vt 0.037896 0.768365
vt 0.235542 0.966010
vt 0.235542 0.966010
vt 0.037896 0.768365
vt 0.037896 0.768365
vt 0.235542 0.966010
vt 0.235542 0.966010
vt 0.037896 0.768365
vt 0.037896 0.768365
vt 0.235542 0.966010
vt 0.235542 0.966010
vt 0.037896 0.768365
vt 0.037896 0.768365
vt 0.235542 0.966010
vt 0.235542 0.966010
vt 0.037896 0.768365
vt 0.235542 0.768365
vt 0.037896 0.768365
vt 0.235542 0.768365
vt 0.235542 0.768365
vt 0.037896 0.768365
vt 0.235542 0.768365
vt 0.235542 0.768365
vt 0.037896 0.768365
vt 0.235542 0.768365
vt 0.235542 0.768365
vt 0.037896 0.768365
vt 0.235542 0.768365
vt 0.235542 0.768365
vt 0.037896 0.768365
vt 0.235542 0.768365
vt 0.037896 0.768365
vt 0.235542 0.966010
vt 0.235542 0.966010
vt 0.037896 0.768365
vt 0.235542 0.966010
vt 0.235542 0.966010
vt 0.037896 0.768365
vt 0.235542 0.966010
vt 0.235542 0.966010
vt 0.037896 0.768365
vt 0.235542 0.768365
vt 0.037896 0.768365
vt 0.235542 0.768365
vt 0.235542 0.966010
vt 0.235542 0.966010
vn 0.0175 -0.9853 -0.1701
vn 0.3261 -0.9445 0.0389
vn 0.1228 -0.9906 -0.0602
vn 0.0700 -0.9941 0.0833
vn 0.0094 -0.9946 0.1031
vn 0.8360 -0.5402 0.0963
vn 0.0503 -0.5273 0.8482
vn -0.5414 -0.6501 0.5332
vn -0.4591 -0.3785 -0.8037
vn 0.2740 -0.6056 -0.7471
vn 0.8114 -0.2292 0.5377
vn -0.4319 -0.0593 0.9000
vn -0.9948 -0.0785 0.0646
vn -0.3504 -0.1958 -0.9159
vn 0.8397 -0.1601 -0.5188
vn 0.5675 0.4142 0.7116
vn -0.5011 0.4003 0.7673
vn -0.8278 0.4093 -0.3836
vn -0.1083 0.3909 -0.9140
vn 0.8903 0.4551 0.0170
vn 0.4734 0.8769 -0.0835
vn 0.6768 0.6730 -0.2984
vn 0.3807 0.4513 -0.8071
vn -0.1435 0.9044 -0.4018
vn -0.2819 0.5344 -0.7969
vn -0.5515 0.3667 -0.7493
vn -0.4063 0.9005 0.1550
vn -0.8098 0.5765 0.1090
vn -0.8107 0.4139 0.4141
vn -0.1547 0.8663 0.4750
vn -0.2492 0.5329 0.8087
vn -0.0074 0.4372 0.8993
vn 0.4531 0.8399 0.2987
vn 0.6692 0.5229 0.5279
vn 0.8230 0.4187 0.3839
vn 0.9367 0.3499 -0.0087
vn 0.8525 -0.0667 -0.5185
vn 0.3948 0.3628 -0.8441
vn -0.1464 0.2868 -0.9467
vn -0.3672 0.1410 -0.9194
vn -0.5352 0.2722 -0.7997
vn -0.8176 0.4324 -0.3803
vn -0.9827 0.1729 0.0660
vn -0.8078 0.4199 0.4137
vn -0.5156 0.2795 0.8100
vn -0.4662 0.2531 0.8477
vn -0.0049 0.5264 0.8502
vn 0.5519 0.4571 0.6974
vn 0.8503 0.1903 0.4906
vn 0.8643 0.2046 0.4594
vn 0.0718 0.0312 -0.9969
vn 0.0473 -0.2899 -0.9559
vn -0.1436 -0.4338 -0.8895
vn -0.6616 0.1513 -0.7345
vn -0.6147 -0.2696 -0.7413
vn -0.7143 -0.5364 -0.4495
vn -0.6731 0.0232 0.7392
vn -0.5618 -0.5462 0.6213
vn -0.8805 -0.2669 0.3918
vn 0.3802 0.1306 0.9156
vn 0.3634 -0.2645 0.8933
vn 0.4983 -0.5000 0.7083
vn 0.9451 -0.0219 0.3261
vn 0.7483 -0.6127 0.2543
vn 0.6517 -0.7462 0.1358
vn 0.1062 -0.9622 -0.2507
vn 0.1267 -0.9587 -0.2548
vn -0.1343 -0.8020 -0.5821
vn -0.2252 -0.8039 -0.5505
vn -0.2349 -0.9663 -0.1057
vn -0.2408 -0.9651 -0.1027
vn -0.3370 -0.8670 0.3671
vn -0.4362 -0.8207 0.3689
vn -0.5013 -0.8400 0.2076
vn 0.3990 -0.9123 0.0924
vn 0.3697 -0.9218 0.1163
vn -0.0474 -0.9971 0.0598
vn -0.0077 -0.8774 0.4797
vn 0.1278 -0.9477 0.2926
vn 0.2659 -0.9025 0.3389
vn 0.1582 -0.9788 0.1300
vn 0.3931 -0.9146 -0.0951
vn 0.0236 -0.9845 0.1739
vn -0.1627 -0.9856 -0.0451
vn -0.1128 -0.9795 -0.1669
vn 0.5502 -0.8085 -0.2089
vn 0.4918 -0.6954 0.5239
vn -0.2724 -0.6742 0.6864
vn -0.8178 -0.4559 -0.3512
vn -0.3131 -0.4210 -0.8513
vn 0.7823 -0.6204 0.0559
vn 0.4404 -0.5953 0.6720
vn -0.7561 -0.2855 0.5889
vn -0.7778 -0.1519 -0.6098
vn -0.0789 -0.2267 -0.9708
vn 0.6665 0.6835 0.2976
vn -0.0774 0.6940 0.7158
vn -0.6422 0.7346 0.2190
vn -0.4865 0.6407 -0.5940
vn 0.0019 0.7808 -0.6248
vn -0.0109 0.8957 -0.4445
vn -0.0143 0.7838 -0.6209
vn -0.2021 0.6649 -0.7191
vn -0.4379 0.8517 -0.2878
vn -0.5058 0.7920 -0.3419
vn -0.6903 0.6902 -0.2169
vn -0.3445 0.9171 0.2007
vn -0.4812 0.8077 0.3408
vn -0.3413 0.6971 0.6306
vn 0.0104 0.9358 0.3525
vn 0.1150 0.8511 0.5122
vn 0.5802 0.6548 0.4844
vn 0.2016 0.9503 -0.2371
vn 0.3893 0.8955 -0.2157
vn 0.3785 0.8504 -0.3654
vn -0.0475 0.3206 -0.9460
vn -0.0519 0.3173 -0.9469
vn -0.2309 0.4313 -0.8721
vn -0.6047 0.4083 -0.6838
vn -0.7690 0.2664 -0.5810
vn -0.8265 0.4488 -0.3399
vn -0.8057 0.5044 0.3106
vn -0.7202 0.3376 0.6061
vn -0.4266 0.5104 0.7467
vn 0.0010 0.4583 0.8888
vn 0.4654 0.1490 0.8725
vn 0.6927 0.4326 0.5771
vn 0.8090 0.4446 0.3845
vn 0.9821 0.1844 -0.0385
vn 0.7268 0.4876 -0.4837
vn -0.4820 0.2116 -0.8503
vn -0.4951 -0.2368 -0.8360
vn -0.5928 -0.3706 -0.7150
vn -0.9732 0.2177 -0.0739
vn -0.9478 -0.3001 -0.1078
vn -0.8081 -0.5584 0.1875
vn -0.1729 0.2950 0.9397
vn -0.1066 -0.5304 0.8410
vn 0.2213 -0.7422 0.6326
vn 0.8000 0.3231 0.5056
vn 0.6967 -0.5661 0.4405
vn 0.6675 -0.6847 0.2927
vn 0.4248 -0.0025 -0.9053
vn 0.3610 -0.5481 -0.7545
vn 0.2585 -0.5894 -0.7654
vn -0.1782 -0.8321 -0.5253
vn -0.2464 -0.8797 -0.4067
vn -0.4195 -0.7916 -0.4442
vn -0.4993 -0.8159 -0.2916
vn -0.3457 -0.9365 -0.0587
vn -0.4058 -0.9065 0.1166
vn -0.1808 -0.9102 0.3725
vn 0.0171 -0.9476 0.3191
vn 0.2157 -0.8438 0.4915
vn 0.0858 -0.8833 -0.4608
vn 0.1949 -0.9628 -0.1874
vn 0.0945 -0.9914 -0.0907
vn 0.3786 -0.8223 0.4248
vn 0.3600 -0.8933 0.2691
vn 0.4700 -0.8591 0.2025
s off
f 1/1/1 14/2/1 13/3/1
f 2/4/2 14/2/2 16/5/2
f 1/1/3 13/6/3 18/7/3
f 1/1/4 18/8/4 20/9/4
f 1/1/5 20/10/5 17/11/5
f 2/4/6 16/12/6 23/13/6
f 3/14/7 15/15/7 25/16/7
f 4/17/8 19/18/8 27/19/8
f 5/20/9 21/21/9 29/22/9
f 6/23/10 22/24/10 31/25/10
f 2/4/11 23/26/11 26/27/11
f 3/14/12 25/28/12 28/29/12
f 4/17/13 27/30/13 30/31/13
f 5/20/14 29/32/14 32/33/14
f 6/23/15 31/34/15 24/35/15
f 7/36/16 33/37/16 38/38/16
f 8/39/17 34/40/17 40/41/17
f 9/42/18 35/43/18 41/44/18
f 10/45/19 36/46/19 42/47/19
f 11/48/20 37/49/20 39/50/20
f 39/51/21 42/52/21 12/53/21
f 39/51/22 37/49/22 42/47/22
f 37/54/23 10/55/23 42/47/23
f 42/56/24 41/57/24 12/53/24
f 42/56/25 36/46/25 41/44/25
f 36/58/26 9/59/26 41/44/26
f 41/60/27 40/61/27 12/53/27
f 41/60/28 35/43/28 40/41/28
f 35/62/29 8/63/29 40/41/29
f 40/64/30 38/65/30 12/53/30
f 40/64/31 34/40/31 38/38/31
f 34/66/32 7/67/32 38/38/32
f 38/68/33 39/69/33 12/53/33
f 38/68/34 33/37/34 39/50/34
f 33/70/35 11/71/35 39/50/35
f 24/72/36 37/49/36 11/73/36
f 24/72/37 31/34/37 37/74/37
f 31/75/38 10/55/38 37/74/38
f 32/76/39 36/46/39 10/77/39
f 32/76/40 29/32/40 36/78/40
f 29/79/41 9/59/41 36/78/41
f 30/80/42 35/43/42 9/81/42
f 30/80/43 27/30/43 35/82/43
f 27/83/44 8/63/44 35/82/44
f 28/84/45 34/40/45 8/85/45
f 28/84/46 25/28/46 34/86/46
f 25/87/47 7/67/47 34/86/47
f 26/88/48 33/37/48 7/89/48
f 26/88/49 23/26/49 33/90/49
f 23/91/50 11/71/50 33/90/50
f 31/75/51 32/92/51 10/77/51
f 31/75/52 22/24/52 32/33/52
f 22/93/53 5/94/53 32/33/53
f 29/79/54 30/95/54 9/81/54
f 29/79/55 21/21/55 30/31/55
f 21/96/56 4/97/56 30/31/56
f 27/83/57 28/98/57 8/85/57
f 27/83/58 19/18/58 28/29/58
f 19/99/59 3/100/59 28/29/59
f 25/87/60 26/101/60 7/89/60
f 25/87/61 15/15/61 26/27/61
f 15/102/62 2/103/62 26/27/62
f 23/91/63 24/104/63 11/73/63
f 23/91/64 16/12/64 24/35/64
f 16/105/65 6/106/65 24/35/65
f 17/107/66 22/24/66 6/108/66
f 17/107/67 20/10/67 22/109/67
f 20/110/68 5/94/68 22/109/68
f 20/110/69 21/21/69 5/111/69
f 20/110/70 18/8/70 21/112/70
f 18/113/71 4/97/71 21/112/71
f 18/113/72 19/18/72 4/114/72
f 18/113/73 13/6/73 19/115/73
f 13/116/74 3/100/74 19/115/74
f 16/105/75 17/117/75 6/108/75
f 16/105/76 14/2/76 17/11/76
f 14/118/77 1/119/77 17/11/77
f 13/116/78 15/15/78 3/120/78
f 13/116/79 14/2/79 15/121/79
f 14/118/80 2/103/80 15/121/80
f 43/122/81 56/123/81 55/124/81
f 44/125/82 56/123/82 58/126/82
f 43/122/83 55/127/83 60/128/83
f 43/122/84 60/129/84 62/130/84
f 43/122/85 62/131/85 59/132/85
f 44/125/86 58/133/86 65/134/86
f 45/135/87 57/136/87 67/137/87
f 46/138/88 61/139/88 69/140/88
f 47/141/89 63/142/89 71/143/89
f 48/144/90 64/145/90 73/146/90
f 44/125/91 65/147/91 68/148/91
f 45/135/92 67/149/92 70/150/92
f 46/138/93 69/151/93 72/152/93
f 47/141/94 71/153/94 74/154/94
f 48/144/95 73/155/95 66/156/95
f 49/157/96 75/158/96 80/159/96
f 50/160/97 76/161/97 82/162/97
f 51/163/98 77/164/98 83/165/98
f 52/166/99 78/167/99 84/168/99
f 53/169/100 79/170/100 81/171/100
f 81/172/101 84/173/101 54/174/101
f 81/172/102 79/170/102 84/168/102
f 79/175/103 52/176/103 84/168/103
f 84/177/104 83/178/104 54/174/104
f 84/177/105 78/167/105 83/165/105
f 78/179/106 51/180/106 83/165/106
f 83/181/107 82/182/107 54/174/107
f 83/181/108 77/164/108 82/162/108
f 77/183/109 50/184/109 82/162/109
f 82/185/110 80/186/110 54/174/110
f 82/185/111 76/161/111 80/159/111
f 76/187/112 49/188/112 80/159/112
f 80/189/113 81/190/113 54/174/113
f 80/189/114 75/158/114 81/171/114
f 75/191/115 53/192/115 81/171/115
f 66/193/116 79/170/116 53/194/116
f 66/193/117 73/155/117 79/195/117
f 73/196/118 52/176/118 79/195/118
f 74/197/119 78/167/119 52/198/119
f 74/197/120 71/153/120 78/199/120
f 71/200/121 51/180/121 78/199/121
f 72/201/122 77/164/122 51/202/122
f 72/201/123 69/151/123 77/203/123
f 69/204/124 50/184/124 77/203/124
f 70/205/125 76/161/125 50/206/125
f 70/205/126 67/149/126 76/207/126
f 67/208/127 49/188/127 76/207/127
f 68/209/128 75/158/128 49/210/128
f 68/209/129 65/147/129 75/211/129
f 65/212/130 53/192/130 75/211/130
f 73/196/131 74/213/131 52/198/131
f 73/196/132 64/145/132 74/154/132
f 64/214/133 47/215/133 74/154/133
f 71/200/134 72/216/134 51/202/134
f 71/200/135 63/142/135 72/152/135
f 63/217/136 46/218/136 72/152/136
f 69/204/137 70/219/137 50/206/137
f 69/204/138 61/139/138 70/150/138
f 61/220/139 45/221/139 70/150/139
f 67/208/140 68/222/140 49/210/140
f 67/208/141 57/136/141 68/148/141
f 57/223/142 44/224/142 68/148/142
f 65/212/143 66/225/143 53/194/143
f 65/212/144 58/133/144 66/156/144
f 58/226/145 48/227/145 66/156/145
f 59/228/146 64/145/146 48/229/146
f 59/228/147 62/131/147 64/230/147
f 62/231/148 47/215/148 64/230/148
f 62/231/149 63/142/149 47/232/149
f 62/231/150 60/129/150 63/233/150
f 60/234/151 46/218/151 63/233/151
f 60/234/152 61/139/152 46/235/152
f 60/234/153 55/127/153 61/236/153
f 55/237/154 45/221/154 61/236/154
f 58/226/155 59/238/155 48/229/155
f 58/226/156 56/123/156 59/132/156
f 56/239/157 43/240/157 59/132/157
f 55/237/158 57/136/158 45/241/158
f 55/237/159 56/123/159 57/242/159
f 56/239/160 44/224/160 57/242/160
