# Blender v2.79 (sub 0) OBJ File: 'chimney_shroud_001.blend'
# www.blender.org
mtllib chimney_shroud_001.mtl
o Cube.017_Cube.022
v -0.736865 3.522186 0.721793
v -0.736865 3.593531 0.793138
v 0.731796 3.522186 0.721793
v -0.736865 4.392848 -0.007378
v 0.731796 4.392848 -0.007378
v 0.339804 3.522186 0.721793
v 0.339804 3.593531 0.793138
v 0.339804 4.392848 -0.007378
v 0.731796 3.593561 0.875646
v 0.731796 3.522216 0.875923
v 0.339804 3.522216 0.875923
v 0.339804 3.593561 0.875646
v 0.339804 4.458418 -0.007402
v 0.731796 4.458418 -0.007402
v -0.736865 3.522186 -0.737497
v -0.736865 3.593531 -0.808842
v -0.736865 4.253058 -0.007852
v 0.731796 3.522186 -0.737497
v 0.731796 4.253058 -0.007852
v -0.736865 4.392848 -0.008326
v -0.736865 4.321504 -0.007852
v 0.731796 4.321504 -0.007852
v 0.731796 4.392848 -0.008326
v 0.339804 4.253058 -0.007852
v 0.339804 3.522186 -0.737497
v 0.339804 3.593531 -0.808842
v 0.339804 4.321504 -0.007852
v 0.339804 4.392848 -0.008326
v 0.731796 3.593561 -0.891350
v 0.731796 3.522216 -0.891628
v 0.339804 3.522216 -0.891628
v 0.339804 3.593561 -0.891350
v 0.339804 4.458418 -0.008302
v 0.731796 4.458418 -0.008302
v 0.336722 2.739508 0.438186
v 0.336722 3.629650 0.670442
v 0.336722 2.763448 0.348844
v 0.336722 3.653589 0.581099
v 0.429215 2.739508 0.438186
v 0.429215 3.629650 0.670442
v 0.429215 2.763448 0.348844
v 0.429215 3.653589 0.581099
v -0.341792 2.739508 0.438186
v -0.341792 3.629650 0.670442
v -0.341792 2.763448 0.348844
v -0.341792 3.653589 0.581099
v -0.434286 2.739508 0.438186
v -0.434286 3.629650 0.670442
v -0.434286 2.763448 0.348844
v -0.434286 3.653589 0.581099
v 0.336722 2.739508 -0.453891
v 0.336722 3.629650 -0.686146
v 0.336722 2.763448 -0.364548
v 0.336722 3.653589 -0.596804
v 0.429215 2.739508 -0.453891
v 0.429215 3.629650 -0.686146
v 0.429215 2.763448 -0.364548
v 0.429215 3.653589 -0.596804
v -0.341792 2.739508 -0.453891
v -0.341792 3.629650 -0.686146
v -0.341792 2.763448 -0.364548
v -0.341792 3.653589 -0.596804
v -0.434286 2.739508 -0.453891
v -0.434286 3.629650 -0.686146
v -0.434286 2.763448 -0.364548
v -0.434286 3.653589 -0.596804
v -0.689706 0.943507 0.677752
v -0.435789 2.215713 0.423836
v -0.689706 0.943507 -0.695105
v -0.435789 2.215713 -0.441189
v 0.683151 0.943507 0.677752
v 0.429235 2.215713 0.423836
v 0.683151 0.943507 -0.695105
v 0.429235 2.215713 -0.441189
v -0.689706 2.215713 0.677752
v -0.689706 2.215713 -0.695105
v 0.683151 2.215713 0.677752
v -0.435789 2.694548 0.423836
v -0.435789 2.694548 -0.441189
v 0.429235 2.694548 -0.441189
v 0.429235 2.694548 0.423836
v 0.683151 1.883991 -0.695105
v 0.279251 2.215713 -0.695105
v 0.683151 2.215713 -0.348440
v 0.518117 2.215713 -0.530070
v -0.689706 2.215713 0.327205
v -0.689706 2.215713 -0.547393
v -0.689706 2.078694 -0.093634
v -0.498974 2.215713 -0.235594
v -0.689706 1.029499 0.677752
v -0.689706 1.981778 0.677752
v -0.689706 1.674649 0.505599
v -0.477326 1.701643 0.677752
v -0.495749 1.296877 0.677752
v -0.435789 3.247364 0.423836
v -0.435789 3.247364 -0.441189
v 0.429235 3.247364 -0.441189
v 0.429235 3.247364 0.423836
v -0.622940 2.694548 0.610987
v -0.622940 2.694548 -0.628339
v 0.616386 2.694548 -0.628339
v 0.616386 2.694548 0.610987
v -0.622940 3.247364 0.610987
v -0.622940 3.247364 -0.628339
v 0.616386 3.247364 -0.628339
v 0.616386 3.247364 0.610987
v -0.435789 2.800093 0.423836
v -0.435789 2.800093 -0.441189
v 0.429235 2.800093 -0.441189
v 0.429235 2.800093 0.423836
v -0.835420 0.943507 0.823466
v 0.828865 0.943507 0.823466
v 0.828865 0.943507 -0.840819
v -0.835420 -0.928902 0.823466
v -0.835420 -0.928902 -0.840819
v 0.828865 -0.928902 0.823466
v 0.828865 -0.928902 -0.840819
v -0.732579 0.943507 -0.737978
v -0.835420 0.664604 -0.840819
v -0.558676 0.943507 -0.840819
v -0.835420 0.943507 -0.555640
v 0.828865 0.668272 0.823466
v 0.828865 -0.353742 0.823466
v 0.680624 0.344580 0.823466
v 0.643095 0.008385 0.823466
v 0.828865 0.140512 0.623079
vt 0.197821 0.869690
vt 0.207230 0.880848
vt 0.205855 0.881779
vt 0.096632 0.882157
vt 0.211623 0.878971
vt 0.377311 0.829746
vt 0.271908 0.796823
vt 0.230235 0.917346
vt 0.335229 0.862245
vt 0.235572 0.928801
vt 0.134580 0.887302
vt 0.134580 0.820931
vt 0.069959 0.883384
vt 0.137220 0.916463
vt 0.234456 0.890961
vt 0.246886 0.908370
vt 0.224903 0.887142
vt 0.226951 0.888955
vt 0.309772 0.868822
vt 0.288151 0.877257
vt 0.229870 0.749951
vt 0.229444 0.748846
vt 0.225575 0.748745
vt 0.156972 0.716581
vt 0.278744 0.782494
vt 0.209426 0.796735
vt 0.337030 0.759807
vt 0.279554 0.676650
vt 0.287694 0.665983
vt 0.167715 0.935137
vt 0.069961 0.928889
vt 0.167717 0.928923
vt 0.107082 0.727137
vt 0.069959 0.665982
vt 0.149002 0.730070
vt 0.203305 0.935149
vt 0.203307 0.928935
vt 0.111385 0.658643
vt 0.238118 0.757598
vt 0.308928 0.694316
vt 0.228840 0.748058
vt 0.238780 0.765828
vt 0.239078 0.761510
vt 0.383166 0.754877
vt 0.358448 0.754679
vt 0.802864 0.926918
vt 0.821773 0.640451
vt 0.823009 0.631452
vt 0.801554 0.929263
vt 0.822209 0.643508
vt 0.803864 0.929285
vt 0.823009 0.640347
vt 0.843728 0.643507
vt 0.825383 0.929282
vt 0.844527 0.640347
vt 0.843292 0.640451
vt 0.823834 0.935509
vt 0.824383 0.926915
vt 0.823073 0.929260
vt 0.844527 0.631452
vt 0.801490 0.640535
vt 0.781269 0.926917
vt 0.801490 0.631452
vt 0.800642 0.643505
vt 0.782248 0.929418
vt 0.779957 0.929127
vt 0.780644 0.935506
vt 0.800280 0.640264
vt 0.845431 0.926761
vt 0.864146 0.640058
vt 0.865431 0.637702
vt 0.845781 0.930013
vt 0.863121 0.637774
vt 0.844592 0.929659
vt 0.864639 0.631452
vt 0.755128 0.245648
vt 0.755364 0.244216
vt 0.757312 0.247343
vt 0.752144 0.242785
vt 0.750086 0.242192
vt 0.767512 0.228251
vt 0.751010 0.243972
vt 0.751511 0.246712
vt 0.742729 0.254992
vt 0.755700 0.248608
vt 0.757476 0.251929
vt 0.754211 0.243291
vt 0.752744 0.244429
vt 0.751753 0.243585
vt 0.754411 0.243853
vt 0.754355 0.245810
vt 0.751981 0.246093
vt 0.753102 0.244771
vt 0.753122 0.244635
vt 0.753133 0.244803
vt 0.752530 0.245289
vt 0.753373 0.244306
vt 0.753504 0.245078
vt 0.751437 0.243333
vt 0.754717 0.242876
vt 0.755375 0.246884
vt 0.761862 0.253844
vt 0.752996 0.244657
vt 0.753026 0.244727
vt 0.752993 0.244760
vt 0.752979 0.244640
vt 0.753246 0.244463
vt 0.752833 0.244513
vt 0.752806 0.244985
vt 0.752965 0.244782
vt 0.753315 0.244923
vt 0.753100 0.244660
vt 0.753064 0.244697
vt 0.753031 0.244690
vt 0.753061 0.244726
vt 0.738055 0.232536
vt 0.740501 0.234486
vt 0.764642 0.225952
vt 0.769955 0.231072
vt 0.763075 0.255256
vt 0.740603 0.256966
vt 0.685566 0.317109
vt 0.610777 0.397760
vt 0.584665 0.061793
vt 0.774988 0.220237
vt 0.896642 0.089171
vt 0.946585 0.397760
vt 0.765595 0.258345
vt 0.723743 0.287928
vt 0.730358 0.271307
vt 0.768297 0.227405
vt 0.715014 0.270151
vt 0.735445 0.260617
vt 0.069959 0.935103
vt 0.802315 0.935512
vt 0.844592 0.938860
vt 0.754587 0.242639
vt 0.754832 0.246486
vn -1.0000 -0.0000 0.0000
vn 0.0000 -0.7071 0.7071
vn 0.0000 -0.7065 -0.7077
vn 0.0000 0.0066 -1.0000
vn 0.0000 -1.0000 0.0002
vn 0.0000 0.7076 0.7066
vn 0.0000 0.0039 1.0000
vn 1.0000 0.0000 0.0000
vn 0.0000 0.7144 0.6997
vn 0.0000 -0.0004 -1.0000
vn 0.0000 -0.7071 -0.7071
vn 0.0000 -0.7065 0.7077
vn 0.0000 0.0066 1.0000
vn 0.0000 0.0000 1.0000
vn 0.0000 -1.0000 -0.0002
vn 0.0000 0.7076 -0.7066
vn 0.0000 0.0039 -1.0000
vn 0.0000 0.7144 -0.6997
vn 0.0000 -0.0004 1.0000
vn 0.0000 0.2525 -0.9676
vn 0.0000 -0.2525 0.9676
vn 0.0000 0.2525 0.9676
vn 0.0000 -0.2525 -0.9676
vn 0.0000 0.0000 -1.0000
vn 0.0000 1.0000 0.0000
vn 0.4674 0.5691 -0.6765
vn 0.6055 0.5750 -0.5502
vn -0.4273 0.8655 0.2614
vn -0.6745 0.7020 -0.2286
vn -0.5420 -0.4109 0.7331
vn -0.3349 0.2429 0.9104
vn -0.6316 0.0288 0.7747
vn 0.0000 -1.0000 0.0000
vn -0.7783 0.4489 -0.4390
vn -0.4544 0.4508 -0.7683
vn 0.5909 0.3031 0.7476
vn 0.6126 -0.2806 0.7389
vn 0.7579 -0.0846 0.6468
usemtl None
s off
f 7/1/1 11/2/1 12/3/1
f 7/1/2 1/4/2 6/5/2
f 19/6/3 6/5/3 24/7/3
f 8/8/4 22/9/4 27/10/4
f 21/11/1 17/12/1 2/13/1
f 4/14/4 27/10/4 21/11/4
f 24/7/3 1/4/3 17/12/3
f 3/15/5 11/2/5 6/5/5
f 7/1/6 4/14/6 2/13/6
f 13/16/1 7/1/1 12/3/1
f 9/17/7 11/2/7 10/18/7
f 3/15/8 9/17/8 10/18/8
f 5/19/8 9/17/8 22/9/8
f 14/20/9 12/3/9 9/17/9
f 8/8/10 14/20/10 5/19/10
f 26/21/1 31/22/1 25/23/1
f 15/24/11 26/21/11 25/23/11
f 25/23/12 19/25/12 24/26/12
f 22/27/13 28/28/13 27/29/13
f 27/30/14 17/31/14 24/32/14
f 17/33/1 21/34/1 16/35/1
f 22/36/14 24/32/14 19/37/14
f 27/29/13 20/38/13 21/34/13
f 15/24/12 24/26/12 17/33/12
f 31/22/15 18/39/15 25/23/15
f 20/38/16 26/21/16 16/35/16
f 26/21/1 33/40/1 32/41/1
f 31/22/17 29/42/17 30/43/17
f 18/39/8 30/43/8 29/42/8
f 22/27/8 19/25/8 29/42/8
f 32/41/18 34/44/18 29/42/18
f 34/44/19 28/28/19 23/45/19
f 36/46/1 37/47/1 35/48/1
f 38/49/20 41/50/20 37/47/20
f 41/50/8 40/51/8 39/52/8
f 39/52/21 36/46/21 35/48/21
f 45/53/8 44/54/8 43/55/8
f 49/56/20 46/57/20 45/53/20
f 49/56/1 48/58/1 50/59/1
f 43/55/21 48/58/21 47/60/21
f 53/61/1 52/62/1 51/63/1
f 57/64/22 54/65/22 53/61/22
f 57/64/8 56/66/8 58/67/8
f 55/68/23 52/62/23 56/66/23
f 60/69/8 61/70/8 59/71/8
f 62/72/22 65/73/22 61/70/22
f 65/73/1 64/74/1 63/75/1
f 64/74/23 59/71/23 63/75/23
f 86/76/1 88/77/1 92/78/1
f 83/79/24 82/80/24 69/81/24
f 84/82/8 77/83/8 71/84/8
f 93/85/14 94/86/14 71/84/14
f 70/87/24 80/88/24 74/89/24
f 70/87/25 89/90/25 68/91/25
f 74/89/25 83/79/25 70/87/25
f 72/92/25 84/82/25 74/89/25
f 68/91/25 77/83/25 72/92/25
f 95/93/25 104/94/25 103/95/25
f 74/89/8 81/96/8 72/92/8
f 68/91/1 79/97/1 70/87/1
f 72/92/14 78/98/14 68/91/14
f 85/99/26 82/80/26 83/79/26
f 82/80/27 85/99/27 84/82/27
f 87/100/28 88/77/28 89/90/28
f 86/76/29 89/90/29 88/77/29
f 91/101/30 92/78/30 93/85/30
f 90/102/31 94/86/31 92/78/31
f 93/85/32 92/78/32 94/86/32
f 97/103/1 110/104/1 98/105/1
f 98/105/25 105/106/25 97/103/25
f 78/98/33 100/107/33 79/97/33
f 81/96/33 101/108/33 102/109/33
f 101/108/8 106/110/8 102/109/8
f 99/111/1 104/94/1 100/107/1
f 102/109/14 103/95/14 99/111/14
f 100/107/24 105/106/24 101/108/24
f 81/96/33 99/111/33 78/98/33
f 79/97/33 101/108/33 80/88/33
f 95/93/25 106/110/25 98/105/25
f 96/112/25 105/106/25 104/94/25
f 108/113/25 110/104/25 109/114/25
f 95/93/8 108/113/8 96/112/8
f 95/93/24 110/104/24 107/115/24
f 96/112/14 109/114/14 97/103/14
f 71/84/25 113/116/25 73/117/25
f 73/117/25 120/118/25 69/81/25
f 69/81/25 121/119/25 67/120/25
f 67/120/25 112/121/25 71/84/25
f 123/122/8 116/123/8 117/124/8
f 119/125/1 115/126/1 114/127/1
f 111/128/14 125/129/14 124/130/14
f 118/131/34 119/125/34 121/119/34
f 119/125/35 118/131/35 120/118/35
f 120/118/24 117/124/24 119/125/24
f 123/122/36 126/132/36 125/129/36
f 122/133/37 124/130/37 126/132/37
f 125/129/38 126/132/38 124/130/38
f 7/1/1 6/5/1 11/2/1
f 7/1/2 2/13/2 1/4/2
f 19/6/3 3/15/3 6/5/3
f 8/8/4 5/19/4 22/9/4
f 1/4/1 2/13/1 17/12/1
f 4/14/1 21/11/1 2/13/1
f 4/14/4 8/8/4 27/10/4
f 24/7/3 6/5/3 1/4/3
f 3/15/5 10/18/5 11/2/5
f 7/1/6 8/8/6 4/14/6
f 13/16/1 8/8/1 7/1/1
f 9/17/7 12/3/7 11/2/7
f 5/19/8 14/20/8 9/17/8
f 9/17/8 3/15/8 19/6/8
f 19/6/8 22/9/8 9/17/8
f 14/20/9 13/16/9 12/3/9
f 8/8/10 13/16/10 14/20/10
f 26/21/1 32/41/1 31/22/1
f 15/24/11 16/35/11 26/21/11
f 25/23/12 18/39/12 19/25/12
f 22/27/13 23/45/13 28/28/13
f 27/30/14 21/134/14 17/31/14
f 20/38/1 16/35/1 21/34/1
f 15/24/1 17/33/1 16/35/1
f 22/36/14 27/30/14 24/32/14
f 27/29/13 28/28/13 20/38/13
f 15/24/12 25/23/12 24/26/12
f 31/22/15 30/43/15 18/39/15
f 20/38/16 28/28/16 26/21/16
f 26/21/1 28/28/1 33/40/1
f 31/22/17 32/41/17 29/42/17
f 23/45/8 22/27/8 29/42/8
f 19/25/8 18/39/8 29/42/8
f 29/42/8 34/44/8 23/45/8
f 32/41/18 33/40/18 34/44/18
f 34/44/19 33/40/19 28/28/19
f 36/46/1 38/49/1 37/47/1
f 38/49/20 42/135/20 41/50/20
f 41/50/8 42/135/8 40/51/8
f 39/52/21 40/51/21 36/46/21
f 45/53/8 46/57/8 44/54/8
f 49/56/20 50/59/20 46/57/20
f 49/56/1 47/60/1 48/58/1
f 43/55/21 44/54/21 48/58/21
f 53/61/1 54/65/1 52/62/1
f 57/64/22 58/67/22 54/65/22
f 57/64/8 55/68/8 56/66/8
f 55/68/23 51/63/23 52/62/23
f 60/69/8 62/72/8 61/70/8
f 62/72/22 66/136/22 65/73/22
f 65/73/1 66/136/1 64/74/1
f 64/74/23 60/69/23 59/71/23
f 69/81/1 67/120/1 90/102/1
f 92/78/1 91/101/1 86/76/1
f 69/81/1 90/102/1 92/78/1
f 87/100/1 76/137/1 69/81/1
f 75/138/1 86/76/1 91/101/1
f 88/77/1 87/100/1 69/81/1
f 69/81/1 92/78/1 88/77/1
f 73/117/24 69/81/24 82/80/24
f 76/137/24 83/79/24 69/81/24
f 71/84/8 73/117/8 82/80/8
f 82/80/8 84/82/8 71/84/8
f 67/120/14 94/86/14 90/102/14
f 77/83/14 75/138/14 93/85/14
f 75/138/14 91/101/14 93/85/14
f 67/120/14 71/84/14 94/86/14
f 77/83/14 93/85/14 71/84/14
f 70/87/24 79/97/24 80/88/24
f 75/138/25 68/91/25 86/76/25
f 70/87/25 76/137/25 87/100/25
f 89/90/25 86/76/25 68/91/25
f 70/87/25 87/100/25 89/90/25
f 76/137/25 70/87/25 83/79/25
f 74/89/25 85/99/25 83/79/25
f 85/99/25 74/89/25 84/82/25
f 72/92/25 77/83/25 84/82/25
f 68/91/25 75/138/25 77/83/25
f 95/93/25 96/112/25 104/94/25
f 74/89/8 80/88/8 81/96/8
f 68/91/1 78/98/1 79/97/1
f 72/92/14 81/96/14 78/98/14
f 97/103/1 109/114/1 110/104/1
f 98/105/25 106/110/25 105/106/25
f 78/98/33 99/111/33 100/107/33
f 81/96/33 80/88/33 101/108/33
f 101/108/8 105/106/8 106/110/8
f 99/111/1 103/95/1 104/94/1
f 102/109/14 106/110/14 103/95/14
f 100/107/24 104/94/24 105/106/24
f 81/96/33 102/109/33 99/111/33
f 79/97/33 100/107/33 101/108/33
f 95/93/25 103/95/25 106/110/25
f 96/112/25 97/103/25 105/106/25
f 108/113/25 107/115/25 110/104/25
f 95/93/8 107/115/8 108/113/8
f 95/93/24 98/105/24 110/104/24
f 96/112/14 108/113/14 109/114/14
f 71/84/25 112/121/25 113/116/25
f 118/131/25 69/81/25 120/118/25
f 73/117/25 113/116/25 120/118/25
f 111/128/25 67/120/25 121/119/25
f 69/81/25 118/131/25 121/119/25
f 67/120/25 111/128/25 112/121/25
f 117/124/8 113/116/8 126/132/8
f 112/121/8 122/133/8 113/116/8
f 126/132/8 123/122/8 117/124/8
f 113/116/8 122/133/8 126/132/8
f 114/127/1 111/128/1 121/119/1
f 121/119/1 119/125/1 114/127/1
f 122/133/14 112/121/14 124/130/14
f 111/128/14 114/127/14 125/129/14
f 116/123/14 123/122/14 114/127/14
f 124/130/14 112/121/14 111/128/14
f 114/127/14 123/122/14 125/129/14
f 115/126/24 119/125/24 117/124/24
f 120/118/24 113/116/24 117/124/24
