# Blender v2.79 (sub 0) OBJ File: 'chimney_brick_002.blend'
# www.blender.org
mtllib chimney_brick_002.mtl
o Cube.108_Cube.129
v -0.755445 -0.557048 0.782085
v -0.983000 -0.557048 0.554530
v -0.536491 1.889093 0.563131
v -0.764046 1.889093 0.335576
v -0.983000 -0.557048 -0.514211
v -0.755445 -0.557048 -0.741765
v -0.764046 1.889093 -0.295256
v -0.536491 1.889093 -0.522811
v 0.949263 -0.557048 0.554530
v 0.721708 -0.557048 0.782085
v 0.730309 1.889093 0.335576
v 0.502754 1.889093 0.563131
v 0.721708 -0.557048 -0.741765
v 0.949263 -0.557048 -0.514211
v 0.502754 1.889093 -0.522811
v 0.730309 1.889093 -0.295256
v -0.755445 1.889093 0.782085
v -0.983000 1.889093 0.554530
v -0.983000 1.889093 -0.514211
v -0.755445 1.889093 -0.741765
v 0.721708 1.889093 -0.741765
v 0.949263 1.889093 -0.514211
v 0.949263 1.889093 0.554530
v 0.721708 1.889093 0.782085
v -0.536491 2.295792 0.563131
v -0.764046 2.295792 0.335576
v -0.764046 2.295792 -0.295256
v -0.536491 2.295792 -0.522811
v 0.502754 2.295792 -0.522811
v 0.730309 2.295792 -0.295256
v 0.730309 2.295792 0.335576
v 0.502754 2.295792 0.563131
v -0.385406 3.137290 0.353751
v -0.612961 3.137290 0.126197
v -0.612961 3.137290 -0.085877
v -0.385406 3.137290 -0.313432
v 0.351669 3.137290 -0.313432
v 0.579224 3.137290 -0.085877
v 0.579224 3.137290 0.126197
v 0.351669 3.137290 0.353751
v -0.848519 2.324181 0.412315
v -0.636317 2.324181 0.624517
v -0.636317 2.324181 -0.584197
v -0.848519 2.324181 -0.371995
v 0.602580 2.324181 -0.584197
v 0.814782 2.324181 -0.371995
v 0.814782 2.324181 0.412315
v 0.602580 2.324181 0.624517
v -0.848519 3.108902 0.412315
v -0.636317 3.108902 0.624517
v -0.636317 3.108902 -0.584197
v -0.848519 3.108902 -0.371995
v 0.602580 3.108902 -0.584197
v 0.814782 3.108902 -0.371995
v -0.612961 1.802898 0.126197
v -0.385406 1.802898 0.353751
v -0.385406 1.802898 -0.313432
v -0.612961 1.802898 -0.085877
v 0.579224 1.802898 -0.085877
v 0.351669 1.802898 -0.313432
v 0.351669 1.802898 0.353751
v 0.579224 1.802898 0.126197
v -0.755445 0.656089 0.782085
v -0.755445 1.690892 0.782085
v -0.386197 1.231147 0.782085
v -0.861097 1.385671 0.676433
v 0.814782 2.684648 0.412315
v 0.602580 2.492738 0.624517
v 0.814782 3.108902 -0.041709
v 0.080987 3.108902 0.624517
v 0.547581 3.123823 0.354825
vt 0.859528 0.275586
vt 0.868306 0.290389
vt 0.893577 0.299269
vt 0.887880 0.293035
vt 0.879220 0.288899
vt 0.869438 0.277544
vt 0.884809 0.230245
vt 0.775952 0.920337
vt 0.661040 0.842620
vt 0.715740 0.822681
vt 0.780574 0.870404
vt 0.885835 0.839899
vt 0.831047 0.916937
vt 0.808023 0.866263
vt 0.838509 0.830661
vt 0.663280 0.785263
vt 0.723130 0.709240
vt 0.746377 0.760484
vt 0.712595 0.796116
vt 0.888790 0.176405
vt 0.904984 0.305297
vt 0.905296 0.316337
vt 0.822665 0.119262
vt 0.870205 0.297034
vt 0.894500 0.309882
vt 0.777731 0.705821
vt 0.885835 0.786265
vt 0.833956 0.805555
vt 0.772823 0.754447
vt 0.772574 0.233035
vt 0.858769 0.286099
vt 0.862429 0.293294
vt 0.813369 0.275586
vt 0.072937 0.732944
vt 0.177564 0.664321
vt 0.185073 0.680046
vt 0.086552 0.738120
vt 0.768039 0.046798
vt 0.903796 0.284969
vt 0.852715 0.295884
vt 0.731255 0.187284
vt 0.256725 0.664321
vt 0.399514 0.764131
vt 0.389930 0.775024
vt 0.246805 0.677722
vt 0.897369 0.318924
vt 0.867478 0.297286
vt 0.863422 0.292061
vt 0.865939 0.293568
vt 0.905093 0.320016
vt 0.930532 0.375077
vt 0.268204 0.842788
vt 0.189723 0.798002
vt 0.245538 0.799130
vt 0.258523 0.809610
vt 0.176540 0.767536
vt 0.203202 0.773975
vt 0.245504 0.799487
vt 0.244462 0.796806
vt 0.088016 0.740129
vt 0.198741 0.748859
vt 0.240712 0.781076
vt 0.299266 0.815598
vt 0.260581 0.810994
vt 0.249529 0.801838
vt 0.263413 0.811264
vt 0.262680 0.813239
vt 0.376297 0.792070
vt 0.286206 0.791460
vt 0.226643 0.751347
vt 0.255228 0.937934
vt 0.087960 0.812695
vt 0.131252 0.776664
vt 0.282074 0.874242
vt 0.397385 0.835480
vt 0.326082 0.927337
vt 0.313673 0.889853
vt 0.391930 0.893763
vt 0.374488 0.827205
vt 0.327642 0.840979
vt 0.320750 0.854026
vt 0.245415 0.952412
vt 0.076300 0.824009
vt 0.411438 0.840752
vt 0.334728 0.941733
vt 0.325332 0.834108
vt 0.879604 0.291830
vn 0.0000 0.0000 1.0000
vn 0.0000 0.0000 -1.0000
vn 1.0000 0.0000 0.0000
vn -1.0000 0.0000 0.0000
vn 0.0000 1.0000 0.0000
vn -0.3186 -0.9479 0.0000
vn 0.0000 -0.9076 0.4197
vn -0.1196 0.9928 0.0000
vn 0.0000 -0.9076 -0.4197
vn 0.3186 -0.9479 0.0000
vn 0.0080 0.9937 0.1122
vn 0.0000 0.9945 -0.1043
vn 0.1357 0.9905 0.0229
vn -0.7071 0.0000 0.7071
vn -0.7071 0.0000 -0.7071
vn 0.7071 0.0000 -0.7071
vn 0.7071 0.0000 0.7071
vn 0.1709 -0.9704 0.1709
vn 0.1709 -0.9704 -0.1709
vn -0.0543 0.9971 0.0543
vn -0.0543 0.9971 -0.0543
vn -0.1709 -0.9704 0.1709
vn -0.1709 -0.9704 -0.1709
vn 0.0543 0.9971 -0.0543
vn -0.2809 -0.2256 0.9328
vn -0.1798 0.1154 0.9769
vn 0.7255 0.5029 0.4699
vn 0.0680 0.9954 0.0680
vn 0.4567 0.3830 0.8030
vn 0.4530 0.3834 0.8049
usemtl None
s off
f 10/1/1 24/2/1 17/3/1 64/4/1 65/5/1 63/6/1 1/7/1
f 15/8/2 8/9/2 28/10/2 29/11/2
f 11/12/3 16/13/3 30/14/3 31/15/3
f 7/16/4 4/17/4 26/18/4 27/19/4
f 2/20/4 18/21/4 19/22/4 5/23/4
f 12/24/5 3/25/5 17/3/5 24/2/5
f 3/26/1 12/27/1 32/28/1 25/29/1
f 14/30/3 22/31/3 23/32/3 9/33/3
f 27/34/6 26/35/6 41/36/6 44/37/6
f 6/38/2 20/39/2 21/40/2 13/41/2
f 25/42/7 32/43/7 48/44/7 42/45/7
f 8/46/5 15/47/5 21/40/5 20/39/5
f 16/48/5 11/49/5 23/32/5 22/31/5
f 4/50/5 7/51/5 19/22/5 18/21/5
f 37/52/1 36/53/1 57/54/1 60/55/1
f 35/56/3 34/57/3 55/58/3 58/59/3
f 34/57/8 35/56/8 52/60/8 49/61/8
f 33/62/2 40/63/2 61/64/2 56/65/2
f 59/66/5 60/55/5 57/54/5 58/59/5 55/58/5 56/65/5 61/64/5 62/67/5
f 42/45/1 48/44/1 68/68/1 70/69/1 50/70/1
f 45/71/2 43/72/2 51/73/2 53/74/2
f 47/75/3 46/76/3 54/77/3 69/78/3 67/79/3
f 39/80/4 38/81/4 59/66/4 62/67/4
f 29/82/9 28/83/9 43/72/9 45/71/9
f 31/84/10 30/85/10 46/76/10 47/75/10
f 44/37/4 41/36/4 49/61/4 52/60/4
f 40/63/11 33/62/11 50/70/11 70/69/11 71/86/11
f 36/53/12 37/52/12 53/74/12 51/73/12
f 38/81/13 39/80/13 71/86/13 69/78/13 54/77/13
f 1/7/14 63/6/14 66/87/14 64/4/14 17/3/14 18/21/14 2/20/14
f 20/39/15 6/38/15 5/23/15 19/22/15
f 22/31/16 14/30/16 13/41/16 21/40/16
f 24/2/17 10/1/17 9/33/17 23/32/17
f 17/3/5 3/25/5 4/50/5 18/21/5
f 8/46/5 20/39/5 19/22/5 7/51/5
f 16/48/5 22/31/5 21/40/5 15/47/5
f 12/24/5 24/2/5 23/32/5 11/49/5
f 11/12/17 31/15/17 32/28/17 12/27/17
f 26/18/14 4/17/14 3/26/14 25/29/14
f 7/16/15 27/19/15 28/10/15 8/9/15
f 30/14/16 16/13/16 15/8/16 29/11/16
f 48/44/18 32/43/18 31/84/18 47/75/18
f 29/82/19 45/71/19 46/76/19 30/85/19
f 50/70/20 33/62/20 34/57/20 49/61/20
f 36/53/21 51/73/21 52/60/21 35/56/21
f 45/71/16 53/74/16 54/77/16 46/76/16
f 42/45/14 50/70/14 49/61/14 41/36/14
f 51/73/15 43/72/15 44/37/15 52/60/15
f 25/42/22 42/45/22 41/36/22 26/35/22
f 43/72/23 28/83/23 27/34/23 44/37/23
f 38/81/24 54/77/24 53/74/24 37/52/24
f 33/62/16 56/65/16 55/58/16 34/57/16
f 57/54/17 36/53/17 35/56/17 58/59/17
f 39/80/15 62/67/15 61/64/15 40/63/15
f 59/66/14 38/81/14 37/52/14 60/55/14
f 66/87/25 65/5/25 64/4/25
f 65/5/26 66/87/26 63/6/26
f 71/86/27 67/79/27 69/78/27
f 71/86/28 39/80/28 40/63/28
f 67/79/17 68/68/17 48/44/17 47/75/17
f 67/79/29 71/86/29 68/68/29
f 70/69/30 68/68/30 71/86/30
