# Blender v2.79 (sub 0) OBJ File: 'chimney_brick_003.blend'
# www.blender.org
mtllib chimney_brick_003.mtl
o Cube.109_Cube.045
v -0.665478 -0.695829 0.721717
v -0.817519 -0.695829 0.592397
v -0.376617 1.631685 0.476022
v -0.528658 1.631685 0.346700
v -0.817519 -0.695829 -0.565162
v -0.665478 -0.695829 -0.694482
v -0.528658 1.631685 -0.319465
v -0.376617 1.631685 -0.448787
v 0.847485 -0.695829 0.592397
v 0.695444 -0.695829 0.721717
v 0.558623 1.631685 0.346700
v 0.406583 1.631685 0.476022
v 0.695444 -0.695829 -0.694482
v 0.847485 -0.695829 -0.565162
v 0.406583 1.631685 -0.448787
v 0.558623 1.631685 -0.319465
v -0.665478 1.631685 0.721717
v -0.817519 1.631685 0.592397
v -0.817519 1.631685 -0.565162
v -0.665478 1.631685 -0.694482
v 0.695444 1.631685 -0.694482
v 0.847485 1.631685 -0.565162
v 0.847485 1.631685 0.592397
v 0.695444 1.631685 0.721717
v -0.376617 1.833059 0.476022
v -0.528658 1.833059 0.346700
v -0.528658 1.833059 -0.319465
v -0.376617 1.833059 -0.448787
v 0.406583 1.833059 -0.448787
v 0.558623 1.833059 -0.319465
v 0.558623 1.833059 0.346700
v 0.406583 1.833059 0.476022
v -0.687680 2.907624 0.481959
v -0.535639 2.907624 0.611280
v -0.535639 2.907624 -0.584044
v -0.687680 2.907624 -0.454724
v 0.717646 2.907624 -0.454724
v 0.565605 2.907624 -0.584044
v 0.482603 2.907624 0.411361
v -0.687680 1.833059 0.481959
v -0.535639 1.833059 0.611280
v -0.687680 1.833059 -0.454724
v -0.535639 1.833059 -0.584044
v 0.565605 1.833059 -0.584044
v 0.717646 1.833059 -0.454724
v 0.565605 1.833059 0.611280
v 0.717646 1.833059 0.481959
v 0.279462 3.581572 -0.099229
v 0.279462 2.833212 -0.188693
v -0.247313 2.833212 -0.188693
v -0.247313 3.581572 -0.099229
v -0.075346 2.833212 -0.105878
v -0.145291 3.581572 -0.050097
v -0.032873 2.833212 0.080207
v -0.120094 3.581572 0.060300
v -0.151878 2.833212 0.229436
v -0.190695 3.581572 0.148832
v -0.342748 2.833212 0.229434
v -0.303931 3.581572 0.148832
v -0.461753 2.833212 0.080207
v -0.374533 3.581572 0.060300
v -0.419281 2.833212 -0.105878
v -0.349335 3.581572 -0.050097
v 0.451430 2.833212 -0.105878
v 0.381484 3.581572 -0.050097
v 0.493903 2.833212 0.080207
v 0.406682 3.581572 0.060300
v 0.374897 2.833212 0.229436
v 0.336080 3.581572 0.148832
v 0.184028 2.833212 0.229434
v 0.222845 3.581572 0.148832
v 0.065022 2.833212 0.080207
v 0.152243 3.581572 0.060300
v 0.107495 2.833212 -0.105878
v 0.177441 3.581572 -0.050097
v 0.493903 3.581572 0.080207
v 0.451430 3.581572 -0.105878
v -0.075346 3.581572 -0.105878
v -0.247313 3.581572 -0.188693
v 0.184028 3.581572 0.229434
v 0.374897 3.581572 0.229436
v -0.032873 3.581572 0.080207
v -0.151878 3.581572 0.229436
v -0.342748 3.581572 0.229434
v 0.279462 3.581572 -0.188693
v -0.461753 3.581572 0.080207
v -0.419281 3.581572 -0.105878
v 0.065022 3.581572 0.080207
v 0.107495 3.581572 -0.105878
v 0.406682 2.561658 0.060300
v 0.381484 2.561658 -0.050097
v -0.145291 2.561658 -0.050097
v -0.247313 2.561658 -0.099229
v 0.222845 2.561658 0.148832
v 0.336080 2.561658 0.148832
v -0.120094 2.561658 0.060300
v -0.190695 2.561658 0.148832
v -0.303931 2.561658 0.148832
v 0.279462 2.561658 -0.099229
v -0.374533 2.561658 0.060300
v -0.349335 2.561658 -0.050097
v 0.152243 2.561658 0.060300
v 0.177441 2.561658 -0.050097
v 0.565605 2.505382 0.611280
v 0.141071 2.907624 0.611280
v 0.717646 2.247302 0.481959
v 0.717646 2.907624 0.039861
v -0.665478 0.207823 0.721717
v -0.665478 1.364625 0.721717
v -0.773286 0.825014 0.630019
v -0.371232 0.865362 0.721717
v -0.687680 2.022651 -0.454724
v -0.687680 2.739022 -0.454724
v -0.687680 2.412996 -0.146298
v -0.594857 2.484836 -0.533675
vt 0.808308 0.044204
vt 0.787306 0.237750
vt 0.783983 0.245570
vt 0.782073 0.245445
vt 0.778563 0.242625
vt 0.745668 0.250688
vt 0.695808 0.259556
vt 0.751047 0.938036
vt 0.634207 0.836189
vt 0.682433 0.826826
vt 0.762741 0.895022
vt 0.912579 0.834917
vt 0.811158 0.954460
vt 0.803263 0.907538
vt 0.865809 0.827869
vt 0.634207 0.776450
vt 0.732625 0.654915
vt 0.741354 0.701856
vt 0.679729 0.783574
vt 0.697719 0.270192
vt 0.784144 0.246751
vt 0.790022 0.249742
vt 0.781009 0.369067
vt 0.787950 0.240334
vt 0.785956 0.244707
vt 0.793423 0.670370
vt 0.912694 0.772200
vt 0.862249 0.781364
vt 0.782208 0.713952
vt 0.956595 0.226155
vt 0.794825 0.241027
vt 0.788819 0.237543
vt 0.832410 0.049093
vt 0.756155 0.727041
vt 0.699959 0.795956
vt 0.796277 0.369859
vt 0.791335 0.249456
vt 0.794999 0.242301
vt 0.956595 0.246310
vt 0.790805 0.247143
vt 0.792905 0.243073
vt 0.792673 0.241871
vt 0.789146 0.239898
vt 0.786226 0.245851
vt 0.789662 0.247583
vt 0.779843 0.828733
vt 0.787510 0.806168
vt 0.787229 0.817468
vt 0.773427 0.829530
vt 0.754776 0.809852
vt 0.753269 0.803689
vt 0.766262 0.780478
vt 0.773167 0.779523
vt 0.748804 0.803146
vt 0.742325 0.792100
vt 0.712999 0.799683
vt 0.789069 0.882226
vt 0.845750 0.815638
vt 0.785714 0.794322
vt 0.777249 0.885211
vt 0.697316 0.810956
vt 0.846999 0.797129
vt 0.767965 0.723781
vt 0.813149 0.811923
vt 0.778030 0.245056
vt 0.802340 0.803492
vt 0.741161 0.799336
vt 0.156860 0.742182
vt 0.097341 0.715962
vt 0.201717 0.872168
vt 0.103749 0.901958
vt 0.129219 0.799788
vt 0.116356 0.769228
vt 0.138793 0.773731
vt 0.124335 0.800765
vt 0.298199 0.805670
vt 0.327359 0.806846
vt 0.317090 0.824798
vt 0.299535 0.801036
vt 0.149652 0.791950
vt 0.120624 0.797408
vt 0.301388 0.809389
vt 0.321094 0.786772
vt 0.143435 0.812076
vt 0.120819 0.792370
vt 0.308806 0.800988
vt 0.309783 0.805872
vt 0.306426 0.809584
vt 0.304201 0.799160
vt 0.300968 0.780555
vt 0.123361 0.818341
vt 0.124538 0.789181
vt 0.296193 0.828521
vt 0.278246 0.813852
vt 0.282749 0.791414
vt 0.105409 0.808072
vt 0.129171 0.790517
vt 0.079700 0.823430
vt 0.120731 0.839827
vt 0.102918 0.710631
vt 0.171456 0.724383
vt 0.101686 0.787175
vt 0.131047 0.795183
vt 0.251200 0.773348
vt 0.298123 0.757410
vt 0.348458 0.759824
vt 0.348845 0.809476
vt 0.172797 0.789106
vt 0.170383 0.839440
vt 0.224980 0.832867
vt 0.065312 0.773276
vt 0.332449 0.850508
vt 0.282295 0.864895
vt 0.219576 0.784647
vt 0.272622 0.888059
vt 0.219650 0.827290
vt 0.042148 0.838004
vt 0.233400 0.758752
vt 0.042148 0.763603
vt 0.293664 0.710631
vt 0.381185 0.728490
vt 0.347022 0.888059
vt 0.410976 0.826458
vn -0.0000 0.0000 1.0000
vn 0.0000 0.0000 -1.0000
vn 1.0000 0.0000 0.0000
vn -1.0000 0.0000 0.0000
vn 0.0000 1.0000 0.0000
vn 0.0000 -1.0000 0.0000
vn -0.6479 0.0000 0.7617
vn -0.6479 0.0000 -0.7617
vn 0.6479 0.0000 -0.7617
vn 0.6479 0.0000 0.7617
vn -0.4339 0.0000 0.9010
vn 0.4339 0.0000 -0.9010
vn -0.7818 0.0000 0.6235
vn 0.9749 0.0000 -0.2225
vn 0.7818 0.0000 0.6235
vn -0.4339 0.0000 -0.9010
vn 0.7818 0.0000 -0.6235
vn -0.9749 0.0000 -0.2225
vn 0.9749 0.0000 0.2225
vn 0.4339 0.0000 0.9010
vn -0.9749 0.0000 0.2225
vn -0.7818 0.0000 -0.6235
vn 0.4458 0.4705 0.7615
vn 0.7956 0.3370 0.5034
vn 0.8755 0.3475 0.3358
vn -0.2089 -0.1231 0.9702
vn -0.2310 0.1034 0.9674
vn -0.9663 0.1596 -0.2020
vn -0.9285 -0.2552 -0.2698
usemtl None
s off
f 10/1/1 24/2/1 17/3/1 109/4/1 111/5/1 108/6/1 1/7/1
f 15/8/2 8/9/2 28/10/2 29/11/2
f 11/12/3 16/13/3 30/14/3 31/15/3
f 7/16/4 4/17/4 26/18/4 27/19/4
f 2/20/4 18/21/4 19/22/4 5/23/4
f 12/24/5 3/25/5 17/3/5 24/2/5
f 3/26/1 12/27/1 32/28/1 25/29/1
f 14/30/3 22/31/3 23/32/3 9/33/3
f 27/19/6 26/18/6 40/34/6 42/35/6
f 6/36/2 20/37/2 21/38/2 13/39/2
f 8/40/5 15/41/5 21/38/5 20/37/5
f 16/42/5 11/43/5 23/32/5 22/31/5
f 4/44/5 7/45/5 19/22/5 18/21/5
f 37/46/5 39/47/5 107/48/5
f 37/46/5 38/49/5 35/50/5 36/51/5 33/52/5 34/53/5 39/47/5
f 42/35/4 40/34/4 33/52/4 36/51/4 113/54/4 114/55/4 112/56/4
f 31/15/6 30/14/6 45/57/6 47/58/6
f 39/47/5 34/53/5 105/59/5
f 44/60/2 43/61/2 35/50/2 38/49/2
f 25/29/6 32/28/6 46/62/6 41/63/6
f 47/58/3 45/57/3 37/46/3 107/48/3 106/64/3
f 29/11/6 28/10/6 43/61/6 44/60/6
f 1/7/7 108/6/7 110/65/7 109/4/7 17/3/7 18/21/7 2/20/7
f 20/37/8 6/36/8 5/23/8 19/22/8
f 22/31/9 14/30/9 13/39/9 21/38/9
f 24/2/10 10/1/10 9/33/10 23/32/10
f 17/3/5 3/25/5 4/44/5 18/21/5
f 8/40/5 20/37/5 19/22/5 7/45/5
f 16/42/5 22/31/5 21/38/5 15/41/5
f 12/24/5 24/2/5 23/32/5 11/43/5
f 11/12/10 31/15/10 32/28/10 12/27/10
f 26/18/7 4/17/7 3/26/7 25/29/7
f 7/16/8 27/19/8 28/10/8 8/9/8
f 30/14/9 16/13/9 15/8/9 29/11/9
f 104/66/10 46/62/10 47/58/10 106/64/10
f 45/57/6 30/14/6 29/11/6 44/60/6
f 27/19/6 42/35/6 43/61/6 28/10/6
f 42/35/8 112/56/8 115/67/8 113/54/8 36/51/8 35/50/8 43/61/8
f 37/46/9 45/57/9 44/60/9 38/49/9
f 41/63/1 46/62/1 104/66/1 105/59/1 34/53/1
f 41/63/7 34/53/7 33/52/7 40/34/7
f 46/62/6 32/28/6 31/15/6 47/58/6
f 25/29/6 41/63/6 40/34/6 26/18/6
f 53/68/11 51/69/11 93/70/11 92/71/11
f 50/72/12 79/73/12 78/74/12 52/75/12
f 70/76/13 80/77/13 88/78/13 72/79/13
f 52/75/14 78/74/14 82/80/14 54/81/14
f 68/82/1 81/83/1 80/77/1 70/76/1
f 54/81/15 82/80/15 83/84/15 56/85/15
f 49/86/6 64/87/6 66/88/6 68/82/6 70/76/6 72/79/6 74/89/6
f 66/88/15 76/90/15 81/83/15 68/82/15
f 56/85/1 83/84/1 84/91/1 58/92/1
f 74/89/16 89/93/16 85/94/16 49/86/16
f 64/87/14 77/95/14 76/90/14 66/88/14
f 58/92/13 84/91/13 86/96/13 60/97/13
f 61/98/17 59/99/17 98/100/17 100/101/17
f 49/86/12 85/94/12 77/95/12 64/87/12
f 60/97/18 86/96/18 87/102/18 62/103/18
f 72/79/18 88/78/18 89/93/18 74/89/18
f 62/103/16 87/102/16 79/73/16 50/72/16
f 50/72/6 52/75/6 54/81/6 56/85/6 58/92/6 60/97/6 62/103/6
f 65/104/5 67/105/5 76/90/5 77/95/5
f 51/69/5 53/68/5 78/74/5 79/73/5
f 69/106/5 71/107/5 80/77/5 81/83/5
f 53/68/5 55/108/5 82/80/5 78/74/5
f 55/108/5 57/109/5 83/84/5 82/80/5
f 57/109/5 59/99/5 84/91/5 83/84/5
f 67/105/5 69/106/5 81/83/5 76/90/5
f 48/110/5 65/104/5 77/95/5 85/94/5
f 59/99/5 61/98/5 86/96/5 84/91/5
f 61/98/5 63/111/5 87/102/5 86/96/5
f 63/111/5 51/69/5 79/73/5 87/102/5
f 71/107/5 73/112/5 88/78/5 80/77/5
f 73/112/5 75/113/5 89/93/5 88/78/5
f 75/113/5 48/110/5 85/94/5 89/93/5
f 63/111/19 61/98/19 100/101/19 101/114/19
f 71/107/2 69/106/2 95/115/2 94/116/2
f 51/69/20 63/111/20 101/114/20 93/70/20
f 55/108/21 53/68/21 92/71/21 96/117/21
f 73/112/17 71/107/17 94/116/17 102/118/17
f 57/109/22 55/108/22 96/117/22 97/119/22
f 75/113/19 73/112/19 102/118/19 103/120/19
f 59/99/2 57/109/2 97/119/2 98/100/2
f 48/110/20 75/113/20 103/120/20 99/121/20
f 69/106/22 67/105/22 90/122/22 95/115/22
f 65/104/11 48/110/11 99/121/11 91/123/11
f 67/105/21 65/104/21 91/123/21 90/122/21
f 104/66/23 39/47/23 105/59/23
f 39/47/24 106/64/24 107/48/24
f 104/66/25 106/64/25 39/47/25
f 110/65/26 111/5/26 109/4/26
f 111/5/27 110/65/27 108/6/27
f 114/55/28 115/67/28 112/56/28
f 115/67/29 114/55/29 113/54/29
