# Blender v2.79 (sub 0) OBJ File: 'crate_001.blend'
# www.blender.org
mtllib crate_001.mtl
o Cube.127_Cube.145
v -0.376607 0.000134 0.381663
v -0.376607 1.016772 0.381663
v -0.376607 0.000134 -0.380815
v -0.376607 1.016772 -0.380815
v 0.385872 0.000134 0.381663
v 0.385872 1.016772 0.381663
v 0.385872 0.000134 -0.380815
v 0.385872 1.016772 -0.380815
v -0.503687 0.127214 -0.380815
v -0.503687 0.127214 0.381663
v -0.503687 0.889692 0.381663
v -0.503687 0.889692 -0.380815
v 0.512952 0.127214 -0.380815
v 0.512952 0.889692 -0.380815
v 0.512952 0.127214 0.381663
v 0.512952 0.889692 0.381663
v -0.376607 0.127214 -0.507895
v -0.376607 0.127214 0.508743
v -0.376607 0.889692 0.508743
v -0.376607 0.889692 -0.507895
v 0.385872 0.889692 -0.507895
v 0.385872 0.127214 -0.507895
v 0.385872 0.127214 0.508743
v 0.385872 0.889692 0.508743
v -0.503687 0.000134 0.508743
v -0.503687 1.016772 0.508743
v -0.503687 1.016772 -0.507895
v -0.503687 0.000134 -0.507895
v 0.512952 0.000134 -0.507895
v 0.512952 1.016772 -0.507895
v 0.512952 1.016772 0.508743
v 0.512952 0.000134 0.508743
v -0.329740 0.062623 -0.333949
v -0.329740 0.062623 0.334796
v -0.329740 0.954283 0.334796
v -0.329740 0.954283 -0.333949
v 0.339005 0.062623 -0.333949
v 0.339005 0.954283 -0.333949
v 0.339005 0.062623 0.334796
v 0.339005 0.954283 0.334796
v -0.441198 0.174080 -0.333949
v -0.441198 0.174080 0.334796
v -0.441198 0.842826 0.334796
v -0.441198 0.842826 -0.333949
v 0.450463 0.842826 -0.333949
v 0.450463 0.174080 -0.333949
v 0.450463 0.174080 0.334796
v 0.450463 0.842826 0.334796
v -0.329740 0.174080 0.446254
v -0.329740 0.842826 0.446254
v -0.329740 0.842826 -0.445406
v -0.329740 0.174080 -0.445406
v 0.339005 0.174080 -0.445406
v 0.339005 0.842826 -0.445406
v 0.339005 0.842826 0.446254
v 0.339005 0.174080 0.446254
v -0.485466 0.026813 0.358242
v -0.442616 0.026813 0.358242
v -0.485466 0.152057 0.483486
v -0.442616 0.152057 0.483486
v -0.485466 0.863282 -0.478226
v -0.442616 0.863282 -0.478226
v -0.485466 0.988525 -0.352982
v -0.442616 0.988525 -0.352982
v 0.448356 0.026813 0.358242
v 0.491206 0.026813 0.358242
v 0.448356 0.152057 0.483486
v 0.491206 0.152057 0.483486
v 0.448356 0.863281 -0.478226
v 0.491206 0.863281 -0.478226
v 0.448356 0.988525 -0.352982
v 0.491206 0.988525 -0.352982
v -0.353187 0.026813 0.444149
v -0.353187 0.026813 0.486998
v -0.478430 0.152057 0.444149
v -0.478430 0.152057 0.486998
v 0.483282 0.863281 0.444149
v 0.483282 0.863281 0.486998
v 0.358038 0.988525 0.444149
v 0.358038 0.988525 0.486998
v -0.353187 0.026813 -0.489673
v -0.353187 0.026813 -0.446824
v -0.478430 0.152057 -0.489673
v -0.478430 0.152057 -0.446824
v 0.483282 0.863282 -0.489673
v 0.483282 0.863282 -0.446824
v 0.358038 0.988525 -0.489673
v 0.358038 0.988525 -0.446824
v -0.353187 0.018356 0.482064
v -0.353187 0.061205 0.482064
v -0.478430 0.018356 0.356820
v -0.478430 0.061205 0.356820
v 0.483282 0.018356 -0.354405
v 0.483282 0.061205 -0.354405
v 0.358038 0.018356 -0.479648
v 0.358038 0.061205 -0.479648
v -0.353187 0.952178 0.482064
v -0.353187 0.995027 0.482064
v -0.478430 0.952178 0.356820
v -0.478430 0.995027 0.356820
v 0.483282 0.952178 -0.354405
v 0.483282 0.995027 -0.354405
v 0.358038 0.952178 -0.479648
v 0.358038 0.995027 -0.479648
vt 0.099526 0.834359
vt 0.127026 0.854068
vt 0.125175 0.855266
vt 0.105109 0.842265
vt 0.132927 0.876370
vt 0.150030 0.874975
vt 0.148947 0.877064
vt 0.134095 0.878196
vt 0.148034 0.854953
vt 0.148671 0.869298
vt 0.147135 0.868017
vt 0.146760 0.856454
vt 0.153596 0.853626
vt 0.181694 0.831704
vt 0.177345 0.840317
vt 0.155646 0.854675
vt 0.112661 0.903808
vt 0.120770 0.898201
vt 0.134114 0.870080
vt 0.135408 0.868521
vt 0.182387 0.890780
vt 0.193386 0.808122
vt 0.194216 0.914893
vt 0.100188 0.892841
vt 0.088768 0.915470
vt 0.088051 0.811387
vt 0.154900 0.870484
vt 0.151398 0.872013
vt 0.128379 0.871453
vt 0.131375 0.872845
vt 0.150720 0.852324
vt 0.130608 0.852459
vt 0.218303 0.782246
vt 0.219565 0.939660
vt 0.063038 0.787057
vt 0.064289 0.940497
vt 0.133418 0.855323
vt 0.169307 0.820321
vt 0.110927 0.822709
vt 0.171438 0.903303
vt 0.132047 0.849447
vt 0.149196 0.848840
vt 0.779535 0.698122
vt 0.779504 0.787306
vt 0.690321 0.787275
vt 0.690352 0.698091
vt 0.690321 0.787413
vt 0.779504 0.787413
vt 0.779504 0.876596
vt 0.690321 0.876596
vt 0.868826 0.876673
vt 0.868826 0.965856
vt 0.779642 0.965856
vt 0.779642 0.876673
vt 0.958117 0.698091
vt 0.958117 0.787275
vt 0.868933 0.787275
vt 0.868933 0.698091
vt 0.868826 0.876566
vt 0.779642 0.876566
vt 0.779642 0.787382
vt 0.868826 0.787382
vt 0.868826 0.787275
vt 0.779642 0.787275
vt 0.779642 0.698091
vt 0.868826 0.698091
vt 0.134995 0.856658
vt 0.133149 0.847368
vt 0.148035 0.847026
vt 0.176733 0.882638
vt 0.161233 0.826081
vt 0.104506 0.884419
vt 0.238952 0.762454
vt 0.238952 0.960202
vt 0.119285 0.826898
vt 0.156711 0.869327
vt 0.043964 0.767047
vt 0.126271 0.870360
vt 0.044060 0.959563
vt 0.162996 0.898945
vt 0.596646 0.032193
vt 0.954135 0.032193
vt 0.954135 0.389682
vt 0.596646 0.389682
vt 0.596646 0.032193
vt 0.954135 0.032193
vt 0.954135 0.389682
vt 0.596646 0.389682
vt 0.596646 0.032193
vt 0.954135 0.032193
vt 0.954135 0.389682
vt 0.596646 0.389682
vt 0.596646 0.032193
vt 0.954135 0.032193
vt 0.954135 0.389682
vt 0.596646 0.389682
vt 0.954135 0.032193
vt 0.954135 0.389682
vt 0.596646 0.032193
vt 0.596646 0.389682
vt 0.596646 0.032193
vt 0.954135 0.032193
vt 0.954135 0.389682
vt 0.596646 0.389682
vt 0.596646 0.032193
vt 0.954135 0.032193
vt 0.954135 0.389682
vt 0.596646 0.389682
vt 0.596646 0.032193
vt 0.954135 0.032193
vt 0.954135 0.389682
vt 0.596646 0.389682
vt 0.596646 0.032193
vt 0.954135 0.032193
vt 0.954135 0.389682
vt 0.596646 0.389682
vt 0.954135 0.032193
vt 0.954135 0.389682
vt 0.596646 0.032193
vt 0.596646 0.389682
vt 0.596646 0.032193
vt 0.954135 0.032193
vt 0.954135 0.389682
vt 0.596646 0.389682
vt 0.596646 0.032193
vt 0.954135 0.032193
vt 0.954135 0.389682
vt 0.596646 0.389682
vt 0.596646 0.032193
vt 0.954135 0.032193
vt 0.954135 0.389682
vt 0.596646 0.389682
vt 0.596646 0.032193
vt 0.954135 0.032193
vt 0.954135 0.389682
vt 0.596646 0.389682
vt 0.954135 0.032193
vt 0.954135 0.389682
vt 0.596646 0.032193
vt 0.596646 0.389682
vt 0.596646 0.032193
vt 0.954135 0.032193
vt 0.954135 0.389682
vt 0.596646 0.389682
vt 0.596646 0.032193
vt 0.954135 0.032193
vt 0.954135 0.389682
vt 0.596646 0.389682
vt 0.596646 0.032193
vt 0.954135 0.032193
vt 0.954135 0.389682
vt 0.596646 0.389682
vt 0.596646 0.032193
vt 0.954135 0.032193
vt 0.954135 0.389682
vt 0.596646 0.389682
vt 0.954135 0.032193
vt 0.954135 0.389682
vt 0.596646 0.032193
vt 0.596646 0.389682
vt 0.596646 0.032193
vt 0.954135 0.032193
vt 0.954135 0.389682
vt 0.596646 0.389682
vt 0.596646 0.032193
vt 0.954135 0.032193
vt 0.954135 0.389682
vt 0.596646 0.389682
vt 0.596646 0.032193
vt 0.954135 0.032193
vt 0.954135 0.389682
vt 0.596646 0.389682
vt 0.596646 0.032193
vt 0.954135 0.032193
vt 0.954135 0.389682
vt 0.596646 0.389682
vt 0.954135 0.032193
vt 0.954135 0.389682
vt 0.596646 0.032193
vt 0.596646 0.389682
vt 0.596646 0.032193
vt 0.954135 0.032193
vt 0.954135 0.389682
vt 0.596646 0.389682
vt 0.596646 0.032193
vt 0.954135 0.032193
vt 0.954135 0.389682
vt 0.596646 0.389682
vt 0.596646 0.032193
vt 0.954135 0.032193
vt 0.954135 0.389682
vt 0.596646 0.389682
vt 0.596646 0.032193
vt 0.954135 0.032193
vt 0.954135 0.389682
vt 0.596646 0.389682
vt 0.954135 0.032193
vt 0.954135 0.389682
vt 0.596646 0.032193
vt 0.596646 0.389682
vn 0.0000 0.6000 -0.8000
vn -0.8000 0.0000 -0.6000
vn 0.6000 0.8000 0.0000
vn 0.0000 -0.6000 -0.8000
vn 0.0000 -0.8000 -0.6000
vn 0.6000 0.0000 0.8000
vn 0.0000 -1.0000 0.0000
vn 0.0000 1.0000 0.0000
vn -1.0000 0.0000 0.0000
vn 1.0000 0.0000 0.0000
vn -0.0000 0.0000 1.0000
vn -0.0000 0.0000 -1.0000
vn 0.6000 -0.8000 0.0000
vn -0.8000 0.0000 0.6000
vn 0.8000 -0.6000 0.0000
vn 0.6000 0.0000 -0.8000
vn 0.0000 0.8000 0.6000
vn 0.8000 0.6000 0.0000
vn -0.6000 0.8000 0.0000
vn 0.0000 -0.8000 0.6000
vn 0.0000 -0.6000 0.8000
vn -0.6000 0.0000 -0.8000
vn 0.8000 0.0000 0.6000
vn 0.0000 0.6000 0.8000
vn -0.6000 -0.8000 0.0000
vn 0.8000 0.0000 -0.6000
vn -0.8000 -0.6000 0.0000
vn -0.6000 0.0000 0.8000
vn 0.0000 0.8000 -0.6000
vn -0.8000 0.6000 0.0000
vn 0.0000 -0.7071 0.7071
vn 0.0000 0.7071 0.7071
vn 0.0000 0.7071 -0.7071
vn 0.0000 -0.7071 -0.7071
vn -0.7071 -0.7071 0.0000
vn -0.7071 0.7071 0.0000
vn 0.7071 0.7071 0.0000
vn 0.7071 -0.7071 0.0000
vn -0.7071 0.0000 0.7071
vn -0.7071 0.0000 -0.7071
vn 0.7071 0.0000 -0.7071
vn 0.7071 0.0000 0.7071
usemtl None
s off
f 2/1/1 6/2/1 40/3/1 35/4/1
f 21/5/2 22/6/2 53/7/2 54/8/2
f 15/9/3 13/10/3 46/11/3 47/12/3
f 5/13/4 1/14/4 34/15/4 39/16/4
f 20/17/5 21/5/5 54/8/5 51/18/5
f 13/10/6 14/19/6 45/20/6 46/11/6
f 3/21/7 1/14/7 25/22/7 28/23/7
f 2/1/8 4/24/8 27/25/8 26/26/8
f 7/27/7 3/21/7 28/23/7 29/28/7
f 4/24/8 8/29/8 30/30/8 27/25/8
f 5/13/7 7/27/7 29/28/7 32/31/7
f 8/29/8 6/2/8 31/32/8 30/30/8
f 1/14/7 5/13/7 32/31/7 25/22/7
f 6/2/8 2/1/8 26/26/8 31/32/8
f 10/33/9 9/34/9 28/23/9 25/22/9
f 11/35/9 10/33/9 25/22/9 26/26/9
f 12/36/9 11/35/9 26/26/9 27/25/9
f 9/34/9 12/36/9 27/25/9 28/23/9
f 14/19/10 13/10/10 29/28/10 30/30/10
f 13/10/10 15/9/10 32/31/10 29/28/10
f 16/37/10 14/19/10 30/30/10 31/32/10
f 15/9/10 16/37/10 31/32/10 32/31/10
f 18/38/11 19/39/11 26/26/11 25/22/11
f 20/17/12 17/40/12 28/23/12 27/25/12
f 17/40/12 22/6/12 29/28/12 28/23/12
f 21/5/12 20/17/12 27/25/12 30/30/12
f 22/6/12 21/5/12 30/30/12 29/28/12
f 24/41/11 23/42/11 32/31/11 31/32/11
f 23/42/11 18/38/11 25/22/11 32/31/11
f 19/39/11 24/41/11 31/32/11 26/26/11
f 42/43/9 43/44/9 44/45/9 41/46/9
f 52/47/12 51/48/12 54/49/12 53/50/12
f 46/51/10 45/52/10 48/53/10 47/54/10
f 56/55/11 55/56/11 50/57/11 49/58/11
f 33/59/7 37/60/7 39/61/7 34/62/7
f 38/63/8 36/64/8 35/65/8 40/66/8
f 14/19/13 16/37/13 48/67/13 45/20/13
f 23/42/14 24/41/14 55/68/14 56/69/14
f 1/14/15 3/21/15 33/70/15 34/15/15
f 16/37/16 15/9/16 47/12/16 48/67/16
f 18/38/17 23/42/17 56/69/17 49/71/17
f 4/24/18 2/1/18 35/4/18 36/72/18
f 9/34/19 10/33/19 42/73/19 41/74/19
f 24/41/20 19/39/20 50/75/20 55/68/20
f 3/21/21 7/27/21 37/76/21 33/70/21
f 10/33/22 11/35/22 43/77/22 42/73/22
f 19/39/23 18/38/23 49/71/23 50/75/23
f 8/29/24 4/24/24 36/72/24 38/78/24
f 11/35/25 12/36/25 44/79/25 43/77/25
f 17/40/26 20/17/26 51/18/26 52/80/26
f 7/27/27 5/13/27 39/16/27 37/76/27
f 12/36/28 9/34/28 41/74/28 44/79/28
f 22/6/29 17/40/29 52/80/29 53/7/29
f 6/2/30 8/29/30 38/78/30 40/3/30
f 57/81/31 58/82/31 60/83/31 59/84/31
f 59/85/32 60/86/32 64/87/32 63/88/32
f 63/89/33 64/90/33 62/91/33 61/92/33
f 61/93/34 62/94/34 58/95/34 57/96/34
f 59/85/9 63/97/9 61/98/9 57/96/9
f 64/99/10 60/86/10 58/95/10 62/100/10
f 65/101/31 66/102/31 68/103/31 67/104/31
f 67/105/32 68/106/32 72/107/32 71/108/32
f 71/109/33 72/110/33 70/111/33 69/112/33
f 69/113/34 70/114/34 66/115/34 65/116/34
f 67/105/9 71/117/9 69/118/9 65/116/9
f 72/119/10 68/106/10 66/115/10 70/120/10
f 73/121/35 74/122/35 76/123/35 75/124/35
f 75/125/36 76/126/36 80/127/36 79/128/36
f 79/129/37 80/130/37 78/131/37 77/132/37
f 77/133/38 78/134/38 74/135/38 73/136/38
f 75/125/12 79/137/12 77/138/12 73/136/12
f 80/139/11 76/126/11 74/135/11 78/140/11
f 81/141/35 82/142/35 84/143/35 83/144/35
f 83/145/36 84/146/36 88/147/36 87/148/36
f 87/149/37 88/150/37 86/151/37 85/152/37
f 85/153/38 86/154/38 82/155/38 81/156/38
f 83/145/12 87/157/12 85/158/12 81/156/12
f 88/159/11 84/146/11 82/155/11 86/160/11
f 89/161/39 90/162/39 92/163/39 91/164/39
f 91/165/40 92/166/40 96/167/40 95/168/40
f 95/169/41 96/170/41 94/171/41 93/172/41
f 93/173/42 94/174/42 90/175/42 89/176/42
f 91/165/7 95/177/7 93/178/7 89/176/7
f 96/179/8 92/166/8 90/175/8 94/180/8
f 97/181/39 98/182/39 100/183/39 99/184/39
f 99/185/40 100/186/40 104/187/40 103/188/40
f 103/189/41 104/190/41 102/191/41 101/192/41
f 101/193/42 102/194/42 98/195/42 97/196/42
f 99/185/7 103/197/7 101/198/7 97/196/7
f 104/199/8 100/186/8 98/195/8 102/200/8
