# Blender v2.79 (sub 0) OBJ File: 'door_wood_001.blend'
# www.blender.org
o Cube_Cube.005
v -0.491665 -0.000244 -0.257023
v -0.491665 2.246004 -0.257023
v -0.491665 -0.000244 0.299152
v -0.491665 2.246004 0.299152
v -0.828796 -0.000244 -0.257022
v -0.828796 2.246004 -0.257022
v -0.828795 -0.000244 0.299152
v -0.828795 2.246004 0.299152
v 0.923669 -0.000244 -0.257023
v 0.923669 2.292512 -0.257023
v 0.923669 -0.000244 0.299152
v 0.923669 2.292512 0.299152
v 0.586538 -0.000244 -0.257023
v 0.586538 2.292512 -0.257023
v 0.586538 -0.000244 0.299152
v 0.586538 2.292512 0.299152
v 0.988737 2.267031 -0.219699
v 0.988737 2.728251 -0.219699
v 0.988737 2.267031 0.311369
v 0.988737 2.728251 0.311369
v -0.921321 2.198393 -0.298731
v -0.921321 2.796890 -0.298731
v -0.921321 2.198393 0.390403
v -0.921321 2.796890 0.390403
v -0.361518 2.234616 0.348694
v 0.275168 2.255251 0.324934
v 0.275168 2.740032 0.324934
v -0.361518 2.760667 0.348694
v 0.275168 2.255251 -0.233263
v -0.361518 2.234616 -0.257023
v -0.361518 2.760667 -0.257023
v 0.275168 2.740032 -0.233263
v -0.533137 0.748505 -0.257023
v -0.533137 1.497254 -0.257023
v -0.533137 1.497254 0.299152
v -0.533137 0.748505 0.299152
v -0.870267 1.497254 0.299152
v -0.870267 0.748505 0.299152
v -0.870268 1.497254 -0.257022
v -0.870268 0.748505 -0.257022
v 0.948246 0.905913 -0.257023
v 0.948246 1.670165 -0.257023
v 0.948246 1.670165 0.299152
v 0.948246 0.905913 0.299152
v 0.611116 1.670165 0.299152
v 0.611116 0.905913 0.299152
v 0.611115 1.670165 -0.257023
v 0.611115 0.905913 -0.257023
v -0.921321 2.505850 0.390403
v -0.921321 2.265713 0.390403
v -0.822088 2.452236 0.383010
v -0.921321 2.322843 -0.298731
v -0.921321 2.562979 -0.298731
v -0.817476 2.501856 -0.290994
v -0.205578 0.022537 0.037667
v -0.205578 2.247645 0.037667
v -0.205578 0.022537 0.171948
v -0.205578 2.247645 0.171948
v -0.493319 0.022537 0.037667
v -0.493319 2.247645 0.037667
v -0.493319 0.022537 0.171948
v -0.493319 2.247645 0.171948
v -0.271443 0.764240 0.037667
v -0.271443 1.505942 0.037667
v -0.271443 1.505942 0.171948
v -0.271443 0.764240 0.171948
v -0.559185 1.505942 0.171948
v -0.559185 0.764240 0.171948
v -0.559185 1.505942 0.037667
v -0.559185 0.764240 0.037667
v 0.078815 0.022537 0.056887
v 0.078815 2.247645 0.056887
v 0.078815 0.022537 0.152727
v 0.078815 2.247645 0.152727
v -0.208927 0.022537 0.056887
v -0.208927 2.247645 0.056887
v -0.208927 0.022537 0.152728
v -0.208927 2.247645 0.152728
v 0.047471 0.764240 0.056887
v 0.047471 1.505942 0.056887
v 0.047471 1.505942 0.152727
v 0.047471 0.764240 0.152727
v -0.274792 1.505942 0.152728
v -0.274792 0.764240 0.152728
v -0.274792 1.505942 0.056887
v -0.274792 0.764240 0.056887
v 0.358620 0.022537 0.027212
v 0.358620 2.247645 0.027212
v 0.358620 0.022537 0.182402
v 0.358620 2.247645 0.182402
v 0.070878 0.022537 0.027212
v 0.070878 2.247645 0.027212
v 0.070878 0.022537 0.182402
v 0.070878 2.247645 0.182402
v 0.368557 0.764240 0.027212
v 0.368374 1.505942 0.027212
v 0.368374 1.505942 0.182402
v 0.368557 0.764240 0.182402
v 0.046111 1.505942 0.182402
v 0.046294 0.764240 0.182402
v 0.046111 1.505942 0.027212
v 0.046294 0.764240 0.027212
v 0.590478 0.022537 0.057711
v 0.590478 2.247645 0.057711
v 0.590478 0.022537 0.151903
v 0.590478 2.247645 0.151903
v 0.361493 0.022537 0.057711
v 0.356373 2.247645 0.057711
v 0.361493 0.022537 0.151903
v 0.356373 2.247645 0.151903
v 0.620692 0.764240 0.057711
v 0.615509 1.505942 0.057711
v 0.615509 1.505942 0.151903
v 0.620692 0.764240 0.151903
v 0.366440 1.505942 0.151903
v 0.370343 0.764240 0.151903
v 0.366440 1.505942 0.057711
v 0.370343 0.764240 0.057711
v 0.616681 0.420064 0.102277
v 0.616681 0.566576 0.102277
v 0.616681 0.420064 0.218192
v 0.616681 0.566576 0.218192
v -0.533079 0.420064 0.102278
v -0.533079 0.566576 0.102278
v -0.533079 0.420064 0.218192
v -0.533079 0.566576 0.218192
v -0.149826 0.373695 0.218192
v 0.233427 0.373695 0.218192
v 0.233427 0.520207 0.218192
v -0.149826 0.520207 0.218192
v 0.233427 0.373695 0.102278
v -0.149826 0.373695 0.102278
v -0.149826 0.520207 0.102278
v 0.233427 0.520207 0.102278
v 0.631659 1.252781 0.102277
v 0.619763 1.398830 0.102277
v 0.631659 1.252781 0.218192
v 0.619763 1.398830 0.218192
v -0.539926 1.161456 0.102278
v -0.551822 1.307505 0.102278
v -0.539926 1.161456 0.218192
v -0.551822 1.307505 0.218192
v -0.145633 1.164911 0.218192
v 0.244895 1.195353 0.218192
v 0.232999 1.341402 0.218192
v -0.157529 1.310960 0.218192
v 0.244895 1.195353 0.102278
v -0.145633 1.164911 0.102278
v -0.157529 1.310960 0.102278
v 0.232999 1.341402 0.102278
v 0.623384 1.698263 0.116712
v 0.634737 1.844343 0.118599
v 0.620273 1.697008 0.232578
v 0.631627 1.843088 0.234465
v -0.547474 1.793757 0.086315
v -0.536121 1.939837 0.088202
v -0.550585 1.792501 0.202180
v -0.539231 1.938581 0.204068
v -0.160850 1.761845 0.212003
v 0.229436 1.730014 0.222135
v 0.240790 1.876094 0.224023
v -0.149496 1.907925 0.213890
v 0.232547 1.702854 0.106269
v -0.157739 1.763100 0.096137
v -0.146386 1.909180 0.098024
v 0.243900 1.848934 0.108157
vt 0.185199 0.897012
vt 0.158096 0.959296
vt 0.135372 0.924669
vt 0.141029 0.886690
vt 0.123964 0.923813
vt 0.115423 0.887890
vt 0.117424 0.968723
vt 0.066284 0.905174
vt 0.414146 0.749897
vt 0.390648 0.800044
vt 0.366611 0.768356
vt 0.371992 0.739516
vt 0.356122 0.770095
vt 0.348267 0.741250
vt 0.353638 0.812556
vt 0.301605 0.764573
vt 0.060916 0.711010
vt 0.055214 0.642693
vt 0.107727 0.661475
vt 0.104489 0.681405
vt 0.280837 0.659869
vt 0.230121 0.667790
vt 0.227402 0.659256
vt 0.271392 0.632032
vt 0.226555 0.674403
vt 0.197955 0.653212
vt 0.198724 0.693212
vt 0.228867 0.688934
vt 0.276315 0.702534
vt 0.220926 0.752788
vt 0.148061 0.653316
vt 0.136940 0.593777
vt 0.215813 0.598453
vt 0.148634 0.693881
vt 0.137735 0.752788
vt 0.111559 0.753356
vt 0.110756 0.824756
vt 0.055777 0.828349
vt 0.055214 0.752896
vt 0.144113 0.752896
vt 0.141585 0.823948
vt 0.197177 0.756200
vt 0.192722 0.827747
vt 0.336283 0.593778
vt 0.340493 0.679268
vt 0.285778 0.685832
vt 0.280945 0.596017
vt 0.368562 0.593777
vt 0.370957 0.678438
vt 0.421381 0.594112
vt 0.420835 0.680200
vt 0.280443 0.672962
vt 0.229704 0.686086
vt 0.279209 0.691144
vt 0.739649 0.312781
vt 0.724021 0.398714
vt 0.712332 0.384671
vt 0.723212 0.311065
vt 0.691692 0.381375
vt 0.683483 0.308696
vt 0.680511 0.398714
vt 0.665037 0.309557
vt 0.697957 0.108741
vt 0.688392 0.209652
vt 0.670052 0.208347
vt 0.679465 0.106992
vt 0.736993 0.109006
vt 0.727737 0.211023
vt 0.755343 0.110684
vt 0.746041 0.212438
vt 0.619235 0.317405
vt 0.588997 0.397072
vt 0.582564 0.385800
vt 0.608001 0.314206
vt 0.561523 0.378829
vt 0.564365 0.304351
vt 0.551344 0.388987
vt 0.551344 0.302795
vt 0.613598 0.110604
vt 0.585933 0.207880
vt 0.573269 0.204677
vt 0.600873 0.106992
vt 0.652135 0.118077
vt 0.628977 0.217095
vt 0.664911 0.121079
vt 0.641660 0.220034
vt 0.841526 0.308655
vt 0.826795 0.395929
vt 0.812755 0.380136
vt 0.822297 0.307397
vt 0.791800 0.378309
vt 0.778618 0.308475
vt 0.781014 0.399424
vt 0.757397 0.311042
vt 0.779274 0.107516
vt 0.776765 0.209114
vt 0.755470 0.209041
vt 0.757848 0.106992
vt 0.818985 0.107357
vt 0.820977 0.208920
vt 0.840273 0.106992
vt 0.842019 0.208740
vt 0.901155 0.307596
vt 0.890950 0.390547
vt 0.881912 0.381296
vt 0.889779 0.307071
vt 0.863524 0.381943
vt 0.855246 0.307968
vt 0.855884 0.396028
vt 0.842146 0.308881
vt 0.856241 0.107158
vt 0.854942 0.207942
vt 0.842146 0.207848
vt 0.843467 0.106992
vt 0.887327 0.107927
vt 0.889112 0.208490
vt 0.900104 0.107714
vt 0.901781 0.208406
vt 0.623047 0.789373
vt 0.611723 0.736097
vt 0.646333 0.749226
vt 0.647247 0.768741
vt 0.814043 0.778489
vt 0.814680 0.740564
vt 0.884662 0.747440
vt 0.882334 0.766200
vt 0.907984 0.727610
vt 0.914206 0.779791
vt 0.817871 0.809297
vt 0.715583 0.742103
vt 0.712609 0.710055
vt 0.816764 0.712037
vt 0.717177 0.780510
vt 0.714847 0.809297
vt 0.623360 0.692010
vt 0.611723 0.638710
vt 0.646428 0.651577
vt 0.647244 0.671190
vt 0.817261 0.679035
vt 0.817357 0.640952
vt 0.889287 0.648493
vt 0.887143 0.667655
vt 0.913076 0.628434
vt 0.919527 0.681422
vt 0.820832 0.709950
vt 0.716618 0.643094
vt 0.713304 0.611282
vt 0.819346 0.612303
vt 0.717732 0.681355
vt 0.715705 0.709951
vt 0.614965 0.881545
vt 0.611723 0.836654
vt 0.639331 0.849756
vt 0.636622 0.868044
vt 0.805598 0.877609
vt 0.805054 0.839024
vt 0.877622 0.848331
vt 0.874514 0.867984
vt 0.906636 0.826550
vt 0.913038 0.890958
vt 0.807983 0.908267
vt 0.705611 0.840220
vt 0.701612 0.809402
vt 0.807234 0.809402
vt 0.705518 0.876809
vt 0.701158 0.908006
vn 0.9985 -0.0553 -0.0000
vn 0.0000 0.0000 1.0000
vn -0.9985 0.0553 0.0000
vn 0.0000 1.0000 0.0000
vn 0.9992 0.0395 -0.0000
vn -0.9992 -0.0395 0.0000
vn 1.0000 0.0000 -0.0000
vn -1.0000 0.0000 0.0000
vn 0.0743 -0.0000 0.9972
vn 0.0646 -0.9979 -0.0000
vn 0.0165 0.9999 0.0000
vn 0.0646 0.9979 -0.0000
vn 0.0324 0.9995 0.0000
vn 0.0165 -0.9999 0.0000
vn 0.0324 -0.9995 0.0000
vn 0.0190 0.0000 0.9998
vn 0.0373 0.0000 0.9993
vn -0.9985 -0.0553 0.0000
vn 0.9985 0.0553 -0.0000
vn -0.9996 0.0271 0.0000
vn 0.9996 -0.0271 -0.0000
vn -0.4906 -0.8686 -0.0697
vn -0.8736 0.4853 0.0351
vn 0.9961 -0.0885 -0.0000
vn -0.9961 0.0885 0.0000
vn -0.9961 -0.0885 0.0000
vn 0.9961 0.0885 -0.0000
vn 0.9991 -0.0422 -0.0000
vn 0.9991 0.0422 -0.0000
vn 0.9999 0.0132 -0.0000
vn -0.9994 0.0334 0.0000
vn -0.9995 -0.0331 0.0000
vn -1.0000 -0.0002 0.0000
vn 0.9999 -0.0134 -0.0000
vn 1.0000 0.0002 -0.0000
vn 0.9994 0.0337 -0.0000
vn -0.9999 -0.0136 0.0000
vn -0.9999 0.0119 0.0000
vn -1.0000 -0.0053 0.0000
vn 0.9992 -0.0407 -0.0000
vn 1.0000 0.0070 -0.0000
vn -0.1201 -0.9928 0.0000
vn -0.1201 0.9928 -0.0000
vn 0.1201 0.9928 0.0000
vn 0.1201 -0.9928 -0.0000
vn 0.0000 -1.0000 0.0000
vn 0.9967 0.0812 0.0000
vn -0.9967 -0.0812 0.0000
vn 0.0088 -1.0000 0.0000
vn -0.1469 0.9892 0.0000
vn -0.0088 1.0000 -0.0000
vn -0.0777 0.9970 0.0000
vn 0.1469 -0.9892 -0.0000
vn 0.0777 -0.9970 0.0000
vn 0.9966 -0.0778 0.0259
vn -0.0260 -0.0109 0.9996
vn -0.9966 0.0778 -0.0259
vn -0.0781 -0.9969 -0.0129
vn 0.0507 0.9927 -0.1096
vn 0.0781 0.9969 0.0129
vn 0.1192 0.9871 -0.1071
vn -0.0507 -0.9927 0.1096
vn -0.1192 -0.9871 0.1071
vn -0.0276 -0.0108 0.9996
vn -0.0268 -0.0108 0.9996
s off
f 34/1/1 2/2/1 4/3/1 35/4/1
f 35/4/2 4/3/2 8/5/2 37/6/2
f 37/6/3 8/5/3 6/7/3 39/8/3
f 8/5/4 4/3/4 2/2/4 6/7/4
f 42/9/5 10/10/5 12/11/5 43/12/5
f 43/12/2 12/11/2 16/13/2 45/14/2
f 45/14/6 16/13/6 14/15/6 47/16/6
f 16/13/4 12/11/4 10/10/4 14/15/4
f 17/17/7 18/18/7 20/19/7 19/20/7
f 53/21/8 49/22/8 24/23/8 22/24/8
f 49/22/9 51/25/9 28/26/9 24/23/9
f 25/27/10 23/28/10 21/29/10 30/30/10
f 27/31/11 20/19/11 18/18/11 32/32/11
f 24/23/12 28/26/12 31/33/12 22/24/12
f 28/26/13 27/31/13 32/32/13 31/33/13
f 19/20/14 26/34/14 29/35/14 17/17/14
f 26/34/15 25/27/15 30/30/15 29/35/15
f 19/20/16 20/19/16 27/31/16 26/34/16
f 26/34/17 27/31/17 28/26/17 25/27/17
f 7/36/18 38/37/18 40/38/18 5/39/18
f 38/37/8 37/6/8 39/8/8 40/38/8
f 3/40/2 36/41/2 38/37/2 7/36/2
f 36/41/2 35/4/2 37/6/2 38/37/2
f 1/42/19 33/43/19 36/41/19 3/40/19
f 33/43/7 34/1/7 35/4/7 36/41/7
f 15/44/20 46/45/20 48/46/20 13/47/20
f 46/45/8 45/14/8 47/16/8 48/46/8
f 11/48/2 44/49/2 46/45/2 15/44/2
f 44/49/2 43/12/2 45/14/2 46/45/2
f 9/50/21 41/51/21 44/49/21 11/48/21
f 41/51/7 42/9/7 43/12/7 44/49/7
f 25/27/9 28/26/9 51/25/9
f 51/25/22 49/22/22 53/21/22 54/52/22
f 50/53/23 51/25/23 54/52/23 52/54/23
f 23/28/8 50/53/8 52/54/8 21/29/8
f 51/25/9 50/53/9 23/28/9 25/27/9
f 64/55/24 56/56/24 58/57/24 65/58/24
f 65/58/2 58/57/2 62/59/2 67/60/2
f 67/60/25 62/59/25 60/61/25 69/62/25
f 62/59/4 58/57/4 56/56/4 60/61/4
f 61/63/26 68/64/26 70/65/26 59/66/26
f 68/64/8 67/60/8 69/62/8 70/65/8
f 57/67/2 66/68/2 68/64/2 61/63/2
f 66/68/2 65/58/2 67/60/2 68/64/2
f 55/69/27 63/70/27 66/68/27 57/67/27
f 63/70/7 64/55/7 65/58/7 66/68/7
f 80/71/28 72/72/28 74/73/28 81/74/28
f 81/74/2 74/73/2 78/75/2 83/76/2
f 83/76/25 78/75/25 76/77/25 85/78/25
f 78/75/4 74/73/4 72/72/4 76/77/4
f 77/79/26 84/80/26 86/81/26 75/82/26
f 84/80/8 83/76/8 85/78/8 86/81/8
f 73/83/2 82/84/2 84/80/2 77/79/2
f 82/84/2 81/74/2 83/76/2 84/80/2
f 71/85/29 79/86/29 82/84/29 73/83/29
f 79/86/7 80/71/7 81/74/7 82/84/7
f 96/87/30 88/88/30 90/89/30 97/90/30
f 97/90/2 90/89/2 94/91/2 99/92/2
f 99/92/31 94/91/31 92/93/31 101/94/31
f 94/91/4 90/89/4 88/88/4 92/93/4
f 93/95/32 100/96/32 102/97/32 91/98/32
f 100/96/33 99/92/33 101/94/33 102/97/33
f 89/99/2 98/100/2 100/96/2 93/95/2
f 98/100/2 97/90/2 99/92/2 100/96/2
f 87/101/34 95/102/34 98/100/34 89/99/34
f 95/102/35 96/87/35 97/90/35 98/100/35
f 112/103/36 104/104/36 106/105/36 113/106/36
f 113/106/2 106/105/2 110/107/2 115/108/2
f 115/108/37 110/107/37 108/109/37 117/110/37
f 110/107/4 106/105/4 104/104/4 108/109/4
f 109/111/38 116/112/38 118/113/38 107/114/38
f 116/112/39 115/108/39 117/110/39 118/113/39
f 105/115/2 114/116/2 116/112/2 109/111/2
f 114/116/2 113/106/2 115/108/2 116/112/2
f 103/117/40 111/118/40 114/116/40 105/115/40
f 111/118/41 112/103/41 113/106/41 114/116/41
f 119/119/7 120/120/7 122/121/7 121/122/7
f 127/123/2 130/124/2 126/125/2 125/126/2
f 125/126/8 126/125/8 124/127/8 123/128/8
f 127/123/42 125/126/42 123/128/42 132/129/42
f 129/130/43 122/121/43 120/120/43 134/131/43
f 126/125/44 130/124/44 133/132/44 124/127/44
f 130/124/4 129/130/4 134/131/4 133/132/4
f 121/122/45 128/133/45 131/134/45 119/119/45
f 128/133/46 127/123/46 132/129/46 131/134/46
f 121/122/2 122/121/2 129/130/2 128/133/2
f 128/133/2 129/130/2 130/124/2 127/123/2
f 135/135/47 136/136/47 138/137/47 137/138/47
f 143/139/2 146/140/2 142/141/2 141/142/2
f 141/142/48 142/141/48 140/143/48 139/144/48
f 143/139/49 141/142/49 139/144/49 148/145/49
f 145/146/50 138/137/50 136/136/50 150/147/50
f 142/141/51 146/140/51 149/148/51 140/143/51
f 146/140/52 145/146/52 150/147/52 149/148/52
f 137/138/53 144/149/53 147/150/53 135/135/53
f 144/149/54 143/139/54 148/145/54 147/150/54
f 137/138/2 138/137/2 145/146/2 144/149/2
f 144/149/2 145/146/2 146/140/2 143/139/2
f 151/151/55 152/152/55 154/153/55 153/154/55
f 159/155/56 162/156/56 158/157/56 157/158/56
f 157/158/57 158/157/57 156/159/57 155/160/57
f 159/155/58 157/158/58 155/160/58 164/161/58
f 161/162/59 154/153/59 152/152/59 166/163/59
f 158/157/60 162/156/60 165/164/60 156/159/60
f 162/156/61 161/162/61 166/163/61 165/164/61
f 153/154/62 160/165/62 163/166/62 151/151/62
f 160/165/63 159/155/63 164/161/63 163/166/63
f 153/154/64 154/153/64 161/162/64 160/165/64
f 160/165/65 161/162/65 162/156/65 159/155/65
