# Blender v2.79 (sub 0) OBJ File: 'door_wood_002.blend'
# www.blender.org
o Cube.051_Cube.047
v -0.939237 -0.007299 -0.476884
v 0.922084 -0.007299 -0.476885
v -0.593186 -0.008393 0.492500
v 0.576034 -0.008393 0.492500
v -0.642201 2.701373 -0.476627
v -0.380446 2.809795 -0.475996
v -0.939237 2.251004 -0.476884
v -0.830814 2.512759 -0.476969
v 0.363293 2.809795 -0.475996
v 0.625048 2.701373 -0.476628
v 0.813661 2.512759 -0.476970
v 0.922084 2.251004 -0.476885
v -0.311612 2.463745 0.492500
v -0.446178 2.408006 0.492500
v -0.537447 2.316737 0.492500
v -0.593186 2.182170 0.492500
v 0.576034 2.182170 0.492500
v 0.520294 2.316737 0.492500
v 0.429026 2.408006 0.492500
v 0.294460 2.463745 0.492500
v -0.939236 -0.007299 0.492500
v 0.922084 -0.007299 0.492499
v 0.363293 2.809795 0.492500
v 0.625048 2.701373 0.492500
v 0.813662 2.512759 0.492499
v 0.922084 2.251004 0.492499
v -0.642200 2.701373 0.492500
v -0.380445 2.809795 0.492500
v -0.939236 2.251004 0.492500
v -0.830814 2.512759 0.492500
v -0.593186 -0.008393 -0.370428
v 0.576034 -0.008393 -0.370428
v 0.294459 2.463745 -0.370428
v 0.429026 2.408006 -0.370428
v 0.520294 2.316737 -0.370428
v 0.576034 2.182170 -0.370428
v -0.446178 2.408006 -0.370428
v -0.311612 2.463745 -0.370428
v -0.593186 2.182170 -0.370428
v -0.537447 2.316737 -0.370428
v -0.278280 -0.006486 0.238456
v -0.278280 2.475682 0.238456
v -0.612408 -0.006486 0.354052
v -0.612408 2.475682 0.354052
v -0.278280 -0.006486 0.354052
v -0.278280 2.475682 0.354052
v -0.281213 -0.006486 0.218795
v -0.281213 2.475682 0.218795
v 0.052916 -0.006486 0.218795
v 0.052916 2.475682 0.218795
v -0.281213 -0.006486 0.373713
v -0.281213 2.475682 0.373713
v 0.052916 -0.006486 0.373713
v 0.052916 2.475682 0.373713
v 0.050186 -0.006486 0.253320
v 0.050186 2.475682 0.253320
v 0.329026 -0.006486 0.253320
v 0.329026 2.475682 0.253320
v 0.050186 -0.006486 0.339188
v 0.050186 2.475682 0.339188
v 0.329026 -0.006486 0.339188
v 0.329026 2.475682 0.339188
v 0.325065 -0.006486 0.209953
v 0.325065 2.475682 0.209953
v 0.325065 -0.006486 0.382556
v 0.325065 2.475682 0.382556
v 0.603905 -0.006486 0.382555
v 0.603905 2.475682 0.382555
v 0.641079 0.336973 0.319461
v -0.631426 0.336973 0.319462
v 0.641079 0.565918 0.319461
v -0.631426 0.565918 0.319462
v 0.641079 0.336973 0.419458
v -0.631426 0.336973 0.419459
v 0.641079 0.565918 0.419458
v -0.631426 0.565918 0.419459
v 0.641079 1.721534 0.319461
v -0.631426 1.721534 0.319462
v 0.641079 1.950479 0.319461
v -0.631426 1.950479 0.319462
v 0.641079 1.721534 0.419458
v -0.631426 1.721534 0.419459
v 0.641079 1.950479 0.419458
v -0.631426 1.950479 0.419459
v 0.401027 1.146205 0.429895
v 0.401027 1.230451 0.429895
v 0.485273 1.146205 0.429895
v 0.485273 1.230451 0.429895
v 0.359065 1.104243 0.521871
v 0.359065 1.272413 0.521871
v 0.527234 1.104243 0.521871
v 0.527234 1.272413 0.521871
v 0.527234 1.104243 0.429895
v 0.359065 1.104243 0.429895
v 0.359065 1.272413 0.429895
v 0.527234 1.272413 0.429895
v 0.485273 1.146205 0.349679
v 0.401027 1.146205 0.349679
v 0.401027 1.230451 0.349679
v 0.485273 1.230451 0.349679
vt 0.109064 0.956037
vt 0.141433 0.860122
vt 0.180429 0.868491
vt 0.153363 0.968756
vt 0.128509 0.845719
vt 0.126868 0.853382
vt 0.083535 0.847590
vt 0.084267 0.840842
vt 0.145956 0.799996
vt 0.186759 0.798421
vt 0.185451 0.832485
vt 0.146076 0.829697
vt 0.154949 0.656244
vt 0.182768 0.760314
vt 0.141777 0.768170
vt 0.110277 0.668185
vt 0.185942 0.785453
vt 0.145925 0.789240
vt 0.144720 0.779159
vt 0.184637 0.773345
vt 0.184173 0.844849
vt 0.145842 0.840308
vt 0.144454 0.849962
vt 0.182550 0.856297
vt 0.128896 0.797778
vt 0.128575 0.789686
vt 0.127505 0.782600
vt 0.125428 0.774923
vt 0.129237 0.838728
vt 0.129294 0.830842
vt 0.094827 0.951581
vt 0.095244 0.672615
vt 0.084656 0.800886
vt 0.084009 0.794039
vt 0.083325 0.787959
vt 0.084809 0.834809
vt 0.082434 0.781158
vt 0.057848 0.682618
vt 0.085270 0.828011
vt 0.057848 0.941463
vt 0.947765 0.034400
vt 0.947765 0.360131
vt 0.932595 0.360131
vt 0.932595 0.034400
vt 0.888748 0.360131
vt 0.888748 0.034400
vt 0.770028 0.034400
vt 0.770028 0.360131
vt 0.749698 0.360131
vt 0.749698 0.034400
vt 0.705851 0.360131
vt 0.705851 0.034400
vt 0.685522 0.360131
vt 0.685522 0.034400
vt 0.888631 0.034400
vt 0.888631 0.360131
vt 0.877363 0.360131
vt 0.877363 0.034400
vt 0.840771 0.360131
vt 0.840772 0.034400
vt 0.829503 0.360131
vt 0.829503 0.034400
vt 0.829386 0.034400
vt 0.829387 0.360131
vt 0.792795 0.360131
vt 0.792795 0.034400
vt 0.770144 0.360131
vt 0.770145 0.034400
vt 0.929919 0.879115
vt 0.695081 0.879115
vt 0.695081 0.860661
vt 0.929919 0.860661
vt 0.695081 0.818410
vt 0.929919 0.818410
vt 0.695081 0.799956
vt 0.929919 0.799956
vt 0.929918 0.799887
vt 0.695081 0.799887
vt 0.695081 0.781433
vt 0.929918 0.781433
vt 0.695081 0.739181
vt 0.929919 0.739181
vt 0.695081 0.720727
vt 0.929919 0.720727
vt 0.728386 0.915126
vt 0.733510 0.912608
vt 0.766557 0.950923
vt 0.695081 0.944262
vt 0.728012 0.909897
vt 0.729106 0.910627
vt 0.727230 0.909618
vt 0.727154 0.909202
vt 0.726789 0.909934
vt 0.725322 0.908029
vt 0.727923 0.911474
vt 0.726975 0.910494
vt 0.725876 0.911069
vt 0.729556 0.909221
vt 0.697974 0.879184
vt 0.763023 0.879184
vn -1.0000 0.0000 0.0000
vn 0.9239 -0.3827 -0.0000
vn 0.0000 1.0000 -0.0000
vn 1.0000 0.0000 -0.0000
vn 0.7071 0.7071 -0.0000
vn 0.3827 0.9239 -0.0000
vn 0.9239 0.3827 -0.0000
vn -0.3827 0.9239 0.0000
vn -0.9239 0.3827 0.0000
vn -0.7071 0.7071 0.0000
vn 0.0000 -0.0000 1.0000
vn -0.3827 -0.9239 0.0000
vn -0.7071 -0.7071 0.0000
vn 0.7071 -0.7071 -0.0000
vn -0.9239 -0.3827 0.0000
vn 0.0000 -1.0000 0.0000
vn 0.3827 -0.9239 -0.0000
vn -0.0000 0.0000 -1.0000
s off
f 21/1/1 29/2/1 7/3/1 1/4/1
f 15/5/2 16/6/2 39/7/2 40/8/2
f 23/9/3 9/10/3 6/11/3 28/12/3
f 2/13/4 12/14/4 26/15/4 22/16/4
f 10/17/5 24/18/5 25/19/5 11/20/5
f 9/10/6 23/9/6 24/18/6 10/17/6
f 26/15/7 12/14/7 11/20/7 25/19/7
f 28/12/8 6/11/8 5/21/8 27/22/8
f 7/3/9 29/2/9 30/23/9 8/24/9
f 27/22/10 5/21/10 8/24/10 30/23/10
f 20/25/11 19/26/11 24/18/11 23/9/11
f 18/27/11 17/28/11 26/15/11 25/19/11
f 14/29/11 13/30/11 28/12/11 27/22/11
f 16/6/11 15/5/11 30/23/11 29/2/11
f 15/5/11 14/29/11 27/22/11 30/23/11
f 13/30/11 20/25/11 23/9/11 28/12/11
f 3/31/11 16/6/11 29/2/11 21/1/11
f 19/26/11 18/27/11 25/19/11 24/18/11
f 17/28/11 4/32/11 22/16/11 26/15/11
f 19/26/12 20/25/12 33/33/12 34/34/12
f 18/27/13 19/26/13 34/34/13 35/35/13
f 14/29/14 15/5/14 40/8/14 37/36/14
f 17/28/15 18/27/15 35/35/15 36/37/15
f 4/32/1 17/28/1 36/37/1 32/38/1
f 20/25/16 13/30/16 38/39/16 33/33/16
f 13/30/17 14/29/17 37/36/17 38/39/17
f 16/6/4 3/31/4 31/40/4 39/7/4
f 41/41/4 42/42/4 46/43/4 45/44/4
f 45/44/11 46/43/11 44/45/11 43/46/11
f 49/47/4 50/48/4 54/49/4 53/50/4
f 53/50/11 54/49/11 52/51/11 51/52/11
f 51/52/1 52/51/1 48/53/1 47/54/1
f 57/55/4 58/56/4 62/57/4 61/58/4
f 61/58/11 62/57/11 60/59/11 59/60/11
f 59/60/1 60/59/1 56/61/1 55/62/1
f 67/63/11 68/64/11 66/65/11 65/66/11
f 65/66/1 66/65/1 64/67/1 63/68/1
f 71/69/3 72/70/3 76/71/3 75/72/3
f 75/72/11 76/71/11 74/73/11 73/74/11
f 73/74/16 74/73/16 70/75/16 69/76/16
f 79/77/3 80/78/3 84/79/3 83/80/3
f 83/80/11 84/79/11 82/81/11 81/82/11
f 81/82/16 82/81/16 78/83/16 77/84/16
f 86/85/3 88/86/3 100/87/3 99/88/3
f 93/89/4 96/90/4 92/91/4 91/92/4
f 91/92/11 92/91/11 90/93/11 89/94/11
f 89/94/1 90/93/1 95/95/1 94/96/1
f 93/89/16 91/92/16 89/94/16 94/96/16
f 92/91/3 96/90/3 95/95/3 90/93/3
f 85/97/18 87/98/18 93/89/18 94/96/18
f 86/85/18 85/97/18 94/96/18 95/95/18
f 88/86/18 86/85/18 95/95/18 96/90/18
f 87/98/18 88/86/18 96/90/18 93/89/18
f 87/98/16 85/97/16 98/99/16 97/100/16
f 88/86/4 87/98/4 97/100/4 100/87/4
f 85/97/1 86/85/1 99/88/1 98/99/1
