# Blender v2.79 (sub 0) OBJ File: 'dormer_001.blend'
# www.blender.org
o Cube.112_Cube.131
v 1.899035 -1.136118 3.420017
v 1.899035 -0.736520 3.420017
v -1.780438 -1.136118 3.420018
v -1.780438 -0.736520 3.420018
v 1.899034 -1.136118 3.085227
v 1.899034 -0.736520 3.085227
v -1.780438 -1.136118 3.085228
v -1.780438 -0.736520 3.085228
v 1.893999 -0.827724 3.358191
v 0.692603 0.992023 -1.007448
v -1.775402 -0.827724 3.358192
v 1.893997 -0.827724 -1.007448
v 1.357845 0.002484 -1.007448
v -1.775403 -0.827724 -1.007447
v 0.266881 1.691796 3.358192
v -0.148284 1.691796 3.358192
v -0.148285 1.691796 -1.007448
v 0.266879 1.691796 -1.007448
v 0.692605 0.992023 3.358191
v 1.357847 0.002483 3.358191
v -1.239250 0.002484 3.358192
v -0.452412 1.188243 3.308295
v -0.452413 1.188243 -1.010622
v -1.239252 0.002483 -1.007447
v -1.775402 -0.827724 2.231736
v 1.893998 -0.827724 1.304906
v -0.148284 1.691796 1.702912
v 0.266880 1.691796 1.702912
v 1.357846 0.002484 2.009339
v 0.544897 1.235785 1.368648
v -1.239251 0.002484 1.273761
v -0.452412 1.188243 1.834176
v -0.250312 1.765274 1.702912
v -0.250312 1.765274 3.358192
v -0.554440 1.261721 3.308295
v -0.250313 1.765274 -1.007447
v -0.554441 1.261721 -1.010622
v -0.581955 1.304729 1.772440
v -1.349826 0.082116 3.358192
v -1.868322 -0.760807 3.358192
v -0.840700 0.712838 3.013291
v -1.349828 0.082116 -1.007447
v -1.340414 0.164683 1.316064
v -1.856606 -0.760805 2.200571
v -0.840700 0.712838 2.045512
v -1.868323 -0.760807 -1.007447
v -0.907683 0.761077 3.013291
v -0.907683 0.828548 2.045512
v -0.924296 0.613531 1.617172
v -0.924296 0.613531 -0.764454
v -0.997995 0.666607 1.617172
v -0.997996 0.666607 -0.764454
v -1.610766 -0.523725 1.091149
v -1.610767 -0.523725 -0.802632
v -1.721342 -0.444092 1.091149
v -1.721343 -0.444092 -0.802632
v -1.682821 -0.548369 3.162503
v -1.682822 -0.548369 1.631809
v -1.747241 -0.501976 3.162503
v -1.747241 -0.450925 1.631809
v -2.017498 -1.245690 2.385005
v -2.017497 -1.245690 3.204925
v -2.085131 -1.196983 3.204925
v -2.085132 -1.196983 2.385005
v -2.025088 -1.180721 -0.789504
v -2.025087 -1.180721 1.752699
v -2.088356 -1.135158 -0.789504
v -2.088356 -1.135158 1.752699
v 0.358346 1.757668 3.358191
v 0.784071 1.057894 3.358191
v 0.358346 1.757668 1.702912
v 0.358345 1.757668 -1.007448
v 0.784069 1.057895 -1.007448
v 0.636362 1.301656 1.368648
v 1.433524 0.056984 -1.007448
v 1.988286 -0.759821 -1.007448
v 1.433526 0.056984 3.358191
v 1.433525 0.056984 2.009339
v 1.988287 -0.759821 1.304905
v 1.988288 -0.759821 3.358191
v 1.132147 0.422193 -0.825127
v 1.132148 0.422193 1.168867
v 1.198027 0.469638 -0.825127
v 1.198028 0.469638 1.168867
v 1.162162 0.334725 1.604838
v 1.162163 0.334725 3.026811
v 1.253628 0.400597 1.604838
v 1.253629 0.400597 3.026811
v 1.699142 -0.459312 2.361424
v 1.699142 -0.459312 3.177073
v 1.774821 -0.404811 2.361424
v 1.774821 -0.404811 3.177073
v 1.787830 -0.617063 -0.749751
v 1.787831 -0.617063 1.777332
v 1.863509 -0.562563 -0.749751
v 1.863510 -0.562563 1.777332
v 2.121243 -1.179610 3.086326
v 2.121243 -1.179610 1.576771
v 2.215533 -1.111708 3.086326
v 2.215532 -1.111708 1.576771
v 2.200756 -1.190549 1.180956
v 2.200755 -1.190549 -0.660459
v 2.295045 -1.122647 1.180956
v 2.295044 -1.122647 -0.660459
v 0.067190 1.676130 3.468110
v -0.214119 1.880365 3.468110
v 0.067190 1.676130 3.166080
v -0.214119 1.880365 3.166080
v -2.221361 -1.202716 3.468111
v -1.940051 -1.406950 3.468111
v -1.940051 -1.406950 3.166081
v -2.221361 -1.202716 3.166081
v 0.028146 1.676130 3.468110
v 0.309455 1.880365 3.468110
v 0.028145 1.676130 3.166080
v 0.309455 1.880365 3.166080
v 2.316696 -1.202716 3.468110
v 2.035387 -1.406950 3.468110
v 2.035387 -1.406950 3.166080
v 2.316696 -1.202716 3.166080
v 0.061232 1.465589 3.818653
v 0.423674 1.868758 3.818652
v -0.301210 1.868758 3.818653
v 0.061232 2.271927 3.818653
v 0.061230 1.465589 -1.394587
v 0.423672 1.868758 -1.394587
v -0.301212 1.868758 -1.394587
v 0.061230 2.271927 -1.394587
vt 0.140582 0.684861
vt 0.140582 0.684861
vt 0.140582 0.684861
vt 0.140582 0.684861
vt 0.140582 0.684861
vt 0.140582 0.684861
vt 0.140582 0.684861
vt 0.140582 0.684861
vt 0.824331 0.815531
vt 0.813124 0.833990
vt 0.802179 0.834027
vt 0.794116 0.820713
vt 0.626779 0.164654
vt 0.705394 0.164654
vt 0.648718 0.168004
vt 0.639207 0.165402
vt 0.759236 0.737838
vt 0.759236 0.652438
vt 0.855978 0.652438
vt 0.855978 0.713402
vt 0.802325 0.877668
vt 0.813271 0.877631
vt 0.784456 0.356452
vt 0.780048 0.357845
vt 0.771876 0.330283
vt 0.774364 0.327725
vt 0.617754 0.135348
vt 0.615315 0.136771
vt 0.607630 0.119465
vt 0.610773 0.119682
vt 0.612063 0.250556
vt 0.614920 0.252244
vt 0.610128 0.268384
vt 0.607630 0.268894
vt 0.855978 0.767536
vt 0.841842 0.789424
vt 0.773371 0.789424
vt 0.759236 0.767536
vt 0.775710 0.109265
vt 0.768225 0.075867
vt 0.844760 0.066139
vt 0.809340 0.105453
vt 0.807599 0.115772
vt 0.776566 0.113735
vt 0.783915 0.110666
vt 0.801686 0.110421
vt 0.794017 0.206224
vt 0.787607 0.240425
vt 0.659082 0.217622
vt 0.700457 0.183931
vt 0.802566 0.949124
vt 0.813511 0.949087
vt 0.655221 0.284709
vt 0.665399 0.262782
vt 0.761661 0.278591
vt 0.758354 0.299002
vt 0.624693 0.244296
vt 0.649376 0.293030
vt 0.674857 0.314197
vt 0.673171 0.317581
vt 0.624002 0.240560
vt 0.666736 0.258287
vt 0.762398 0.274148
vt 0.854035 0.253202
vt 0.802906 0.269952
vt 0.796920 0.175780
vt 0.838373 0.170642
vt 0.839341 0.322237
vt 0.796471 0.318423
vt 0.839393 0.326443
vt 0.860547 0.319358
vt 0.862235 0.321585
vt 0.947057 0.066139
vt 0.939877 0.109316
vt 0.625815 0.289027
vt 0.628513 0.285264
vt 0.937549 0.121855
vt 0.927572 0.114125
vt 0.927724 0.116130
vt 0.743632 0.317581
vt 0.742476 0.314950
vt 0.761076 0.301644
vt 0.865526 0.175719
vt 0.875551 0.230545
vt 0.870584 0.229763
vt 0.861968 0.178912
vt 0.863600 0.252660
vt 0.840917 0.164654
vt 0.875551 0.279771
vt 0.871258 0.279587
vt 0.783817 0.112397
vt 0.801864 0.112058
vt 0.829023 0.110391
vt 0.828910 0.112676
vt 0.684163 0.342294
vt 0.671347 0.365380
vt 0.621860 0.373742
vt 0.611366 0.353727
vt 0.775496 0.378676
vt 0.671365 0.369339
vt 0.619749 0.377621
vt 0.774929 0.382983
vt 0.613330 0.331479
vt 0.644516 0.321604
vt 0.607630 0.354210
vt 0.655687 0.096022
vt 0.698323 0.140871
vt 0.637370 0.164520
vt 0.763201 0.087086
vt 0.768090 0.122693
vt 0.765782 0.084519
vt 0.746205 0.069263
vt 0.747362 0.066139
vt 0.607630 0.194443
vt 0.628870 0.168554
vt 0.796336 0.193644
vt 0.748524 0.188331
vt 0.748763 0.188421
vt 0.717987 0.317716
vt 0.718547 0.320360
vt 0.683930 0.335964
vt 0.610726 0.329473
vt 0.644909 0.317716
vt 0.622663 0.101254
vt 0.624432 0.104091
vt 0.652853 0.091807
vt 0.674808 0.066139
vt 0.676441 0.069058
vt 0.648603 0.168925
vt 0.639087 0.166343
vt 0.748660 0.188323
vt 0.748615 0.188322
vt 0.060082 0.972962
vt 0.059250 0.839136
vt 0.058107 0.837010
vt 0.058967 0.974020
vt 0.060082 0.977837
vt 0.058328 0.839793
vt 0.058287 0.840519
vt 0.059422 0.974679
vt 0.054730 0.973233
vt 0.055846 0.974329
vt 0.058085 0.839187
vt 0.057004 0.837010
vt 0.054730 0.978141
vt 0.055399 0.974965
vt 0.057119 0.839795
vt 0.057055 0.840553
vt 0.054730 0.818156
vt 0.060847 0.817409
vt 0.062991 0.818711
vt 0.060692 0.819715
vt 0.323521 0.836215
vt 0.326437 0.835829
vt 0.335021 0.836987
vt 0.326359 0.836987
vn 0.0000 0.0000 1.0000
vn -1.0000 0.0000 0.0000
vn -0.0000 0.0000 -1.0000
vn 1.0000 0.0000 -0.0000
vn 0.0000 -1.0000 0.0000
vn 0.0000 1.0000 -0.0000
vn -0.0376 -0.0452 0.9983
vn -0.8401 -0.5425 0.0000
vn 0.1436 -0.1994 -0.9693
vn 0.1758 -0.2441 0.9537
vn -0.2535 -0.3520 0.9010
vn -0.0121 0.0236 0.9996
vn -0.7754 0.6314 -0.0028
vn 0.8653 -0.5012 -0.0000
vn 0.7706 0.6373 -0.0000
vn -0.8351 0.5501 -0.0085
vn -0.8346 0.5507 0.0146
vn -0.3279 -0.0495 0.9434
vn 0.5844 0.8115 -0.0000
vn -0.0496 -0.0688 0.9964
vn -0.7652 0.6437 -0.0089
vn -0.7677 0.6407 0.0130
vn -0.1561 -0.2167 0.9637
vn -0.7741 0.6331 0.0017
vn 0.0205 0.0285 0.9994
vn -0.7742 -0.6326 -0.0221
vn -0.2630 -0.3653 -0.8930
vn -0.1403 -0.3636 -0.9209
vn -0.8210 0.5699 0.0342
vn -0.5844 -0.8115 0.0000
vn -0.8207 0.5713 -0.0091
vn -0.1840 -0.2555 -0.9491
vn -0.1145 -0.2676 0.9567
vn -0.8334 0.5526 -0.0090
vn -0.1771 -0.2459 -0.9530
vn -0.7448 -0.6672 -0.0111
vn -0.4704 -0.1585 -0.8681
vn -0.8296 0.5580 0.0187
vn -0.8907 0.4545 -0.0053
vn -0.1775 -0.2465 0.9527
vn -0.0643 -0.3361 -0.9396
vn -0.8564 0.5163 0.0017
vn 0.8164 -0.5775 -0.0000
vn -0.5383 -0.5043 0.6753
vn 0.8541 0.5200 0.0002
vn 0.8541 0.5201 -0.0001
vn -0.5844 0.8115 0.0000
vn 0.8204 0.5718 0.0053
vn 0.7905 0.6124 0.0097
vn 0.7928 0.6094 -0.0058
vn 0.1890 -0.2624 -0.9463
vn 0.3453 -0.4795 -0.8067
vn 0.5844 -0.8115 -0.0000
vn 0.8242 0.5662 -0.0037
vn 0.1141 -0.1585 0.9807
vn 0.1236 -0.1716 -0.9774
vn 0.2218 -0.3080 0.9252
vn 0.8042 0.5944 -0.0000
vn 0.3055 -0.4242 -0.8525
vn 0.1719 -0.2386 0.9558
vn 0.8215 0.5702 -0.0000
vn 0.8401 0.5425 -0.0000
vn 0.3184 -0.4422 -0.8385
vn 0.3184 -0.4422 0.8385
vn 0.1479 -0.2054 0.9674
vn 0.7636 0.6456 -0.0000
vn -0.7636 -0.6456 0.0000
vn 0.8380 -0.5456 -0.0000
vn -0.8380 0.5456 0.0000
vn -0.5875 -0.8092 0.0000
vn -0.8380 -0.5456 0.0000
vn 0.8380 0.5456 -0.0000
vn 0.5875 -0.8092 -0.0000
vn -0.7437 0.6685 0.0000
vn 0.7437 -0.6685 -0.0000
vn -0.7437 -0.6685 0.0000
vn 0.7437 0.6685 -0.0000
s off
f 1/1/1 2/2/1 4/3/1 3/4/1
f 3/4/2 4/3/2 8/5/2 7/6/2
f 7/6/3 8/5/3 6/7/3 5/8/3
f 5/8/4 6/7/4 2/2/4 1/1/4
f 3/4/5 7/6/5 5/8/5 1/1/5
f 8/5/6 4/3/6 2/2/6 6/7/6
f 19/9/7 15/10/7 16/11/7 22/12/7
f 9/13/8 26/14/8 98/15/8 97/16/8
f 25/17/5 14/18/5 12/19/5 26/20/5
f 27/21/6 16/11/6 15/10/6 28/22/6
f 10/23/9 73/24/9 83/25/9 81/26/9
f 77/27/10 20/28/10 90/29/10 92/30/10
f 22/31/11 35/32/11 47/33/11 41/34/11
f 9/35/1 20/36/1 21/37/1 11/38/1
f 20/36/12 19/9/12 22/12/12 21/37/12
f 40/39/13 21/40/13 31/41/13 44/42/13
f 25/43/14 11/44/14 62/45/14 61/46/14
f 76/47/15 13/48/15 29/49/15 79/50/15
f 17/51/6 27/21/6 28/22/6 18/52/6
f 11/38/5 25/17/5 26/20/5 9/35/5
f 38/53/16 33/54/16 36/55/16 37/56/16
f 35/32/17 34/57/17 33/54/17 38/53/17
f 32/58/18 38/53/18 51/59/18 49/60/18
f 16/61/19 27/62/19 33/54/19 34/57/19
f 27/62/19 17/63/19 36/55/19 33/54/19
f 22/31/20 16/61/20 34/57/20 35/32/20
f 43/64/21 32/65/21 23/66/21 42/67/21
f 39/68/22 22/69/22 32/65/22 43/64/22
f 21/70/23 39/68/23 59/71/23 57/72/23
f 44/42/24 31/41/24 24/73/24 46/74/24
f 21/70/25 22/69/25 39/68/25
f 45/75/26 41/34/26 47/33/26 48/76/26
f 11/44/1 21/40/1 40/39/1
f 46/74/27 14/77/27 65/78/27 67/79/27
f 38/53/28 32/58/28 45/75/28 48/76/28
f 35/32/29 38/53/29 48/76/29 47/33/29
f 50/80/30 49/60/30 51/59/30 52/81/30
f 38/53/31 37/56/31 52/81/31 51/59/31
f 37/56/32 23/82/32 50/80/32 52/81/32
f 54/83/30 53/84/30 55/85/30 56/86/30
f 31/87/33 43/64/33 55/85/33 53/84/33
f 43/64/34 42/67/34 56/86/34 55/85/34
f 42/67/35 24/88/35 54/83/35 56/86/35
f 58/89/36 57/72/36 59/71/36 60/90/36
f 43/64/37 31/87/37 58/89/37 60/90/37
f 39/68/38 43/64/38 60/90/38 59/71/38
f 61/46/30 62/45/30 63/91/30 64/92/30
f 40/39/39 44/42/39 64/92/39 63/91/39
f 11/44/40 40/39/40 63/91/40 62/45/40
f 44/42/41 25/43/41 61/46/41 64/92/41
f 65/78/30 66/93/30 68/94/30 67/79/30
f 44/42/42 46/74/42 67/79/42 68/94/42
f 14/77/43 25/43/43 66/93/43 65/78/43
f 25/43/44 44/42/44 68/94/44 66/93/44
f 74/95/45 71/96/45 69/97/45 70/98/45
f 73/24/46 72/99/46 71/96/46 74/95/46
f 28/100/47 15/101/47 69/97/47 71/96/47
f 18/102/47 28/100/47 71/96/47 72/99/47
f 74/95/48 70/98/48 88/103/48 87/104/48
f 15/101/1 19/105/1 70/98/1 69/97/1
f 78/106/49 30/107/49 19/108/49 77/27/49
f 75/109/50 10/110/50 30/107/50 78/106/50
f 19/108/1 20/28/1 77/27/1
f 13/111/51 75/109/51 95/112/51 93/113/51
f 79/50/15 29/49/15 20/114/15 80/115/15
f 20/114/1 9/13/1 80/115/1
f 12/116/52 76/47/52 104/117/52 102/118/52
f 82/119/53 81/26/53 83/25/53 84/120/53
f 73/24/54 74/95/54 84/120/54 83/25/54
f 74/95/55 30/121/55 82/119/55 84/120/55
f 86/122/53 85/123/53 87/104/53 88/103/53
f 30/121/56 74/95/56 87/104/56 85/123/56
f 70/98/57 19/105/57 86/122/57 88/103/57
f 90/29/53 89/124/53 91/125/53 92/30/53
f 78/106/58 77/27/58 92/30/58 91/125/58
f 29/126/59 78/106/59 91/125/59 89/124/59
f 94/127/53 93/113/53 95/112/53 96/128/53
f 78/106/60 29/126/60 94/127/60 96/128/60
f 75/109/61 78/106/61 96/128/61 95/112/61
f 97/16/53 98/15/53 100/129/53 99/130/53
f 79/50/62 80/115/62 99/130/62 100/129/62
f 26/14/63 79/50/63 100/129/63 98/15/63
f 80/115/64 9/13/64 97/16/64 99/130/64
f 101/131/53 102/118/53 104/117/53 103/132/53
f 79/50/65 26/14/65 101/131/65 103/132/65
f 76/47/66 79/50/66 103/132/66 104/117/66
f 26/14/67 12/116/67 102/118/67 101/131/67
f 105/133/68 110/134/68 111/135/68 107/136/68
f 108/137/69 112/138/69 109/139/69 106/140/69
f 107/136/3 111/135/3 112/138/3 108/137/3
f 110/134/70 109/139/70 112/138/70 111/135/70
f 106/140/1 109/139/1 110/134/1 105/133/1
f 113/141/71 115/142/71 119/143/71 118/144/71
f 116/145/72 114/146/72 117/147/72 120/148/72
f 115/142/3 116/145/3 120/148/3 119/143/3
f 118/144/73 119/143/73 120/148/73 117/147/73
f 114/146/1 113/141/1 118/144/1 117/147/1
f 121/149/1 122/150/1 124/151/1 123/152/1
f 123/152/74 124/151/74 128/153/74 127/154/74
f 125/155/75 126/156/75 122/150/75 121/149/75
f 123/152/76 127/154/76 125/155/76 121/149/76
f 128/153/77 124/151/77 122/150/77 126/156/77
