# Blender v2.79 (sub 0) OBJ File: 'extension_entry_002.blend'
# www.blender.org
o Cube.033_Cube.032
v 1.999570 0.000000 3.575366
v 1.999570 3.492179 3.575366
v -2.015696 0.000000 3.575369
v -2.015696 3.492179 3.575369
v 1.999567 0.000000 -1.344595
v 1.999567 3.492179 -1.344595
v -2.015700 0.000000 -1.344593
v -2.015700 3.492179 -1.344593
v -0.008063 4.964212 3.575367
v -0.008067 4.964212 -1.344594
v -2.015698 0.000000 1.115389
v -2.015697 3.492179 2.426787
v -2.015698 3.492179 0.570337
v 1.999568 0.000000 1.115385
v 2.037066 3.410413 -0.081798
v 2.054413 3.447968 2.303944
v -0.008064 4.964212 1.935380
v -0.008065 4.964212 0.295393
v -1.346488 3.982857 -1.344593
v -0.677279 4.473535 -1.344594
v -0.677275 4.473535 3.575368
v -1.346484 3.982857 3.575368
v -1.346487 3.982857 -0.222205
v -0.677278 4.473535 0.553871
v -1.346485 3.982857 1.635088
v -0.677276 4.473535 2.499571
v 1.330358 3.982857 3.575366
v 0.661149 4.473535 3.575367
v 0.661146 4.473535 -1.344594
v 1.330354 3.982857 -1.344595
v 1.305958 3.965335 1.833473
v 0.661148 4.488758 2.197016
v 1.326724 3.966469 0.575729
v 0.617201 4.549394 0.053652
v 0.801702 4.665226 3.575367
v 0.132489 5.155904 3.575367
v 0.132487 5.155904 0.295393
v 0.132486 5.155904 -1.344594
v 0.132488 5.155904 1.935380
v 0.801701 4.685177 2.197016
v 0.744109 4.764641 0.066086
v 0.801698 4.665226 -1.344594
v 1.450685 4.146964 3.575366
v 2.192940 3.577915 2.307195
v 1.450681 4.146964 -1.344595
v 1.421005 4.124695 1.859042
v 2.127851 3.630382 -1.344596
v 1.446254 4.126971 0.552099
v 2.127855 3.630382 3.575366
v 2.246123 3.533347 -0.071652
v 1.151307 4.101703 3.594276
v 1.291860 4.293394 3.594276
v 1.151307 4.101808 2.476062
v 1.291859 4.293962 2.476062
v 1.201499 4.063449 0.216101
v 1.195385 4.067416 2.199313
v 1.341315 4.254140 0.205692
v 1.333794 4.318997 2.207102
v 1.138944 4.123201 -1.201773
v 1.135878 4.128492 -0.084022
v 1.279497 4.314893 -1.201773
v 1.273497 4.325248 -0.081349
v 1.876953 3.581293 1.903958
v 1.857408 3.596412 3.389807
v 2.001728 3.782516 1.907364
v 1.977735 3.760520 3.389807
v 1.885375 3.625446 0.760800
v 1.885673 3.625203 1.632468
v 2.005641 3.755947 0.759016
v 2.006198 3.787982 1.633381
v 1.913499 3.546006 -1.330806
v 1.921695 3.539282 0.455216
v 2.033826 3.710113 -1.330806
v 2.046332 3.765176 0.457567
v 2.448902 3.075246 2.544658
v 2.447664 3.076245 3.598277
v 2.578408 3.212465 2.545044
v 2.575948 3.214448 3.598276
v 2.547862 2.973494 0.072467
v 2.547863 2.973494 2.077938
v 2.676148 3.111697 2.077937
v 2.676146 3.111697 0.072467
v 2.405153 3.115701 -1.145463
v 2.419997 3.103523 -0.144394
v 2.533437 3.253905 -1.145463
v 2.553694 3.237286 -0.141443
v -0.831049 4.683254 -1.344594
v -0.161837 5.173932 -1.344594
v -0.161836 5.173932 0.295393
v -0.161834 5.173932 3.575367
v -0.161835 5.173932 1.935380
v -0.825971 4.748750 0.530707
v -0.867298 4.760690 2.360605
v -0.831046 4.683254 3.575368
v -1.471457 4.153296 -1.344593
v -2.188630 3.554191 0.556070
v -1.471453 4.153296 3.575368
v -1.547117 4.052977 -0.215012
v -2.106929 3.616605 3.575369
v -1.415234 4.208297 1.707877
v -2.106932 3.616605 -1.344592
v -2.092041 3.629655 2.438149
v -1.161199 4.076381 0.167573
v -1.161200 4.076381 -1.363343
v -1.314970 4.286100 0.167573
v -1.314970 4.286100 -1.363343
v -1.183211 4.057282 3.455514
v -1.183212 4.057282 2.504164
v -1.336982 4.267003 3.455514
v -1.336982 4.325767 2.504164
v -1.178421 4.112536 2.218061
v -1.178422 4.112536 0.623032
v -1.332191 4.322257 2.218061
v -1.332192 4.256611 0.623032
v -1.959101 3.832812 -1.238279
v -1.834131 3.586249 -1.238279
v -1.834131 3.586249 -0.328519
v -1.959100 3.756689 -0.328518
v -1.880262 3.567506 -0.078977
v -2.005231 3.781594 -0.078977
v -1.880261 3.567506 1.491861
v -2.005230 3.737946 1.491861
v -1.816008 3.609014 3.582267
v -1.816010 3.609014 1.981385
v -1.940978 3.779454 3.582267
v -1.940979 3.779454 1.981385
v -2.480527 3.151353 0.414950
v -2.480528 3.151353 -1.189205
v -2.571759 3.275779 0.414950
v -2.571761 3.275779 -1.189205
v -2.603859 2.917530 2.020232
v -2.603860 2.917530 0.747241
v -2.695091 3.041956 2.020232
v -2.695092 3.041956 0.747241
v -2.437758 3.182713 3.415237
v -2.437759 3.182713 2.493428
v -2.528991 3.307139 3.415237
v -2.528991 3.277376 2.493428
v -0.007265 4.920152 4.197745
v 0.309431 5.236848 4.197745
v -0.323962 5.236848 4.197745
v -0.007265 5.553545 4.197745
v -0.007269 4.920152 -1.367775
v 0.309427 5.236848 -1.367775
v -0.323966 5.236848 -1.367775
v -0.007269 5.553545 -1.367775
v -0.323964 5.136783 1.083920
v -0.007268 5.453480 1.083920
v -0.007268 4.820086 1.083920
v 0.309429 5.136783 1.083920
v 2.522378 2.841213 3.933474
v 2.744787 3.140209 3.933473
v 0.213655 5.221047 3.933475
v 2.522378 2.841213 3.560829
v 2.744787 3.140209 3.560829
v 0.213655 5.221047 3.560831
v -2.538497 2.841213 3.933476
v -2.760905 3.140209 3.933477
v -0.008059 4.922050 3.933475
v -0.229773 5.221047 3.933475
v -2.538497 2.841213 3.560832
v -2.760905 3.140209 3.560833
v -0.008059 4.922050 3.560831
v -0.229773 5.221047 3.560831
v 2.133996 0.000000 3.700418
v 2.089292 3.487978 3.655716
v 1.718221 0.000000 3.700419
v 1.762925 3.487978 3.655716
v 2.133996 0.000000 3.284646
v 2.089292 3.487978 3.329349
v 1.718221 0.000000 3.284647
v 1.762925 3.487978 3.329350
v 2.198350 3.458523 3.784476
v 2.198347 3.458522 -1.344016
v 1.796899 3.458523 3.784476
v 1.796896 3.458522 -1.344016
v 2.198350 3.097167 3.784476
v 2.198347 3.097167 -1.344016
v 1.796899 3.097167 3.784476
v 1.796896 3.097167 -1.344016
v 2.198350 3.458523 3.428138
v 1.796899 3.458523 3.428138
v 1.796899 3.097167 3.428138
v 2.198350 3.097167 3.428138
v 2.089292 1.743989 3.655716
v 1.762925 1.743989 3.655716
v 1.762925 1.743989 3.329350
v 2.089292 1.743989 3.329349
v -2.150115 0.000000 3.700421
v -2.105410 3.487978 3.655719
v -1.734339 0.000000 3.700421
v -1.779044 3.487978 3.655718
v -2.150115 0.000000 3.284649
v -2.105410 3.487978 3.329352
v -1.734340 0.000000 3.284648
v -1.779044 3.487978 3.329351
v -2.214469 3.458523 3.784479
v -2.214472 3.458522 -1.344013
v -1.813018 3.458523 3.784478
v -1.813021 3.458522 -1.344013
v -2.214469 3.097167 3.784479
v -2.214472 3.097167 -1.344013
v -1.813018 3.097167 3.784478
v -1.813021 3.097167 -1.344013
v -2.214469 3.458523 3.428141
v -1.813018 3.458523 3.428140
v -1.813018 3.097167 3.428140
v -2.214469 3.097167 3.428141
v -2.105410 1.743989 3.655719
v -1.779044 1.743989 3.655718
v -1.779044 1.743989 3.329351
v -2.105410 1.743989 3.329352
vt 0.792850 0.809317
vt 0.831646 0.886108
vt 0.709178 0.883723
vt 0.746936 0.818030
vt 0.727643 0.773609
vt 0.641775 0.816187
vt 0.611320 0.763717
vt 0.707007 0.708178
vt 0.809805 0.770957
vt 0.868793 0.857550
vt 0.825368 0.708178
vt 0.810943 0.900676
vt 0.790241 0.915245
vt 0.769538 0.929813
vt 0.749418 0.914450
vt 0.729298 0.899086
vt 0.725328 0.219719
vt 0.734846 0.180629
vt 0.745808 0.200640
vt 0.741345 0.218193
vt 0.700486 0.219027
vt 0.694876 0.165833
vt 0.704182 0.165231
vt 0.708311 0.218181
vt 0.662888 0.048698
vt 0.654178 0.096159
vt 0.641932 0.074718
vt 0.646649 0.052738
vt 0.927742 0.752757
vt 0.909218 0.788748
vt 0.677914 0.862555
vt 0.659226 0.403659
vt 0.645605 0.394557
vt 0.686060 0.376931
vt 0.682839 0.378376
vt 0.770420 0.285237
vt 0.818435 0.289499
vt 0.819978 0.316871
vt 0.749735 0.317461
vt 0.628973 0.299692
vt 0.687234 0.282554
vt 0.710565 0.319147
vt 0.635151 0.332611
vt 0.688507 0.268931
vt 0.773585 0.255864
vt 0.728443 0.275148
vt 0.724396 0.275402
vt 0.681259 0.050806
vt 0.682457 0.106130
vt 0.677101 0.225085
vt 0.656787 0.179828
vt 0.686366 0.166556
vt 0.693266 0.219943
vt 0.634747 0.162626
vt 0.636816 0.115874
vt 0.688844 0.050497
vt 0.690986 0.105774
vt 0.807581 0.155730
vt 0.866862 0.145371
vt 0.877598 0.187360
vt 0.802746 0.184942
vt 0.764252 0.185281
vt 0.775120 0.202359
vt 0.927088 0.185554
vt 0.913960 0.207104
vt 0.757321 0.185622
vt 0.757321 0.165885
vt 0.761829 0.167731
vt 0.797363 0.279360
vt 0.797190 0.280535
vt 0.655016 0.236082
vt 0.644402 0.208259
vt 0.651171 0.207192
vt 0.660930 0.233825
vt 0.644849 0.185161
vt 0.625217 0.165746
vt 0.630855 0.113998
vt 0.642969 0.095256
vt 0.634818 0.074974
vt 0.642490 0.047647
vt 0.660550 0.041654
vt 0.782541 0.147299
vt 0.784117 0.153080
vt 0.804523 0.147762
vt 0.822414 0.131698
vt 0.841169 0.125505
vt 0.840377 0.129627
vt 0.825462 0.136093
vt 0.867258 0.135286
vt 0.895130 0.129822
vt 0.944607 0.155908
vt 0.941637 0.161547
vt 0.893671 0.138369
vt 0.626174 0.263696
vt 0.659628 0.269617
vt 0.658603 0.274831
vt 0.625217 0.271599
vt 0.636760 0.236217
vt 0.728446 0.275589
vt 0.724431 0.275912
vt 0.802901 0.280698
vt 0.802429 0.282116
vt 0.819978 0.281379
vt 0.720853 0.047268
vt 0.730620 0.111175
vt 0.700288 0.105263
vt 0.697119 0.050019
vt 0.746349 0.108377
vt 0.744658 0.084026
vt 0.752312 0.084526
vt 0.752212 0.127711
vt 0.749658 0.162550
vt 0.895660 0.103717
vt 0.814452 0.086124
vt 0.801221 0.055054
vt 0.854284 0.070826
vt 0.924615 0.058174
vt 0.911087 0.041654
vt 0.769343 0.058538
vt 0.780009 0.041654
vt 0.750277 0.368620
vt 0.694294 0.371977
vt 0.712378 0.332745
vt 0.795715 0.333732
vt 0.840929 0.383745
vt 0.857766 0.343206
vt 0.625217 0.362382
vt 0.735945 0.383019
vt 0.718623 0.371377
vt 0.717088 0.371720
vt 0.795686 0.384968
vt 0.792842 0.384568
vt 0.747289 0.042283
vt 0.740113 0.043136
vt 0.754000 0.201937
vt 0.745289 0.222853
vt 0.727402 0.227831
vt 0.750246 0.183504
vt 0.757186 0.125423
vt 0.757186 0.163868
vt 0.940264 0.071495
vt 0.931590 0.093136
vt 0.927634 0.089458
vt 0.932235 0.071222
vt 0.930756 0.054580
vt 0.901768 0.116179
vt 0.859729 0.125371
vt 0.822630 0.109268
vt 0.825839 0.105070
vt 0.860082 0.117369
vt 0.811547 0.094797
vt 0.792374 0.095853
vt 0.757321 0.078565
vt 0.760107 0.073153
vt 0.793392 0.090677
vt 0.793048 0.383709
vt 0.791362 0.384597
vt 0.841440 0.403659
vt 0.719968 0.375596
vt 0.712884 0.372969
vt 0.698272 0.376752
vt 0.684515 0.378551
vt 0.685393 0.378458
vt 0.054424 0.741385
vt 0.046570 0.739428
vt 0.053873 0.738853
vt 0.056855 0.740305
vt 0.231575 0.758693
vt 0.231428 0.758648
vt 0.342017 0.768737
vt 0.352440 0.771272
vt 0.231408 0.758699
vt 0.231284 0.758662
vt 0.340579 0.771272
vt 0.337509 0.769509
vt 0.417967 0.936891
vt 0.422180 0.936099
vt 0.238096 0.936288
vt 0.234375 0.936202
vt 0.234375 0.935863
vt 0.238063 0.935767
vt 0.417266 0.935343
vt 0.416184 0.936272
vt 0.050782 0.936764
vt 0.230654 0.936285
vt 0.046570 0.935969
vt 0.052566 0.936146
vt 0.051485 0.935217
vt 0.230687 0.935764
vt 0.078808 0.792965
vt 0.079031 0.797529
vt 0.079957 0.795106
vt 0.075244 0.795333
vt 0.077449 0.794482
vt 0.077672 0.799046
vt 0.076523 0.796905
vt 0.081236 0.796678
vt 0.153105 0.778339
vt 0.193416 0.786334
vt 0.192688 0.789869
vt 0.150671 0.781208
vt 0.151516 0.771322
vt 0.194756 0.779638
vt 0.194057 0.783173
vt 0.153707 0.775520
vt 0.149190 0.778118
vt 0.149125 0.775032
vt 0.151516 0.775933
vt 0.151405 0.777141
vt 0.117266 0.775155
vt 0.117249 0.778224
vt 0.114887 0.771545
vt 0.072356 0.789918
vt 0.071888 0.802093
vt 0.084592 0.789918
vt 0.084124 0.802093
vt 0.060566 0.844798
vt 0.060591 0.844785
vt 0.048355 0.929317
vt 0.047819 0.927097
vt 0.060432 0.844681
vt 0.046570 0.935167
vt 0.060477 0.844736
vt 0.046636 0.929050
vt 0.113338 0.778490
vt 0.115800 0.781375
vt 0.073915 0.789869
vt 0.073200 0.786345
vt 0.112734 0.775681
vt 0.072573 0.783198
vt 0.071888 0.779678
vt 0.115031 0.777275
vt 0.114909 0.776074
vt 0.071838 0.780640
vt 0.069950 0.783588
vt 0.071838 0.771322
vt 0.069035 0.780209
vn 0.0000 0.0000 1.0000
vn -1.0000 -0.0000 0.0000
vn 0.9998 -0.0104 0.0148
vn 0.0000 -1.0000 0.0000
vn -0.6555 0.7529 0.0583
vn 0.8064 0.5913 -0.0000
vn 0.6169 0.7868 -0.0186
vn 0.9999 -0.0072 -0.0102
vn 0.9999 -0.0135 -0.0071
vn -0.2359 -0.1730 0.9562
vn 0.4213 0.9067 0.0171
vn 0.4058 0.9138 -0.0158
vn -0.6717 -0.7408 0.0090
vn 0.4134 0.9106 -0.0025
vn 0.5651 0.8249 -0.0162
vn 0.5827 0.8127 0.0054
vn 0.5581 0.8297 0.0090
vn 0.6136 0.7896 -0.0046
vn -0.8064 0.5913 0.0000
vn 0.4424 0.8967 0.0140
vn 0.4060 0.9138 -0.0060
vn 0.4223 0.9064 -0.0092
vn 0.2203 -0.1615 0.9620
vn 0.0671 -0.1400 0.9879
vn 0.8068 -0.5908 -0.0002
vn 0.6130 0.7901 0.0065
vn 0.3302 -0.2389 -0.9132
vn 0.8464 -0.5324 0.0121
vn -0.0167 -0.0070 0.9998
vn 0.1640 -0.1029 -0.9811
vn 0.8130 -0.5822 0.0074
vn 0.1890 -0.1386 -0.9722
vn 0.1550 -0.1354 0.9786
vn 0.8303 -0.5572 0.0109
vn 0.5088 0.8607 -0.0200
vn 0.1077 0.0082 -0.9941
vn 0.7728 -0.6345 0.0112
vn 0.2121 -0.2331 0.9490
vn 0.1846 -0.2354 -0.9542
vn 0.5258 0.8506 -0.0057
vn 0.8468 -0.5319 0.0023
vn 0.5590 0.8291 -0.0091
vn 0.1508 -0.0409 0.9877
vn 0.7301 -0.6833 0.0022
vn -0.6830 -0.7304 -0.0023
vn 0.2935 -0.2820 -0.9134
vn 0.6834 0.7300 0.0028
vn 0.7329 -0.6803 -0.0000
vn 0.1575 -0.1657 -0.9735
vn 0.2200 -0.2304 0.9479
vn 0.6971 0.7169 0.0012
vn 0.7201 -0.6935 -0.0226
vn 0.2482 -0.2303 -0.9409
vn -0.6532 -0.7570 -0.0163
vn 0.6866 0.7270 -0.0055
vn 0.5961 0.8026 0.0216
vn -0.5428 0.8394 0.0297
vn -0.5679 0.8230 -0.0145
vn -0.5253 0.8509 -0.0092
vn -0.4504 -0.2399 0.8600
vn -0.6910 0.7224 -0.0247
vn -0.3719 0.9279 -0.0246
vn -0.4142 0.9100 0.0198
vn -0.3617 0.9322 0.0105
vn -0.4470 0.8945 -0.0065
vn -0.4418 0.8971 0.0066
vn -0.4303 0.9027 0.0017
vn -0.1048 -0.2227 -0.9692
vn -0.5897 0.8076 0.0006
vn -0.8064 -0.5913 0.0000
vn -0.6592 0.7519 -0.0135
vn -0.8410 -0.5408 -0.0167
vn -0.1453 -0.1066 0.9836
vn 0.0420 -0.2179 -0.9751
vn -0.7546 -0.6560 0.0135
vn -0.0699 -0.1052 -0.9920
vn -0.3921 -0.0141 0.9198
vn -0.8575 -0.5140 -0.0215
vn -0.5650 0.8235 0.0503
vn -0.1490 -0.0893 -0.9848
vn -0.1061 -0.1729 0.9792
vn -0.8384 -0.5450 -0.0076
vn -0.5774 0.8164 -0.0043
vn -0.1624 -0.1614 -0.9734
vn -0.1216 -0.2367 0.9639
vn -0.6274 0.7787 0.0022
vn -0.4824 -0.0756 -0.8727
vn -0.1916 -0.1979 0.9613
vn 0.5913 -0.8064 -0.0000
vn -0.2099 -0.1539 -0.9655
vn -0.7045 0.7097 0.0046
vn -0.3579 -0.2678 0.8946
vn 0.6988 -0.7153 -0.0000
vn -0.7684 -0.6399 0.0103
vn -0.6094 0.7928 -0.0108
vn -0.1146 -0.0341 -0.9928
vn -0.7068 0.7068 0.0288
vn 0.7069 -0.7069 0.0227
vn -0.7068 -0.7068 -0.0288
vn 0.7069 0.7069 -0.0227
vn 0.7068 0.7068 0.0288
vn -0.7069 -0.7069 0.0227
vn 0.7068 -0.7068 -0.0288
vn -0.7069 0.7069 -0.0227
vn -0.0000 -0.0000 -1.0000
vn 0.8024 -0.5968 0.0000
vn -0.6352 -0.7724 0.0000
vn 0.6350 0.7725 0.0000
vn -0.8024 -0.5968 0.0000
vn 0.6352 -0.7724 0.0000
vn -0.6350 0.7725 0.0000
vn 1.0000 0.0000 0.0000
vn -0.0000 1.0000 -0.0000
vn 0.9997 0.0256 -0.0000
vn -0.0000 0.0256 -0.9997
vn -0.9997 0.0256 0.0000
vn 0.0000 0.0256 0.9997
s off
f 1/1/1 2/2/1 4/3/1 3/4/1
f 11/5/2 13/6/2 8/7/2 7/8/2
f 14/9/3 16/10/3 2/2/3 1/1/3
f 11/5/4 7/8/4 5/11/4 14/9/4
f 4/3/1 2/2/1 27/12/1 28/13/1 9/14/1 21/15/1 22/16/1
f 94/17/5 93/18/5 110/19/5 109/20/5
f 9/21/6 17/22/6 91/23/6 90/24/6
f 42/25/7 41/26/7 62/27/7 61/28/7
f 3/4/4 11/5/4 14/9/4 1/1/4
f 5/11/8 6/29/8 15/30/8 14/9/8
f 14/9/9 15/30/9 16/10/9
f 3/4/2 4/3/2 12/31/2 11/5/2
f 11/5/2 12/31/2 13/6/2
f 4/32/10 99/33/10 137/34/10 135/35/10
f 50/36/11 47/37/11 30/38/11 33/39/11
f 49/40/12 44/41/12 31/42/12 27/43/12
f 16/44/13 15/45/13 79/46/13 80/47/13
f 44/41/14 50/36/14 33/39/14 31/42/14
f 41/26/15 42/25/15 38/48/15 37/49/15
f 35/50/16 40/51/16 39/52/16 36/53/16
f 40/51/17 41/26/17 37/49/17 39/52/17
f 41/26/18 40/51/18 58/54/18 57/55/18
f 17/22/19 9/21/19 36/53/19 39/52/19
f 10/56/19 18/57/19 37/49/19 38/48/19
f 18/57/19 17/22/19 39/52/19 37/49/19
f 46/58/20 48/59/20 34/60/20 32/61/20
f 43/62/21 46/58/21 32/61/21 28/63/21
f 48/59/22 45/64/22 29/65/22 34/60/22
f 43/62/23 27/66/23 64/67/23 66/68/23
f 50/36/24 15/45/24 84/69/24 86/70/24
f 51/71/25 53/72/25 54/73/25 52/74/25
f 40/51/26 35/50/26 52/74/26 54/73/26
f 32/75/27 40/51/27 54/73/27 53/72/27
f 56/76/28 55/77/28 57/55/28 58/54/28
f 40/51/29 32/75/29 56/76/29 58/54/29
f 34/78/30 41/26/30 57/55/30 55/77/30
f 60/79/31 59/80/31 61/28/31 62/27/31
f 29/81/32 42/25/32 61/28/32 59/80/32
f 41/26/33 34/78/33 60/79/33 62/27/33
f 64/67/34 63/82/34 65/83/34 66/68/34
f 46/58/35 43/62/35 65/83/35
f 31/84/36 46/58/36 65/83/36 63/82/36
f 68/85/37 67/86/37 69/87/37 70/88/37
f 46/58/38 31/84/38 68/85/38 70/88/38
f 33/89/39 48/59/39 69/87/39 67/86/39
f 48/59/40 46/58/40 70/88/40 69/87/40
f 72/90/41 71/91/41 73/92/41 74/93/41
f 45/64/42 48/59/42 74/93/42 73/92/42
f 48/59/43 33/89/43 72/90/43 74/93/43
f 76/94/44 75/95/44 77/96/44 78/97/44
f 2/98/45 16/44/45 75/95/45 76/94/45
f 16/44/46 44/41/46 77/96/46 75/95/46
f 44/41/47 49/40/47 78/97/47 77/96/47
f 80/47/48 79/46/48 82/99/48 81/100/48
f 15/45/49 50/36/49 82/99/49 79/46/49
f 44/41/50 16/44/50 80/47/50 81/100/50
f 50/36/51 44/41/51 81/100/51 82/99/51
f 84/69/52 83/101/52 85/102/52 86/70/52
f 6/103/53 47/37/53 85/102/53 83/101/53
f 15/45/54 6/103/54 83/101/54 84/69/54
f 47/37/55 50/36/55 86/70/55 85/102/55
f 65/83/56 43/62/56 66/68/56
f 93/18/57 94/17/57 90/24/57 91/23/57
f 87/104/58 92/105/58 89/106/58 88/107/58
f 92/105/59 93/18/59 91/23/59 89/106/59
f 24/108/60 92/105/60 105/109/60 103/110/60
f 18/57/6 10/56/6 88/107/6 89/106/6
f 17/22/6 18/57/6 89/106/6 91/23/6
f 93/18/61 92/105/61 114/111/61 113/112/61
f 98/113/62 100/114/62 26/115/62 24/116/62
f 95/117/63 98/113/63 24/116/63 20/118/63
f 100/114/64 97/119/64 21/120/64 26/115/64
f 96/121/65 102/122/65 25/123/65 23/124/65
f 101/125/66 96/121/66 23/124/66 19/126/66
f 102/122/67 99/33/67 22/127/67 25/123/67
f 96/121/68 13/128/68 132/129/68 134/130/68
f 96/121/69 101/125/69 130/131/69 129/132/69
f 104/133/70 103/110/70 105/109/70 106/134/70
f 92/105/71 87/104/71 106/134/71 105/109/71
f 108/135/72 107/136/72 109/20/72 110/19/72
f 21/137/73 94/17/73 109/20/73 107/136/73
f 93/18/74 26/138/74 108/135/74 110/19/74
f 112/139/75 111/140/75 113/112/75 114/111/75
f 92/105/76 24/108/76 112/139/76 114/111/76
f 26/138/77 93/18/77 113/112/77 111/140/77
f 116/141/78 117/142/78 118/143/78 115/144/78
f 98/113/79 95/117/79 115/144/79 118/143/79
f 95/117/80 19/145/80 116/141/80 115/144/80
f 23/146/81 98/113/81 118/143/81 117/142/81
f 119/147/82 121/148/82 122/149/82 120/150/82
f 100/114/83 98/113/83 120/150/83 122/149/83
f 98/113/84 23/146/84 119/147/84 120/150/84
f 25/151/85 100/114/85 122/149/85 121/148/85
f 124/152/70 123/153/70 125/154/70 126/155/70
f 97/119/86 100/114/86 126/155/86 125/154/86
f 100/114/87 25/151/87 124/152/87 126/155/87
f 128/156/70 127/157/70 129/132/70 130/131/70
f 13/128/88 96/121/88 129/132/88 127/157/88
f 8/158/89 13/128/89 127/157/89 128/156/89
f 101/125/90 8/158/90 128/156/90 130/131/90
f 132/129/70 131/159/70 133/160/70 134/130/70
f 102/122/91 96/121/91 134/130/91 133/160/91
f 12/161/92 102/122/92 133/160/92 131/159/92
f 13/128/93 12/161/93 131/159/93 132/129/93
f 136/162/94 135/35/94 137/34/94 138/163/94
f 99/33/95 102/122/95 138/163/95 137/34/95
f 12/161/89 4/32/89 135/35/89 136/162/89
f 102/122/96 12/161/96 136/162/96 138/163/96
f 139/164/1 140/165/1 142/166/1 141/167/1
f 147/168/97 148/169/97 146/170/97 145/171/97
f 149/172/98 150/173/98 140/165/98 139/164/98
f 147/168/99 145/171/99 143/174/99 149/172/99
f 148/169/100 142/166/100 140/165/100 150/173/100
f 146/170/101 148/169/101 150/173/101 144/175/101
f 141/167/102 147/168/102 149/172/102 139/164/102
f 143/174/103 144/175/103 150/173/103 149/172/103
f 141/167/104 142/166/104 148/169/104 147/168/104
f 151/176/1 152/177/1 153/178/1 159/179/1
f 163/180/105 156/181/105 155/182/105 154/183/105
f 154/183/106 155/182/106 152/177/106 151/176/106
f 159/179/107 163/180/107 154/183/107 151/176/107
f 156/181/108 153/178/108 152/177/108 155/182/108
f 157/184/1 159/179/1 160/185/1 158/186/1
f 163/180/105 161/187/105 162/188/105 164/189/105
f 161/187/109 157/184/109 158/186/109 162/188/109
f 159/179/110 157/184/110 161/187/110 163/180/110
f 164/189/111 162/188/111 158/186/111 160/185/111
f 185/190/1 166/191/1 168/192/1 186/193/1
f 186/193/2 168/192/2 172/194/2 187/195/2
f 187/195/105 172/194/105 170/196/105 188/197/105
f 188/197/112 170/196/112 166/191/112 185/190/112
f 181/198/113 174/199/113 176/200/113 182/201/113
f 183/202/4 180/203/4 178/204/4 184/205/4
f 184/205/112 178/204/112 174/199/112 181/198/112
f 175/206/1 179/207/1 177/208/1 173/209/1
f 177/208/112 184/205/112 181/198/112 173/209/112
f 179/207/4 183/202/4 184/205/4 177/208/4
f 173/209/113 181/198/113 182/201/113 175/206/113
f 203/210/1 179/207/1 175/206/1 199/211/1
f 207/212/4 183/202/4 179/207/4 203/210/4
f 169/213/114 188/197/114 185/190/114 165/214/114
f 171/215/115 187/195/115 188/197/115 169/213/115
f 167/216/116 186/193/116 187/195/116 171/215/116
f 165/214/117 185/190/117 186/193/117 167/216/117
f 209/217/1 210/218/1 192/219/1 190/220/1
f 210/218/112 211/221/112 196/222/112 192/219/112
f 211/221/105 212/223/105 194/224/105 196/222/105
f 212/223/2 209/217/2 190/220/2 194/224/2
f 205/225/113 206/226/113 200/227/113 198/228/113
f 207/212/4 208/229/4 202/230/4 204/231/4
f 208/229/2 205/225/2 198/228/2 202/230/2
f 199/211/1 197/232/1 201/233/1 203/210/1
f 201/233/2 197/232/2 205/225/2 208/229/2
f 203/210/4 201/233/4 208/229/4 207/212/4
f 197/232/113 199/211/113 206/226/113 205/225/113
f 193/234/116 189/235/116 209/217/116 212/223/116
f 195/236/115 193/234/115 212/223/115 211/221/115
f 191/237/114 195/236/114 211/221/114 210/218/114
f 189/235/117 191/237/117 210/218/117 209/217/117
f 199/211/113 175/206/113 182/201/113 206/226/113
