# Blender v2.79 (sub 0) OBJ File: 'flowers_001.blend'
# www.blender.org
o Plane.005_Plane.008
v -0.636762 0.079327 0.277123
v -0.668505 0.093727 0.316654
v -0.559057 0.077964 0.298192
v -0.547700 0.087636 0.342690
v -0.590849 0.045593 0.259481
v -0.636725 0.058071 0.405971
v -0.612309 0.080621 0.340890
v -0.616615 0.078756 0.202785
v -0.620585 0.092043 0.150864
v -0.538911 0.077394 0.223854
v -0.490504 0.086305 0.199627
v -0.586024 0.045456 0.241675
v -0.553114 0.056063 0.085251
v -0.563306 0.079233 0.160079
v -0.561204 0.078007 0.299423
v -0.517766 0.086980 0.331180
v -0.540142 0.077410 0.221708
v -0.487137 0.088710 0.222036
v -0.579535 0.045369 0.252992
v -0.429150 0.057384 0.291287
v -0.504940 0.075698 0.284039
v -0.635531 0.079310 0.279270
v -0.685999 0.091443 0.283912
v -0.614469 0.078714 0.201554
v -0.652480 0.090036 0.166445
v -0.597338 0.045681 0.248164
v -0.749037 0.059591 0.210097
v -0.678200 0.081513 0.225975
v -0.638766 0.072807 0.238137
v -0.591897 0.071842 0.198352
v -0.539579 0.070973 0.230642
v -0.554114 0.071401 0.290384
v -0.615415 0.072535 0.295017
v -0.587363 0.104231 0.250418
v 0.305928 0.079991 0.435939
v 0.299314 0.096433 0.493447
v 0.393821 0.078435 0.409011
v 0.431871 0.089478 0.445090
v 0.339550 0.041474 0.390956
v 0.384368 0.055721 0.560401
v 0.368355 0.081469 0.482667
v 0.280157 0.079340 0.351860
v 0.244727 0.094511 0.304113
v 0.368050 0.077784 0.324932
v 0.400075 0.087959 0.272069
v 0.333377 0.041318 0.370818
v 0.269987 0.053428 0.199666
v 0.305673 0.079885 0.278161
v 0.392496 0.078484 0.411507
v 0.453787 0.088729 0.415756
v 0.365555 0.077803 0.323607
v 0.416964 0.090705 0.291670
v 0.346532 0.041218 0.377802
v 0.515127 0.054936 0.323290
v 0.437493 0.075848 0.362407
v 0.308423 0.079972 0.437264
v 0.262489 0.093825 0.472460
v 0.281482 0.079291 0.349364
v 0.223394 0.092219 0.338574
v 0.326395 0.041574 0.383972
v 0.156669 0.057457 0.439503
v 0.234769 0.082487 0.411739
v 0.280268 0.072546 0.399493
v 0.301341 0.071445 0.332535
v 0.371535 0.070453 0.331896
v 0.393846 0.070942 0.398459
v 0.337440 0.072236 0.440237
v 0.337403 0.108427 0.380080
v 0.664512 0.078667 -0.072491
v 0.684240 0.091037 -0.033663
v 0.708477 0.077496 -0.125881
v 0.747332 0.085804 -0.119043
v 0.666930 0.049687 -0.114675
v 0.765405 0.060407 -0.026970
v 0.723082 0.079778 -0.069094
v 0.613432 0.078177 -0.114545
v 0.571377 0.089591 -0.129792
v 0.657398 0.077006 -0.167934
v 0.655541 0.084661 -0.214399
v 0.654695 0.049570 -0.124748
v 0.543858 0.058681 -0.205812
v 0.598841 0.078586 -0.171380
v 0.708682 0.077532 -0.123765
v 0.748902 0.085241 -0.146548
v 0.655281 0.077020 -0.167729
v 0.674277 0.086727 -0.209113
v 0.665849 0.049495 -0.125827
v 0.748996 0.059816 -0.230032
v 0.716528 0.075549 -0.173255
v 0.666628 0.078652 -0.072696
v 0.652421 0.089075 -0.031541
v 0.613227 0.078140 -0.116660
v 0.572301 0.087866 -0.099312
v 0.655776 0.049763 -0.113595
v 0.572343 0.061712 -0.008281
v 0.609816 0.080544 -0.058130
v 0.633280 0.073065 -0.084704
v 0.618699 0.072236 -0.135465
v 0.662475 0.071490 -0.165012
v 0.704111 0.071858 -0.132512
v 0.686068 0.072832 -0.082879
v 0.661067 0.100061 -0.120608
v 0.183056 0.079520 -0.595762
v 0.227976 0.094511 -0.568047
v 0.194838 0.078101 -0.678747
v 0.239350 0.088170 -0.696200
v 0.158929 0.044400 -0.640928
v 0.316168 0.057390 -0.612357
v 0.245793 0.080867 -0.629219
v 0.103666 0.078926 -0.607023
v 0.050535 0.092758 -0.596249
v 0.115448 0.077507 -0.690008
v 0.084197 0.086784 -0.736905
v 0.139914 0.044257 -0.643625
v -0.025921 0.055299 -0.657523
v 0.052695 0.079422 -0.656609
v 0.196385 0.078145 -0.676688
v 0.223612 0.087487 -0.725646
v 0.113388 0.077524 -0.688461
v 0.106916 0.089288 -0.743264
v 0.150771 0.044166 -0.651783
v 0.171010 0.056674 -0.812072
v 0.173261 0.075741 -0.732839
v 0.185116 0.079502 -0.597309
v 0.196398 0.092133 -0.545766
v 0.102119 0.078881 -0.609082
v 0.070732 0.090669 -0.565300
v 0.148072 0.044491 -0.632770
v 0.128238 0.058972 -0.471153
v 0.135539 0.081795 -0.546378
v 0.143036 0.072731 -0.588681
v 0.095910 0.071727 -0.631990
v 0.122546 0.070822 -0.690190
v 0.186135 0.071268 -0.682852
v 0.198799 0.072448 -0.620115
v 0.149119 0.105447 -0.643365
v -0.043905 0.080894 0.105108
v -0.016414 0.100109 0.166921
v 0.028577 0.079075 0.025811
v 0.088301 0.091981 0.039533
v -0.036773 0.035879 0.039864
v 0.108957 0.052530 0.183810
v 0.046680 0.082621 0.115073
v -0.119773 0.080132 0.035777
v -0.183789 0.097862 0.008755
v -0.047291 0.078314 -0.043519
v -0.046446 0.090205 -0.115746
v -0.054945 0.035697 0.023258
v -0.220383 0.049850 -0.111379
v -0.137851 0.080769 -0.053558
v 0.028725 0.079132 0.029109
v 0.092942 0.091105 -0.003009
v -0.050590 0.078336 -0.043371
v -0.017806 0.093414 -0.106045
v -0.037556 0.035580 0.022477
v 0.099780 0.051613 -0.132507
v 0.044862 0.076051 -0.047033
v -0.040606 0.080871 0.104959
v -0.065944 0.097061 0.167663
v -0.119921 0.080076 0.032479
v -0.184798 0.095184 0.056111
v -0.054162 0.035997 0.040644
v -0.192030 0.054558 0.197326
v -0.129903 0.083810 0.123002
v -0.091375 0.072193 0.083659
v -0.109925 0.070905 0.003747
v -0.039648 0.069746 -0.038578
v 0.022335 0.070318 0.015174
v -0.009634 0.071830 0.090722
v -0.045393 0.114126 0.030190
vt 0.046446 0.938589
vt 0.082150 0.919117
vt 0.089922 0.947408
vt 0.070046 0.947408
vt 0.051817 0.913974
vt 0.065493 0.896292
vt 0.109910 0.901143
vt 0.260489 0.899375
vt 0.261212 0.924652
vt 0.261253 0.947987
vt 0.230475 0.926863
vt 0.235342 0.896521
vt 0.214305 0.905522
vt 0.201825 0.947987
vt 0.201637 0.747110
vt 0.237341 0.732639
vt 0.245477 0.761198
vt 0.222486 0.761198
vt 0.212401 0.724151
vt 0.231556 0.710756
vt 0.272682 0.729452
vt 0.257183 0.782926
vt 0.248034 0.806477
vt 0.232496 0.822782
vt 0.218927 0.796619
vt 0.235152 0.770546
vt 0.212965 0.770546
vt 0.186225 0.806971
vt 0.895802 0.860543
vt 0.926650 0.903000
vt 0.882007 0.903000
vt 0.845890 0.876760
vt 0.845890 0.929241
vt 0.895802 0.945458
vt 0.137782 0.770546
vt 0.160015 0.811313
vt 0.127713 0.820186
vt 0.127713 0.797492
vt 0.165888 0.776679
vt 0.186077 0.792294
vt 0.180537 0.843009
vt 0.101951 0.895271
vt 0.073090 0.896096
vt 0.046446 0.896143
vt 0.070565 0.861002
vt 0.105209 0.866558
vt 0.094932 0.842539
vt 0.046446 0.828289
vt 0.046446 0.812055
vt 0.087213 0.795532
vt 0.096503 0.828141
vt 0.070252 0.828141
vt 0.058737 0.785841
vt 0.080608 0.770546
vt 0.127565 0.791894
vt 0.127466 0.724891
vt 0.117019 0.751781
vt 0.099278 0.770398
vt 0.083785 0.740526
vt 0.102311 0.710756
vt 0.076978 0.710756
vt 0.046446 0.752346
vt 0.810615 0.772085
vt 0.845837 0.820563
vt 0.794864 0.820563
vt 0.753626 0.790602
vt 0.753626 0.850524
vt 0.810615 0.869041
vt 0.885306 0.055181
vt 0.900018 0.082156
vt 0.878644 0.088027
vt 0.878644 0.073011
vt 0.903903 0.059239
vt 0.917262 0.069571
vt 0.913597 0.103128
vt 0.915537 0.235460
vt 0.896440 0.236006
vt 0.878811 0.236038
vt 0.894770 0.212785
vt 0.917693 0.216461
vt 0.910893 0.200568
vt 0.878811 0.191140
vt 0.878721 0.201783
vt 0.851747 0.212717
vt 0.845599 0.191140
vt 0.862969 0.191140
vt 0.870589 0.219129
vt 0.856117 0.229249
vt 0.825046 0.215124
vt 0.824945 0.085293
vt 0.831857 0.067500
vt 0.843597 0.055181
vt 0.853848 0.074947
vt 0.841590 0.094646
vt 0.858352 0.094646
vt 0.878554 0.067126
vt 0.159148 0.240881
vt 0.120906 0.268666
vt 0.120906 0.228456
vt 0.144541 0.195925
vt 0.097271 0.195925
vt 0.082664 0.240881
vt 0.201825 0.887192
vt 0.238996 0.866920
vt 0.247087 0.896373
vt 0.226395 0.896373
vt 0.207417 0.861565
vt 0.221655 0.843157
vt 0.267897 0.848208
vt 0.188788 0.898791
vt 0.189540 0.925107
vt 0.189583 0.949400
vt 0.157540 0.927409
vt 0.162607 0.895820
vt 0.140706 0.905191
vt 0.127713 0.949400
vt 0.201677 0.857824
vt 0.164506 0.872890
vt 0.156035 0.843157
vt 0.179971 0.843157
vt 0.190471 0.881727
vt 0.170529 0.895672
vt 0.127713 0.876208
vt 0.127614 0.752249
vt 0.137140 0.727730
vt 0.153317 0.710756
vt 0.167443 0.737994
vt 0.150551 0.765138
vt 0.173649 0.765138
vt 0.201489 0.727216
vt 0.897853 0.772085
vt 0.929968 0.816287
vt 0.883491 0.816287
vt 0.845890 0.788969
vt 0.845890 0.843606
vt 0.897853 0.860490
vt 0.835395 0.116572
vt 0.858246 0.158472
vt 0.825046 0.167593
vt 0.825046 0.144267
vt 0.864282 0.122875
vt 0.885033 0.138924
vt 0.879339 0.191050
vt 0.798630 0.244703
vt 0.768966 0.245551
vt 0.741582 0.245600
vt 0.766371 0.209481
vt 0.801979 0.215192
vt 0.791416 0.190504
vt 0.741582 0.175859
vt 0.824956 0.133105
vt 0.783056 0.150088
vt 0.773507 0.116572
vt 0.800489 0.116572
vt 0.812324 0.160049
vt 0.789845 0.175769
vt 0.741582 0.153828
vt 0.741582 0.101954
vt 0.752319 0.074316
vt 0.770554 0.055181
vt 0.786478 0.085885
vt 0.767437 0.116482
vt 0.793474 0.116482
vt 0.824855 0.073736
vt 0.201468 0.152728
vt 0.142066 0.195887
vt 0.142066 0.133427
vt 0.178779 0.082897
vt 0.105354 0.082897
vt 0.082664 0.152728
vn -0.2287 0.9115 -0.3419
vn 0.4197 0.8898 -0.1790
vn -0.1113 0.9512 0.2878
vn 0.0674 0.9346 0.3491
vn -0.3307 0.9312 0.1534
vn 0.2754 0.8939 0.3538
vn 0.0633 0.9557 -0.2873
vn 0.2499 0.9340 -0.2552
vn -0.3515 0.9091 0.2235
vn -0.0777 0.9043 -0.4199
vn 0.2037 0.9448 0.2568
vn 0.2464 0.9556 -0.1617
vn 0.1822 0.9105 0.3712
vn 0.3615 0.8976 -0.2524
vn -0.2973 0.9547 0.0082
vn -0.2495 0.9483 -0.1961
vn -0.5470 0.8054 0.2284
vn -0.3782 0.8004 -0.4650
vn 0.3332 0.7873 -0.5188
vn 0.6043 0.7841 0.1414
vn 0.0603 0.7953 0.6032
vn -0.3757 0.9115 -0.1675
vn 0.2598 0.8898 -0.3752
vn 0.0592 0.9512 0.3029
vn 0.2431 0.9346 0.2595
vn -0.1981 0.9312 0.3060
vn 0.4216 0.8939 0.1526
vn -0.0996 0.9557 -0.2768
vn 0.0755 0.9340 -0.3491
vn -0.1783 0.9091 0.3765
vn -0.2895 0.9043 -0.3139
vn 0.3092 0.9448 0.1087
vn 0.1223 0.9556 -0.2681
vn 0.3520 0.9105 0.2170
vn 0.1714 0.8976 -0.4062
vn -0.2472 0.9547 0.1654
vn -0.3156 0.9483 -0.0330
vn -0.3411 0.8054 0.4847
vn -0.5679 0.8004 -0.1919
vn 0.0055 0.7873 -0.6166
vn 0.5867 0.7841 -0.2024
vn 0.3725 0.7953 0.4782
vn -0.4058 0.9115 0.0677
vn 0.0096 0.8898 -0.4562
vn 0.2165 0.9512 0.2199
vn 0.3459 0.9346 0.0823
vn 0.0037 0.9312 0.3645
vn 0.4357 0.8939 -0.1054
vn -0.2358 0.9557 -0.1759
vn -0.1297 0.9340 -0.3328
vn 0.0590 0.9091 0.4124
vn -0.4146 0.9043 -0.1020
vn 0.3179 0.9448 -0.0800
vn -0.0460 0.9556 -0.2911
vn 0.4133 0.9105 -0.0133
vn -0.0812 0.8976 -0.4333
vn -0.1148 0.9547 0.2744
vn -0.2814 0.9483 0.1467
vn -0.0169 0.8054 0.5925
vn -0.5795 0.8004 0.1534
vn -0.3357 0.7873 -0.5172
vn 0.3775 0.7841 -0.4926
vn 0.5745 0.7953 0.1933
vn -0.3111 0.9115 0.2692
vn -0.2295 0.8898 -0.3944
vn 0.2994 0.9512 0.0749
vn 0.3381 0.9346 -0.1100
vn 0.1930 0.9312 0.3092
vn 0.3171 0.8939 -0.3170
vn -0.2929 0.9557 -0.0273
vn -0.2841 0.9340 -0.2165
vn 0.2652 0.9091 0.3213
vn -0.4071 0.9043 0.1289
vn 0.2297 0.9448 -0.2339
vn -0.1908 0.9556 -0.2245
vn 0.3459 0.9105 -0.2267
vn -0.2950 0.8976 -0.3276
vn 0.0449 0.9547 0.2940
vn -0.1638 0.9483 0.2718
vn 0.2942 0.8054 0.5146
vn -0.4148 0.8004 0.4328
vn -0.5559 0.7873 -0.2667
vn 0.0657 0.7841 -0.6171
vn 0.5911 0.7953 -0.1343
vn -0.4087 0.9115 0.0467
vn 0.0331 0.8898 -0.4551
vn 0.2049 0.9512 0.2308
vn 0.3412 0.9346 0.1000
vn -0.0151 0.9312 0.3642
vn 0.4406 0.8939 -0.0828
vn -0.2265 0.9557 -0.1878
vn -0.1124 0.9340 -0.3391
vn 0.0377 0.9091 0.4149
vn -0.4088 0.9043 -0.1232
vn 0.3216 0.9448 -0.0635
vn -0.0309 0.9556 -0.2931
vn 0.4135 0.9105 0.0080
vn -0.0587 0.8976 -0.4370
vn -0.1288 0.9547 0.2681
vn -0.2886 0.9483 0.1320
vn -0.0475 0.8054 0.5908
vn -0.5866 0.8004 0.1233
vn -0.3085 0.7873 -0.5338
vn 0.4025 0.7841 -0.4724
vn 0.5638 0.7953 0.2227
s off
f 5/1/1 7/2/1 4/3/1 3/4/1
f 1/5/2 2/6/2 7/2/2 5/1/2
f 4/3/3 7/2/3 6/7/3
f 7/2/4 2/6/4 6/7/4
f 12/8/5 10/9/5 11/10/5 14/11/5
f 8/12/6 12/8/6 14/11/6 9/13/6
f 11/10/7 13/14/7 14/11/7
f 14/11/8 13/14/8 9/13/8
f 19/15/9 21/16/9 18/17/9 17/18/9
f 15/19/10 16/20/10 21/16/10 19/15/10
f 18/17/11 21/16/11 20/21/11
f 21/16/12 16/20/12 20/21/12
f 26/22/13 24/23/13 25/24/13 28/25/13
f 22/26/14 26/22/14 28/25/14 23/27/14
f 25/24/15 27/28/15 28/25/15
f 28/25/16 27/28/16 23/27/16
f 29/29/17 33/30/17 34/31/17
f 30/32/18 29/29/18 34/31/18
f 31/33/19 30/32/19 34/31/19
f 32/34/20 31/33/20 34/31/20
f 33/30/21 32/34/21 34/31/21
f 39/35/22 41/36/22 38/37/22 37/38/22
f 35/39/23 36/40/23 41/36/23 39/35/23
f 38/37/24 41/36/24 40/41/24
f 41/36/25 36/40/25 40/41/25
f 46/42/26 44/43/26 45/44/26 48/45/26
f 42/46/27 46/42/27 48/45/27 43/47/27
f 45/44/28 47/48/28 48/45/28
f 48/45/29 47/48/29 43/47/29
f 53/49/30 55/50/30 52/51/30 51/52/30
f 49/53/31 50/54/31 55/50/31 53/49/31
f 52/51/32 55/50/32 54/55/32
f 55/50/33 50/54/33 54/55/33
f 60/56/34 58/57/34 59/58/34 62/59/34
f 56/60/35 60/56/35 62/59/35 57/61/35
f 59/58/36 61/62/36 62/59/36
f 62/59/37 61/62/37 57/61/37
f 63/63/38 67/64/38 68/65/38
f 64/66/39 63/63/39 68/65/39
f 65/67/40 64/66/40 68/65/40
f 66/68/41 65/67/41 68/65/41
f 67/64/42 66/68/42 68/65/42
f 73/69/43 75/70/43 72/71/43 71/72/43
f 69/73/44 70/74/44 75/70/44 73/69/44
f 72/71/45 75/70/45 74/75/45
f 75/70/46 70/74/46 74/75/46
f 80/76/47 78/77/47 79/78/47 82/79/47
f 76/80/48 80/76/48 82/79/48 77/81/48
f 79/78/49 81/82/49 82/79/49
f 82/79/50 81/82/50 77/81/50
f 87/83/51 89/84/51 86/85/51 85/86/51
f 83/87/52 84/88/52 89/84/52 87/83/52
f 86/85/53 89/84/53 88/89/53
f 89/84/54 84/88/54 88/89/54
f 94/90/55 92/91/55 93/92/55 96/93/55
f 90/94/56 94/90/56 96/93/56 91/95/56
f 93/92/57 95/96/57 96/93/57
f 96/93/58 95/96/58 91/95/58
f 97/97/59 101/98/59 102/99/59
f 98/100/60 97/97/60 102/99/60
f 99/101/61 98/100/61 102/99/61
f 100/102/62 99/101/62 102/99/62
f 101/98/63 100/102/63 102/99/63
f 107/103/64 109/104/64 106/105/64 105/106/64
f 103/107/65 104/108/65 109/104/65 107/103/65
f 106/105/66 109/104/66 108/109/66
f 109/104/67 104/108/67 108/109/67
f 114/110/68 112/111/68 113/112/68 116/113/68
f 110/114/69 114/110/69 116/113/69 111/115/69
f 113/112/70 115/116/70 116/113/70
f 116/113/71 115/116/71 111/115/71
f 121/117/72 123/118/72 120/119/72 119/120/72
f 117/121/73 118/122/73 123/118/73 121/117/73
f 120/119/74 123/118/74 122/123/74
f 123/118/75 118/122/75 122/123/75
f 128/124/76 126/125/76 127/126/76 130/127/76
f 124/128/77 128/124/77 130/127/77 125/129/77
f 127/126/78 129/130/78 130/127/78
f 130/127/79 129/130/79 125/129/79
f 131/131/80 135/132/80 136/133/80
f 132/134/81 131/131/81 136/133/81
f 133/135/82 132/134/82 136/133/82
f 134/136/83 133/135/83 136/133/83
f 135/132/84 134/136/84 136/133/84
f 141/137/85 143/138/85 140/139/85 139/140/85
f 137/141/86 138/142/86 143/138/86 141/137/86
f 140/139/87 143/138/87 142/143/87
f 143/138/88 138/142/88 142/143/88
f 148/144/89 146/145/89 147/146/89 150/147/89
f 144/148/90 148/144/90 150/147/90 145/149/90
f 147/146/91 149/150/91 150/147/91
f 150/147/92 149/150/92 145/149/92
f 155/151/93 157/152/93 154/153/93 153/154/93
f 151/155/94 152/156/94 157/152/94 155/151/94
f 154/153/95 157/152/95 156/157/95
f 157/152/96 152/156/96 156/157/96
f 162/158/97 160/159/97 161/160/97 164/161/97
f 158/162/98 162/158/98 164/161/98 159/163/98
f 161/160/99 163/164/99 164/161/99
f 164/161/100 163/164/100 159/163/100
f 165/165/101 169/166/101 170/167/101
f 166/168/102 165/165/102 170/167/102
f 167/169/103 166/168/103 170/167/103
f 168/170/104 167/169/104 170/167/104
f 169/166/105 168/170/105 170/167/105
