# Blender v2.79 (sub 0) OBJ File: 'gate_small_wood_001.blend'
# www.blender.org
o Cube.001
v -0.062490 0.171713 0.210121
v -0.062490 2.038625 0.210121
v -0.062490 0.171713 -0.235112
v -0.062490 2.038625 -0.235112
v 0.062490 0.171713 0.210121
v 0.062490 2.038625 0.210121
v 0.062490 0.171713 -0.235112
v 0.062490 2.038625 -0.235112
v -0.073650 0.171713 -0.232792
v -0.073650 2.255228 -0.232792
v -0.073650 0.171713 -0.693419
v -0.073650 2.255228 -0.693419
v 0.073650 0.171713 -0.232792
v 0.073650 2.255228 -0.232792
v 0.073650 0.171713 -0.693419
v 0.073650 2.255228 -0.693419
v -0.052927 0.171713 -0.691277
v -0.052927 2.431376 -0.691277
v -0.052927 0.171713 -1.152251
v -0.052927 2.431376 -1.152251
v 0.052927 0.171713 -0.691277
v 0.052927 2.431376 -0.691277
v 0.052927 0.171713 -1.152251
v 0.052927 2.431376 -1.152251
v -0.064278 0.171713 -1.152407
v -0.064278 2.764596 -1.152407
v -0.064278 0.171713 -1.549627
v -0.064278 2.764596 -1.549627
v 0.064278 0.171713 -1.152407
v 0.064278 2.764596 -1.152407
v 0.064278 0.171713 -1.549627
v 0.064278 2.764596 -1.549627
v -0.052969 0.171713 -1.546319
v -0.052969 3.202266 -1.546319
v -0.052969 0.171713 -2.022531
v -0.052969 3.202266 -2.022531
v 0.052969 0.171713 -1.546319
v 0.052969 3.202266 -1.546319
v 0.052969 0.171713 -2.022531
v 0.052969 3.202266 -2.022531
v -0.080333 0.171713 0.632582
v -0.080333 2.255228 0.632582
v -0.080333 0.171713 0.208421
v -0.080333 2.255228 0.208421
v 0.080333 0.171713 0.632582
v 0.080333 2.255228 0.632582
v 0.080333 0.171713 0.208421
v 0.080333 2.255228 0.208421
v -0.062400 0.171713 1.051628
v -0.062400 2.431376 1.051628
v -0.062400 0.171713 0.627468
v -0.062400 2.431376 0.627468
v 0.062400 0.171713 1.051628
v 0.062400 2.431376 1.051628
v 0.062400 0.171713 0.627468
v 0.062400 2.431376 0.627468
v -0.073085 0.171713 1.542378
v -0.073085 2.764596 1.542378
v -0.073085 0.171713 1.045115
v -0.073085 2.764596 1.045115
v 0.073085 0.171713 1.542378
v 0.073085 2.764596 1.542378
v 0.073085 0.171713 1.045115
v 0.073085 2.764596 1.045115
v -0.054151 0.171713 2.004603
v -0.054151 3.202266 2.004603
v -0.054151 0.171713 1.535753
v -0.054151 3.202266 1.535753
v 0.054151 0.171713 2.004603
v 0.054151 3.202266 2.004603
v 0.054151 0.171713 1.535753
v 0.054151 3.202266 1.535753
v 0.042587 0.339400 -2.018419
v 0.042587 0.339400 2.003865
v 0.042587 0.652062 -2.018419
v 0.042587 0.652062 2.003865
v 0.154344 0.339400 -2.018419
v 0.154344 0.339400 2.003865
v 0.154344 0.652062 -2.018419
v 0.154344 0.652062 2.003865
v 0.042587 1.566141 -2.018419
v 0.042587 1.566141 2.003865
v 0.042587 1.878803 -2.018419
v 0.042587 1.878803 2.003865
v 0.154344 1.566141 -2.018419
v 0.154344 1.566141 2.003865
v 0.154344 1.878803 -2.018419
v 0.154344 1.878803 2.003865
v -0.149112 0.339400 -2.018419
v -0.149112 0.339400 2.003865
v -0.149112 0.652062 -2.018419
v -0.149112 0.652062 2.003865
v -0.037355 0.339400 -2.018419
v -0.037355 0.339400 2.003865
v -0.037355 0.652062 -2.018419
v -0.037355 0.652062 2.003865
v -0.149112 1.566141 -2.018419
v -0.149112 1.566141 2.003865
v -0.149112 1.878803 -2.018419
v -0.149112 1.878803 2.003865
v -0.037355 1.566141 -2.018419
v -0.037355 1.566141 2.003865
v -0.037355 1.878803 -2.018419
v -0.037355 1.878803 2.003865
vt 0.839844 0.878906
vt 0.839844 0.878906
vt 0.839844 0.878906
vt 0.839844 0.878906
vt 0.839844 0.878906
vt 0.839844 0.878906
vt 0.839844 0.878906
vt 0.839844 0.878906
vt 0.839844 0.878906
vt 0.839844 0.878906
vt 0.839844 0.878906
vt 0.839844 0.878906
vt 0.839844 0.878906
vt 0.839844 0.878906
vt 0.839844 0.878906
vt 0.839844 0.878906
vt 0.839844 0.878906
vt 0.839844 0.878906
vt 0.839844 0.878906
vt 0.839844 0.878906
vt 0.839844 0.878906
vt 0.839844 0.878906
vt 0.839844 0.878906
vt 0.839844 0.878906
vt 0.839844 0.878906
vt 0.839844 0.878906
vt 0.839844 0.878906
vt 0.839844 0.878906
vt 0.839844 0.878906
vt 0.839844 0.878906
vt 0.839844 0.878906
vt 0.839844 0.878906
vt 0.839844 0.878906
vt 0.839844 0.878906
vt 0.839844 0.878906
vt 0.839844 0.878906
vt 0.839844 0.878906
vt 0.839844 0.878906
vt 0.839844 0.878906
vt 0.839844 0.878906
vt 0.839844 0.878906
vt 0.839844 0.878906
vt 0.839844 0.878906
vt 0.839844 0.878906
vt 0.839844 0.878906
vt 0.839844 0.878906
vt 0.839844 0.878906
vt 0.839844 0.878906
vt 0.839844 0.878906
vt 0.839844 0.878906
vt 0.839844 0.878906
vt 0.839844 0.878906
vt 0.839844 0.878906
vt 0.839844 0.878906
vt 0.839844 0.878906
vt 0.839844 0.878906
vt 0.839844 0.878906
vt 0.839844 0.878906
vt 0.839844 0.878906
vt 0.839844 0.878906
vt 0.839844 0.878906
vt 0.839844 0.878906
vt 0.839844 0.878906
vt 0.839844 0.878906
vt 0.839844 0.878906
vt 0.839844 0.878906
vt 0.839844 0.878906
vt 0.839844 0.878906
vt 0.839844 0.878906
vt 0.839844 0.878906
vt 0.839844 0.878906
vt 0.839844 0.878906
vt 0.637747 0.040090
vt 0.940378 0.040090
vt 0.940378 0.342722
vt 0.637747 0.342722
vt 0.637747 0.040090
vt 0.940378 0.040090
vt 0.940378 0.342722
vt 0.637747 0.342722
vt 0.637747 0.040090
vt 0.940378 0.040090
vt 0.940378 0.342722
vt 0.637747 0.342722
vt 0.637747 0.040090
vt 0.940378 0.040090
vt 0.940378 0.342722
vt 0.637747 0.342722
vt 0.940378 0.040090
vt 0.940378 0.342722
vt 0.637747 0.040090
vt 0.637747 0.342722
vt 0.637747 0.040090
vt 0.940378 0.040090
vt 0.940378 0.342722
vt 0.637747 0.342722
vt 0.637747 0.040090
vt 0.940378 0.040090
vt 0.940378 0.342722
vt 0.637747 0.342722
vt 0.637747 0.040090
vt 0.940378 0.040090
vt 0.940378 0.342722
vt 0.637747 0.342722
vt 0.637747 0.040090
vt 0.940378 0.040090
vt 0.940378 0.342722
vt 0.637747 0.342722
vt 0.940378 0.040090
vt 0.940378 0.342722
vt 0.637747 0.040090
vt 0.637747 0.342722
vt 0.637747 0.040090
vt 0.940378 0.040090
vt 0.940378 0.342722
vt 0.637747 0.342722
vt 0.637747 0.040090
vt 0.940378 0.040090
vt 0.940378 0.342722
vt 0.637747 0.342722
vt 0.637747 0.040090
vt 0.940378 0.040090
vt 0.940378 0.342722
vt 0.637747 0.342722
vt 0.637747 0.040090
vt 0.940378 0.040090
vt 0.940378 0.342722
vt 0.637747 0.342722
vt 0.940378 0.040090
vt 0.940378 0.342722
vt 0.637747 0.040090
vt 0.637747 0.342722
vt 0.637747 0.040090
vt 0.940378 0.040090
vt 0.940378 0.342722
vt 0.637747 0.342722
vt 0.637747 0.040090
vt 0.940378 0.040090
vt 0.940378 0.342722
vt 0.637747 0.342722
vt 0.637747 0.040090
vt 0.940378 0.040090
vt 0.940378 0.342722
vt 0.637747 0.342722
vt 0.637747 0.040090
vt 0.940378 0.040090
vt 0.940378 0.342722
vt 0.637747 0.342722
vt 0.940378 0.040090
vt 0.940378 0.342722
vt 0.637747 0.040090
vt 0.637747 0.342722
vn -1.0000 0.0000 0.0000
vn 0.0000 0.0000 -1.0000
vn 1.0000 0.0000 0.0000
vn 0.0000 0.0000 1.0000
vn 0.0000 -1.0000 0.0000
vn 0.0000 1.0000 0.0000
s off
f 1/1/1 2/2/1 4/3/1 3/4/1
f 3/4/2 4/3/2 8/5/2 7/6/2
f 7/6/3 8/5/3 6/7/3 5/8/3
f 5/8/4 6/7/4 2/2/4 1/1/4
f 3/4/5 7/6/5 5/8/5 1/1/5
f 8/5/6 4/3/6 2/2/6 6/7/6
f 9/9/1 10/10/1 12/11/1 11/12/1
f 11/12/2 12/11/2 16/13/2 15/14/2
f 15/14/3 16/13/3 14/15/3 13/16/3
f 13/16/4 14/15/4 10/10/4 9/9/4
f 11/12/5 15/14/5 13/16/5 9/9/5
f 16/13/6 12/11/6 10/10/6 14/15/6
f 17/17/1 18/18/1 20/19/1 19/20/1
f 19/20/2 20/19/2 24/21/2 23/22/2
f 23/22/3 24/21/3 22/23/3 21/24/3
f 21/24/4 22/23/4 18/18/4 17/17/4
f 19/20/5 23/22/5 21/24/5 17/17/5
f 24/21/6 20/19/6 18/18/6 22/23/6
f 25/25/1 26/26/1 28/27/1 27/28/1
f 27/28/2 28/27/2 32/29/2 31/30/2
f 31/30/3 32/29/3 30/31/3 29/32/3
f 29/32/4 30/31/4 26/26/4 25/25/4
f 27/28/5 31/30/5 29/32/5 25/25/5
f 32/29/6 28/27/6 26/26/6 30/31/6
f 33/33/1 34/34/1 36/35/1 35/36/1
f 35/36/2 36/35/2 40/37/2 39/38/2
f 39/38/3 40/37/3 38/39/3 37/40/3
f 37/40/4 38/39/4 34/34/4 33/33/4
f 35/36/5 39/38/5 37/40/5 33/33/5
f 40/37/6 36/35/6 34/34/6 38/39/6
f 41/41/1 42/42/1 44/43/1 43/44/1
f 43/44/2 44/43/2 48/45/2 47/46/2
f 47/46/3 48/45/3 46/47/3 45/48/3
f 45/48/4 46/47/4 42/42/4 41/41/4
f 43/44/5 47/46/5 45/48/5 41/41/5
f 48/45/6 44/43/6 42/42/6 46/47/6
f 49/49/1 50/50/1 52/51/1 51/52/1
f 51/52/2 52/51/2 56/53/2 55/54/2
f 55/54/3 56/53/3 54/55/3 53/56/3
f 53/56/4 54/55/4 50/50/4 49/49/4
f 51/52/5 55/54/5 53/56/5 49/49/5
f 56/53/6 52/51/6 50/50/6 54/55/6
f 57/57/1 58/58/1 60/59/1 59/60/1
f 59/60/2 60/59/2 64/61/2 63/62/2
f 63/62/3 64/61/3 62/63/3 61/64/3
f 61/64/4 62/63/4 58/58/4 57/57/4
f 59/60/5 63/62/5 61/64/5 57/57/5
f 64/61/6 60/59/6 58/58/6 62/63/6
f 65/65/1 66/66/1 68/67/1 67/68/1
f 67/68/2 68/67/2 72/69/2 71/70/2
f 71/70/3 72/69/3 70/71/3 69/72/3
f 69/72/4 70/71/4 66/66/4 65/65/4
f 67/68/5 71/70/5 69/72/5 65/65/5
f 72/69/6 68/67/6 66/66/6 70/71/6
f 73/73/1 74/74/1 76/75/1 75/76/1
f 75/77/6 76/78/6 80/79/6 79/80/6
f 79/81/3 80/82/3 78/83/3 77/84/3
f 77/85/5 78/86/5 74/87/5 73/88/5
f 75/77/2 79/89/2 77/90/2 73/88/2
f 80/91/4 76/78/4 74/87/4 78/92/4
f 81/93/1 82/94/1 84/95/1 83/96/1
f 83/97/6 84/98/6 88/99/6 87/100/6
f 87/101/3 88/102/3 86/103/3 85/104/3
f 85/105/5 86/106/5 82/107/5 81/108/5
f 83/97/2 87/109/2 85/110/2 81/108/2
f 88/111/4 84/98/4 82/107/4 86/112/4
f 89/113/1 90/114/1 92/115/1 91/116/1
f 91/117/6 92/118/6 96/119/6 95/120/6
f 95/121/3 96/122/3 94/123/3 93/124/3
f 93/125/5 94/126/5 90/127/5 89/128/5
f 91/117/2 95/129/2 93/130/2 89/128/2
f 96/131/4 92/118/4 90/127/4 94/132/4
f 97/133/1 98/134/1 100/135/1 99/136/1
f 99/137/6 100/138/6 104/139/6 103/140/6
f 103/141/3 104/142/3 102/143/3 101/144/3
f 101/145/5 102/146/5 98/147/5 97/148/5
f 99/137/2 103/149/2 101/150/2 97/148/2
f 104/151/4 100/138/4 98/147/4 102/152/4
o Cube
v -0.202213 0.000000 2.412481
v -0.202213 5.200284 2.412481
v -0.202213 0.000000 2.008054
v -0.202213 5.200284 2.008054
v 0.202213 0.000000 2.412481
v 0.202213 5.200284 2.412481
v 0.202213 0.000000 2.008054
v 0.202213 5.200284 2.008054
v -0.143253 4.223263 2.234375
v -0.143253 5.325717 1.131921
v -0.143253 4.020673 2.031785
v -0.143253 5.123127 0.929331
v 0.143253 4.223263 2.234375
v 0.143253 5.325717 1.131921
v 0.143253 4.020673 2.031785
v 0.143253 5.123127 0.929331
v -0.143253 4.751659 1.951351
v -0.143253 5.119144 1.583867
v -0.143253 4.916554 1.381276
v -0.143253 4.549069 1.748761
v 0.143253 4.916554 1.381276
v 0.143253 4.549069 1.748761
v 0.143253 5.119144 1.583867
v 0.143253 4.751660 1.951351
v -0.275708 5.115830 2.737363
v -0.275708 5.667245 2.953543
v 0.275708 5.115830 2.737363
v 0.275708 5.667245 2.953543
v -0.202213 0.000000 -2.412481
v -0.202213 5.200284 -2.412481
v -0.202213 0.000000 -2.008054
v -0.202213 5.200284 -2.008054
v 0.202213 0.000000 -2.412481
v 0.202213 5.200284 -2.412481
v 0.202213 0.000000 -2.008054
v 0.202213 5.200284 -2.008054
v -0.143253 4.223263 -2.234375
v -0.143253 5.325717 -1.131921
v -0.143253 4.020673 -2.031785
v -0.143253 5.123127 -0.929331
v 0.143253 4.223263 -2.234375
v 0.143253 5.325717 -1.131921
v 0.143253 4.020673 -2.031785
v 0.143253 5.123127 -0.929331
v -0.143253 4.751659 -1.951351
v -0.143253 5.119144 -1.583867
v -0.143253 4.916554 -1.381276
v -0.143253 4.549069 -1.748761
v 0.143253 4.916554 -1.381276
v 0.143253 4.549069 -1.748761
v 0.143253 5.119144 -1.583867
v 0.143253 4.751660 -1.951351
v -0.275708 5.115830 -2.737363
v -0.275708 5.667245 -2.953543
v 0.275708 5.115830 -2.737363
v 0.275708 5.667245 -2.953543
vt 0.072702 0.638546
vt 0.066327 0.651688
vt 0.072948 0.644631
vt 0.060398 0.638546
vt 0.066797 0.637138
vt 0.060422 0.650280
vt 0.060176 0.644195
vt 0.072726 0.650280
vt 0.064260 0.657353
vt 0.069204 0.651710
vt 0.070091 0.662585
vt 0.063492 0.655379
vt 0.061618 0.660478
vt 0.066053 0.654926
vt 0.060176 0.651710
vt 0.065715 0.656978
vt 0.065009 0.656385
vt 0.064558 0.656256
vt 0.064964 0.656121
vt 0.064900 0.656485
vt 0.064905 0.656315
vt 0.064823 0.656716
vt 0.064838 0.656376
vt 0.065202 0.656463
vt 0.043377 0.637127
vt 0.362873 0.637127
vt 0.362873 0.956623
vt 0.043377 0.956623
vt 0.043377 0.637127
vt 0.362873 0.637127
vt 0.362873 0.956623
vt 0.043377 0.956623
vt 0.043377 0.637127
vt 0.362873 0.637127
vt 0.362873 0.956623
vt 0.043377 0.956623
vt 0.362873 0.637127
vt 0.362873 0.956623
vt 0.059584 0.642749
vt 0.060155 0.637138
vt 0.043946 0.956612
vt 0.044905 0.952708
vt 0.060155 0.642778
vt 0.043388 0.952631
vt 0.059774 0.644640
vt 0.044220 0.951221
vt 0.075499 0.657666
vt 0.076103 0.655636
vt 0.070112 0.663354
vt 0.070112 0.652443
vt 0.073514 0.655393
vt 0.078386 0.660566
vt 0.074017 0.657411
vt 0.079110 0.651710
vt 0.074673 0.656762
vt 0.074790 0.656853
vt 0.074697 0.656495
vt 0.075112 0.656597
vt 0.074771 0.656683
vt 0.074886 0.657076
vt 0.074842 0.656739
vt 0.074488 0.656855
vt 0.043377 0.637127
vt 0.362873 0.956623
vt 0.043377 0.956623
vt 0.043377 0.637127
vt 0.362873 0.637127
vt 0.043377 0.956623
vn -1.0000 0.0000 0.0000
vn 0.0000 0.0000 -1.0000
vn 1.0000 0.0000 0.0000
vn 0.0000 0.0000 1.0000
vn 0.0000 -0.9095 -0.4157
vn -0.0000 0.9095 0.4157
vn 0.0000 0.4722 0.8815
vn -0.0000 0.7071 0.7071
vn 0.0000 -0.4722 -0.8815
vn 0.0000 -0.7071 -0.7071
vn 0.0000 1.0000 0.0000
vn 0.0000 -1.0000 0.0000
vn 0.0000 -0.3650 0.9310
vn 0.0000 -0.9095 0.4157
vn -0.0000 0.9095 -0.4157
vn -0.0000 0.4722 -0.8815
vn -0.0000 0.7071 -0.7071
vn 0.0000 -0.4722 0.8815
vn 0.0000 -0.7071 0.7071
vn 0.0000 -0.3650 -0.9310
s off
f 105/153/7 106/154/7 108/155/7 107/156/7
f 107/156/8 108/155/8 112/157/8 111/158/8
f 111/158/9 112/157/9 110/159/9 109/160/9
f 109/160/10 110/159/10 106/154/10 105/153/10
f 122/161/7 114/162/7 116/163/7 123/164/7
f 123/164/11 116/163/11 120/165/11 125/166/11
f 125/166/9 120/165/9 118/167/9 127/168/9
f 127/168/12 118/167/12 114/162/12 122/161/12
f 117/169/13 128/170/13 121/171/13 113/172/13
f 128/170/14 127/168/14 122/161/14 121/171/14
f 119/173/9 126/174/9 128/170/9 117/169/9
f 126/174/9 125/166/9 127/168/9 128/170/9
f 115/175/15 124/176/15 126/174/15 119/173/15
f 124/176/16 123/164/16 125/166/16 126/174/16
f 113/172/7 121/171/7 124/176/7 115/175/7
f 121/171/7 122/161/7 123/164/7 124/176/7
f 132/177/17 160/178/17 158/179/17 130/180/17
f 131/181/9 159/182/9 160/183/9 132/184/9
f 129/185/18 157/186/18 159/187/18 131/188/18
f 132/177/19 130/189/19 129/190/19 131/188/19
f 133/191/7 135/192/7 136/193/7 134/194/7
f 135/192/10 139/195/10 140/196/10 136/193/10
f 139/195/9 137/197/9 138/198/9 140/196/9
f 137/197/8 133/191/8 134/194/8 138/198/8
f 150/199/7 151/200/7 144/201/7 142/202/7
f 151/200/20 153/203/20 148/204/20 144/201/20
f 153/203/9 155/205/9 146/206/9 148/204/9
f 155/205/21 150/199/21 142/202/21 146/206/21
f 145/207/22 141/208/22 149/209/22 156/210/22
f 156/210/23 149/209/23 150/199/23 155/205/23
f 147/211/9 145/207/9 156/210/9 154/212/9
f 154/212/9 156/210/9 155/205/9 153/203/9
f 143/213/24 147/211/24 154/212/24 152/214/24
f 152/214/25 154/212/25 153/203/25 151/200/25
f 141/208/7 143/213/7 152/214/7 149/209/7
f 149/209/7 152/214/7 151/200/7 150/199/7
f 160/215/26 159/182/26 157/216/26 158/217/26
f 130/218/7 158/219/7 157/216/7 129/220/7
