# Blender v2.79 (sub 0) OBJ File: 'gate_small_stone_001.blend'
# www.blender.org
mtllib gate_small_stone_001.mtl
o Cube.001
v -0.050084 0.000000 -1.454868
v -0.050084 1.620521 -1.454868
v -0.050084 0.000000 -1.784563
v -0.050084 1.620521 -1.784563
v 0.050084 0.000000 -1.454868
v 0.050084 1.620521 -1.454868
v 0.050084 0.000000 -1.784563
v 0.050084 1.620521 -1.784563
v -0.050084 1.909014 -1.454868
v -0.050084 1.909014 -1.784563
v 0.050084 1.909014 -1.784563
v 0.050084 1.909014 -1.454868
v -0.050084 0.311825 -1.454868
v -0.050084 0.311825 -1.784563
v 0.050084 0.311825 -1.784563
v 0.050084 0.311825 -1.454868
v -0.050084 0.000000 1.471950
v -0.050084 1.620521 1.471950
v -0.050084 0.000000 1.801645
v -0.050084 1.620521 1.801645
v 0.050084 0.000000 1.471950
v 0.050084 1.620521 1.471950
v 0.050084 0.000000 1.801645
v 0.050084 1.620521 1.801645
v -0.050084 1.909014 1.471950
v -0.050084 1.909014 1.801645
v 0.050084 1.909014 1.801645
v 0.050084 1.909014 1.471950
v 0.050084 1.620521 0.008541
v -0.050084 1.620521 0.008541
v 0.050084 1.909014 0.008541
v -0.050084 1.909014 0.008541
v -0.050084 0.311825 1.471950
v -0.050084 0.311825 1.801645
v 0.050084 0.311825 1.801645
v 0.050084 0.311825 1.471950
v 0.050084 0.311825 0.008541
v 0.050084 0.000000 0.008541
v -0.050084 0.000000 0.008541
v -0.050084 0.311825 0.008541
v 0.049227 0.496368 -1.784012
v 0.049227 0.957914 -1.783519
v 0.155257 0.496368 -1.784012
v 0.155257 0.957914 -1.783519
v 0.049227 0.496368 1.801094
v 0.049227 0.957914 1.800601
v 0.155257 0.496368 1.801094
v 0.155257 0.957914 1.800601
v 0.049227 2.231312 0.008541
v 0.049227 2.709033 0.008541
v 0.155257 2.709033 0.008541
v 0.155257 2.231312 0.008541
vt 0.676113 0.090139
vt 0.919162 0.090139
vt 0.919162 0.333188
vt 0.676113 0.333188
vt 0.676113 0.090139
vt 0.919162 0.090139
vt 0.919162 0.333188
vt 0.676113 0.333188
vt 0.676113 0.090139
vt 0.919162 0.090139
vt 0.919162 0.333188
vt 0.676113 0.333188
vt 0.676113 0.090139
vt 0.919162 0.090139
vt 0.919162 0.333188
vt 0.676113 0.333188
vt 0.676113 0.090139
vt 0.919162 0.090139
vt 0.919162 0.333188
vt 0.676113 0.333188
vt 0.676113 0.090139
vt 0.919162 0.333188
vt 0.676113 0.333188
vt 0.676113 0.090139
vt 0.919162 0.090139
vt 0.919162 0.333188
vt 0.676113 0.333188
vt 0.676113 0.090139
vt 0.919162 0.333188
vt 0.676113 0.333188
vt 0.676113 0.090139
vt 0.919162 0.333188
vt 0.676113 0.090139
vt 0.676113 0.333188
vt 0.676113 0.090139
vt 0.919162 0.090139
vt 0.919162 0.333188
vt 0.676113 0.333188
vt 0.919162 0.090139
vt 0.919162 0.333188
vt 0.676113 0.333188
vt 0.676113 0.090139
vt 0.919162 0.333188
vt 0.676113 0.333188
vt 0.676113 0.090139
vt 0.919162 0.090139
vt 0.919162 0.333188
vt 0.676113 0.333188
vt 0.676113 0.090139
vt 0.919162 0.090139
vt 0.919162 0.333188
vt 0.676113 0.333188
vt 0.919162 0.090139
vt 0.919162 0.333188
vt 0.676113 0.333188
vt 0.676113 0.090139
vt 0.919162 0.090139
vt 0.919162 0.333188
vt 0.676113 0.333188
vt 0.919162 0.090139
vt 0.919162 0.333188
vt 0.676113 0.333188
vt 0.919162 0.333188
vt 0.676113 0.333188
vt 0.919162 0.090139
vt 0.919162 0.333188
vt 0.676113 0.333188
vt 0.676113 0.090139
vt 0.919162 0.090139
vt 0.919162 0.333188
vt 0.676113 0.333188
vt 0.676113 0.090139
vt 0.919162 0.090139
vt 0.919162 0.333188
vt 0.676113 0.333188
vt 0.676113 0.090139
vt 0.919162 0.090139
vt 0.919162 0.333188
vt 0.676113 0.333188
vt 0.676113 0.090139
vt 0.919162 0.090139
vt 0.919162 0.333188
vt 0.676113 0.333188
vt 0.676113 0.090139
vt 0.919162 0.090139
vt 0.919162 0.333188
vt 0.676113 0.333188
vt 0.676113 0.090139
vt 0.919162 0.090139
vt 0.676113 0.090139
vt 0.919162 0.090139
vt 0.919162 0.333188
vt 0.676113 0.333188
vt 0.676113 0.090139
vt 0.919162 0.090139
vt 0.919162 0.333188
vt 0.676113 0.090139
vt 0.919162 0.333188
vt 0.676113 0.090139
vt 0.919162 0.090139
vt 0.676113 0.090139
vt 0.919162 0.090139
vt 0.676113 0.333188
vt 0.919162 0.090139
vt 0.676113 0.333188
vt 0.676113 0.090139
vt 0.919162 0.090139
vt 0.676113 0.090139
vt 0.919162 0.090139
vt 0.676113 0.333188
vt 0.676113 0.090139
vt 0.919162 0.090139
vt 0.919162 0.333188
vt 0.676113 0.333188
vt 0.919162 0.090139
vt 0.919162 0.333188
vt 0.676113 0.333188
vt 0.676113 0.090139
vt 0.919162 0.090139
vt 0.919162 0.333188
vt 0.676113 0.333188
vt 0.919162 0.090139
vt 0.676113 0.333188
vt 0.919162 0.090139
vt 0.919162 0.090139
vt 0.676113 0.333188
vt 0.676132 0.093005
vt 0.712420 0.296850
vt 0.680041 0.296850
vt 0.690357 0.091428
vt 0.681016 0.090157
vt 0.687060 0.121455
vt 0.686743 0.090167
vt 0.684700 0.121482
vt 0.715305 0.090157
vt 0.713729 0.104385
vt 0.919144 0.094072
vt 0.919144 0.126446
vt 0.743760 0.101087
vt 0.712458 0.095042
vt 0.743787 0.098727
vt 0.712467 0.100771
vt 0.712458 0.154139
vt 0.712458 0.126483
vt 0.718596 0.126483
vt 0.718596 0.154139
vn -1.0000 0.0000 0.0000
vn 0.0000 0.0000 -1.0000
vn 1.0000 0.0000 0.0000
vn 0.0000 0.0000 1.0000
vn 0.0000 -1.0000 0.0000
vn 0.0000 1.0000 0.0000
vn 0.0000 0.7152 -0.6989
vn 0.0000 -0.7186 0.6955
vn 0.0000 0.0011 -1.0000
vn 0.0000 0.7152 0.6989
vn 0.0000 -0.7186 -0.6955
vn 0.0000 0.0011 1.0000
usemtl None
s off
f 13/1/1 2/2/1 4/3/1 14/4/1
f 14/5/2 4/6/2 8/7/2 15/8/2
f 15/9/3 8/10/3 6/11/3 16/12/3
f 16/13/4 6/14/4 2/15/4 13/16/4
f 3/17/5 7/18/5 5/19/5 1/20/5
f 2/21/5 6/14/5 29/22/5 30/23/5
f 11/24/6 10/25/6 9/26/6 12/27/6
f 8/28/2 4/6/2 10/29/2 11/30/2
f 6/31/3 8/10/3 11/32/3 12/27/3
f 4/33/1 2/2/1 9/26/1 10/34/1
f 5/35/3 16/36/3 37/37/3 38/38/3
f 6/31/3 12/39/3 31/40/3 29/41/3
f 9/42/1 2/2/1 30/43/1 32/44/1
f 12/45/6 9/46/6 32/47/6 31/48/6
f 7/49/3 15/50/3 16/51/3 5/52/3
f 3/17/2 14/53/2 15/54/2 7/55/2
f 1/56/1 13/57/1 14/58/1 3/59/1
f 1/56/5 5/60/5 38/61/5 39/62/5
f 16/13/6 13/57/6 40/63/6 37/64/6
f 13/1/1 1/65/1 39/66/1 40/67/1
f 33/68/1 34/69/1 20/70/1 18/71/1
f 34/72/4 35/73/4 24/74/4 20/75/4
f 35/76/3 36/77/3 22/78/3 24/79/3
f 36/80/2 33/81/2 18/82/2 22/83/2
f 19/84/5 17/85/5 21/86/5 23/87/5
f 18/88/5 30/89/5 29/22/5 22/83/5
f 27/90/6 28/91/6 25/92/6 26/93/6
f 24/94/4 27/95/4 26/96/4 20/75/4
f 22/97/3 28/91/3 27/98/3 24/79/3
f 20/99/1 26/100/1 25/92/1 18/71/1
f 21/101/3 38/102/3 37/37/3 36/103/3
f 22/97/3 29/104/3 31/40/3 28/105/3
f 25/106/1 32/107/1 30/43/1 18/71/1
f 28/108/6 31/109/6 32/47/6 25/110/6
f 23/111/3 21/112/3 36/113/3 35/114/3
f 19/84/4 23/115/4 35/116/4 34/117/4
f 17/118/1 19/119/1 34/120/1 33/121/1
f 17/118/5 39/122/5 38/61/5 21/123/5
f 36/80/6 37/124/6 40/63/6 33/121/6
f 33/68/1 40/125/1 39/66/1 17/126/1
f 42/127/7 50/128/7 51/129/7 44/130/7
f 44/130/3 51/129/3 52/131/3 43/132/3
f 43/132/8 52/131/8 49/133/8 41/134/8
f 42/127/9 44/130/9 43/132/9 41/134/9
f 41/134/1 49/133/1 50/128/1 42/127/1
f 46/135/10 48/136/10 51/137/10 50/138/10
f 48/136/3 47/139/3 52/140/3 51/137/3
f 47/139/11 45/141/11 49/142/11 52/140/11
f 46/135/12 45/141/12 47/139/12 48/136/12
f 51/143/2 52/144/2 49/145/2 50/146/2
f 45/141/1 46/135/1 50/138/1 49/142/1
o Cube
v -0.391479 0.000000 -1.745281
v -0.352409 1.871289 -1.784350
v -0.391479 0.000000 -2.528239
v -0.352409 1.871289 -2.489169
v 0.391479 0.000000 -1.745281
v 0.352409 1.871289 -1.784350
v 0.391479 0.000000 -2.528239
v 0.352409 1.871289 -2.489169
v -0.122418 2.147592 -2.014342
v -0.122418 2.147592 -2.259177
v 0.122418 2.147592 -2.259177
v 0.122418 2.147592 -2.014342
v -0.170958 2.147592 -1.965801
v -0.170958 2.147592 -2.307718
v 0.170958 2.147592 -2.307718
v 0.170958 2.147592 -1.965801
v -0.122418 2.279354 -2.014342
v -0.122418 2.279354 -2.259177
v 0.122418 2.279354 -2.259177
v 0.122418 2.279354 -2.014342
v -0.317190 0.622955 -2.453950
v 0.317190 0.622955 -2.453950
v -0.317190 0.622955 -1.819569
v 0.317190 0.622955 -1.819569
v -0.320094 1.245910 -2.456854
v 0.320094 1.245910 -2.456854
v -0.320094 1.245910 -1.816665
v 0.320094 1.245910 -1.816665
v -0.349540 0.655349 -1.787219
v -0.391479 0.590562 -1.745281
v -0.352409 1.275880 -1.784350
v -0.349540 1.213517 -1.787219
v -0.349540 1.213517 -2.486300
v -0.352409 1.275880 -2.489169
v -0.391479 0.590562 -2.528239
v -0.349540 0.655349 -2.486300
v 0.349540 1.213517 -2.486300
v 0.352409 1.275880 -2.489169
v 0.391479 0.590562 -2.528239
v 0.349540 0.655349 -2.486300
v 0.349540 1.213517 -1.787219
v 0.352409 1.275880 -1.784350
v 0.391479 0.590562 -1.745281
v 0.349540 0.655349 -1.787219
v -0.122418 2.720928 -2.136760
v -0.000000 2.720928 -2.014342
v 0.000000 2.720928 -2.259177
v 0.122418 2.720928 -2.136760
v -0.130841 2.279354 -1.916005
v -0.220754 2.279354 -2.005919
v -0.220754 2.279354 -2.267601
v -0.130841 2.279354 -2.357514
v 0.130841 2.279354 -2.357514
v 0.220754 2.279354 -2.267601
v 0.220754 2.279354 -2.005919
v 0.130841 2.279354 -1.916005
v -0.130841 2.589073 -1.916005
v -0.220754 2.589073 -2.005919
v -0.220754 2.589073 -2.267601
v -0.130841 2.589073 -2.357514
v 0.220754 2.589073 -2.267601
v 0.130841 2.589073 -2.357514
v 0.130841 2.589073 -1.916005
v 0.220754 2.589073 -2.005919
v -0.391479 0.000000 1.745281
v -0.352409 1.871289 1.784350
v -0.391479 0.000000 2.528239
v -0.352409 1.871289 2.489169
v 0.391479 0.000000 1.745281
v 0.352409 1.871289 1.784350
v 0.391479 0.000000 2.528239
v 0.352409 1.871289 2.489169
v -0.122418 2.147592 2.014342
v -0.122418 2.147592 2.259177
v 0.122418 2.147592 2.259177
v 0.122418 2.147592 2.014342
v -0.170958 2.147592 1.965801
v -0.170958 2.147592 2.307718
v 0.170958 2.147592 2.307718
v 0.170958 2.147592 1.965801
v -0.122418 2.279354 2.014342
v -0.122418 2.279354 2.259177
v 0.122418 2.279354 2.259177
v 0.122418 2.279354 2.014342
v -0.317190 0.622955 2.453950
v 0.317190 0.622955 2.453950
v -0.317190 0.622955 1.819569
v 0.317190 0.622955 1.819569
v -0.320094 1.245910 2.456854
v 0.320094 1.245910 2.456854
v -0.320094 1.245910 1.816665
v 0.320094 1.245910 1.816665
v -0.349540 0.655349 1.787219
v -0.391479 0.590562 1.745281
v -0.352409 1.275880 1.784350
v -0.349540 1.213517 1.787219
v -0.349540 1.213517 2.486300
v -0.352409 1.275880 2.489169
v -0.391479 0.590562 2.528239
v -0.349540 0.655349 2.486300
v 0.349540 1.213517 2.486300
v 0.352409 1.275880 2.489169
v 0.391479 0.590562 2.528239
v 0.349540 0.655349 2.486300
v 0.349540 1.213517 1.787219
v 0.352409 1.275880 1.784350
v 0.391479 0.590562 1.745281
v 0.349540 0.655349 1.787219
v -0.122418 2.720928 2.136760
v -0.000000 2.720928 2.014342
v 0.000000 2.720928 2.259177
v 0.122418 2.720928 2.136760
v -0.130841 2.279354 1.916005
v -0.220754 2.279354 2.005919
v -0.220754 2.279354 2.267601
v -0.130841 2.279354 2.357514
v 0.130841 2.279354 2.357514
v 0.220754 2.279354 2.267601
v 0.220754 2.279354 2.005919
v 0.130841 2.279354 1.916005
v -0.130841 2.589073 1.916005
v -0.220754 2.589073 2.005919
v -0.220754 2.589073 2.267601
v -0.130841 2.589073 2.357514
v 0.220754 2.589073 2.267601
v 0.130841 2.589073 2.357514
v 0.130841 2.589073 1.916005
v 0.220754 2.589073 2.005919
v 0.391479 0.067243 1.745281
v 0.391479 0.497550 1.745281
v 0.275251 0.223990 1.745281
v 0.391479 0.282407 1.878584
v -0.352409 1.786750 -1.784350
v -0.352409 1.359661 -1.784350
v -0.105790 1.559027 -1.784350
v -0.352409 1.508991 -1.914491
vt 0.125201 0.866992
vt 0.123593 0.866679
vt 0.125606 0.865768
vt 0.125772 0.865321
vt 0.113269 0.859710
vt 0.132471 0.855291
vt 0.123138 0.866513
vt 0.117466 0.879397
vt 0.125791 0.867284
vt 0.125033 0.867263
vt 0.124842 0.867224
vt 0.883545 0.799640
vt 0.795526 0.844314
vt 0.753970 0.800856
vt 0.125056 0.867525
vt 0.125097 0.867366
vt 0.125340 0.867350
vt 0.125153 0.867214
vt 0.125198 0.867321
vt 0.125176 0.867312
vt 0.125058 0.867272
vt 0.125145 0.867233
vt 0.125104 0.867347
vt 0.824825 0.872321
vt 0.817854 0.864281
vt 0.826243 0.859856
vt 0.752114 0.919599
vt 0.837450 0.891549
vt 0.883545 0.939522
vt 0.837241 0.844948
vt 0.794837 0.882667
vt 0.815239 0.864314
vt 0.814010 0.862593
vt 0.816808 0.863140
vt 0.816062 0.865525
vt 0.814075 0.865204
vt 0.803647 0.870957
vt 0.807616 0.875724
vt 0.816026 0.868085
vt 0.820433 0.876142
vt 0.809600 0.854115
vt 0.805303 0.858215
vt 0.812310 0.866435
vt 0.814889 0.866399
vt 0.813335 0.867557
vt 0.822184 0.855521
vt 0.817247 0.867226
vt 0.126821 0.867819
vt 0.137453 0.874669
vt 0.125527 0.867684
vt 0.124565 0.868680
vt 0.126429 0.867680
vt 0.125708 0.865491
vt 0.126564 0.867728
vt 0.108859 0.856433
vt 0.034059 0.953607
vt 0.041803 0.782921
vt 0.135876 0.850033
vt 0.208311 0.783121
vt 0.113151 0.885455
vt 0.211096 0.953607
vt 0.124411 0.869132
vt 0.139449 0.875648
vt 0.115905 0.881886
vt 0.124512 0.868902
vt 0.112075 0.858952
vt 0.123367 0.866620
vt 0.133395 0.853397
vt 0.143013 0.878270
vt 0.812901 0.863580
vt 0.124897 0.698521
vt 0.123268 0.698998
vt 0.122634 0.697580
vt 0.136048 0.690627
vt 0.122422 0.697074
vt 0.114329 0.685787
vt 0.131687 0.711312
vt 0.125384 0.698317
vt 0.123110 0.699228
vt 0.121741 0.699850
vt 0.123368 0.699180
vt 0.123509 0.699151
vt 0.847323 0.756174
vt 0.891996 0.668155
vt 0.890780 0.797730
vt 0.123344 0.699377
vt 0.123283 0.699137
vt 0.123241 0.699216
vt 0.123259 0.699211
vt 0.123288 0.699153
vt 0.123350 0.699186
vt 0.123313 0.699240
vt 0.123317 0.699255
vt 0.827355 0.733846
vt 0.819315 0.726875
vt 0.831780 0.725457
vt 0.800088 0.714251
vt 0.772038 0.799586
vt 0.752114 0.668155
vt 0.846688 0.714460
vt 0.808969 0.756864
vt 0.827322 0.736462
vt 0.828497 0.734893
vt 0.829043 0.737691
vt 0.826111 0.735639
vt 0.826433 0.737625
vt 0.825237 0.736812
vt 0.820679 0.748053
vt 0.823551 0.735675
vt 0.815912 0.744085
vt 0.815494 0.731267
vt 0.837522 0.742100
vt 0.825201 0.739390
vt 0.833422 0.746398
vt 0.824079 0.738366
vt 0.836115 0.729517
vt 0.824410 0.734453
vt 0.121292 0.700039
vt 0.108786 0.709476
vt 0.123940 0.700754
vt 0.122503 0.697267
vt 0.160708 0.732851
vt 0.136222 0.716875
vt 0.140841 0.686995
vt 0.230215 0.604464
vt 0.110186 0.679640
vt 0.034059 0.604464
vt 0.101973 0.714650
vt 0.138736 0.722416
vt 0.143783 0.753227
vt 0.124135 0.701231
vt 0.106334 0.710876
vt 0.133359 0.713669
vt 0.121587 0.699916
vt 0.124012 0.700992
vt 0.137343 0.689780
vt 0.125140 0.698445
vt 0.113184 0.683577
vt 0.035828 0.768817
vt 0.828056 0.738799
vt 0.169848 0.768744
vt 0.126098 0.867579
vt 0.125402 0.867358
vt 0.179651 0.782849
vn 0.0000 0.0000 -1.0000
vn 1.0000 0.0000 0.0000
vn -1.0000 0.0000 0.0000
vn 0.0000 0.5489 -0.8359
vn 0.0000 0.0000 1.0000
vn 0.8359 0.5489 0.0000
vn -0.8359 0.5489 0.0000
vn 0.0000 0.5489 0.8359
vn 0.0000 1.0000 0.0000
vn 0.0000 0.5978 0.8016
vn 0.0000 -1.0000 0.0000
vn 0.0000 0.5978 -0.8016
vn 0.8016 0.5978 -0.0000
vn -0.6800 -0.7332 0.0000
vn 0.0000 0.9166 0.3997
vn 0.0000 0.6726 0.7400
vn 0.3997 0.9166 0.0000
vn 0.7400 0.6726 0.0000
vn 0.0000 0.9166 -0.3997
vn 0.0000 0.6726 -0.7400
vn -0.3997 0.9166 0.0000
vn -0.7400 0.6726 0.0000
vn 0.0000 -0.7332 -0.6800
vn 0.6800 -0.7332 0.0000
vn 0.0000 -0.7332 0.6800
vn -0.7076 -0.7066 0.0000
vn 0.0000 -0.7066 -0.7076
vn 0.7076 -0.7066 0.0000
vn 0.0000 -0.7066 0.7076
vn 0.4463 0.7757 -0.4463
vn 0.4463 0.7757 0.4463
vn -0.7071 0.0000 -0.7071
vn 0.7071 0.0000 -0.7071
vn 0.7071 0.0000 0.7071
vn -0.7071 0.0000 0.7071
vn -0.4463 0.7757 -0.4463
vn -0.4463 0.7757 0.4463
vn -0.8016 0.5978 0.0000
vn 0.5791 0.4294 -0.6931
vn 0.7783 -0.3307 -0.5337
vn -0.4691 0.5802 0.6658
vn -0.3648 -0.3950 0.8431
usemtl None
s off
f 56/147/13 90/148/13 86/149/13
f 85/150/13 92/151/13 88/152/13
f 89/153/14 96/154/14 92/151/14
f 188/155/15 56/147/15 86/149/15
f 56/147/16 67/156/16 60/157/16
f 64/158/17 69/159/17 61/160/17
f 58/161/18 67/156/18 68/162/18
f 54/163/19 66/164/19 56/147/19
f 58/161/20 65/165/20 54/163/20
f 61/166/21 66/164/21 65/165/21
f 63/167/21 66/164/21 62/168/21
f 64/169/21 67/156/21 63/167/21
f 61/166/21 68/162/21 64/169/21
f 106/170/14 116/171/14 107/172/14
f 62/173/13 71/174/13 63/175/13
f 63/175/14 72/176/14 64/158/14
f 61/160/15 70/177/15 62/173/15
f 98/178/22 109/179/22 115/180/22
f 100/181/21 97/182/21 98/178/21
f 69/159/23 103/183/23 70/177/23
f 104/184/13 114/185/13 105/186/13
f 71/174/23 107/172/23 72/176/23
f 72/176/23 101/187/23 69/159/23
f 102/188/15 111/189/15 103/183/15
f 99/190/24 114/185/24 112/191/24
f 108/192/17 109/179/17 101/187/17
f 100/181/25 116/171/25 113/193/25
f 71/174/23 104/184/23 105/186/23
f 84/194/15 88/152/15 81/195/15
f 58/161/17 187/196/17 94/197/17
f 83/198/26 77/199/26 79/200/26
f 91/201/14 57/202/14 59/203/14
f 60/157/14 94/197/14 90/148/14
f 87/204/13 59/203/13 55/205/13
f 95/206/17 53/207/17 57/202/17
f 93/208/17 81/195/17 96/154/17
f 75/209/27 95/206/27 76/210/27
f 79/200/28 93/208/28 80/211/28
f 76/210/29 91/201/29 74/212/29
f 80/211/30 89/153/30 78/213/30
f 74/212/31 87/204/31 73/214/31
f 78/213/32 85/150/32 77/199/32
f 73/214/33 82/215/33 75/209/33
f 79/200/34 85/150/34 84/194/34
f 82/215/15 55/205/15 53/207/15
f 90/148/35 77/199/35 86/149/35
f 94/197/36 78/213/36 90/148/36
f 83/198/37 80/211/37 94/197/37
f 88/152/38 75/209/38 81/195/38
f 92/151/39 73/214/39 88/152/39
f 92/151/40 76/210/40 74/212/40
f 81/195/41 76/210/41 96/154/41
f 101/187/23 102/188/23 69/159/23
f 103/183/23 104/184/23 70/177/23
f 105/186/23 106/170/23 71/174/23
f 107/172/23 108/192/23 72/176/23
f 99/190/42 113/193/42 114/185/42
f 98/178/43 116/171/43 100/181/43
f 111/189/44 104/184/44 103/183/44
f 113/193/45 105/186/45 114/185/45
f 108/192/46 116/171/46 115/180/46
f 109/179/47 102/188/47 101/187/47
f 99/190/48 111/189/48 97/182/48
f 98/178/49 110/216/49 109/179/49
f 97/182/50 111/189/50 110/216/50
f 154/217/17 120/218/17 150/219/17
f 156/220/17 149/221/17 152/222/17
f 160/223/14 153/224/14 156/220/14
f 150/219/15 118/225/15 147/226/15
f 131/227/20 120/218/20 124/228/20
f 133/229/13 128/230/13 125/231/13
f 122/232/18 131/227/18 124/228/18
f 130/233/19 118/225/19 120/218/19
f 129/234/16 122/232/16 118/225/16
f 125/235/21 130/233/21 126/236/21
f 130/233/21 127/237/21 126/236/21
f 131/227/21 128/238/21 127/237/21
f 132/239/21 125/235/21 128/238/21
f 180/240/14 170/241/14 171/242/14
f 135/243/17 126/244/17 127/245/17
f 136/246/14 127/245/14 128/230/14
f 134/247/15 125/231/15 126/244/15
f 162/248/24 179/249/24 173/250/24
f 164/251/21 161/252/21 163/253/21
f 167/254/23 133/229/23 134/247/23
f 178/255/17 168/256/17 169/257/17
f 171/242/23 135/243/23 136/246/23
f 165/258/23 136/246/23 133/229/23
f 175/259/15 166/260/15 167/254/15
f 163/253/22 176/261/22 178/255/22
f 173/250/13 172/262/13 165/258/13
f 164/251/25 177/263/25 180/240/25
f 135/243/23 168/256/23 134/247/23
f 152/222/15 148/264/15 145/265/15
f 147/226/13 122/232/13 158/266/13
f 147/226/26 141/267/26 150/219/26
f 184/268/14 159/269/14 155/270/14
f 158/266/14 124/228/14 154/217/14
f 123/271/17 151/272/17 119/273/17
f 146/274/13 182/275/13 183/276/13
f 145/265/13 157/277/13 160/223/13
f 159/269/31 139/278/31 140/279/31
f 157/277/32 143/280/32 144/281/32
f 155/270/29 140/279/29 138/282/29
f 153/224/30 144/281/30 142/283/30
f 151/272/27 138/282/27 137/284/27
f 149/221/28 142/283/28 141/267/28
f 146/274/33 137/284/33 139/278/33
f 143/280/34 149/221/34 141/267/34
f 119/273/15 146/274/15 117/285/15
f 141/267/37 154/217/37 150/219/37
f 142/283/36 158/266/36 154/217/36
f 144/281/35 147/226/35 158/266/35
f 139/278/38 152/222/38 145/265/38
f 137/284/41 156/220/41 152/222/41
f 156/220/40 140/279/40 160/223/40
f 140/279/39 145/265/39 160/223/39
f 165/258/23 133/229/23 166/260/23
f 167/254/23 134/247/23 168/256/23
f 169/257/23 135/243/23 170/241/23
f 171/242/23 136/246/23 172/262/23
f 177/263/43 163/253/43 178/255/43
f 162/248/42 180/240/42 179/249/42
f 168/256/47 175/259/47 167/254/47
f 177/263/46 169/257/46 170/241/46
f 180/240/45 172/262/45 179/249/45
f 166/260/44 173/250/44 165/258/44
f 163/253/49 175/259/49 176/261/49
f 174/286/48 162/248/48 173/250/48
f 161/252/50 174/286/50 175/259/50
f 184/268/51 181/287/51 183/276/51
f 183/276/52 182/275/52 184/268/52
f 187/196/53 188/155/53 186/288/53
f 188/155/54 187/196/54 185/289/54
f 56/147/13 60/157/13 90/148/13
f 85/150/13 89/153/13 92/151/13
f 89/153/14 93/208/14 96/154/14
f 86/149/15 83/198/15 188/155/15
f 188/155/15 185/289/15 56/147/15
f 83/198/15 186/288/15 188/155/15
f 54/163/15 56/147/15 185/289/15
f 56/147/16 66/164/16 67/156/16
f 64/158/17 72/176/17 69/159/17
f 58/161/18 60/157/18 67/156/18
f 54/163/19 65/165/19 66/164/19
f 58/161/20 68/162/20 65/165/20
f 61/166/21 62/168/21 66/164/21
f 63/167/21 67/156/21 66/164/21
f 64/169/21 68/162/21 67/156/21
f 61/166/21 65/165/21 68/162/21
f 106/170/14 113/193/14 116/171/14
f 62/173/13 70/177/13 71/174/13
f 63/175/14 71/174/14 72/176/14
f 61/160/15 69/159/15 70/177/15
f 100/181/21 99/190/21 97/182/21
f 69/159/23 102/188/23 103/183/23
f 104/184/13 112/191/13 114/185/13
f 71/174/23 106/170/23 107/172/23
f 72/176/23 108/192/23 101/187/23
f 102/188/15 110/216/15 111/189/15
f 108/192/17 115/180/17 109/179/17
f 71/174/23 70/177/23 104/184/23
f 84/194/15 85/150/15 88/152/15
f 83/198/17 94/197/17 187/196/17
f 58/161/17 54/163/17 187/196/17
f 187/196/17 186/288/17 83/198/17
f 54/163/17 185/289/17 187/196/17
f 83/198/26 86/149/26 77/199/26
f 91/201/14 95/206/14 57/202/14
f 60/157/14 58/161/14 94/197/14
f 87/204/13 91/201/13 59/203/13
f 95/206/17 82/215/17 53/207/17
f 93/208/17 84/194/17 81/195/17
f 75/209/27 82/215/27 95/206/27
f 79/200/28 84/194/28 93/208/28
f 76/210/29 95/206/29 91/201/29
f 80/211/30 93/208/30 89/153/30
f 74/212/31 91/201/31 87/204/31
f 78/213/32 89/153/32 85/150/32
f 73/214/33 87/204/33 82/215/33
f 79/200/34 77/199/34 85/150/34
f 82/215/15 87/204/15 55/205/15
f 90/148/35 78/213/35 77/199/35
f 94/197/36 80/211/36 78/213/36
f 83/198/37 79/200/37 80/211/37
f 88/152/38 73/214/38 75/209/38
f 92/151/39 74/212/39 73/214/39
f 92/151/40 96/154/40 76/210/40
f 81/195/41 75/209/41 76/210/41
f 99/190/42 100/181/42 113/193/42
f 98/178/43 115/180/43 116/171/43
f 111/189/44 112/191/44 104/184/44
f 113/193/45 106/170/45 105/186/45
f 108/192/46 107/172/46 116/171/46
f 109/179/47 110/216/47 102/188/47
f 99/190/48 112/191/48 111/189/48
f 98/178/49 97/182/49 110/216/49
f 154/217/17 124/228/17 120/218/17
f 156/220/17 153/224/17 149/221/17
f 160/223/14 157/277/14 153/224/14
f 150/219/15 120/218/15 118/225/15
f 131/227/20 130/233/20 120/218/20
f 133/229/13 136/246/13 128/230/13
f 122/232/18 132/239/18 131/227/18
f 130/233/19 129/234/19 118/225/19
f 129/234/16 132/239/16 122/232/16
f 125/235/21 129/234/21 130/233/21
f 130/233/21 131/227/21 127/237/21
f 131/227/21 132/239/21 128/238/21
f 132/239/21 129/234/21 125/235/21
f 180/240/14 177/263/14 170/241/14
f 135/243/17 134/247/17 126/244/17
f 136/246/14 135/243/14 127/245/14
f 134/247/15 133/229/15 125/231/15
f 164/251/21 162/248/21 161/252/21
f 167/254/23 166/260/23 133/229/23
f 178/255/17 176/261/17 168/256/17
f 171/242/23 170/241/23 135/243/23
f 165/258/23 172/262/23 136/246/23
f 175/259/15 174/286/15 166/260/15
f 173/250/13 179/249/13 172/262/13
f 135/243/23 169/257/23 168/256/23
f 152/222/15 149/221/15 148/264/15
f 147/226/13 118/225/13 122/232/13
f 147/226/26 143/280/26 141/267/26
f 155/270/14 123/271/14 184/268/14
f 121/290/14 181/287/14 184/268/14
f 184/268/14 182/275/14 159/269/14
f 123/271/14 121/290/14 184/268/14
f 158/266/14 122/232/14 124/228/14
f 123/271/17 155/270/17 151/272/17
f 181/287/13 121/290/13 183/276/13
f 117/285/13 146/274/13 183/276/13
f 159/269/13 182/275/13 146/274/13
f 183/276/13 121/290/13 117/285/13
f 145/265/13 148/264/13 157/277/13
f 159/269/31 146/274/31 139/278/31
f 157/277/32 148/264/32 143/280/32
f 155/270/29 159/269/29 140/279/29
f 153/224/30 157/277/30 144/281/30
f 151/272/27 155/270/27 138/282/27
f 149/221/28 153/224/28 142/283/28
f 146/274/33 151/272/33 137/284/33
f 143/280/34 148/264/34 149/221/34
f 119/273/15 151/272/15 146/274/15
f 141/267/37 142/283/37 154/217/37
f 142/283/36 144/281/36 158/266/36
f 144/281/35 143/280/35 147/226/35
f 139/278/38 137/284/38 152/222/38
f 137/284/41 138/282/41 156/220/41
f 156/220/40 138/282/40 140/279/40
f 140/279/39 139/278/39 145/265/39
f 177/263/43 164/251/43 163/253/43
f 162/248/42 164/251/42 180/240/42
f 168/256/47 176/261/47 175/259/47
f 177/263/46 178/255/46 169/257/46
f 180/240/45 171/242/45 172/262/45
f 166/260/44 174/286/44 173/250/44
f 163/253/49 161/252/49 175/259/49
f 174/286/48 161/252/48 162/248/48
