# Blender v2.79 (sub 0) OBJ File: 'gravestone_002.blend'
# www.blender.org
mtllib gravestone_002.mtl
o Cube.157_Cube.180
v -0.426326 -0.382006 1.004960
v -0.297585 0.423596 0.876217
v -0.426326 -0.382006 -0.995040
v -0.297585 0.423596 -0.866298
v 0.409588 -0.382006 1.004960
v 0.280847 0.423596 0.876217
v 0.409588 -0.382006 -0.995040
v -0.426326 0.423596 -0.995040
v 0.409588 0.423596 1.004960
v -0.297585 0.633641 0.876217
v -0.297585 0.633641 -0.866298
v 0.280847 0.633641 0.876217
v -0.193369 0.633641 0.620795
v -0.193369 0.633641 -0.610876
v 0.176630 0.633641 -0.610876
v 0.176630 0.633641 0.620795
v -0.193369 0.900624 0.465874
v -0.193369 0.788561 0.353811
v -0.193369 0.788561 -0.343892
v -0.193369 0.900624 -0.455955
v 0.176630 0.900624 -0.455955
v 0.176630 0.788561 -0.343892
v 0.176630 0.788561 0.353811
v 0.176630 0.900624 0.465874
v -0.193369 1.770985 -0.455955
v -0.193369 1.883049 -0.343892
v -0.193369 2.037969 -0.498812
v 0.176630 1.883049 -0.343892
v 0.176630 1.770985 -0.455955
v 0.176630 2.037969 -0.498812
v -0.193369 1.925905 -0.610876
v 0.176630 1.925905 -0.610876
v -0.096293 0.788561 0.353811
v -0.096293 0.900624 0.465874
v -0.096293 0.900624 -0.455955
v -0.096293 0.788561 -0.343892
v 0.079555 0.788561 -0.343892
v 0.079555 0.900624 -0.455955
v 0.079555 0.900624 0.465874
v 0.079555 0.788561 0.353811
v -0.096293 1.883049 -0.343892
v -0.096293 1.770985 -0.455955
v 0.079555 1.770985 -0.455955
v 0.079555 1.883049 -0.343892
v 0.409588 0.423596 -0.023997
v 0.409588 0.423596 0.632261
v 0.358163 0.423596 0.225729
v 0.409588 0.338209 0.307851
v -0.341831 0.423596 0.920464
v -0.426326 0.423596 0.854943
v -0.426326 0.274514 1.004960
v -0.286625 0.423596 1.004960
v -0.046871 2.037969 0.000916
v 0.079555 1.883049 0.146159
v -0.046871 1.418090 0.620795
v 0.176630 1.400981 0.620795
v 0.079555 1.563333 0.465874
v 0.176630 2.037969 -0.016193
v -0.193369 2.037969 -0.024954
v -0.096293 1.883049 0.147109
v -0.096293 1.500918 0.465874
v -0.193369 1.392220 0.620795
v 0.079555 1.659387 0.264905
v -0.096293 1.668384 0.256859
v -0.046871 1.670138 0.263832
v 0.409588 0.423596 -0.704967
v 0.280847 0.423596 -0.796979
v 0.409588 -0.052599 -0.995040
v 0.183857 0.423596 -0.866298
v 0.003724 0.423596 -0.995040
v 0.280847 0.633641 -0.569210
v 0.186998 0.633641 -0.636285
v -0.134832 0.633641 -0.866298
vt 0.051728 0.921046
vt 0.147705 0.857312
vt 0.161435 0.857015
vt 0.282651 0.839774
vt 0.417022 0.921046
vt 0.273805 0.805413
vt 0.285292 0.759715
vt 0.339832 0.691574
vt 0.249600 0.780836
vt 0.218302 0.778053
vt 0.198982 0.773988
vt 0.167877 0.784206
vt 0.142272 0.789337
vt 0.061869 0.726738
vt 0.151611 0.846124
vt 0.160836 0.847574
vt 0.152635 0.794738
vt 0.171524 0.806660
vt 0.172053 0.832270
vt 0.269503 0.832215
vt 0.157129 0.850546
vt 0.262995 0.793955
vt 0.648031 0.667487
vt 0.685504 0.700424
vt 0.688967 0.824631
vt 0.646318 0.850485
vt 0.256401 0.788094
vt 0.239462 0.797346
vt 0.254625 0.824955
vt 0.183331 0.825754
vt 0.242945 0.819837
vt 0.242219 0.802077
vt 0.243479 0.801400
vt 0.255791 0.817351
vt 0.182495 0.810326
vt 0.769634 0.659572
vt 0.777771 0.624361
vt 0.853998 0.653637
vt 0.835650 0.679357
vt 0.816416 0.693278
vt 0.652755 0.224529
vt 0.635224 0.206999
vt 0.635224 0.097852
vt 0.652755 0.080321
vt 0.746663 0.080321
vt 0.772861 0.113019
vt 0.806442 0.130188
vt 0.806442 0.206999
vt 0.788911 0.224529
vt 0.639482 0.903628
vt 0.812542 0.939504
vt 0.616992 0.934526
vt 0.698072 0.835913
vt 0.716004 0.826151
vt 0.736885 0.853393
vt 0.776382 0.682541
vt 0.834865 0.730560
vt 0.773519 0.691539
vt 0.611580 0.669339
vt 0.610788 0.854112
vt 0.584585 0.865447
vt 0.588908 0.657347
vt 0.662508 0.867020
vt 0.735594 0.878505
vt 0.724656 0.907437
vt 0.704767 0.810012
vt 0.701047 0.718430
vt 0.710885 0.720470
vt 0.713279 0.806172
vt 0.758620 0.603863
vt 0.639262 0.632405
vt 0.623792 0.615777
vt 0.756720 0.583084
vt 0.794992 0.599769
vt 0.806505 0.097852
vt 0.824036 0.080321
vt 0.933183 0.080321
vt 0.950713 0.097852
vt 0.950713 0.234009
vt 0.933182 0.251540
vt 0.856521 0.251540
vt 0.837944 0.216551
vt 0.806505 0.201524
vt 0.760684 0.679292
vt 0.708534 0.704112
vt 0.801042 0.576121
vt 0.724898 0.817731
vt 0.760907 0.688037
vt 0.714522 0.709074
vt 0.204350 0.779711
vt 0.878800 0.828458
vt 0.939787 0.704276
vt 0.779732 0.848553
vt 0.852510 0.814933
vt 0.939789 0.852895
vn -1.0000 0.0000 0.0000
vn 0.0000 0.0000 -1.0000
vn 1.0000 0.0000 0.0000
vn 0.0000 0.0000 1.0000
vn 0.0000 1.0000 0.0000
vn 0.0000 -1.0000 0.0000
vn 0.0000 0.7071 -0.7071
vn 0.0000 -0.7071 0.7071
vn 0.0000 0.7071 0.7071
vn 0.7709 0.6169 0.1587
vn 0.8955 0.4304 -0.1133
vn -0.6587 0.6172 0.4303
vn -0.4796 0.6224 0.6185
vn -0.4020 0.7480 0.5281
vn -0.2168 0.5677 0.7942
vn -0.8806 0.1424 -0.4519
vn -0.1404 0.4507 0.8816
vn 0.0729 0.8998 0.4301
vn -0.9111 -0.3708 0.1801
vn 0.8961 0.1313 -0.4240
vn 0.9073 -0.3802 0.1797
vn 0.0540 0.7061 0.7061
vn -0.2257 0.7958 0.5619
vn -0.1151 0.7752 0.6211
vn 0.0324 0.4687 0.8828
vn -0.1239 0.7017 0.7017
vn 0.5041 0.5022 0.7026
vn -0.1503 0.8511 0.5030
vn 0.5210 0.4440 -0.7290
vn 0.4360 0.6616 -0.6101
usemtl None
s off
f 1/1/1 51/2/1 50/3/1 8/4/1 3/5/1
f 3/5/2 8/4/2 70/6/2 68/7/2 7/8/2
f 7/8/3 68/7/3 66/9/3 45/10/3 48/11/3 46/12/3 9/13/3 5/14/3
f 5/14/4 9/13/4 52/15/4 51/2/4 1/1/4
f 2/16/4 6/17/4 12/18/4 10/19/4
f 2/16/5 4/20/5 8/4/5 50/3/5 49/21/5
f 4/20/5 69/22/5 70/6/5 8/4/5
f 6/17/5 2/16/5 49/21/5 52/15/5 9/13/5
f 15/23/2 14/24/2 31/25/2 32/26/2
f 6/17/3 67/27/3 71/28/3 12/18/3
f 4/20/1 2/16/1 10/19/1 11/29/1
f 13/30/5 14/31/5 11/29/5 10/19/5
f 14/31/5 15/32/5 72/33/5 73/34/5 11/29/5
f 15/32/5 16/35/5 12/18/5 71/28/5 72/33/5
f 16/35/5 13/30/5 10/19/5 12/18/5
f 13/36/4 16/37/4 56/38/4 55/39/4 62/40/4
f 35/41/1 36/42/1 33/43/1 34/44/1 61/45/1 64/46/1 60/47/1 41/48/1 42/49/1
f 28/50/6 54/51/6 44/52/6
f 27/53/1 26/54/1 59/55/1
f 17/56/2 61/57/2 34/58/2
f 21/59/4 29/60/4 43/61/4 38/62/4
f 30/63/5 27/53/5 59/55/5 53/64/5 58/65/5
f 25/66/4 20/67/4 35/68/4 42/69/4
f 23/70/5 22/71/5 37/72/5 40/73/5
f 16/37/3 24/74/3 56/38/3
f 39/75/3 40/76/3 37/77/3 38/78/3 43/79/3 44/80/3 54/81/3 63/82/3 57/83/3
f 13/36/1 18/84/1 19/85/1 14/24/1
f 30/63/3 29/60/3 32/26/3
f 15/23/3 22/71/3 23/70/3 16/37/3
f 14/24/1 20/67/1 25/66/1 31/25/1
f 17/56/1 18/84/1 13/36/1
f 19/85/1 20/67/1 14/24/1
f 21/59/3 22/71/3 15/23/3
f 23/70/3 24/74/3 16/37/3
f 25/66/1 26/54/1 27/53/1
f 28/50/3 29/60/3 30/63/3
f 31/25/1 25/66/1 27/53/1
f 32/26/3 29/60/3 21/59/3 15/23/3
f 27/53/7 30/63/7 32/26/7 31/25/7
f 23/70/7 40/73/7 39/86/7 24/74/7
f 25/66/8 42/69/8 41/87/8 26/54/8
f 17/56/7 34/58/7 33/88/7 18/84/7
f 35/68/9 20/67/9 19/85/9 36/89/9
f 28/50/8 44/52/8 43/61/8 29/60/8
f 37/72/9 22/71/9 21/59/9 38/62/9
f 19/85/5 18/84/5 33/88/5 36/89/5
f 47/90/10 48/11/10 45/10/10
f 48/11/11 47/90/11 46/12/11
f 49/21/12 51/2/12 52/15/12
f 51/2/13 49/21/13 50/3/13
f 55/39/14 65/91/14 61/57/14
f 53/64/15 65/91/15 54/51/15
f 58/65/3 28/50/3 30/63/3
f 57/92/2 24/74/2 39/86/2
f 60/93/6 26/54/6 41/87/6
f 62/40/16 61/57/16 17/56/16
f 64/94/17 65/91/17 60/93/17
f 63/95/18 65/91/18 57/92/18
f 59/55/19 26/54/19 60/93/19
f 56/38/20 24/74/20 57/92/20
f 28/50/21 58/65/21 54/51/21
f 17/56/1 13/36/1 62/40/1
f 57/92/22 55/39/22 56/38/22
f 57/92/23 65/91/23 55/39/23
f 61/57/24 65/91/24 64/94/24
f 54/51/22 58/65/22 53/64/22
f 54/51/25 65/91/25 63/95/25
f 60/93/26 53/64/26 59/55/26
f 60/93/27 65/91/27 53/64/27
f 61/57/28 62/40/28 55/39/28
f 73/34/2 69/22/2 4/20/2 11/29/2
f 66/9/29 68/7/29 67/27/29
f 66/9/5 67/27/5 6/17/5 9/13/5 46/12/5 47/90/5 45/10/5
f 67/27/30 69/22/30 71/28/30
f 67/27/29 68/7/29 69/22/29
f 69/22/29 68/7/29 70/6/29
f 71/28/30 69/22/30 73/34/30 72/33/30
