# Blender v2.79 (sub 0) OBJ File: 'pebbles_003.blend'
# www.blender.org
o Cube_Cube.008
v -0.014046 -0.020424 0.984252
v 0.374158 -0.020424 0.296096
v 0.642052 -0.020424 0.703067
v 0.347430 -0.031508 1.137770
v 0.318047 0.206389 0.960369
v 0.058872 0.109828 0.911382
v -0.135403 -0.020424 0.497261
v 0.325750 0.121945 0.439013
v 0.503892 0.153456 0.735072
v -0.062503 0.109828 0.570161
v 1.155555 -0.009956 -0.009600
v 0.677820 -0.009146 -0.259514
v 1.013840 -0.020314 -0.428006
v 1.236878 -0.048973 -0.269094
v 1.060165 0.102616 -0.213750
v 1.072286 0.054151 -0.073946
v 0.818626 -0.015266 0.006683
v 0.755398 0.074888 -0.215762
v 0.947164 0.093406 -0.287028
v 0.868902 0.060482 -0.027601
v -0.743817 -0.016588 0.367047
v -1.171993 -0.002777 0.084182
v -0.910254 -0.028753 -0.124349
v -0.648308 -0.062411 0.062286
v -0.790814 0.079580 0.109660
v -0.841613 0.058702 0.291476
v -1.134509 -0.022770 0.380795
v -1.080881 0.095917 0.135566
v -0.954332 0.075372 0.006172
v -1.018220 0.084301 0.279155
vt 0.118367 0.859218
vt 0.131753 0.821480
vt 0.195786 0.816193
vt 0.229902 0.835858
vt 0.229902 0.712474
vt 0.193716 0.741716
vt 0.118965 0.683742
vt 0.129935 0.733808
vt 0.113948 0.777013
vt 0.049152 0.785217
vt 0.147465 0.859299
vt 0.127455 0.877798
vt 0.089487 0.876073
vt 0.074795 0.859299
vt 0.049152 0.920090
vt 0.072854 0.907504
vt 0.121122 0.958162
vt 0.105595 0.920666
vt 0.125831 0.906712
vt 0.173620 0.919277
vt 0.341473 0.734871
vt 0.310562 0.738865
vt 0.281703 0.722107
vt 0.274917 0.683742
vt 0.229983 0.734177
vt 0.260203 0.740232
vt 0.251211 0.805361
vt 0.263737 0.770395
vt 0.298753 0.771425
vt 0.324801 0.805361
vn -0.8454 0.4732 0.2478
vn -0.2820 0.6109 -0.7397
vn 0.6468 0.6241 -0.4384
vn 0.7267 0.4719 0.4991
vn -0.3259 0.5576 0.7635
vn 0.0886 0.9835 -0.1580
vn -0.1741 0.9820 -0.0732
vn 0.0942 0.5885 0.8030
vn -0.7183 0.5494 0.4268
vn -0.3197 0.6562 -0.6836
vn 0.4026 0.7537 -0.5195
vn 0.6307 0.7655 0.1274
vn -0.0907 0.9958 0.0147
vn -0.0241 0.9801 0.1971
vn 0.0256 0.6953 0.7182
vn -0.6645 0.7193 0.2028
vn -0.4522 0.6513 -0.6093
vn 0.4247 0.7193 -0.5498
vn 0.6520 0.7416 0.1580
vn 0.0458 0.9926 -0.1128
vn 0.0919 0.9912 0.0956
s off
f 1/1/1 6/2/1 10/3/1 7/4/1
f 2/5/2 7/4/2 10/3/2 8/6/2
f 3/7/3 2/5/3 8/6/3 9/8/3
f 3/7/4 9/8/4 5/9/4 4/10/4
f 4/10/5 5/9/5 6/2/5 1/1/5
f 5/9/6 9/8/6 8/6/6
f 5/9/7 8/6/7 10/3/7 6/2/7
f 11/11/8 16/12/8 20/13/8 17/14/8
f 12/15/9 17/14/9 20/13/9 18/16/9
f 13/17/10 12/15/10 18/16/10 19/18/10
f 13/17/11 19/18/11 15/19/11 14/20/11
f 14/20/12 15/19/12 16/12/12 11/11/12
f 15/19/13 19/18/13 18/16/13
f 15/19/14 18/16/14 20/13/14 16/12/14
f 21/21/15 26/22/15 30/23/15 27/24/15
f 22/25/16 27/24/16 30/23/16 28/26/16
f 23/27/17 22/25/17 28/26/17 29/28/17
f 23/27/18 29/28/18 25/29/18 24/30/18
f 24/30/19 25/29/19 26/22/19 21/21/19
f 25/29/20 29/28/20 28/26/20
f 25/29/21 28/26/21 30/23/21 26/22/21
