# Blender v2.79 (sub 0) OBJ File: 'pebbles_001.blend'
# www.blender.org
o Cube.003_Cube.005
v -0.779174 -0.006704 -0.150533
v -0.805906 0.032845 -0.188798
v -1.001325 -0.012482 -0.146520
v -1.002760 0.024788 -0.145720
v -0.590631 0.000977 -0.372082
v -0.642584 0.038362 -0.380775
v -1.123979 -0.012829 -0.308938
v -1.108803 0.022849 -0.281016
v -0.835726 -0.000843 -0.519969
v -0.855884 0.032880 -0.467254
v 1.145657 -0.005770 -0.308807
v 1.145780 0.114599 -0.355966
v 0.748825 -0.005770 -0.379887
v 1.160158 -0.024071 -0.534020
v 1.113621 0.106435 -0.481156
v 0.776860 -0.005770 -0.610594
v -0.925686 -0.009718 0.959458
v -0.891028 0.037894 0.915751
v -0.925686 -0.009718 0.724666
v -0.925686 0.035002 0.724666
v -0.690894 -0.009718 0.959458
v -0.699585 0.037224 0.898497
v -0.703465 -0.012099 0.543512
v -0.727896 0.030645 0.572777
v -0.530881 -0.008550 0.693918
v -0.597129 0.034118 0.692619
v 0.165831 -0.016680 1.140641
v 0.165831 0.042769 1.140641
v 0.165831 -0.016680 0.828518
v 0.165831 0.042769 0.828518
v 0.477954 -0.016680 1.140641
v 0.477954 0.042769 1.140641
v 0.359812 -0.019846 0.741123
v 0.359812 0.039603 0.741123
v 0.101277 -0.024816 1.011167
v 0.101277 0.034633 1.011167
v 0.589358 -0.015128 0.919243
v 0.589357 0.044321 0.919243
v -0.168202 0.002701 0.229098
v -0.105309 0.089771 0.221623
v -0.168202 0.002701 -0.083025
v 0.187433 -0.015600 0.291169
v 0.109415 0.081607 0.237689
v 0.143921 0.002701 -0.083025
vt 0.077660 0.659692
vt 0.352027 0.659692
vt 0.352027 0.934058
vt 0.077660 0.934058
vt 0.077660 0.659692
vt 0.352027 0.659692
vt 0.352027 0.934058
vt 0.077660 0.934058
vt 0.077660 0.659692
vt 0.352027 0.659692
vt 0.352027 0.934058
vt 0.077660 0.934058
vt 0.077660 0.659692
vt 0.352027 0.659692
vt 0.352027 0.934058
vt 0.077660 0.934058
vt 0.077660 0.659692
vt 0.077660 0.659692
vt 0.077660 0.934058
vt 0.077660 0.659692
vt 0.352027 0.659692
vt 0.352027 0.934058
vt 0.077660 0.934058
vt 0.077660 0.659692
vt 0.352027 0.659692
vt 0.352027 0.934058
vt 0.077660 0.659692
vt 0.352027 0.659692
vt 0.352027 0.934058
vt 0.077660 0.659692
vt 0.352027 0.934058
vt 0.077660 0.934058
vt 0.352027 0.659692
vt 0.077660 0.934058
vt 0.077660 0.659692
vt 0.352027 0.659692
vt 0.352027 0.934058
vt 0.077660 0.934058
vt 0.077660 0.659692
vt 0.352027 0.659692
vt 0.352027 0.934058
vt 0.077660 0.934058
vt 0.077660 0.659692
vt 0.352027 0.659692
vt 0.352027 0.934058
vt 0.077660 0.934058
vt 0.077660 0.659692
vt 0.352027 0.659692
vt 0.352027 0.934058
vt 0.077660 0.934058
vt 0.077660 0.659692
vt 0.077660 0.659692
vt 0.077660 0.934058
vt 0.077660 0.659692
vt 0.352027 0.659692
vt 0.352027 0.934058
vt 0.077660 0.934058
vt 0.077660 0.659692
vt 0.352027 0.659692
vt 0.352027 0.934058
vt 0.077660 0.934058
vt 0.077660 0.659692
vt 0.352027 0.659692
vt 0.352027 0.934058
vt 0.077660 0.934058
vt 0.077660 0.659692
vt 0.352027 0.659692
vt 0.352027 0.934058
vt 0.077660 0.934058
vt 0.077660 0.659692
vt 0.352027 0.659692
vt 0.352027 0.934058
vt 0.077660 0.934058
vt 0.077660 0.659692
vt 0.077660 0.934058
vt 0.077660 0.659692
vt 0.352027 0.934058
vt 0.077660 0.934058
vt 0.077660 0.659692
vt 0.352027 0.659692
vt 0.352027 0.934058
vt 0.077660 0.934058
vt 0.077660 0.659692
vt 0.352027 0.659692
vt 0.077660 0.934058
vt 0.077660 0.659692
vt 0.352027 0.659692
vt 0.352027 0.934058
vt 0.077660 0.659692
vt 0.352027 0.659692
vt 0.352027 0.934058
vt 0.077660 0.659692
vt 0.352027 0.934058
vt 0.077660 0.934058
vt 0.352027 0.659692
vt 0.077660 0.934058
vn 0.0840 0.4615 0.8831
vn -0.7895 -0.0903 0.6071
vn 0.3123 0.7085 -0.6329
vn 0.4831 0.7597 0.4353
vn -0.0278 0.9996 0.0051
vn -0.0357 0.9993 0.0089
vn -0.4631 0.6574 -0.5944
vn -0.1645 0.3600 0.9183
vn 0.1967 0.4275 -0.8823
vn 0.9811 0.1829 -0.0633
vn -0.2986 0.9542 -0.0184
vn -0.9220 0.3804 0.0724
vn -0.6180 0.0887 -0.7812
vn 0.5985 0.7299 0.3302
vn 0.0284 0.7382 0.6739
vn 0.0022 0.9999 -0.0140
vn 0.0007 0.9998 -0.0208
vn 0.4755 0.6854 -0.5515
vn -0.9428 -0.0000 -0.3332
vn -0.4108 -0.0000 -0.9117
vn 0.8933 -0.0000 0.4495
vn 0.0000 -0.0000 1.0000
vn -0.0145 0.9997 -0.0207
vn -0.0063 0.9999 0.0124
vn 0.6130 0.0000 -0.7900
vn -0.8949 -0.0000 0.4462
vn -0.8106 0.5855 -0.0000
vn 0.7949 0.6034 -0.0629
vn -0.1155 0.3034 0.9458
vn 0.0228 0.9660 -0.2574
s off
f 1/1/1 2/2/1 4/3/1 3/4/1
f 3/5/2 4/6/2 8/7/2 7/8/2
f 9/9/3 10/10/3 6/11/3 5/12/3
f 5/13/4 6/14/4 2/15/4 1/16/4
f 10/17/5 2/2/5 6/11/5
f 8/18/6 4/6/6 2/15/6 10/19/6
f 7/20/7 8/21/7 10/22/7 9/23/7
f 11/24/8 12/25/8 13/26/8
f 16/27/9 15/28/9 14/29/9
f 14/30/10 15/28/10 12/31/10 11/32/10
f 16/27/11 13/33/11 12/31/11 15/34/11
f 17/35/12 18/36/12 20/37/12 19/38/12
f 19/39/13 20/40/13 24/41/13 23/42/13
f 25/43/14 26/44/14 22/45/14 21/46/14
f 21/47/15 22/48/15 18/49/15 17/50/15
f 26/51/16 18/36/16 22/45/16
f 24/52/17 20/40/17 18/49/17 26/53/17
f 23/54/18 24/55/18 26/56/18 25/57/18
f 35/58/19 36/59/19 30/60/19 29/61/19
f 29/62/20 30/63/20 34/64/20 33/65/20
f 37/66/21 38/67/21 32/68/21 31/69/21
f 31/70/22 32/71/22 28/72/22 27/73/22
f 38/74/23 36/59/23 28/72/23 32/75/23
f 34/76/24 30/63/24 36/77/24 38/78/24
f 33/79/25 34/80/25 38/81/25 37/82/25
f 27/83/26 28/84/26 36/77/26 35/85/26
f 39/86/27 40/87/27 41/88/27
f 44/89/28 43/90/28 42/91/28
f 42/92/29 43/90/29 40/93/29 39/94/29
f 44/89/30 41/95/30 40/93/30 43/96/30
