# Blender v2.79 (sub 0) OBJ File: 'pillar_stone_001.blend'
# www.blender.org
o Cube.166_Cube.200
v -0.616414 0.001227 0.577676
v -0.471117 0.564517 0.432380
v -0.616414 0.001227 -0.641401
v -0.471117 0.564517 -0.496105
v 0.602664 0.001227 0.577676
v 0.457366 0.564517 0.432380
v 0.602664 0.001227 -0.641401
v 0.457366 0.564517 -0.496105
v -0.616414 0.416759 0.577676
v -0.616414 0.416759 -0.641401
v 0.602664 0.416759 -0.641401
v -0.420810 1.736782 0.382073
v -0.420810 1.736782 -0.445798
v 0.407060 1.736782 -0.445798
v 0.407060 1.736782 0.382073
v -0.372699 2.117192 0.333962
v -0.372699 2.117192 -0.397687
v 0.358948 2.117192 -0.397687
v 0.358948 2.117192 0.333962
v -0.535541 1.736782 0.496803
v -0.535541 1.736782 -0.560529
v 0.521792 1.736782 -0.560529
v 0.521792 1.736782 0.496803
v -0.535541 1.960515 -0.560529
v 0.521792 1.960515 -0.560529
v 0.521792 1.960515 0.496803
v 0.414547 1.562314 -0.453286
v 0.450902 0.715145 -0.489640
v 0.440262 0.963092 -0.347615
v 0.264196 1.147480 -0.471086
v 0.602664 0.416759 0.399402
v 0.285275 0.416759 0.577676
v 0.602664 0.225104 0.577676
v 0.522250 0.498534 0.497263
v -0.453013 2.039919 0.414275
v -0.535541 1.960515 0.268365
v -0.330698 1.960515 0.496803
v -0.535541 1.822626 0.496803
vt 0.294565 0.705435
vt 0.036102 0.963898
vt 0.036102 0.705435
vt 0.294565 0.705435
vt 0.036102 0.963898
vt 0.036102 0.705435
vt 0.241294 0.730116
vt 0.089373 0.730116
vt 0.042427 0.874601
vt 0.241294 0.730116
vt 0.089373 0.730116
vt 0.042427 0.874601
vt 0.741286 0.770892
vt 0.826324 0.862015
vt 0.741286 0.931648
vt 0.294565 0.705435
vt 0.036102 0.963898
vt 0.036102 0.705435
vt 0.294565 0.705435
vt 0.036102 0.963898
vt 0.036102 0.705435
vt 0.288240 0.874601
vt 0.089373 0.730116
vt 0.165333 0.963898
vt 0.288240 0.874601
vt 0.089373 0.730116
vt 0.165333 0.963898
vt 0.288240 0.874601
vt 0.089373 0.730116
vt 0.165333 0.963898
vt 0.918203 0.764747
vt 0.828436 0.854060
vt 0.834671 0.863927
vt 0.839771 0.878942
vt 0.833309 0.861952
vt 0.835126 0.856417
vt 0.294565 0.705435
vt 0.036102 0.963898
vt 0.036102 0.705435
vt 0.294565 0.705435
vt 0.036102 0.963898
vt 0.036102 0.705435
vt 0.294565 0.963898
vt 0.036102 0.963898
vt 0.294565 0.705435
vt 0.036102 0.963898
vt 0.036102 0.705435
vt 0.288240 0.874601
vt 0.089373 0.730116
vt 0.165333 0.963898
vt 0.294565 0.705435
vt 0.036102 0.705435
vt 0.294565 0.705435
vt 0.036102 0.963898
vt 0.036102 0.705435
vt 0.288240 0.874601
vt 0.165333 0.963898
vt 0.294565 0.705435
vt 0.036102 0.963898
vt 0.036102 0.705435
vt 0.288240 0.874601
vt 0.165333 0.963898
vt 0.294565 0.705435
vt 0.036102 0.963898
vt 0.036102 0.705435
vt 0.294565 0.705435
vt 0.036102 0.963898
vt 0.036102 0.705435
vt 0.868437 0.910228
vt 0.859119 0.880840
vt 0.036102 0.705435
vt 0.294565 0.705435
vt 0.294565 0.963898
vt 0.036102 0.705435
vt 0.294565 0.705435
vt 0.294565 0.963898
vt 0.036102 0.705435
vt 0.294565 0.705435
vt 0.294565 0.963898
vt 0.036102 0.705435
vt 0.294565 0.705435
vt 0.294565 0.963898
vt 0.294565 0.963898
vt 0.165333 0.963898
vt 0.288240 0.874601
vt 0.165333 0.963898
vt 0.288240 0.874601
vt 0.042427 0.874601
vt 0.241294 0.730116
vt 0.042427 0.874601
vt 0.241294 0.730116
vt 0.042427 0.874601
vt 0.241294 0.730116
vt 0.884484 0.929134
vt 0.294565 0.963898
vt 0.294565 0.963898
vt 0.294565 0.705435
vt 0.294565 0.963898
vt 0.042427 0.874601
vt 0.241294 0.730116
vt 0.294565 0.963898
vt 0.294565 0.963898
vt 0.042427 0.874601
vt 0.241294 0.730116
vt 0.294565 0.963898
vt 0.042427 0.874601
vt 0.241294 0.730116
vt 0.294565 0.963898
vn -1.0000 0.0000 0.0000
vn 0.0000 0.0000 -1.0000
vn 1.0000 0.0000 0.0000
vn 0.0000 0.0000 1.0000
vn -0.9991 0.0429 0.0000
vn -0.7130 0.7011 0.0000
vn 0.0000 0.7011 -0.7130
vn 0.7130 0.7011 0.0000
vn 0.0000 0.7011 0.7130
vn -0.6933 0.7206 0.0000
vn 0.0000 0.0429 0.9991
vn -0.0000 0.0429 -0.9991
vn 0.9991 0.0429 0.0000
vn 0.0000 1.0000 0.0000
vn 0.6933 0.7206 0.0000
vn 0.0000 -1.0000 0.0000
vn 0.0000 0.7206 0.6933
vn 0.0000 0.7206 -0.6933
vn 0.7552 0.3499 -0.5543
vn 0.4715 -0.1335 -0.8717
vn 0.1992 0.3300 0.9227
vn 0.8455 0.3636 0.3909
vn -0.8667 0.4271 0.2578
vn -0.2926 0.4346 0.8518
s off
f 9/1/1 3/2/1 1/3/1
f 10/4/2 7/5/2 3/6/2
f 31/7/3 33/8/3 5/9/3
f 32/10/4 9/11/4 1/12/4
f 2/13/5 13/14/5 4/15/5
f 4/16/6 9/17/6 2/18/6
f 8/19/7 10/20/7 4/21/7
f 6/22/8 31/23/8 8/24/8
f 2/25/9 32/26/9 6/27/9
f 17/28/10 36/29/10 16/30/10
f 6/31/11 12/32/11 2/13/11
f 13/14/12 27/33/12 30/34/12
f 27/33/13 14/35/13 15/36/13
f 17/37/14 19/38/14 18/39/14
f 19/40/15 25/41/15 18/39/15
f 14/42/16 21/43/16 22/44/16
f 15/45/16 20/46/16 12/47/16
f 23/48/4 37/49/4 20/50/4
f 21/51/2 25/41/2 22/52/2
f 22/53/3 26/54/3 23/55/3
f 20/56/1 36/29/1 21/57/1
f 14/58/16 23/59/16 15/60/16
f 16/61/17 37/49/17 19/62/17
f 12/63/16 21/64/16 13/65/16
f 18/66/18 24/67/18 17/68/18
f 28/69/19 30/34/19 29/70/19
f 27/33/20 29/70/20 30/34/20
f 32/71/21 33/72/21 34/73/21
f 31/74/22 34/75/22 33/76/22
f 36/77/23 38/78/23 35/79/23
f 38/80/24 37/81/24 35/79/24
f 9/1/1 10/82/1 3/2/1
f 10/4/2 11/83/2 7/5/2
f 5/9/3 7/84/3 31/7/3
f 11/85/3 31/7/3 7/84/3
f 1/12/4 5/86/4 32/10/4
f 33/87/4 32/10/4 5/86/4
f 2/13/5 12/32/5 13/14/5
f 4/16/6 10/82/6 9/17/6
f 8/19/7 11/83/7 10/20/7
f 11/88/8 8/24/8 31/23/8
f 6/22/8 34/89/8 31/23/8
f 34/90/9 6/27/9 32/26/9
f 2/25/9 9/91/9 32/26/9
f 35/92/10 16/30/10 36/29/10
f 17/28/10 24/93/10 36/29/10
f 6/31/11 15/36/11 12/32/11
f 28/69/12 8/94/12 4/15/12
f 4/15/12 13/14/12 30/34/12
f 14/35/12 27/33/12 13/14/12
f 30/34/12 28/69/12 4/15/12
f 15/36/13 6/31/13 29/70/13
f 8/94/13 28/69/13 29/70/13
f 29/70/13 27/33/13 15/36/13
f 6/31/13 8/94/13 29/70/13
f 17/37/14 16/95/14 19/38/14
f 19/40/15 26/96/15 25/41/15
f 14/42/16 13/97/16 21/43/16
f 15/45/16 23/98/16 20/46/16
f 38/99/4 20/50/4 37/49/4
f 23/48/4 26/100/4 37/49/4
f 21/51/2 24/101/2 25/41/2
f 22/53/3 25/102/3 26/54/3
f 24/103/1 21/57/1 36/29/1
f 20/56/1 38/104/1 36/29/1
f 14/58/16 22/105/16 23/59/16
f 26/106/17 19/62/17 37/49/17
f 16/61/17 35/107/17 37/49/17
f 12/63/16 20/108/16 21/64/16
f 18/66/18 25/102/18 24/67/18
