# Blender v2.79 (sub 0) OBJ File: 'plate_001.blend'
# www.blender.org
mtllib plate_001.mtl
o Cylinder.022
v 0.000002 -0.000005 -0.286563
v 0.000002 0.041164 -0.411950
v 0.183243 -0.000005 -0.219870
v 0.263839 0.041164 -0.315921
v 0.280742 -0.000005 -0.050994
v 0.404223 0.041164 -0.072768
v 0.246881 -0.000005 0.141044
v 0.355468 0.041164 0.203737
v 0.097502 -0.000005 0.266387
v 0.140386 0.041164 0.384212
v -0.097498 -0.000005 0.266387
v -0.140382 0.041164 0.384212
v -0.246877 -0.000005 0.141044
v -0.355464 0.041164 0.203737
v -0.280738 -0.000005 -0.050994
v -0.404219 0.041164 -0.072768
v -0.183238 -0.000005 -0.219870
v -0.263834 0.041164 -0.315921
v 0.149206 0.047052 -0.179307
v 0.000002 0.047052 -0.233613
v 0.228596 0.047052 -0.041800
v 0.201024 0.047052 0.114568
v 0.079392 0.047052 0.216628
v -0.079387 0.047052 0.216628
v -0.201019 0.047052 0.114568
v -0.228591 0.047052 -0.041800
v -0.149202 0.047052 -0.179307
v 0.263839 0.089288 -0.315921
v 0.000002 0.089288 -0.411950
v 0.404223 0.089288 -0.072768
v 0.355468 0.089288 0.203737
v 0.140386 0.089288 0.384212
v -0.140382 0.089288 0.384212
v -0.355464 0.089288 0.203737
v -0.404219 0.089288 -0.072768
v -0.263834 0.089288 -0.315921
vt 0.177847 0.686671
vt 0.175279 0.674688
vt 0.200425 0.677428
vt 0.195266 0.688679
vt 0.218775 0.694701
vt 0.208148 0.700634
vt 0.222698 0.720825
vt 0.210386 0.718281
vt 0.208622 0.745238
vt 0.200431 0.734213
vt 0.180146 0.754578
vt 0.181653 0.739941
vt 0.154490 0.739373
vt 0.164592 0.730693
vt 0.145201 0.713144
vt 0.157831 0.713329
vt 0.149785 0.743499
vt 0.139449 0.713283
vt 0.153996 0.688677
vt 0.163341 0.696272
vt 0.873709 0.897395
vt 0.765625 0.936734
vt 0.657541 0.897395
vt 0.600031 0.797784
vt 0.620004 0.684510
vt 0.708115 0.610577
vt 0.823135 0.610577
vt 0.911246 0.684510
vt 0.931219 0.797784
vt 0.179629 0.761360
vt 0.212730 0.750084
vt 0.228509 0.721781
vt 0.173858 0.669383
vt 0.202517 0.672543
vt 0.223566 0.692005
vt 0.149642 0.685430
vt 0.155823 0.591577
vt 0.224743 0.627005
vt 0.283593 0.660635
vt 0.317916 0.740320
vt 0.289565 0.851723
vt 0.159925 0.947485
vt 0.058750 0.822071
vt 0.058750 0.712673
vt 0.106526 0.651067
vn 0.1128 -0.9440 -0.3100
vn 0.2857 -0.9440 -0.1649
vn 0.3248 -0.9440 0.0573
vn 0.2120 -0.9440 0.2527
vn 0.0000 -0.9440 0.3298
vn -0.2120 -0.9440 0.2527
vn -0.3248 -0.9440 0.0573
vn -0.9848 0.0000 0.1736
vn -0.2857 -0.9440 -0.1649
vn -0.1128 -0.9440 -0.3100
vn 0.0000 -1.0000 0.0000
vn 0.0000 1.0000 -0.0000
vn -0.6428 0.0000 0.7660
vn 0.0000 0.0000 1.0000
vn 0.6428 0.0000 0.7660
vn 0.3420 0.0000 -0.9397
vn 0.9848 0.0000 0.1736
vn 0.8660 0.0000 -0.5000
vn -0.3420 0.0000 -0.9397
vn -0.8660 0.0000 -0.5000
vn -0.0836 0.9697 0.2297
vn -0.2116 0.9697 0.1222
vn -0.2407 0.9697 -0.0424
vn -0.1571 0.9697 -0.1872
vn 0.0000 0.9697 -0.2444
vn 0.1571 0.9697 -0.1872
vn 0.2407 0.9697 -0.0424
vn 0.2116 0.9697 0.1222
vn 0.0836 0.9697 0.2297
usemtl None
s off
f 1/1/1 2/2/1 4/3/1 3/4/1
f 3/4/2 4/3/2 6/5/2 5/6/2
f 5/6/3 6/5/3 8/7/3 7/8/3
f 7/8/4 8/7/4 10/9/4 9/10/4
f 9/10/5 10/9/5 12/11/5 11/12/5
f 11/12/6 12/11/6 14/13/6 13/14/6
f 13/14/7 14/13/7 16/15/7 15/16/7
f 16/15/8 14/13/8 34/17/8 35/18/8
f 15/16/9 16/15/9 18/19/9 17/20/9
f 17/20/10 18/19/10 2/2/10 1/1/10
f 1/1/11 3/4/11 5/6/11 7/8/11 9/10/11 11/12/11 13/14/11 15/16/11 17/20/11
f 19/21/12 20/22/12 27/23/12 26/24/12 25/25/12 24/26/12 23/27/12 22/28/12 21/29/12
f 14/13/13 12/11/13 33/30/13 34/17/13
f 12/11/14 10/9/14 32/31/14 33/30/14
f 10/9/15 8/7/15 31/32/15 32/31/15
f 4/3/16 2/2/16 29/33/16 28/34/16
f 8/7/17 6/5/17 30/35/17 31/32/17
f 6/5/18 4/3/18 28/34/18 30/35/18
f 2/2/19 18/19/19 36/36/19 29/33/19
f 18/19/20 16/15/20 35/18/20 36/36/20
f 20/37/21 19/38/21 28/34/21 29/33/21
f 19/38/22 21/39/22 30/35/22 28/34/22
f 21/39/23 22/40/23 31/32/23 30/35/23
f 22/40/24 23/41/24 32/31/24 31/32/24
f 23/41/25 24/42/25 33/30/25 32/31/25
f 24/42/26 25/43/26 34/17/26 33/30/26
f 25/43/27 26/44/27 35/18/27 34/17/27
f 26/44/28 27/45/28 36/36/28 35/18/28
f 27/45/29 20/37/29 29/33/29 36/36/29
