# Blender v2.79 (sub 0) OBJ File: 'rail_stone_001.blend'
# www.blender.org
mtllib rail_stone_001.mtl
o Cube.164_Cube.189
v 0.190371 0.002277 1.592631
v 0.190371 1.151645 1.592887
v -0.188442 0.002277 1.592631
v -0.188442 1.151645 1.592887
v 0.190371 0.000270 -1.365406
v 0.190371 2.915729 -1.365151
v -0.188442 0.000270 -1.365406
v -0.188442 2.915729 -1.365151
v 0.390396 1.093334 1.692282
v -0.388470 1.091284 1.691060
v -0.342224 2.981713 -1.475793
v 0.344151 2.981713 -1.475793
v -0.342224 3.153530 -1.373327
v 0.344151 3.153530 -1.373327
v -0.188442 0.000827 -0.625897
v -0.188442 0.001996 0.113612
v -0.188442 0.002318 0.853121
v -0.188442 1.592666 0.853377
v -0.188442 2.033687 0.113868
v -0.188442 2.474708 -0.625641
v 0.190371 0.002318 0.853121
v 0.190371 0.001996 0.113612
v 0.190371 0.000827 -0.625897
v 0.190371 2.474708 -0.625641
v 0.190371 2.033687 0.113868
v 0.190371 1.592666 0.853377
v -0.342224 1.564894 0.899945
v -0.342224 2.037167 0.108032
v -0.342224 2.509440 -0.683880
v 0.344151 2.509440 -0.683880
v 0.344151 2.037167 0.108032
v 0.344151 1.564894 0.899945
v -0.342224 1.724245 0.994977
v -0.342224 2.196518 0.203064
v -0.342224 2.681257 -0.581414
v 0.344151 2.681257 -0.581414
v 0.344151 2.196518 0.203064
v 0.344151 1.724245 0.994977
v -0.386801 2.038547 0.108855
v -0.386801 2.510820 -0.683057
v 0.388729 2.508569 -0.684400
v 0.388729 2.036296 0.107512
v -0.386801 2.277764 0.251517
v -0.386801 2.750037 -0.540396
v 0.388729 2.750037 -0.540396
v 0.388729 2.277764 0.251517
v -0.388470 1.291312 1.810350
v 0.390396 1.763320 1.018280
v -0.388470 1.764884 1.019213
v 0.390396 1.566346 0.900811
v -0.388470 1.565498 0.900305
v 0.390396 1.171238 1.738742
v 0.148136 1.292183 1.810870
v 0.390396 1.399457 1.630939
v -0.342224 1.804722 0.860032
v -0.342224 2.076092 0.404996
v -0.342224 1.901906 0.550628
v -0.258261 1.928689 0.652162
vt 0.038879 0.646300
vt 0.355653 0.646300
vt 0.355653 0.963075
vt 0.038879 0.963075
vt 0.038879 0.646300
vt 0.355653 0.646300
vt 0.355653 0.963075
vt 0.038879 0.963075
vt 0.038879 0.646300
vt 0.355653 0.646300
vt 0.355653 0.963075
vt 0.038879 0.963075
vt 0.038879 0.646300
vt 0.355653 0.646300
vt 0.355653 0.963075
vt 0.038879 0.963075
vt 0.355653 0.646300
vt 0.355653 0.963075
vt 0.038879 0.963075
vt 0.038879 0.646300
vt 0.355653 0.963075
vt 0.038879 0.963075
vt 0.038879 0.646300
vt 0.355653 0.646300
vt 0.355653 0.963075
vt 0.038879 0.963075
vt 0.197266 0.963075
vt 0.347901 0.853632
vt 0.290363 0.676550
vt 0.104168 0.676550
vt 0.046631 0.853632
vt 0.038879 0.646300
vt 0.355653 0.646300
vt 0.355653 0.963075
vt 0.038879 0.963075
vt 0.038879 0.646300
vt 0.355653 0.646300
vt 0.355653 0.963075
vt 0.038879 0.963075
vt 0.038879 0.646300
vt 0.355653 0.963075
vt 0.038879 0.963075
vt 0.038879 0.646300
vt 0.355653 0.646300
vt 0.355653 0.963075
vt 0.038879 0.963075
vt 0.038879 0.646300
vt 0.355653 0.963075
vt 0.038879 0.963075
vt 0.038879 0.646300
vt 0.355653 0.646300
vt 0.355653 0.963075
vt 0.038879 0.963075
vt 0.038879 0.646300
vt 0.355653 0.646300
vt 0.355653 0.963075
vt 0.038879 0.963075
vt 0.038879 0.646300
vt 0.355653 0.646300
vt 0.038879 0.963075
vt 0.197266 0.963075
vt 0.321098 0.903440
vt 0.351682 0.769443
vt 0.265987 0.661986
vt 0.128544 0.661986
vt 0.042850 0.769443
vt 0.073434 0.903440
vt 0.038879 0.646300
vt 0.355653 0.646300
vt 0.355653 0.963075
vt 0.038879 0.963075
vt 0.038879 0.646300
vt 0.355653 0.646300
vt 0.355653 0.963075
vt 0.038879 0.963075
vt 0.038879 0.646300
vt 0.355653 0.646300
vt 0.355653 0.963075
vt 0.038879 0.963075
vt 0.038879 0.646300
vt 0.355653 0.646300
vt 0.355653 0.963075
vt 0.038879 0.646300
vt 0.355653 0.963075
vt 0.038879 0.963075
vt 0.197266 0.963075
vt 0.321098 0.903440
vt 0.351682 0.769443
vt 0.265987 0.661986
vt 0.128544 0.661986
vt 0.042850 0.769443
vt 0.073434 0.903440
vt 0.038879 0.646300
vt 0.355653 0.963075
vt 0.038879 0.963075
vt 0.038879 0.646300
vt 0.355653 0.646300
vt 0.355653 0.963075
vt 0.038879 0.963075
vt 0.038879 0.646300
vt 0.355653 0.646300
vt 0.355653 0.963075
vt 0.038879 0.963075
vt 0.038879 0.646300
vt 0.355653 0.646300
vt 0.355653 0.963075
vt 0.038879 0.963075
vt 0.038879 0.646300
vt 0.355653 0.646300
vt 0.355653 0.963075
vt 0.038879 0.646300
vt 0.355653 0.646300
vt 0.355653 0.963075
vt 0.038879 0.963075
vt 0.038879 0.646300
vt 0.355653 0.646300
vt 0.355653 0.963075
vt 0.038879 0.963075
vt 0.038879 0.646300
vt 0.355653 0.963075
vt 0.038879 0.646300
vt 0.355653 0.963075
vt 0.038879 0.646300
vt 0.355653 0.963075
vt 0.355653 0.963075
vt 0.038879 0.963075
vt 0.355653 0.963075
vt 0.038879 0.963075
vt 0.355653 0.963075
vt 0.038879 0.963075
vt 0.038879 0.646300
vt 0.355653 0.646300
vt 0.355653 0.963075
vt 0.038879 0.963075
vt 0.038879 0.646300
vt 0.355653 0.646300
vt 0.038879 0.646300
vt 0.355653 0.646300
vt 0.038879 0.963075
vt 0.355653 0.646300
vt 0.355653 0.963075
vt 0.038879 0.646300
vt 0.355653 0.646300
vt 0.355653 0.963075
vt 0.038879 0.963075
vt 0.197266 0.963075
vt 0.347901 0.853632
vt 0.290363 0.676550
vt 0.104168 0.676550
vt 0.046631 0.853632
vt 0.347901 0.853632
vt 0.290363 0.676550
vt 0.104168 0.676550
vt 0.046631 0.853632
vt 0.038879 0.646300
vt 0.355653 0.646300
vt 0.355653 0.963075
vt 0.038879 0.963075
vt 0.038879 0.646300
vt 0.355653 0.646300
vt 0.355653 0.963075
vt 0.038879 0.963075
vt 0.038879 0.646300
vt 0.355653 0.646300
vt 0.038879 0.963075
vt 0.355653 0.646300
vt 0.355653 0.963075
vt 0.038879 0.646300
vt 0.355653 0.646300
vt 0.038879 0.646300
vt 0.355653 0.646300
vt 0.038879 0.646300
vt 0.355653 0.646300
vt 0.355653 0.963075
vt 0.038879 0.646300
vt 0.355653 0.646300
vt 0.355653 0.963075
vt 0.038879 0.646300
vt 0.355653 0.646300
vt 0.355653 0.963075
vn 0.0000 -0.0002 1.0000
vn -1.0000 -0.0000 0.0000
vn 0.0000 0.0001 -1.0000
vn 1.0000 -0.0000 -0.0000
vn 0.0000 -1.0000 0.0008
vn 0.0000 -0.8589 -0.5122
vn 0.0040 -0.8585 -0.5129
vn 0.0000 0.5122 -0.8589
vn 0.0021 -0.8572 -0.5149
vn 0.0021 -0.8591 -0.5118
vn 0.0000 0.8589 0.5122
vn -0.0360 -0.8583 -0.5119
vn 0.0000 -0.5122 0.8589
vn 0.0000 -1.0000 -0.0001
vn 0.0000 -1.0000 0.0004
vn 0.0000 -1.0000 0.0016
vn -0.0228 -0.8586 -0.5121
vn 0.0004 0.8589 0.5121
vn 0.0365 -0.8578 -0.5127
vn -0.0152 -0.8575 -0.5142
vn 0.4345 0.3847 0.8144
vn -0.5547 0.7938 0.2493
vn -0.7495 0.4246 0.5078
usemtl None
s off
f 1/1/1 2/2/1 4/3/1 3/4/1
f 15/5/2 20/6/2 8/7/2 7/8/2
f 7/9/3 8/10/3 6/11/3 5/12/3
f 21/13/4 26/14/4 2/15/4 1/16/4
f 15/5/5 7/17/5 5/18/5 23/19/5
f 6/20/6 8/10/6 11/21/6 12/22/6
f 18/23/7 4/24/7 10/25/7 27/26/7
f 9/27/4 50/28/4 48/29/4 54/30/4 52/31/4
f 12/32/8 11/33/8 13/34/8 14/35/8
f 30/36/4 12/37/4 14/38/4 36/39/4
f 4/40/9 2/2/9 9/41/9 10/42/9
f 24/43/6 6/44/6 12/45/6 30/46/6
f 2/47/10 26/14/10 32/48/10 9/49/10
f 26/50/6 25/51/6 31/52/6 32/53/6
f 25/54/6 24/55/6 30/56/6 31/57/6
f 35/58/11 36/59/11 14/38/11 13/60/11
f 33/61/11 38/62/11 37/63/11 34/64/11 56/65/11 58/66/11 55/67/11
f 29/68/12 28/69/12 39/70/12 40/71/12
f 32/72/4 31/73/4 37/74/4 38/75/4
f 34/76/13 37/77/13 46/78/13 43/79/13
f 11/80/2 29/81/2 35/82/2 13/60/2
f 37/83/13 31/73/13 42/84/13 46/85/13
f 28/86/2 27/87/2 33/88/2 55/89/2 57/90/2 56/91/2 34/92/2
f 8/93/6 20/6/6 29/94/6 11/95/6
f 20/96/6 19/97/6 28/98/6 29/99/6
f 19/100/6 18/101/6 27/102/6 28/103/6
f 28/104/13 34/105/13 43/106/13 39/107/13
f 3/108/14 17/109/14 21/110/14 1/16/14
f 17/111/15 16/112/15 22/113/15 21/114/15
f 16/115/16 15/116/16 23/117/16 22/118/16
f 5/119/4 6/44/4 24/120/4 23/19/4
f 23/121/4 24/55/4 25/122/4 22/118/4
f 22/123/4 25/51/4 26/124/4 21/114/4
f 3/108/2 4/24/2 18/125/2 17/126/2
f 17/111/2 18/101/2 19/127/2 16/128/2
f 16/115/2 19/97/2 20/129/2 15/130/2
f 43/131/11 46/132/11 45/133/11 44/134/11
f 42/135/4 41/136/4 45/133/4 46/85/4
f 40/137/2 39/138/2 43/106/2 44/134/2
f 30/36/8 36/59/8 45/133/8 41/139/8
f 35/58/8 44/140/8 45/133/8 36/39/8
f 35/58/8 29/81/8 40/141/8 44/134/8
f 31/142/17 30/143/17 41/144/17 42/145/17
f 47/146/18 53/147/18 54/148/18 48/149/18 49/150/18
f 9/27/13 52/151/13 53/152/13 47/153/13 10/154/13
f 38/155/8 33/156/8 49/157/8 48/158/8
f 33/159/8 27/160/8 51/161/8 49/162/8
f 10/163/2 47/164/2 49/157/2 51/165/2
f 38/155/8 48/166/8 50/167/8 32/53/8
f 9/168/19 32/169/19 50/167/19
f 27/170/20 10/171/20 51/161/20
f 53/172/21 52/173/21 54/174/21
f 57/175/22 55/176/22 58/177/22
f 58/178/23 56/179/23 57/180/23
