# Blender v2.79 (sub 0) OBJ File: 'rock_small_002.blend'
# www.blender.org
mtllib rock_small_002.mtl
o Icosphere.016
v 0.506379 0.174004 1.713593
v -0.876674 0.224160 1.831645
v -1.758167 0.129829 0.714529
v 1.298554 0.022602 -0.567305
v -0.345659 0.979433 1.834111
v 1.103699 0.519293 -1.867396
v 2.028407 0.886895 -0.690931
v -1.076652 1.109902 0.548933
v -0.383637 -0.009747 1.686081
v -0.293574 0.148171 1.944534
v -0.235098 0.047890 0.570022
v 0.408464 -0.064443 -0.492355
v 0.820547 -0.043977 -0.657531
v -0.995111 0.005032 1.043408
v -1.628368 0.177316 1.088326
v -1.069983 -0.034290 -1.056899
v 1.545109 0.360702 0.368674
v 0.900724 0.081290 1.225201
v 1.692210 0.290828 -1.019382
v 1.818853 0.322988 -0.788721
v 2.011438 0.597875 -0.763395
v -0.550633 0.409150 2.021831
v 0.238351 0.532282 1.971568
v -0.059321 0.802430 1.997294
v -1.972741 0.630450 1.122234
v -1.253902 0.522899 1.726465
v -1.877288 0.953758 1.304770
v -1.845618 0.456358 -1.026464
v -1.715556 0.217057 -1.070479
v -1.488296 0.053307 -1.012084
v -2.142481 0.539322 0.207194
v 1.151750 0.199328 -1.358885
v -1.228274 0.114135 -1.390839
v 0.050290 0.250960 -1.582723
v -2.193554 0.841943 0.687730
v -2.000455 0.713200 -0.781761
v -1.667008 0.671191 -1.208754
v -1.128508 0.662195 -1.597207
v -0.085528 0.588568 -1.716891
v 1.550969 0.845486 -1.925910
v -0.585401 1.063793 1.451057
v 1.449391 1.167488 -0.889723
v 0.398120 1.104593 0.687636
v -1.849576 1.027423 0.942894
v -1.560425 1.067624 0.298195
v 0.663034 1.032274 -1.458649
v 0.944541 0.886096 -1.875824
v 1.426923 1.215661 -1.535177
v 2.024914 0.956156 -1.103626
v 1.639133 1.076130 -1.844300
v -1.263190 0.995574 -0.626812
v -0.467646 0.795030 -1.488279
v -1.764996 0.846880 -0.803473
v -2.068879 0.958737 0.134987
v 0.082557 0.982402 1.694116
v 1.583632 0.833633 -0.075229
v 1.962217 0.835252 -1.387792
v 1.702945 0.643809 -1.635855
v -0.877054 0.370996 -1.629542
v -1.498297 0.417539 -1.468773
v -2.024252 0.373960 0.737828
v -1.134665 0.749248 1.759908
v -0.589896 0.780363 1.942320
v 0.561095 0.808691 1.606417
v 0.923868 0.502713 1.356492
v 0.286137 -0.017395 -1.231462
v -1.943421 0.251250 0.403295
v -1.679130 0.375400 1.270678
v 1.324477 -0.004448 0.390035
v -0.722993 0.061951 -0.046246
v -1.547599 0.081398 0.052080
v -0.791673 0.053291 1.635968
v 0.964808 -0.112207 0.427818
v 0.113264 -0.040156 1.359423
v 0.263464 -0.005016 1.608253
vt 0.027566 0.660379
vt 0.339621 0.660379
vt 0.339621 0.972434
vt 0.027566 0.660379
vt 0.339621 0.660379
vt 0.339621 0.972434
vt 0.339621 0.660379
vt 0.339621 0.972434
vt 0.027566 0.660379
vt 0.339621 0.660379
vt 0.339621 0.972434
vt 0.027566 0.660379
vt 0.339621 0.660379
vt 0.339621 0.972434
vt 0.027566 0.660379
vt 0.339621 0.660379
vt 0.339621 0.972434
vt 0.339621 0.660379
vt 0.339621 0.972434
vt 0.339621 0.660379
vt 0.339621 0.972434
vt 0.339621 0.660379
vt 0.339621 0.972434
vt 0.027566 0.660379
vt 0.339621 0.660379
vt 0.339621 0.972434
vt 0.027566 0.660379
vt 0.339621 0.660379
vt 0.339621 0.972434
vt 0.027566 0.660379
vt 0.339621 0.660379
vt 0.339621 0.972434
vt 0.027566 0.660379
vt 0.339621 0.660379
vt 0.339621 0.972434
vt 0.027566 0.660379
vt 0.339621 0.972434
vt 0.027566 0.660379
vt 0.339621 0.660379
vt 0.339621 0.972434
vt 0.027566 0.660379
vt 0.339621 0.660379
vt 0.339621 0.972434
vt 0.027566 0.660379
vt 0.339621 0.660379
vt 0.339621 0.660379
vt 0.339621 0.972434
vt 0.027566 0.660379
vt 0.339621 0.660379
vt 0.027566 0.660379
vt 0.339621 0.660379
vt 0.027566 0.660379
vt 0.339621 0.660379
vt 0.027566 0.660379
vt 0.339621 0.660379
vt 0.027566 0.660379
vt 0.339621 0.972434
vt 0.339621 0.972434
vt 0.027566 0.660379
vt 0.339621 0.660379
vt 0.339621 0.972434
vt 0.027566 0.660379
vt 0.339621 0.660379
vt 0.339621 0.972434
vt 0.027566 0.660379
vt 0.339621 0.660379
vt 0.027566 0.660379
vt 0.339621 0.660379
vt 0.027566 0.660379
vt 0.339621 0.660379
vt 0.027566 0.660379
vt 0.339621 0.660379
vt 0.027566 0.660379
vt 0.027566 0.660379
vt 0.339621 0.972434
vt 0.027566 0.660379
vt 0.339621 0.660379
vt 0.339621 0.972434
vt 0.027566 0.660379
vt 0.339621 0.660379
vt 0.027566 0.660379
vt 0.339621 0.660379
vt 0.027566 0.660379
vt 0.339621 0.660379
vt 0.027566 0.660379
vt 0.339621 0.660379
vt 0.027566 0.660379
vt 0.339621 0.660379
vt 0.027566 0.660379
vt 0.339621 0.660379
vt 0.339621 0.660379
vt 0.339621 0.972434
vt 0.027566 0.660379
vt 0.339621 0.972434
vt 0.027566 0.660379
vt 0.339621 0.972434
vt 0.339621 0.972434
vt 0.339621 0.660379
vt 0.339621 0.972434
vt 0.027566 0.660379
vt 0.339621 0.660379
vt 0.027566 0.660379
vt 0.339621 0.972434
vt 0.027566 0.660379
vt 0.339621 0.972434
vt 0.027566 0.660379
vt 0.339621 0.972434
vt 0.027566 0.660379
vt 0.339621 0.660379
vt 0.339621 0.972434
vt 0.339621 0.972434
vt 0.027566 0.660379
vt 0.339621 0.660379
vt 0.339621 0.972434
vt 0.339621 0.972434
vt 0.027566 0.660379
vt 0.027566 0.660379
vt 0.339621 0.660379
vt 0.339621 0.972434
vt 0.027566 0.660379
vt 0.339621 0.660379
vt 0.339621 0.972434
vt 0.027566 0.660379
vt 0.339621 0.660379
vt 0.339621 0.972434
vt 0.027566 0.660379
vt 0.027566 0.660379
vt 0.339621 0.972434
vt 0.027566 0.660379
vt 0.339621 0.972434
vt 0.027566 0.660379
vt 0.339621 0.660379
vt 0.339621 0.972434
vt 0.339621 0.972434
vt 0.027566 0.660379
vt 0.339621 0.660379
vt 0.027566 0.660379
vt 0.339621 0.660379
vt 0.339621 0.972434
vt 0.339621 0.972434
vt 0.027566 0.660379
vt 0.027566 0.660379
vt 0.027566 0.660379
vt 0.339621 0.972434
vt 0.339621 0.660379
vt 0.339621 0.972434
vt 0.339621 0.972434
vt 0.339621 0.972434
vt 0.027566 0.660379
vt 0.339621 0.660379
vt 0.339621 0.972434
vt 0.027566 0.660379
vt 0.339621 0.660379
vt 0.027566 0.660379
vt 0.339621 0.660379
vt 0.027566 0.660379
vt 0.339621 0.660379
vt 0.339621 0.660379
vt 0.339621 0.972434
vt 0.027566 0.660379
vt 0.339621 0.660379
vt 0.339621 0.972434
vt 0.339621 0.660379
vt 0.339621 0.660379
vt 0.339621 0.972434
vt 0.339621 0.660379
vt 0.339621 0.972434
vt 0.027566 0.660379
vt 0.339621 0.660379
vt 0.339621 0.660379
vt 0.339621 0.972434
vt 0.027566 0.660379
vt 0.339621 0.660379
vt 0.339621 0.972434
vt 0.027566 0.660379
vt 0.339621 0.660379
vt 0.027566 0.660379
vt 0.027566 0.660379
vt 0.339621 0.660379
vt 0.339621 0.660379
vt 0.027566 0.660379
vt 0.339621 0.660379
vt 0.339621 0.660379
vt 0.339621 0.660379
vt 0.339621 0.972434
vt 0.027566 0.660379
vt 0.339621 0.660379
vt 0.339621 0.660379
vt 0.339621 0.972434
vt 0.339621 0.660379
vt 0.339621 0.972434
vt 0.027566 0.660379
vt 0.339621 0.972434
vt 0.027566 0.660379
vt 0.339621 0.660379
vt 0.339621 0.972434
vt 0.339621 0.972434
vt 0.027566 0.660379
vt 0.339621 0.660379
vt 0.339621 0.972434
vt 0.339621 0.660379
vt 0.339621 0.972434
vt 0.339621 0.972434
vt 0.339621 0.972434
vt 0.027566 0.660379
vt 0.027566 0.660379
vt 0.339621 0.660379
vt 0.339621 0.972434
vt 0.027566 0.660379
vt 0.339621 0.972434
vt 0.339621 0.972434
vt 0.339621 0.972434
vt 0.027566 0.660379
vn -0.0102 -0.9943 -0.1064
vn 0.3866 -0.7973 0.4635
vn 0.0062 -0.9968 -0.0803
vn -0.2265 -0.4750 0.8503
vn -0.6282 -0.7141 0.3089
vn 0.1791 -0.9526 -0.2459
vn -0.4067 -0.1997 0.8915
vn -0.6668 -0.7372 0.1093
vn 0.3191 -0.9107 -0.2625
vn 0.0530 0.9817 0.1830
vn -0.1297 -0.0790 -0.9884
vn 0.0494 0.9961 0.0726
vn 0.3892 0.9090 0.1493
vn -0.0011 0.9988 0.0494
vn -0.2497 0.9348 -0.2525
vn 0.3627 0.9302 0.0568
vn 0.4510 0.8878 -0.0911
vn -0.2475 0.8080 -0.5347
vn -0.2166 0.8665 -0.4498
vn 0.8296 0.4240 -0.3634
vn 0.7907 -0.0878 -0.6059
vn -0.0537 0.3513 -0.9347
vn -0.0862 -0.0602 -0.9945
vn -0.0568 0.9945 -0.0877
vn -0.1748 0.8865 -0.4285
vn -0.0401 0.9951 -0.0904
vn -0.1806 0.9080 -0.3781
vn -0.1494 0.9236 -0.3530
vn -0.2628 0.4555 -0.8506
vn -0.0293 0.7170 -0.6965
vn -0.1345 0.9359 -0.3256
vn -0.3031 0.8454 -0.4398
vn -0.4730 0.7609 -0.4442
vn -0.2188 0.9581 -0.1850
vn -0.0967 0.9951 0.0187
vn -0.1676 0.9773 -0.1300
vn -0.2005 0.9793 -0.0288
vn -0.4948 0.8295 -0.2591
vn -0.9430 0.2970 -0.1499
vn -0.5110 0.8571 0.0658
vn -0.5424 0.8304 0.1275
vn -0.0628 0.9944 0.0850
vn -0.1047 0.9761 0.1907
vn -0.1130 0.9532 0.2806
vn -0.0013 0.9987 0.0517
vn 0.0689 0.9875 0.1415
vn 0.3498 0.9106 0.2202
vn 0.3887 0.8732 0.2939
vn 0.3253 0.8926 0.3122
vn 0.3697 0.8981 0.2381
vn 0.9984 -0.0542 -0.0175
vn 0.8007 -0.5363 -0.2670
vn 0.9749 -0.1716 -0.1421
vn 0.7411 -0.5875 -0.3250
vn 0.7424 -0.5868 -0.3231
vn 0.7623 -0.2709 -0.5878
vn 0.4148 -0.7927 -0.4467
vn 0.3619 -0.7732 -0.5207
vn 0.3878 -0.6491 -0.6545
vn -0.1380 -0.4132 -0.9001
vn -0.0452 -0.6462 -0.7618
vn -0.0009 -0.3696 -0.9292
vn -0.1131 0.0126 -0.9935
vn -0.2553 -0.4474 -0.8571
vn -0.2570 -0.1153 -0.9595
vn -0.5292 0.4097 -0.7430
vn -0.2264 -0.9254 -0.3040
vn -0.4504 -0.7800 -0.4345
vn -0.5198 -0.6149 -0.5930
vn -0.7611 -0.3087 -0.5705
vn -0.7758 0.1192 -0.6196
vn -0.7766 0.1210 -0.6183
vn -0.8251 -0.5649 0.0078
vn -0.9899 0.0459 -0.1341
vn -0.9386 -0.3281 0.1069
vn -0.9024 -0.2926 0.3162
vn -0.8903 0.0058 0.4553
vn -0.4914 0.1317 0.8609
vn -0.2573 0.6523 0.7130
vn -0.2648 0.6907 0.6730
vn -0.3778 0.0626 0.9238
vn -0.3216 0.1657 0.9323
vn 0.1783 0.8072 0.5626
vn 0.4730 0.4490 0.7580
vn 0.6665 -0.0376 0.7446
vn 0.3683 0.7136 0.5959
vn 0.6603 0.1892 0.7268
vn 0.7361 0.5011 0.4550
vn 0.7329 -0.2387 0.6371
vn 0.8129 -0.2135 0.5419
vn 0.8112 0.3637 0.4579
vn 0.7023 0.4560 0.5467
vn 0.1297 -0.8337 -0.5368
vn 0.0320 -0.7837 -0.6203
vn -0.0055 -0.7964 -0.6047
vn -0.0388 -0.9198 -0.3904
vn 0.2036 -0.9508 -0.2337
vn 0.0226 -0.9975 -0.0672
vn 0.0042 -0.9979 -0.0642
vn -0.9110 -0.3636 -0.1948
vn -0.8777 -0.4437 -0.1814
vn -0.5714 -0.8177 -0.0694
vn -0.7825 -0.6134 -0.1068
vn -0.2035 -0.9790 0.0145
vn -0.3925 -0.9197 0.0024
vn -0.4510 -0.8891 -0.0784
vn -0.7036 -0.5439 0.4572
vn -0.6467 -0.2212 0.7300
vn -0.6364 -0.3257 0.6992
vn -0.6815 -0.5825 0.4430
vn -0.5145 -0.6484 0.5611
vn -0.5631 -0.4723 0.6782
vn -0.1080 0.5738 0.8119
vn -0.1091 0.1971 0.9743
vn 0.0669 -0.0213 0.9975
vn 0.0930 -0.1975 0.9759
vn 0.2636 -0.4260 0.8655
vn 0.9254 -0.1424 0.3513
vn 0.7793 -0.4451 0.4411
vn 0.8367 -0.4914 0.2417
vn 0.7987 -0.5757 0.1751
vn 0.4875 -0.8723 -0.0378
vn 0.4549 -0.8815 -0.1269
vn -0.0915 -0.9946 0.0497
vn -0.0647 -0.9911 0.1166
vn -0.0117 -0.9950 0.0988
vn -0.0240 -0.9997 -0.0038
vn -0.1691 -0.9854 0.0183
vn -0.2243 -0.9621 0.1554
vn -0.2801 -0.9353 0.2161
vn -0.4285 -0.7646 0.4815
vn -0.1677 -0.9763 0.1371
vn 0.2835 -0.9583 -0.0348
vn 0.3018 -0.9206 0.2477
vn 0.1527 -0.9848 -0.0822
vn 0.0232 -0.9976 -0.0658
vn -0.0848 -0.9964 -0.0004
vn -0.2031 -0.9790 -0.0195
vn 0.2746 -0.9291 0.2475
vn 0.0418 -0.9925 0.1149
vn -0.2154 -0.7800 0.5875
vn -0.0469 -0.9987 0.0216
vn -0.1932 -0.8058 0.5597
vn 0.0225 -0.9917 0.1265
vn 0.0668 -0.8616 0.5032
vn 0.2192 -0.6984 0.6813
usemtl None
s off
f 11/1/1 74/2/1 14/3/1
f 1/4/2 75/5/2 18/6/2
f 11/1/3 14/7/3 71/8/3
f 2/9/4 10/10/4 22/11/4
f 3/12/5 15/13/5 61/14/5
f 4/15/6 13/16/6 32/17/6
f 2/9/7 22/18/7 26/19/7
f 3/12/8 61/20/8 67/21/8
f 4/15/9 32/22/9 19/23/9
f 5/24/10 55/25/10 41/26/10
f 6/27/11 39/28/11 47/29/11
f 42/30/12 48/31/12 43/32/12
f 7/33/13 49/34/13 42/35/13
f 43/36/14 48/31/14 8/37/14
f 48/38/15 46/39/15 8/37/15
f 42/30/16 49/34/16 48/40/16
f 49/41/17 50/42/17 48/40/17
f 48/38/18 50/42/18 46/43/18
f 50/44/19 47/45/19 46/43/19
f 49/41/20 57/46/20 50/47/20
f 57/48/21 40/49/21 50/47/21
f 50/44/22 40/49/22 47/29/22
f 40/50/23 6/51/23 47/29/23
f 46/52/24 51/53/24 8/37/24
f 47/54/25 52/55/25 46/43/25
f 8/56/26 51/53/26 45/57/26
f 46/52/27 52/55/27 51/58/27
f 52/59/28 53/60/28 51/58/28
f 47/54/29 39/28/29 52/61/29
f 39/62/30 38/63/30 52/61/30
f 52/59/31 38/63/31 53/64/31
f 38/65/32 37/66/32 53/64/32
f 37/67/33 36/68/33 53/64/33
f 53/69/34 54/70/34 51/58/34
f 45/71/35 44/72/35 8/37/35
f 51/73/36 54/70/36 45/57/36
f 54/74/37 44/72/37 45/57/37
f 53/69/38 36/68/38 54/75/38
f 36/76/39 35/77/39 54/75/39
f 54/74/40 35/77/40 44/78/40
f 35/79/41 27/80/41 44/78/41
f 44/81/42 41/82/42 8/37/42
f 44/81/43 27/80/43 41/26/43
f 27/83/44 5/84/44 41/26/44
f 41/85/45 43/86/45 8/37/45
f 41/85/46 55/25/46 43/32/46
f 55/87/47 56/88/47 43/32/47
f 43/36/48 56/88/48 42/35/48
f 56/89/49 7/90/49 42/35/49
f 55/87/50 64/91/50 56/92/50
f 21/93/51 49/34/51 7/94/51
f 20/95/52 57/46/52 21/96/52
f 21/93/53 57/46/53 49/97/53
f 20/95/54 19/98/54 57/99/54
f 19/100/55 58/101/55 57/99/55
f 58/102/56 40/49/56 57/99/56
f 19/100/57 32/22/57 58/103/57
f 32/104/58 6/51/58 58/103/58
f 58/102/59 6/51/59 40/105/59
f 34/106/60 39/28/60 6/107/60
f 33/108/61 59/109/61 34/110/61
f 34/106/62 59/109/62 39/111/62
f 59/112/63 38/63/63 39/111/63
f 33/108/64 60/113/64 59/114/64
f 59/112/65 60/113/65 38/115/65
f 60/116/66 37/66/66 38/115/66
f 16/117/67 30/118/67 33/119/67
f 30/120/68 29/121/68 33/119/68
f 33/108/69 29/121/69 60/122/69
f 29/123/70 28/124/70 60/122/70
f 60/116/71 28/124/71 37/125/71
f 28/126/72 36/68/72 37/125/72
f 67/127/73 61/20/73 31/128/73
f 31/129/74 35/77/74 36/130/74
f 61/131/75 35/77/75 31/128/75
f 61/131/76 25/132/76 35/133/76
f 35/79/77 25/132/77 27/134/77
f 26/135/78 62/136/78 27/134/78
f 62/137/79 5/84/79 27/134/79
f 62/137/80 63/138/80 5/139/80
f 26/135/81 22/18/81 62/140/81
f 22/141/82 63/138/82 62/140/82
f 24/142/83 55/25/83 5/139/83
f 23/143/84 64/91/84 24/144/84
f 1/4/85 65/145/85 23/146/85
f 24/142/86 64/91/86 55/147/86
f 23/143/87 65/145/87 64/148/87
f 65/149/88 56/88/88 64/148/88
f 1/4/89 18/150/89 65/151/89
f 18/152/90 17/153/90 65/151/90
f 65/149/91 17/153/91 56/92/91
f 17/154/92 7/90/92 56/92/92
f 32/104/93 66/155/93 6/107/93
f 6/27/94 66/155/94 34/110/94
f 66/156/95 33/157/95 34/110/95
f 66/156/96 16/158/96 33/119/96
f 32/104/97 13/16/97 66/159/97
f 13/160/98 12/161/98 66/159/98
f 66/156/99 12/161/99 16/162/99
f 28/126/100 31/163/100 36/130/100
f 28/126/101 29/121/101 31/128/101
f 30/120/102 67/164/102 29/165/102
f 29/123/103 67/164/103 31/128/103
f 16/117/104 71/166/104 30/167/104
f 30/120/105 71/166/105 67/21/105
f 71/168/106 3/169/106 67/21/106
f 61/131/107 68/170/107 25/171/107
f 25/172/108 26/173/108 27/134/108
f 25/172/109 68/170/109 26/19/109
f 61/131/110 15/13/110 68/174/110
f 15/175/111 2/176/111 68/174/111
f 68/177/112 2/176/112 26/19/112
f 63/178/113 24/179/113 5/139/113
f 63/178/114 22/18/114 24/144/114
f 22/141/115 23/180/115 24/144/115
f 22/141/116 10/10/116 23/146/116
f 10/181/117 1/182/117 23/146/117
f 17/154/118 21/183/118 7/94/118
f 18/152/119 69/184/119 17/185/119
f 17/154/120 69/184/120 21/96/120
f 69/186/121 20/187/121 21/96/121
f 69/186/122 4/188/122 20/189/122
f 20/95/123 4/188/123 19/23/123
f 11/1/124 70/190/124 12/191/124
f 70/192/125 16/158/125 12/191/125
f 70/192/126 71/166/126 16/162/126
f 11/1/127 71/166/127 70/193/127
f 14/194/128 3/169/128 71/8/128
f 14/194/129 72/195/129 3/196/129
f 3/12/130 72/195/130 15/197/130
f 72/198/131 2/176/131 15/197/131
f 14/194/132 9/199/132 72/200/132
f 69/186/133 73/201/133 4/202/133
f 18/152/134 73/201/134 69/203/134
f 4/15/135 73/201/135 13/204/135
f 73/205/136 12/161/136 13/204/136
f 73/205/137 74/2/137 12/191/137
f 74/206/138 11/207/138 12/191/138
f 18/152/139 75/5/139 73/208/139
f 75/209/140 74/2/140 73/208/140
f 72/198/141 10/10/141 2/210/141
f 14/194/142 74/2/142 9/211/142
f 72/198/143 9/199/143 10/212/143
f 74/206/144 75/5/144 9/211/144
f 9/213/145 75/5/145 10/212/145
f 75/209/146 1/182/146 10/212/146
