# Blender v2.79 (sub 0) OBJ File: 'rock_small_003.blend'
# www.blender.org
mtllib rock_small_003.mtl
o Icosphere.017
v -1.137601 -0.090766 0.433761
v -0.070820 0.055053 -0.855008
v 0.781444 0.572150 1.219543
v 1.067390 0.545365 -0.095662
v -0.144139 1.897517 -0.885667
v 0.100067 -0.336603 0.494544
v 0.326602 -0.140728 1.127723
v 0.530227 -0.328144 -0.126618
v 0.655830 -0.108913 -0.592045
v -0.905808 -0.093520 0.921314
v -0.388516 0.054222 -0.640507
v 0.995494 0.052965 0.275810
v 1.082199 0.767671 -0.700524
v 0.074348 0.304567 1.568572
v 1.035221 0.062641 0.696727
v 0.770584 0.153480 1.152065
v 0.793220 0.318107 1.237911
v -0.847813 0.525780 1.197910
v -1.182614 0.323904 0.936813
v -1.277505 0.116721 0.726280
v -0.241749 0.077783 1.592921
v -1.276761 0.216902 0.266467
v -0.797448 0.684713 -0.589337
v 0.587825 0.729846 -1.120869
v 0.558547 0.211988 -0.891389
v -0.176171 0.243388 -0.965687
v 0.002864 0.740216 -1.112965
v 1.173244 0.317557 0.455562
v 1.076454 0.302918 0.906440
v 0.434627 0.655919 1.278007
v 0.064262 0.563178 1.436412
v -0.636895 0.679964 1.171191
v -0.885365 0.870892 0.133518
v -0.736733 0.375498 -0.661534
v -0.250432 1.199912 -1.255566
v 0.145492 1.114629 -1.199017
v 0.905883 1.031296 -0.901166
v 0.203643 1.250086 0.151256
v 0.751876 1.006719 0.464153
v 0.971019 0.700605 0.816860
v 0.996242 1.045953 -0.670045
v 0.538780 1.769102 -0.880231
v 0.302230 1.877583 -0.691048
v -0.189980 1.250463 -0.073064
v -0.775933 0.874967 0.689388
v -0.450852 1.663139 -1.060380
v 0.118312 1.967525 -1.009152
v 0.280086 1.789402 -1.219342
v 0.585140 1.375889 -0.986607
v -0.136956 1.865155 -1.204610
v -0.014016 1.635978 -1.349515
v -0.414010 1.570091 -1.268403
v -0.457345 1.391418 -0.622613
v -0.645291 1.057680 -0.570481
v -0.535576 1.083867 0.060535
v 0.000163 1.095878 0.862583
v 0.659122 0.924013 0.904792
v 0.487293 1.346997 -0.073102
v 0.979362 0.851122 0.109199
v 0.928996 0.464241 -0.781686
v 0.839671 0.822911 -1.065152
v -0.494057 0.295444 -0.833253
v -1.178227 0.661347 0.206069
v -1.363579 0.393352 0.564590
v -1.189908 0.628192 0.669082
v -0.278168 0.340464 1.574367
v 0.196803 0.066949 -0.919530
v -0.792668 0.199586 -0.490025
v -0.751958 0.295268 1.378074
v -0.927090 0.088485 1.177406
v -0.230271 -0.032859 1.518848
v 1.038558 0.373773 -0.403111
v 0.871627 -0.060437 -0.287350
v 0.337676 -0.165234 -0.619080
v -0.794903 -0.188190 0.459110
v -0.236142 -0.247737 1.023616
v 0.715766 -0.280247 -0.065476
v 0.307754 -0.320704 0.812316
v 0.532543 -0.366747 0.263862
vt 0.035197 0.699260
vt 0.300740 0.699260
vt 0.300740 0.964803
vt 0.035197 0.699260
vt 0.300740 0.699260
vt 0.300740 0.964803
vt 0.035197 0.699260
vt 0.300740 0.964803
vt 0.035197 0.699260
vt 0.300740 0.699260
vt 0.300740 0.964803
vt 0.300740 0.699260
vt 0.300740 0.964803
vt 0.300740 0.699260
vt 0.300740 0.964803
vt 0.035197 0.699260
vt 0.300740 0.699260
vt 0.300740 0.964803
vt 0.035197 0.699260
vt 0.300740 0.699260
vt 0.300740 0.964803
vt 0.300740 0.699260
vt 0.300740 0.964803
vt 0.035197 0.699260
vt 0.300740 0.699260
vt 0.035197 0.699260
vt 0.300740 0.699260
vt 0.300740 0.964803
vt 0.300740 0.964803
vt 0.300740 0.699260
vt 0.300740 0.964803
vt 0.035197 0.699260
vt 0.300740 0.699260
vt 0.035197 0.699260
vt 0.300740 0.699260
vt 0.035197 0.699260
vt 0.300740 0.699260
vt 0.035197 0.699260
vt 0.300740 0.699260
vt 0.035197 0.699260
vt 0.035197 0.699260
vt 0.300740 0.699260
vt 0.300740 0.964803
vt 0.035197 0.699260
vt 0.300740 0.699260
vt 0.300740 0.964803
vt 0.300740 0.964803
vt 0.035197 0.699260
vt 0.300740 0.699260
vt 0.300740 0.964803
vt 0.035197 0.699260
vt 0.300740 0.699260
vt 0.035197 0.699260
vt 0.300740 0.699260
vt 0.035197 0.699260
vt 0.300740 0.699260
vt 0.035197 0.699260
vt 0.300740 0.699260
vt 0.300740 0.964803
vt 0.035197 0.699260
vt 0.300740 0.699260
vt 0.300740 0.964803
vt 0.035197 0.699260
vt 0.300740 0.699260
vt 0.300740 0.964803
vt 0.035197 0.699260
vt 0.300740 0.699260
vt 0.300740 0.964803
vt 0.300740 0.699260
vt 0.300740 0.964803
vt 0.035197 0.699260
vt 0.035197 0.699260
vt 0.300740 0.699260
vt 0.035197 0.699260
vt 0.300740 0.699260
vt 0.300740 0.964803
vt 0.035197 0.699260
vt 0.300740 0.699260
vt 0.035197 0.699260
vt 0.300740 0.964803
vt 0.035197 0.699260
vt 0.300740 0.699260
vt 0.300740 0.699260
vt 0.300740 0.964803
vt 0.035197 0.699260
vt 0.300740 0.699260
vt 0.300740 0.964803
vt 0.035197 0.699260
vt 0.300740 0.699260
vt 0.035197 0.699260
vt 0.300740 0.699260
vt 0.300740 0.699260
vt 0.035197 0.699260
vt 0.300740 0.699260
vt 0.300740 0.964803
vt 0.035197 0.699260
vt 0.300740 0.964803
vt 0.035197 0.699260
vt 0.300740 0.699260
vt 0.035197 0.699260
vt 0.300740 0.699260
vt 0.035197 0.699260
vt 0.300740 0.699260
vt 0.300740 0.964803
vt 0.035197 0.699260
vt 0.300740 0.699260
vt 0.300740 0.964803
vt 0.035197 0.699260
vt 0.300740 0.964803
vt 0.035197 0.699260
vt 0.300740 0.699260
vt 0.300740 0.964803
vt 0.035197 0.699260
vt 0.300740 0.964803
vt 0.035197 0.699260
vt 0.300740 0.964803
vt 0.300740 0.699260
vt 0.300740 0.964803
vt 0.035197 0.699260
vt 0.300740 0.699260
vt 0.300740 0.964803
vt 0.035197 0.699260
vt 0.300740 0.699260
vt 0.035197 0.699260
vt 0.035197 0.699260
vt 0.300740 0.964803
vt 0.035197 0.699260
vt 0.300740 0.964803
vt 0.300740 0.964803
vt 0.035197 0.699260
vt 0.035197 0.699260
vt 0.300740 0.964803
vt 0.300740 0.699260
vt 0.300740 0.964803
vt 0.035197 0.699260
vt 0.300740 0.699260
vt 0.035197 0.699260
vt 0.035197 0.699260
vt 0.300740 0.964803
vt 0.035197 0.699260
vt 0.300740 0.699260
vt 0.300740 0.964803
vt 0.035197 0.699260
vt 0.300740 0.699260
vt 0.300740 0.964803
vt 0.035197 0.699260
vt 0.035197 0.699260
vt 0.300740 0.699260
vt 0.300740 0.964803
vt 0.035197 0.699260
vt 0.300740 0.964803
vt 0.300740 0.964803
vt 0.035197 0.699260
vt 0.300740 0.699260
vt 0.300740 0.964803
vt 0.300740 0.964803
vt 0.035197 0.699260
vt 0.300740 0.964803
vt 0.035197 0.699260
vt 0.300740 0.964803
vt 0.035197 0.699260
vt 0.300740 0.964803
vt 0.300740 0.699260
vt 0.300740 0.964803
vt 0.035197 0.699260
vt 0.300740 0.964803
vt 0.035197 0.699260
vt 0.300740 0.699260
vt 0.300740 0.699260
vt 0.300740 0.964803
vt 0.035197 0.699260
vt 0.300740 0.699260
vt 0.300740 0.964803
vt 0.300740 0.699260
vt 0.300740 0.699260
vt 0.300740 0.699260
vt 0.300740 0.964803
vt 0.300740 0.964803
vt 0.035197 0.699260
vt 0.300740 0.699260
vt 0.035197 0.699260
vt 0.300740 0.699260
vt 0.300740 0.699260
vt 0.300740 0.964803
vt 0.035197 0.699260
vt 0.300740 0.699260
vt 0.300740 0.964803
vt 0.035197 0.699260
vt 0.300740 0.699260
vt 0.300740 0.964803
vt 0.300740 0.699260
vt 0.300740 0.964803
vt 0.035197 0.699260
vt 0.300740 0.699260
vt 0.300740 0.699260
vt 0.300740 0.964803
vt 0.035197 0.699260
vt 0.300740 0.699260
vt 0.035197 0.699260
vt 0.300740 0.699260
vt 0.300740 0.699260
vt 0.035197 0.699260
vt 0.300740 0.699260
vt 0.035197 0.699260
vt 0.300740 0.699260
vt 0.300740 0.964803
vt 0.035197 0.699260
vt 0.300740 0.964803
vt 0.300740 0.964803
vt 0.300740 0.964803
vt 0.035197 0.699260
vt 0.300740 0.964803
vt 0.300740 0.699260
vt 0.300740 0.964803
vt 0.300740 0.699260
vt 0.300740 0.964803
vt 0.300740 0.964803
vt 0.035197 0.699260
vt 0.300740 0.699260
vt 0.300740 0.964803
vt 0.035197 0.699260
vt 0.300740 0.699260
vt 0.300740 0.964803
vt 0.300740 0.699260
vt 0.300740 0.964803
vt 0.300740 0.964803
vt 0.300740 0.964803
vt 0.300740 0.699260
vn -0.2765 -0.9390 -0.2043
vn -0.5775 -0.7704 0.2702
vn -0.4132 -0.6719 -0.6146
vn 0.6716 -0.7395 -0.0464
vn -0.8849 -0.4549 -0.1005
vn -0.3864 -0.6183 -0.6844
vn 0.8117 0.3246 0.4857
vn -0.0989 0.9411 0.3233
vn 0.4240 0.9056 0.0109
vn 0.4828 0.8154 -0.3195
vn 0.7115 0.2604 -0.6526
vn 0.7773 0.2481 -0.5781
vn 0.7312 0.6003 -0.3239
vn 0.5919 0.3739 -0.7141
vn 0.2882 0.2634 -0.9206
vn 0.1251 0.8023 -0.5836
vn 0.4642 -0.1490 -0.8731
vn -0.3013 0.9479 -0.1030
vn -0.5694 0.8165 -0.0957
vn 0.0727 0.5606 -0.8249
vn -0.2463 0.4201 -0.8734
vn -0.6193 0.6700 -0.4094
vn 0.4820 -0.1037 -0.8700
vn 0.0832 -0.2528 -0.9639
vn -0.1795 -0.1132 -0.9772
vn -0.5340 -0.2638 -0.8033
vn -0.8457 -0.0418 -0.5320
vn -0.6882 0.6209 0.3752
vn -0.9656 0.1261 -0.2274
vn -0.8103 0.5032 0.3003
vn -0.2855 0.8857 0.3661
vn -0.5787 0.8153 0.0190
vn -0.3784 0.9120 0.1583
vn -0.9250 0.3788 -0.0284
vn -0.5112 0.8578 0.0533
vn -0.5036 0.8589 0.0928
vn -0.3281 0.7479 0.5770
vn -0.3116 0.9253 0.2162
vn -0.1031 0.9778 0.1825
vn 0.2270 0.9363 0.2679
vn 0.2800 0.9311 0.2337
vn 0.6098 0.7457 0.2683
vn -0.3350 0.8358 0.4350
vn -0.1384 0.7181 0.6821
vn 0.1486 0.7330 0.6638
vn 0.0607 0.7930 0.6062
vn 0.5438 0.4915 0.6802
vn 0.2788 0.8691 0.4085
vn -0.2120 0.7954 0.5678
vn 0.0988 0.8620 0.4973
vn 0.2106 0.7720 0.5998
vn 0.6240 0.6754 0.3930
vn 0.8695 0.4777 -0.1257
vn 0.6700 0.7244 0.1620
vn 0.5678 0.7140 0.4096
vn 0.8132 0.5602 0.1577
vn 0.9324 0.2944 0.2097
vn 0.9144 0.3936 0.0945
vn 0.9493 0.3097 -0.0543
vn 0.9707 0.2273 0.0779
vn 0.9516 0.2801 0.1262
vn 0.8425 -0.4154 -0.3431
vn 0.8783 0.3111 -0.3631
vn 0.8737 -0.3511 -0.3367
vn 0.7889 -0.2479 -0.5623
vn 0.8334 0.1531 -0.5311
vn 0.7418 -0.5010 -0.4457
vn 0.5347 -0.4840 -0.6927
vn 0.5197 -0.4463 -0.7285
vn 0.3358 -0.3974 -0.8540
vn 0.2035 0.0352 -0.9784
vn 0.0831 -0.2532 -0.9638
vn -0.3990 -0.1255 -0.9083
vn -0.1737 -0.3778 -0.9094
vn -0.6086 -0.1952 -0.7691
vn -0.8946 0.1407 -0.4241
vn -0.9201 0.1551 -0.3597
vn -0.8084 0.5882 0.0217
vn -0.5741 0.8176 0.0441
vn -0.5132 0.8530 0.0948
vn -0.9390 -0.3358 -0.0747
vn -0.9010 -0.0273 0.4330
vn -0.7992 0.3861 0.4606
vn -0.7017 0.4611 0.5432
vn -0.4729 0.7561 0.4524
vn -0.4911 0.7489 0.4448
vn -0.3759 0.4685 0.7995
vn -0.3837 0.0120 0.9234
vn -0.3180 0.5667 0.7601
vn -0.1563 0.6826 0.7139
vn 0.0239 0.0737 0.9970
vn 0.0610 0.4561 0.8878
vn 0.2536 0.4480 0.8573
vn 0.2532 0.4509 0.8559
vn 0.7596 0.0819 0.6453
vn 0.6845 -0.4089 0.6036
vn 0.6695 -0.5503 0.4989
vn 0.9272 -0.3237 0.1885
vn 0.8490 -0.5241 -0.0681
vn 0.8727 -0.3688 -0.3200
vn -0.0170 -0.2178 -0.9758
vn 0.2312 -0.4051 -0.8846
vn -0.0179 -0.2809 -0.9596
vn -0.0135 -0.2797 -0.9600
vn 0.2986 -0.6010 -0.7413
vn -0.1690 -0.5679 -0.8056
vn -0.8595 -0.0500 -0.5087
vn -0.6105 -0.4448 -0.6553
vn -0.8191 -0.2451 -0.5186
vn -0.4585 -0.6685 -0.5856
vn -0.4408 -0.7960 -0.4148
vn -0.7051 -0.5573 -0.4384
vn -0.6847 0.2503 0.6845
vn -0.7737 -0.2410 0.5859
vn -0.7162 -0.0675 0.6946
vn -0.4880 -0.3588 0.7957
vn -0.6045 -0.6722 0.4275
vn -0.3850 -0.7671 0.5132
vn -0.4458 -0.5294 0.7217
vn 0.4151 0.0847 0.9058
vn 0.4041 -0.4796 0.7789
vn 0.3782 -0.4598 0.8034
vn 0.3796 -0.4683 0.7979
vn 0.3697 -0.6155 0.6961
vn 0.4880 -0.7703 0.4104
vn 0.4736 -0.7694 0.4287
vn 0.4821 -0.8342 0.2676
vn 0.9885 -0.1508 -0.0085
vn 0.9917 -0.1267 -0.0223
vn 0.9147 -0.3847 -0.1237
vn 0.1924 -0.9068 -0.3752
vn 0.1854 -0.7336 -0.6538
vn -0.1032 -0.8099 -0.5775
vn -0.2778 -0.9391 -0.2020
vn -0.2567 -0.8870 -0.3837
vn -0.2413 -0.9251 -0.2931
vn -0.1476 -0.9530 -0.2646
vn -0.2799 -0.9515 0.1277
vn -0.1656 -0.9844 0.0601
vn -0.2423 -0.9603 0.1385
vn -0.2627 -0.8840 0.3867
vn 0.7899 -0.6112 -0.0507
vn 0.6010 -0.7374 -0.3083
vn 0.3355 -0.8839 -0.3258
vn 0.6589 -0.7317 0.1744
vn 0.2784 -0.9556 -0.0961
vn -0.1206 -0.9880 -0.0970
vn -0.0906 -0.9899 0.1087
vn 0.0314 -0.9171 0.3975
vn 0.1709 -0.8601 0.4806
vn -0.0318 -0.9970 0.0707
vn -0.8441 0.3643 -0.3934
vn -0.8555 0.5018 0.1279
vn -0.6243 0.6279 0.4648
usemtl None
s off
f 6/1/1 11/2/1 8/3/1
f 1/4/2 10/5/2 20/6/2
f 2/7/3 11/2/3 62/8/3
f 79/9/4 12/10/4 15/11/4
f 1/4/5 20/12/5 22/13/5
f 2/7/6 62/14/6 26/15/6
f 3/16/7 29/17/7 40/18/7
f 43/19/8 47/20/8 5/21/8
f 43/19/9 42/22/9 47/23/9
f 42/24/10 48/25/10 47/23/10
f 41/26/11 49/27/11 42/28/11
f 42/24/12 49/27/12 48/29/12
f 41/26/13 37/30/13 49/31/13
f 37/32/14 61/33/14 49/31/14
f 61/34/15 36/35/15 49/31/15
f 48/36/16 50/37/16 47/23/16
f 49/38/17 51/39/17 48/29/17
f 47/40/18 50/37/18 5/21/18
f 50/41/19 46/42/19 5/21/19
f 48/36/20 51/39/20 50/43/20
f 51/44/21 52/45/21 50/43/21
f 50/41/22 52/45/22 46/46/22
f 49/38/23 36/35/23 51/47/23
f 36/48/24 35/49/24 51/47/24
f 51/44/25 35/49/25 52/50/25
f 35/51/26 34/52/26 52/50/26
f 34/53/27 23/54/27 52/50/27
f 46/55/28 53/56/28 5/21/28
f 52/57/29 54/58/29 46/46/29
f 46/55/30 54/58/30 53/59/30
f 53/60/31 55/61/31 44/62/31
f 54/63/32 63/64/32 33/65/32
f 55/66/33 45/67/33 44/62/33
f 52/57/34 23/54/34 54/68/34
f 54/63/35 33/69/35 55/70/35
f 33/71/36 45/67/36 55/70/36
f 44/72/37 38/73/37 5/21/37
f 45/74/38 56/75/38 44/62/38
f 44/72/39 56/75/39 38/76/39
f 56/77/40 57/78/40 38/76/40
f 38/79/41 57/78/41 39/80/41
f 57/81/42 40/82/42 39/80/42
f 45/74/43 32/83/43 56/84/43
f 32/85/44 31/86/44 56/84/44
f 56/77/45 31/86/45 57/87/45
f 31/88/46 30/89/46 57/87/46
f 57/81/47 30/89/47 40/18/47
f 30/90/48 3/91/48 40/18/48
f 38/79/49 43/92/49 5/21/49
f 39/93/50 58/94/50 38/76/50
f 38/79/51 58/94/51 43/95/51
f 58/96/52 42/22/52 43/95/52
f 39/93/53 40/82/53 58/97/53
f 40/98/54 59/99/54 58/97/54
f 58/96/55 59/99/55 42/28/55
f 59/100/56 41/101/56 42/28/56
f 29/102/57 28/103/57 40/18/57
f 40/98/58 28/103/58 59/104/58
f 28/105/59 4/106/59 59/104/59
f 59/100/60 4/106/60 41/107/60
f 13/108/61 41/101/61 4/109/61
f 73/110/62 60/111/62 72/112/62
f 13/108/63 37/30/63 41/107/63
f 72/113/64 60/111/64 13/114/64
f 60/115/65 61/33/65 13/114/65
f 13/108/66 61/33/66 37/116/66
f 73/110/67 9/117/67 60/118/67
f 9/119/68 25/120/68 60/118/68
f 60/115/69 25/120/69 61/121/69
f 25/122/70 24/123/70 61/121/70
f 24/124/71 36/35/71 61/121/71
f 27/125/72 35/49/72 36/126/72
f 26/127/73 62/14/73 27/128/73
f 27/125/74 62/14/74 35/129/74
f 62/130/75 34/52/75 35/129/75
f 22/131/76 63/64/76 23/132/76
f 22/131/77 64/133/77 63/134/77
f 64/135/78 65/136/78 63/134/78
f 63/137/79 65/136/79 33/65/79
f 65/138/80 45/67/80 33/65/80
f 22/131/81 20/12/81 64/139/81
f 20/140/82 19/141/82 64/139/82
f 64/135/83 19/141/83 65/142/83
f 19/143/84 18/144/84 65/142/84
f 65/138/85 18/144/85 45/145/85
f 18/146/86 32/83/86 45/145/86
f 69/147/87 66/148/87 18/149/87
f 21/150/88 66/148/88 69/151/88
f 18/146/89 66/148/89 32/152/89
f 66/153/90 31/86/90 32/152/90
f 21/150/91 14/154/91 66/155/91
f 66/153/92 14/154/92 31/156/92
f 14/157/93 3/91/93 31/156/93
f 31/88/94 3/91/94 30/158/94
f 17/159/95 29/17/95 3/160/95
f 16/161/96 29/17/96 17/162/96
f 16/161/97 15/163/97 29/164/97
f 15/165/98 28/103/98 29/164/98
f 15/165/99 12/10/99 28/166/99
f 12/167/100 4/106/100 28/166/100
f 24/124/101 27/168/101 36/126/101
f 25/122/102 67/169/102 24/170/102
f 24/124/103 67/169/103 27/128/103
f 67/171/104 26/172/104 27/128/104
f 9/119/105 67/169/105 25/173/105
f 67/171/106 2/174/106 26/15/106
f 34/53/107 22/175/107 23/132/107
f 62/130/108 68/176/108 34/177/108
f 34/53/109 68/176/109 22/13/109
f 62/130/110 11/2/110 68/178/110
f 11/179/111 1/180/111 68/178/111
f 68/181/112 1/180/112 22/13/112
f 19/143/113 69/182/113 18/149/113
f 20/140/114 70/183/114 19/184/114
f 19/143/115 70/183/115 69/151/115
f 70/185/116 21/186/116 69/151/116
f 20/140/117 10/5/117 70/187/117
f 10/188/118 71/189/118 70/187/118
f 70/185/119 71/189/119 21/190/119
f 14/157/120 17/191/120 3/160/120
f 21/150/121 71/189/121 14/192/121
f 14/157/122 71/189/122 17/162/122
f 71/193/123 16/194/123 17/162/123
f 71/193/124 7/195/124 16/196/124
f 7/197/125 78/198/125 16/196/125
f 16/161/126 78/198/126 15/11/126
f 78/199/127 79/200/127 15/11/127
f 12/167/128 72/201/128 4/109/128
f 4/202/129 72/201/129 13/114/129
f 12/167/130 73/203/130 72/112/130
f 8/204/131 74/205/131 9/206/131
f 74/207/132 67/169/132 9/206/132
f 74/207/133 2/174/133 67/208/133
f 8/204/134 11/2/134 74/209/134
f 74/207/135 11/2/135 2/210/135
f 75/211/136 1/180/136 11/212/136
f 6/1/137 75/213/137 11/212/137
f 75/211/138 10/5/138 1/214/138
f 6/1/139 76/215/139 75/216/139
f 75/211/140 76/215/140 10/217/140
f 76/218/141 71/189/141 10/217/141
f 12/167/142 77/219/142 73/220/142
f 73/110/143 77/219/143 9/206/143
f 77/221/144 8/222/144 9/206/144
f 12/167/145 79/200/145 77/223/145
f 77/221/146 79/200/146 8/3/146
f 79/9/147 6/224/147 8/3/147
f 6/1/148 78/198/148 76/225/148
f 76/218/149 78/198/149 71/226/149
f 78/199/150 7/195/150 71/226/150
f 6/1/151 79/200/151 78/227/151
f 63/137/152 54/58/152 23/132/152
f 55/66/153 53/56/153 54/68/153
f 44/72/154 5/228/154 53/59/154
