# Blender v2.79 (sub 0) OBJ File: 'rock_small_001.blend'
# www.blender.org
mtllib rock_small_001.mtl
o Icosphere.018
v -0.258354 -0.269565 -0.380066
v -0.864479 -0.002335 1.323265
v 1.231768 -0.021629 -0.923702
v 0.757237 -0.135363 1.138676
v -0.004740 -0.011205 1.511078
v 1.266844 -0.084796 0.763187
v 0.400238 -0.390014 -0.227287
v 0.785421 -0.215093 -0.901031
v -1.830231 0.144350 -0.004993
v -1.357561 -0.098409 -0.560287
v -1.536514 -0.222261 -0.036018
v 1.453112 -0.195902 -0.341156
v 2.029106 0.554758 -0.405994
v -0.169817 0.227102 1.629700
v 0.954359 0.529726 1.370377
v -1.151609 0.293061 1.352768
v -1.354048 0.669191 1.055817
v -1.252624 0.763348 -1.111176
v -1.717041 0.724353 -0.428265
v -1.621353 0.723729 -0.779770
v 0.841610 0.202280 -1.343418
v -0.805742 0.505448 -1.340530
v -0.156698 0.770643 -1.554985
v 0.313759 0.488546 -1.578674
v 0.327824 0.710727 1.509884
v 1.954184 0.599425 -0.757309
v 0.506777 1.381132 -0.121132
v 1.738909 1.003240 -0.495575
v 0.598833 1.474449 -0.763088
v 0.001860 1.522433 -0.219986
v -0.737606 1.090556 0.508331
v -0.041448 1.544115 -0.888680
v -0.529995 1.503098 -0.664425
v -1.078728 1.193539 -0.921135
v 0.641033 1.235184 -1.260639
v 1.693951 0.922551 -0.896473
v 0.167896 1.190090 -1.418110
v -0.599026 1.174214 -1.293739
v -1.316070 1.110286 -0.586742
v 0.563810 0.949156 1.172340
v 1.721909 0.826686 -0.036877
v 0.899330 0.743542 -1.420002
v -0.903826 0.771628 1.246006
v -0.485817 0.467588 1.590317
v 1.450649 0.593738 0.542068
v 1.627155 0.227142 0.375496
v -1.470831 0.224073 -0.871086
v -1.704599 0.121498 -0.539570
v -1.624948 0.377796 0.866768
v 0.594591 0.293560 1.595436
v 1.629719 -0.013413 0.074802
v 0.227009 -0.099161 -1.123646
v -0.754135 0.125384 -1.115112
v -1.560997 -0.019321 0.830582
v -1.345819 -0.231485 0.563095
v 0.947744 -0.398015 0.045925
v 0.018492 -0.233312 1.135170
vt 0.039044 0.824200
vt 0.195331 0.824200
vt 0.195331 0.980487
vt 0.195331 0.824200
vt 0.195331 0.980487
vt 0.039044 0.824200
vt 0.195331 0.824200
vt 0.195331 0.980487
vt 0.039044 0.824200
vt 0.195331 0.824200
vt 0.195331 0.980487
vt 0.195331 0.824200
vt 0.195331 0.980487
vt 0.039044 0.824200
vt 0.195331 0.824200
vt 0.195331 0.980487
vt 0.039044 0.824200
vt 0.195331 0.824200
vt 0.195331 0.980487
vt 0.039044 0.824200
vt 0.195331 0.824200
vt 0.195331 0.980487
vt 0.039044 0.824200
vt 0.195331 0.824200
vt 0.195331 0.980487
vt 0.195331 0.824200
vt 0.039044 0.824200
vt 0.195331 0.824200
vt 0.195331 0.980487
vt 0.039044 0.824200
vt 0.195331 0.824200
vt 0.039044 0.824200
vt 0.195331 0.980487
vt 0.039044 0.824200
vt 0.195331 0.824200
vt 0.195331 0.824200
vt 0.039044 0.824200
vt 0.195331 0.824200
vt 0.195331 0.824200
vt 0.195331 0.980487
vt 0.039044 0.824200
vt 0.195331 0.824200
vt 0.039044 0.824200
vt 0.039044 0.824200
vt 0.195331 0.824200
vt 0.039044 0.824200
vt 0.195331 0.824200
vt 0.195331 0.980487
vt 0.195331 0.824200
vt 0.195331 0.980487
vt 0.039044 0.824200
vt 0.195331 0.824200
vt 0.039044 0.824200
vt 0.195331 0.824200
vt 0.039044 0.824200
vt 0.195331 0.824200
vt 0.039044 0.824200
vt 0.195331 0.824200
vt 0.039044 0.824200
vt 0.195331 0.824200
vt 0.039044 0.824200
vt 0.195331 0.980487
vt 0.195331 0.824200
vt 0.195331 0.980487
vt 0.039044 0.824200
vt 0.039044 0.824200
vt 0.195331 0.824200
vt 0.195331 0.980487
vt 0.039044 0.824200
vt 0.195331 0.824200
vt 0.195331 0.980487
vt 0.039044 0.824200
vt 0.039044 0.824200
vt 0.195331 0.980487
vt 0.195331 0.824200
vt 0.195331 0.980487
vt 0.039044 0.824200
vt 0.039044 0.824200
vt 0.195331 0.980487
vt 0.195331 0.824200
vt 0.195331 0.980487
vt 0.039044 0.824200
vt 0.039044 0.824200
vt 0.195331 0.824200
vt 0.195331 0.980487
vt 0.195331 0.980487
vt 0.195331 0.980487
vt 0.195331 0.980487
vt 0.039044 0.824200
vt 0.039044 0.824200
vt 0.039044 0.824200
vt 0.195331 0.824200
vt 0.195331 0.980487
vt 0.195331 0.980487
vt 0.039044 0.824200
vt 0.195331 0.980487
vt 0.039044 0.824200
vt 0.195331 0.824200
vt 0.195331 0.824200
vt 0.195331 0.824200
vt 0.195331 0.980487
vt 0.039044 0.824200
vt 0.195331 0.824200
vt 0.195331 0.980487
vt 0.039044 0.824200
vt 0.195331 0.824200
vt 0.195331 0.824200
vt 0.195331 0.980487
vt 0.195331 0.980487
vt 0.039044 0.824200
vt 0.195331 0.824200
vt 0.195331 0.980487
vt 0.039044 0.824200
vt 0.195331 0.824200
vt 0.039044 0.824200
vt 0.195331 0.824200
vt 0.039044 0.824200
vt 0.195331 0.824200
vt 0.039044 0.824200
vt 0.195331 0.824200
vt 0.195331 0.824200
vt 0.195331 0.980487
vt 0.039044 0.824200
vt 0.195331 0.824200
vt 0.039044 0.824200
vt 0.195331 0.824200
vt 0.195331 0.824200
vt 0.195331 0.980487
vt 0.195331 0.980487
vt 0.039044 0.824200
vt 0.195331 0.824200
vt 0.039044 0.824200
vt 0.039044 0.824200
vt 0.195331 0.824200
vt 0.195331 0.980487
vt 0.195331 0.824200
vt 0.195331 0.980487
vt 0.039044 0.824200
vt 0.195331 0.824200
vt 0.195331 0.980487
vt 0.039044 0.824200
vt 0.195331 0.980487
vt 0.195331 0.824200
vt 0.195331 0.980487
vt 0.039044 0.824200
vt 0.195331 0.824200
vt 0.195331 0.980487
vt 0.195331 0.980487
vt 0.195331 0.980487
vt 0.039044 0.824200
vt 0.195331 0.824200
vt 0.195331 0.980487
vt 0.195331 0.980487
vt 0.195331 0.980487
vt 0.039044 0.824200
vt 0.195331 0.980487
vt 0.195331 0.824200
vt 0.195331 0.980487
vt 0.039044 0.824200
vt 0.195331 0.980487
vt 0.039044 0.824200
vt 0.195331 0.824200
vt 0.195331 0.980487
vt 0.195331 0.980487
vt 0.195331 0.980487
vt 0.039044 0.824200
vt 0.195331 0.980487
vn -0.1487 -0.9801 -0.1318
vn -0.0379 -0.9993 -0.0033
vn -0.1852 -0.5377 0.8225
vn -0.3391 -0.5135 -0.7882
vn -0.2757 -0.3571 0.8924
vn 0.2514 0.4154 -0.8742
vn 0.8443 0.5237 -0.1135
vn 0.4167 0.8810 -0.2241
vn 0.3806 0.8456 -0.3744
vn 0.8035 0.5598 -0.2028
vn 0.4098 0.4689 -0.7824
vn 0.1783 0.8926 -0.4141
vn 0.0950 0.8445 -0.5271
vn -0.1111 0.8053 -0.5824
vn -0.2670 0.8658 -0.4232
vn -0.2901 0.8609 -0.4181
vn 0.1032 0.9943 0.0256
vn -0.4527 0.8860 -0.1007
vn -0.0669 0.9971 0.0367
vn -0.2656 0.9232 0.2777
vn -0.4157 0.8785 0.2354
vn 0.2340 0.9568 0.1726
vn -0.1151 0.9013 0.4176
vn 0.2016 0.9317 0.3023
vn -0.0925 0.9214 0.3775
vn -0.0743 0.8383 0.5402
vn 0.5091 0.8229 0.2524
vn 0.3386 0.9230 0.1827
vn 0.3356 0.8089 0.4827
vn 0.3696 0.8625 0.3457
vn 0.7909 0.5607 0.2451
vn 0.7603 -0.6040 -0.2389
vn 0.6429 -0.6317 -0.4332
vn 0.4702 -0.3273 -0.8196
vn 0.5376 0.0711 -0.8402
vn 0.6735 -0.1735 -0.7186
vn 0.1502 0.2502 -0.9565
vn 0.0959 0.2410 -0.9658
vn -0.1541 0.4123 -0.8979
vn -0.3739 0.1792 -0.9100
vn -0.3665 0.1772 -0.9134
vn -0.5140 0.5119 -0.6883
vn -0.6676 0.6794 -0.3047
vn -0.7192 0.6663 -0.1970
vn -0.4027 0.8863 0.2287
vn -0.4010 0.4249 0.8116
vn -0.3335 0.8904 0.3098
vn -0.4310 0.3496 0.8319
vn -0.2785 -0.2125 0.9366
vn -0.1253 0.6633 0.7378
vn 0.5705 0.7188 0.3974
vn 0.7886 -0.1800 0.5880
vn 0.8395 0.1697 0.5161
vn 0.8436 0.1756 0.5075
vn 0.8281 0.2644 0.4944
vn 0.3247 -0.1664 -0.9311
vn -0.2046 -0.2620 -0.9431
vn 0.2779 -0.7161 -0.6403
vn 0.1170 -0.7297 -0.6736
vn 0.0188 -0.6138 -0.7892
vn -0.1425 -0.5927 -0.7927
vn -0.1853 -0.5198 -0.8340
vn -0.6035 0.5134 -0.6101
vn -0.5227 -0.1612 -0.8371
vn -0.6633 -0.0636 -0.7456
vn -0.7912 -0.1291 -0.5978
vn -0.9645 0.0286 -0.2626
vn -0.9730 0.0223 -0.2296
vn -0.6426 0.7436 0.1848
vn -0.9459 0.2904 0.1450
vn -0.7806 0.5877 0.2128
vn -0.6879 0.1840 0.7021
vn -0.9464 -0.1770 0.2703
vn -0.7203 -0.1771 0.6707
vn -0.4791 -0.5352 0.6957
vn 0.3385 0.6406 0.6892
vn 0.0308 0.2196 0.9751
vn 0.3031 0.3736 0.8766
vn 0.0269 0.1959 0.9803
vn 0.6493 -0.3414 0.6796
vn 0.0758 -0.4017 0.9126
vn 0.2381 -0.6643 0.7086
vn 0.5434 -0.5067 0.6693
vn 0.8811 -0.3656 0.3000
vn 0.8037 -0.4612 0.3759
vn 0.7888 -0.6110 -0.0668
vn 0.4881 -0.8564 0.1685
vn -0.0808 -0.9525 -0.2935
vn -0.1072 -0.9516 -0.2881
vn -0.2120 -0.9133 -0.3477
vn -0.1062 -0.9590 -0.2628
vn -0.0682 -0.8973 -0.4361
vn -0.3118 -0.7139 -0.6271
vn -0.4713 -0.6923 -0.5465
vn -0.5147 -0.7783 -0.3596
vn -0.7772 -0.6094 -0.1566
vn -0.7691 -0.6268 0.1250
vn -0.5758 -0.7995 0.1710
vn -0.2906 -0.8496 0.4401
vn 0.3499 -0.8527 -0.3880
vn 0.4737 -0.8647 0.1669
vn 0.2121 -0.9521 -0.2203
vn 0.0872 -0.9752 -0.2033
vn 0.2909 -0.9175 0.2712
vn 0.1260 -0.9593 0.2526
vn -0.0628 -0.9933 0.0967
vn -0.1588 -0.9130 0.3758
vn -0.1180 -0.8581 0.4997
vn 0.1106 -0.8527 0.5106
vn -0.0441 -0.9938 0.1020
usemtl None
s off
f 1/1/1 7/2/1 55/3/1
f 1/1/2 55/4/2 11/5/2
f 2/6/3 5/7/3 14/8/3
f 53/9/4 47/10/4 22/11/4
f 2/6/5 14/12/5 16/13/5
f 42/14/6 37/15/6 35/16/6
f 13/17/7 26/18/7 28/19/7
f 28/20/8 36/21/8 29/22/8
f 36/23/9 35/24/9 29/22/9
f 28/20/10 26/18/10 36/25/10
f 36/23/11 42/26/11 35/16/11
f 35/27/12 32/28/12 29/22/12
f 35/27/13 37/15/13 32/29/13
f 37/30/14 38/31/14 32/29/14
f 32/32/15 38/31/15 33/33/15
f 38/34/16 34/35/16 33/33/16
f 32/32/17 30/36/17 29/22/17
f 34/37/18 39/38/18 33/33/18
f 32/32/19 33/39/19 30/40/19
f 33/41/20 31/42/20 30/40/20
f 39/43/21 31/42/21 33/33/21
f 30/44/22 27/45/22 29/22/22
f 31/46/23 40/47/23 30/40/23
f 30/44/24 40/47/24 27/48/24
f 31/46/25 43/49/25 40/50/25
f 43/51/26 25/52/26 40/50/26
f 40/53/27 45/54/27 27/48/27
f 27/55/28 28/56/28 29/22/28
f 45/57/29 41/58/29 27/48/29
f 27/55/30 41/58/30 28/19/30
f 41/59/31 13/60/31 28/19/31
f 12/61/32 26/18/32 13/62/32
f 12/61/33 3/63/33 26/64/33
f 3/65/34 42/26/34 26/64/34
f 26/66/35 42/26/35 36/25/35
f 3/65/36 21/67/36 42/68/36
f 24/69/37 37/15/37 42/68/37
f 24/69/38 23/70/38 37/71/38
f 23/72/39 38/31/39 37/71/39
f 22/73/40 38/31/40 23/74/40
f 22/73/41 18/75/41 38/76/41
f 18/77/42 34/35/42 38/76/42
f 20/78/43 39/38/43 34/79/43
f 20/78/44 19/80/44 39/81/44
f 17/82/45 31/42/45 39/81/45
f 16/83/46 44/84/46 17/85/46
f 17/82/47 43/49/47 31/86/47
f 17/82/48 44/84/48 43/87/48
f 16/83/49 14/12/49 44/88/49
f 44/89/50 25/52/50 43/87/50
f 15/90/51 45/54/51 40/50/51
f 6/91/52 46/92/52 15/93/52
f 15/90/53 46/92/53 45/94/53
f 46/95/54 13/60/54 45/94/54
f 45/57/55 13/60/55 41/96/55
f 21/97/56 24/98/56 42/68/56
f 24/69/57 22/99/57 23/74/57
f 3/65/58 8/100/58 21/101/58
f 8/102/59 52/103/59 21/101/59
f 21/97/60 52/103/60 24/104/60
f 52/105/61 53/106/61 24/104/61
f 24/69/62 53/106/62 22/11/62
f 18/77/63 20/107/63 34/79/63
f 22/73/64 47/10/64 18/108/64
f 18/77/65 47/10/65 20/109/65
f 47/110/66 48/111/66 20/109/66
f 20/78/67 48/111/67 19/112/67
f 48/113/68 9/114/68 19/112/68
f 19/115/69 17/116/69 39/81/69
f 9/117/70 49/118/70 19/112/70
f 19/115/71 49/118/71 17/85/71
f 49/119/72 16/120/72 17/85/72
f 9/117/73 54/121/73 49/122/73
f 49/119/74 54/121/74 16/13/74
f 54/123/75 2/124/75 16/13/75
f 25/125/76 15/126/76 40/50/76
f 44/89/77 50/127/77 25/128/77
f 25/125/78 50/127/78 15/93/78
f 44/89/79 14/12/79 50/129/79
f 50/130/80 6/131/80 15/93/80
f 14/132/81 5/7/81 50/129/81
f 5/133/82 4/134/82 50/129/82
f 50/130/83 4/134/83 6/135/83
f 46/95/84 51/136/84 13/62/84
f 6/91/85 51/136/85 46/137/85
f 51/138/86 12/139/86 13/62/86
f 6/91/87 12/139/87 51/140/87
f 7/141/88 52/103/88 8/142/88
f 7/141/89 1/143/89 52/144/89
f 1/1/90 53/106/90 52/144/90
f 11/145/91 10/146/91 1/147/91
f 1/1/92 10/146/92 53/148/92
f 53/9/93 10/146/93 47/149/93
f 10/150/94 48/111/94 47/149/94
f 10/150/95 11/151/95 48/152/95
f 11/145/96 9/114/96 48/152/96
f 11/145/97 54/121/97 9/153/97
f 11/145/98 55/4/98 54/154/98
f 55/155/99 2/124/99 54/154/99
f 12/61/100 8/100/100 3/156/100
f 6/91/101 56/157/101 12/158/101
f 12/61/102 56/157/102 8/142/102
f 56/159/103 7/2/103 8/142/103
f 6/91/104 4/134/104 56/160/104
f 4/161/105 57/162/105 56/160/105
f 56/159/106 57/162/106 7/163/106
f 55/155/107 57/162/107 2/164/107
f 2/6/108 57/162/108 5/165/108
f 57/166/109 4/134/109 5/165/109
f 55/155/110 7/2/110 57/167/110
