# Blender v2.79 (sub 0) OBJ File: 'rock_large_001.blend'
# www.blender.org
mtllib rock_large_001.mtl
o Group42783
v 0.279701 0.918226 1.057675
v 0.279998 0.918978 1.055178
v 0.036235 1.124015 0.956216
v 0.279302 0.919044 1.058335
v 0.440746 0.560480 1.176680
v 0.589986 1.269119 0.894932
v 0.365165 0.273390 -1.164477
v 0.065685 -0.087017 -1.128854
v 0.033096 0.206537 -1.070480
v 1.168709 0.814991 0.373114
v 1.047573 0.597336 0.878030
v 1.428644 0.442959 0.509994
v 0.965464 0.768829 -0.406366
v 0.249004 1.177793 -0.656998
v 0.704962 1.231305 -0.317488
v -0.704954 -0.576963 0.312095
v 0.623483 -0.636675 0.234504
v 0.166092 -0.478538 0.703197
v -0.991398 -0.004380 0.527356
v -0.497010 -0.191699 0.847915
v -0.951217 0.779256 0.484960
v 0.239587 1.359275 -0.539315
v -0.461983 1.467512 -0.541975
v 0.415203 1.475515 -0.004140
v -0.668936 -0.099437 -0.972441
v -0.670433 0.581348 -0.844978
v -0.337480 0.311871 -1.012934
v 0.332880 -0.353115 -1.167989
v 1.605331 -0.193785 0.517468
v 1.281775 -0.199864 0.971867
v 1.488753 -0.459572 0.559657
v 0.938951 0.073594 -0.625962
v 0.609963 -0.143273 -1.144860
v 0.533046 0.426048 -0.944899
v 0.749295 0.485212 -0.579659
v 0.125869 0.616503 -0.843242
v -0.626934 -0.684560 -0.565872
v 0.050367 -0.696372 -0.218489
v -1.185098 0.907109 -0.031312
v -1.331771 -0.188154 0.007376
v 0.948725 -0.340199 -0.572522
v 1.339903 0.061544 -0.398827
v 1.486887 -0.214114 -0.247151
v 0.129950 -0.648598 -0.927415
v 0.631722 -0.701032 -0.269981
v -0.594986 1.406541 0.496129
v 0.245847 1.504500 0.432328
v -0.778484 1.557447 -0.084122
v 0.976126 0.435096 1.095328
v 1.034305 -0.308269 1.081730
v 0.576819 -0.491892 0.961174
v 1.072641 -0.583520 0.791323
v -0.300441 0.641459 -0.904283
v -0.501200 1.085377 -0.808333
v 0.793876 1.173858 0.783704
v -1.160171 0.864869 -0.396895
v -1.032045 1.309231 0.033150
v 1.601161 -0.235883 0.170942
v 1.551938 0.162667 -0.207249
v 1.593993 0.361218 0.270549
v 1.491611 0.410507 -0.110094
v 1.247473 0.687455 -0.086309
v 0.831948 -0.524693 -0.550957
v 1.322068 -0.618755 -0.030451
v 1.477196 -0.560382 0.222809
v 0.970027 1.188729 0.339069
v 0.085188 1.373409 0.773100
v -0.981175 -0.504279 0.293424
v -1.278777 -0.298218 -0.322332
v -0.855352 -0.654968 -0.543059
v -0.893244 -0.384570 -0.803932
v -0.643647 -0.462582 -0.895288
v -0.083071 0.019140 1.024443
v 0.953127 -0.019672 1.184685
v 0.350590 -0.241091 1.142112
v -0.156718 1.552702 0.068105
v -0.804148 1.399645 -0.533724
v 1.211667 -0.647493 0.423745
v 0.749440 -0.253221 -0.874664
v -0.207871 -0.283432 -1.009202
v 1.324040 0.224409 0.910641
v 0.843840 1.253360 0.046587
v -0.417015 -0.424456 0.753984
v 0.587472 -0.428522 -1.064512
v 0.499444 -0.610942 -0.828631
v -0.640571 1.084770 0.673179
v -1.092897 -0.347624 0.425456
v 1.646063 0.034694 0.422819
v -0.187169 1.351162 -0.673191
v 0.003546 -0.290286 0.900286
v 1.071498 0.945701 -0.168937
vt 0.170430 0.837703
vt 0.169751 0.835435
vt 0.161673 0.845475
vt 0.027445 0.976751
vt 0.027467 0.976824
vt 0.027443 0.976812
vt 0.181552 0.833808
vt 0.174816 0.832342
vt 0.158383 0.848757
vt 0.149981 0.856317
vt 0.150731 0.856549
vt 0.207934 0.812205
vt 0.204146 0.805889
vt 0.231614 0.788101
vt 0.181717 0.830070
vt 0.159621 0.847745
vt 0.174829 0.837905
vt 0.119056 0.895797
vt 0.177716 0.827899
vt 0.164021 0.841322
vt 0.088597 0.909120
vt 0.130660 0.872657
vt 0.123065 0.882631
vt 0.162015 0.848189
vt 0.146296 0.865134
vt 0.167708 0.841613
vt 0.126167 0.871996
vt 0.138804 0.869382
vt 0.141379 0.863158
vt 0.155267 0.850615
vt 0.252078 0.765237
vt 0.211291 0.798692
vt 0.222432 0.787293
vt 0.176964 0.827850
vt 0.163849 0.844261
vt 0.163145 0.841398
vt 0.173882 0.834846
vt 0.155798 0.850624
vt 0.123725 0.880427
vt 0.151671 0.863487
vt 0.126718 0.893994
vt 0.027413 0.976712
vt 0.181330 0.830957
vt 0.196702 0.804974
vt 0.208957 0.797062
vt 0.147774 0.856092
vt 0.170199 0.837510
vt 0.141986 0.864014
vt 0.165654 0.842579
vt 0.140298 0.869843
vt 0.200887 0.814581
vt 0.200743 0.810073
vt 0.184535 0.825526
vt 0.199814 0.806441
vt 0.145562 0.862335
vt 0.144286 0.863805
vt 0.184645 0.822794
vt 0.128967 0.886128
vt 0.135036 0.878082
vt 0.235887 0.770454
vt 0.210215 0.790445
vt 0.244079 0.771922
vt 0.217793 0.794741
vt 0.204817 0.813565
vt 0.173163 0.830912
vt 0.203357 0.804968
vt 0.215021 0.790285
vt 0.186872 0.826012
vt 0.162514 0.844119
vt 0.092398 0.916908
vt 0.071815 0.925814
vt 0.109141 0.896210
vt 0.107316 0.890001
vt 0.123365 0.879995
vt 0.161340 0.850860
vt 0.196382 0.812780
vt 0.174027 0.831304
vt 0.153183 0.851994
vt 0.140078 0.872556
vt 0.205804 0.800499
vt 0.170091 0.838090
vt 0.140192 0.865950
vt 0.214503 0.794586
vt 0.178033 0.830160
vt 0.134062 0.867893
vt 0.163397 0.846089
vt 0.162121 0.845510
vt 0.141261 0.866517
vt 0.080634 0.918941
vt 0.290466 0.722362
vt 0.150118 0.858609
vt 0.157237 0.846227
vt 0.187108 0.824875
vn 0.5394 0.7865 0.3010
vn 0.9344 0.2948 0.1998
vn 0.8525 0.4639 0.2410
vn -0.2084 0.2230 0.9523
vn -0.0109 0.4241 0.9056
vn 0.0830 0.3530 0.9319
vn -0.2977 0.1543 -0.9421
vn 0.6611 0.6183 0.4251
vn 0.5065 0.4290 -0.7479
vn 0.5066 0.4299 -0.7473
vn -0.0255 -0.9545 0.2971
vn -0.5228 0.0721 0.8494
vn -0.5230 0.0733 0.8492
vn -0.5230 0.0728 0.8492
vn 0.1483 0.9552 -0.2561
vn -0.3284 0.1737 -0.9284
vn -0.3283 0.1731 -0.9286
vn -0.1328 0.0124 -0.9911
vn 0.7889 -0.2551 0.5590
vn 0.7888 -0.2574 0.5582
vn 0.7391 0.3099 -0.5981
vn 0.3284 0.8822 -0.3374
vn -0.0761 -0.9905 0.1146
vn -0.8499 0.1326 0.5100
vn -0.8501 0.1318 0.5099
vn 0.5385 -0.1673 -0.8259
vn -0.0141 -0.9975 -0.0688
vn -0.0904 0.9565 0.2773
vn -0.0904 0.9564 0.2778
vn -0.9018 0.0697 0.4264
vn -0.9021 0.0693 0.4258
vn 0.2154 0.3213 0.9222
vn 0.1047 -0.7149 0.6914
vn 0.1577 0.2751 -0.9484
vn 0.1561 0.2773 -0.9480
vn 0.1573 0.2761 -0.9482
vn 0.4172 0.2024 -0.8860
vn 0.4182 0.2026 -0.8855
vn 0.5792 0.4340 0.6901
vn 0.3885 0.8658 -0.3155
vn -0.6211 0.1426 -0.7706
vn -0.6218 0.1428 -0.7700
vn -0.6221 0.1432 -0.7697
vn -0.5571 0.7437 0.3696
vn -0.5574 0.7434 0.3696
vn 0.9538 -0.1363 -0.2678
vn 0.7405 0.6625 -0.1134
vn 0.2404 -0.8901 -0.3873
vn 0.9172 -0.3888 0.0873
vn 0.9174 -0.3889 0.0849
vn 0.4114 0.8988 0.1513
vn -0.0854 0.9427 0.3224
vn -0.6299 -0.7754 0.0449
vn -0.7764 0.0381 -0.6291
vn -0.7767 0.0389 -0.6287
vn -0.2182 -0.8144 -0.5377
vn -0.6998 -0.5444 -0.4626
vn -0.3688 0.0969 0.9244
vn -0.0570 -0.0366 0.9977
vn 0.4278 0.2109 -0.8789
vn 0.4285 0.2116 -0.8784
vn 0.1077 0.9758 -0.1901
vn -0.7313 0.6556 -0.1883
vn -0.7302 0.6567 -0.1888
vn -0.7301 0.6566 -0.1893
vn -0.1162 -0.9755 0.1869
vn 0.1290 -0.9911 -0.0314
vn 0.8606 -0.1229 -0.4943
vn -0.3040 -0.4672 -0.8303
vn -0.3036 -0.4672 -0.8304
vn 0.8146 0.0026 0.5801
vn 0.8154 0.0045 0.5789
vn 0.8134 0.0020 0.5818
vn 0.1889 0.1801 0.9653
vn -0.9882 0.1294 -0.0823
vn -0.9883 0.1285 -0.0821
vn -0.8340 0.4878 -0.2580
vn -0.8334 0.4897 -0.2563
vn -0.8335 0.4891 -0.2571
vn 0.4691 0.8525 -0.2306
vn 0.8225 0.5685 -0.0168
vn -0.0558 -0.9324 0.3571
vn -0.0553 -0.9322 0.3578
vn 0.1011 -0.6690 -0.7364
vn 0.1010 -0.6692 -0.7362
vn 0.1502 -0.9698 -0.1920
vn -0.3881 0.0822 0.9179
vn -0.3886 0.0819 0.9178
vn -0.7087 0.3920 0.5866
vn 0.1521 0.2810 -0.9476
vn 0.1528 0.2825 -0.9470
vn 0.1530 0.2804 -0.9476
vn -0.3279 0.5137 -0.7929
vn -0.7315 -0.6614 0.1657
vn -0.3618 -0.7379 0.5698
vn -0.3610 -0.7380 0.5701
vn 0.9870 0.0979 -0.1276
vn 0.8380 0.3556 0.4139
vn 0.8373 0.3576 0.4137
vn -0.3606 0.4883 0.7947
vn -0.2753 0.6035 0.7483
vn 0.8311 -0.2105 -0.5147
vn 0.8310 -0.2103 -0.5149
vn 0.4278 -0.8709 -0.2417
vn -0.5963 0.1991 -0.7777
vn -0.5955 0.1977 -0.7786
vn -0.5967 0.1983 -0.7776
vn -0.1408 0.5758 -0.8054
vn -0.1473 -0.9718 0.1842
vn -0.4710 -0.4389 0.7652
vn 0.5520 -0.5571 -0.6204
vn 0.8868 -0.3807 -0.2622
vn -0.1742 -0.4083 0.8961
vn -0.1738 -0.4087 0.8960
vn -0.4338 0.1021 0.8952
vn -0.4333 0.1020 0.8955
vn 0.8820 0.4708 0.0205
vn 0.4616 -0.8541 0.2398
vn -0.0894 -0.0253 -0.9957
vn -0.0897 -0.0258 -0.9956
vn -0.0901 -0.0257 -0.9956
vn -0.1155 -0.3176 -0.9412
vn -0.1151 -0.3179 -0.9411
vn 0.4084 0.9075 0.0982
vn 0.1319 0.9912 -0.0146
vn -0.3202 -0.7270 0.6074
vn 0.0156 -0.5757 0.8175
vn 0.6207 0.4702 -0.6275
vn 0.6587 0.6929 -0.2932
vn 0.2889 -0.2806 -0.9153
vn 0.2886 -0.2807 -0.9154
vn 0.0822 0.0014 -0.9966
vn 0.0518 -0.3226 0.9451
vn 0.5649 0.0635 0.8227
vn 0.5663 0.0622 0.8219
vn -0.7154 -0.6892 0.1151
vn -0.9785 0.0878 -0.1866
vn -0.9786 0.0869 -0.1867
vn 0.7560 0.4061 -0.5134
vn 0.4754 0.3116 -0.8227
vn 0.6848 0.5495 0.4786
vn 0.6864 0.5487 0.4773
vn 0.5283 0.1379 0.8378
vn 0.5282 0.1400 0.8375
vn -0.1610 -0.8222 -0.5459
vn -0.7312 0.4055 0.5486
vn -0.5538 0.0519 0.8310
vn -0.5540 0.0514 0.8309
vn -0.0586 -0.9904 0.1254
vn 0.0019 0.4845 -0.8748
vn -0.1650 -0.0421 -0.9854
vn -0.1652 -0.0417 -0.9854
vn 0.8238 0.3422 0.4520
vn 0.5967 0.7897 0.1425
vn -0.4303 -0.4609 0.7762
vn -0.4298 -0.4610 0.7764
vn -0.4300 -0.4603 0.7767
vn -0.1758 -0.4198 0.8904
vn -0.1760 -0.4203 0.8902
vn -0.1751 -0.4196 0.8907
vn 0.4236 0.2149 -0.8800
vn 0.6607 0.6189 -0.4248
vn -0.9236 0.3685 -0.1056
vn -0.9238 0.3684 -0.1046
vn 0.0033 -0.9919 0.1266
vn -0.0341 -0.9843 0.1729
vn 0.6433 0.4100 -0.6465
vn 0.9280 0.3081 -0.2097
vn -0.1629 -0.2159 -0.9627
vn -0.1624 -0.2160 -0.9628
vn -0.1633 -0.2161 -0.9626
vn -0.6726 0.0954 -0.7339
vn -0.6721 0.0948 -0.7344
vn -0.6728 0.0949 -0.7337
vn 0.0933 0.9137 0.3955
vn -0.0687 0.5992 0.7977
vn -0.1930 0.9296 -0.3140
vn -0.1916 0.9294 -0.3156
vn -0.1919 0.9294 -0.3152
vn -0.1337 0.5759 -0.8065
vn -0.1327 0.5771 -0.8058
vn 0.8432 -0.2863 -0.4550
vn 0.8433 -0.2860 -0.4550
vn 0.5391 -0.4261 -0.7265
vn 0.5214 -0.5791 0.6267
vn 0.4637 -0.1791 0.8677
vn -0.1776 0.1305 -0.9754
vn -0.1790 0.1298 -0.9753
vn -0.5090 0.2320 -0.8289
vn -0.5104 0.2316 -0.8281
vn -0.0075 -0.7262 0.6875
vn -0.0067 -0.7263 0.6874
vn -0.3349 -0.8038 0.4916
vn 0.6231 0.3328 -0.7078
vn 0.1820 0.7367 -0.6513
vn 0.7489 0.3257 -0.5771
vn 0.8363 0.5406 -0.0916
vn -0.0335 0.9853 0.1674
vn -0.0331 0.9853 0.1677
vn 0.0470 0.9858 -0.1612
vn 0.0474 0.9858 -0.1610
vn -0.0655 -0.9870 0.1470
vn 0.4254 -0.8507 0.3089
vn 0.1353 0.8648 -0.4836
vn 0.1534 0.2979 -0.9422
vn 0.1531 0.2969 -0.9426
vn 0.2272 -0.8096 -0.5413
vn 0.2274 -0.8097 -0.5410
vn 0.5228 -0.7576 -0.3908
vn 0.5231 -0.7575 -0.3906
vn -0.2549 -0.8507 0.4597
vn -0.2556 -0.8508 0.4592
vn -0.2606 -0.9562 0.1331
vn 0.3247 -0.9456 0.0191
vn 0.7805 -0.5109 -0.3603
vn 0.2433 0.5366 -0.8080
vn 0.2425 0.5361 -0.8086
vn 0.4810 0.4944 -0.7240
vn 0.4802 0.4951 -0.7241
vn 0.9881 -0.0223 -0.1521
vn 0.9354 -0.3523 0.0315
vn 0.9347 -0.3538 0.0332
vn 0.5123 0.8272 0.2306
vn 0.8221 0.4239 0.3800
vn -0.4698 0.1217 -0.8743
vn -0.4697 0.1222 -0.8744
vn -0.2967 -0.1595 -0.9416
vn -0.2970 -0.1598 -0.9414
vn -0.8560 0.2536 0.4506
vn 0.7316 0.6603 -0.1697
vn 0.8174 0.4655 0.3394
vn 0.1539 0.2943 -0.9432
vn 0.1523 0.2939 -0.9436
vn -0.2011 0.3270 -0.9234
vn -0.2008 0.3255 -0.9240
vn -0.5633 -0.0773 0.8226
vn -0.5636 -0.0780 0.8224
vn -0.5630 -0.0778 0.8228
vn -0.8480 0.0960 0.5212
vn -0.8483 0.0965 0.5206
vn 0.6803 -0.0399 -0.7318
vn 0.5621 0.2893 -0.7748
vn 0.7299 0.4106 0.5465
vn 0.6238 0.5139 0.5888
vn 0.6244 0.5152 0.5871
vn 0.5291 -0.5799 0.6195
vn 0.0162 -0.9977 -0.0654
vn 0.4604 0.8877 -0.0025
vn 0.8444 0.0673 0.5315
vn 0.8460 0.0689 0.5287
vn 0.8447 0.0693 0.5307
vn 0.9851 -0.1719 0.0090
vn 0.9847 -0.1742 0.0087
vn -0.1168 -0.9870 0.1106
vn 0.6596 -0.4846 -0.5745
vn 0.4881 -0.1004 -0.8670
vn 0.8265 -0.0528 -0.5604
vn -0.3945 -0.2177 -0.8927
vn -0.3947 -0.2172 -0.8928
vn -0.4316 -0.6569 -0.6182
vn -0.2682 -0.0114 0.9633
usemtl None
s off
f 1/1/1 2/2/1 3/3/1
f 2/4/2 4/5/2 1/6/2
f 2/2/3 1/1/3 5/7/3
f 1/1/4 3/3/4 5/7/4
f 3/3/5 2/2/5 6/8/5
f 5/7/6 6/8/6 2/2/6
f 7/9/7 8/10/7 9/11/7
f 10/12/8 11/13/8 12/14/8
f 13/15/9 14/16/10 15/17/9
f 16/18/11 17/19/11 18/20/11
f 19/21/12 20/22/13 21/23/14
f 22/24/15 23/25/15 24/26/15
f 25/27/16 26/28/17 27/29/17
f 8/10/18 7/9/18 28/30/18
f 29/31/19 30/32/20 31/33/20
f 32/34/21 33/35/21 34/36/21
f 35/37/22 34/36/22 36/38/22
f 16/18/23 37/39/23 38/40/23
f 19/21/24 39/41/25 40/42/25
f 41/43/26 42/44/26 43/45/26
f 38/40/27 44/46/27 45/47/27
f 46/48/28 47/49/28 48/50/29
f 19/21/30 21/23/31 39/41/31
f 49/51/32 6/8/32 5/7/32
f 50/52/33 51/53/33 52/54/33
f 14/16/34 53/55/35 54/56/36
f 35/37/37 36/38/37 14/16/38
f 55/57/39 6/8/39 49/51/39
f 15/17/40 22/24/40 24/26/40
f 56/58/41 26/28/42 25/27/43
f 57/59/44 46/48/44 48/50/45
f 58/60/46 43/45/46 59/61/46
f 60/62/47 61/63/47 62/64/47
f 63/65/48 64/66/48 45/47/48
f 29/31/49 31/33/50 65/67/50
f 66/68/51 47/49/51 6/8/51
f 67/69/52 47/49/52 46/48/52
f 68/70/53 69/71/53 70/72/53
f 56/58/54 71/73/55 69/71/55
f 44/46/56 37/39/56 72/74/56
f 69/71/57 71/73/57 70/72/57
f 3/3/58 73/75/58 5/7/58
f 74/76/59 5/7/59 75/77/59
f 35/37/60 14/16/61 13/15/60
f 24/26/62 23/25/62 76/78/62
f 77/79/63 57/59/64 48/50/65
f 17/19/66 52/54/66 51/53/66
f 45/47/67 64/66/67 78/80/67
f 79/81/68 33/35/68 32/34/68
f 28/30/69 44/46/69 80/82/70
f 30/32/71 29/31/72 81/83/73
f 49/51/74 5/7/74 74/76/74
f 39/41/75 56/58/76 40/42/75
f 77/79/77 56/58/78 57/59/79
f 24/26/80 82/84/80 15/17/80
f 10/12/81 12/14/81 62/64/81
f 83/85/82 16/18/83 18/20/83
f 28/30/84 84/86/85 44/46/84
f 44/46/86 85/87/86 45/47/86
f 20/22/87 3/3/88 86/88/88
f 57/59/89 21/23/89 46/48/89
f 36/38/90 53/55/91 14/16/92
f 9/11/93 36/38/93 7/9/93
f 87/89/94 40/42/94 68/70/94
f 83/85/95 87/89/96 68/70/96
f 59/61/97 60/62/97 88/90/97
f 81/83/98 88/90/99 12/14/99
f 46/48/100 86/88/100 3/3/100
f 3/3/101 67/69/101 46/48/101
f 79/81/102 84/86/103 33/35/102
f 85/87/104 63/65/104 45/47/104
f 56/58/105 77/79/106 26/28/107
f 54/56/108 23/25/108 89/91/108
f 51/53/109 18/20/109 17/19/109
f 75/77/110 73/75/110 90/92/110
f 64/66/111 63/65/111 43/45/111
f 65/67/112 43/45/112 58/60/112
f 73/75/113 20/22/114 90/92/113
f 3/3/115 20/22/116 73/75/115
f 10/12/117 62/64/117 66/68/117
f 78/80/118 65/67/118 31/33/118
f 25/27/119 27/29/120 80/82/121
f 72/74/122 80/82/123 44/46/122
f 24/26/124 47/49/124 66/68/124
f 24/26/125 76/78/125 47/49/125
f 90/92/126 51/53/126 75/77/126
f 50/52/127 75/77/127 51/53/127
f 91/93/128 13/15/128 15/17/128
f 91/93/129 15/17/129 82/84/129
f 33/35/130 84/86/131 28/30/130
f 28/30/132 7/9/132 33/35/132
f 75/77/133 50/52/133 74/76/133
f 81/83/134 74/76/135 30/32/135
f 40/42/136 69/71/136 68/70/136
f 40/42/137 56/58/138 69/71/137
f 32/34/139 34/36/139 35/37/139
f 42/44/140 32/34/140 35/37/140
f 11/13/141 81/83/142 12/14/141
f 49/51/143 74/76/143 81/83/144
f 72/74/145 37/39/145 70/72/145
f 21/23/146 86/88/146 46/48/146
f 20/22/147 86/88/148 21/23/148
f 45/47/149 78/80/149 17/19/149
f 27/29/150 36/38/150 9/11/150
f 9/11/151 80/82/152 27/29/151
f 60/62/153 12/14/153 88/90/153
f 12/14/154 60/62/154 62/64/154
f 20/22/155 87/89/156 83/85/157
f 90/92/158 20/22/159 83/85/160
f 13/15/161 42/44/161 35/37/161
f 61/63/162 13/15/162 62/64/162
f 57/59/163 56/58/164 39/41/163
f 38/40/165 45/47/165 17/19/165
f 16/18/166 38/40/166 17/19/166
f 13/15/167 61/63/167 59/61/167
f 59/61/168 61/63/168 60/62/168
f 72/74/169 25/27/170 80/82/171
f 71/73/172 56/58/173 25/27/174
f 47/49/175 67/69/175 6/8/175
f 67/69/176 3/3/176 6/8/176
f 77/79/177 48/50/178 23/25/179
f 54/56/180 77/79/181 23/25/180
f 63/65/182 84/86/183 79/81/182
f 43/45/184 63/65/184 41/43/184
f 52/54/185 31/33/185 30/32/185
f 50/52/186 30/32/186 74/76/186
f 54/56/187 53/55/188 26/28/187
f 77/79/189 54/56/190 26/28/190
f 18/20/191 90/92/191 83/85/192
f 51/53/193 90/92/193 18/20/193
f 34/36/194 33/35/194 7/9/194
f 36/38/195 34/36/195 7/9/195
f 13/15/196 91/93/196 62/64/196
f 62/64/197 91/93/197 66/68/197
f 76/78/198 48/50/199 47/49/198
f 23/25/200 48/50/201 76/78/200
f 17/19/202 78/80/202 52/54/202
f 52/54/203 78/80/203 31/33/203
f 89/91/204 23/25/204 22/24/204
f 89/91/205 14/16/206 54/56/205
f 44/46/207 84/86/208 85/87/207
f 63/65/209 85/87/209 84/86/210
f 16/18/211 83/85/212 68/70/211
f 68/70/213 70/72/213 16/18/213
f 64/66/214 65/67/214 78/80/214
f 64/66/215 43/45/215 65/67/215
f 22/24/216 14/16/217 89/91/216
f 15/17/218 14/16/219 22/24/218
f 59/61/220 88/90/220 58/60/220
f 65/67/221 58/60/221 29/31/222
f 55/57/223 66/68/223 6/8/223
f 10/12/224 55/57/224 11/13/224
f 9/11/225 8/10/225 80/82/226
f 80/82/227 8/10/228 28/30/228
f 21/23/229 57/59/229 39/41/229
f 66/68/230 91/93/230 82/84/230
f 55/57/231 10/12/231 66/68/231
f 53/55/232 36/38/233 27/29/233
f 26/28/234 53/55/235 27/29/234
f 20/22/236 19/21/237 87/89/238
f 87/89/239 19/21/240 40/42/239
f 43/45/241 42/44/241 59/61/241
f 13/15/242 59/61/242 42/44/242
f 49/51/243 11/13/243 55/57/243
f 49/51/244 81/83/245 11/13/244
f 50/52/246 52/54/246 30/32/246
f 44/46/247 38/40/247 37/39/247
f 66/68/248 82/84/248 24/26/248
f 81/83/249 29/31/250 88/90/251
f 58/60/252 88/90/252 29/31/253
f 70/72/254 37/39/254 16/18/254
f 79/81/255 41/43/255 63/65/255
f 32/34/256 42/44/256 41/43/256
f 32/34/257 41/43/257 79/81/257
f 25/27/258 72/74/259 71/73/259
f 71/73/260 72/74/260 70/72/260
f 75/77/261 5/7/261 73/75/261
