# Blender v2.79 (sub 0) OBJ File: 'shovel.blend'
# www.blender.org
mtllib shovel.mtl
o Cube.160_Cube.186
v -0.279039 0.550899 -0.022580
v -0.167067 1.214694 -0.000180
v -0.279039 0.550899 -0.050266
v -0.167067 1.214694 -0.027866
v 0.277908 0.550899 -0.022580
v 0.165936 1.214694 -0.000180
v 0.277908 0.550899 -0.050266
v 0.165936 1.214694 -0.027866
v -0.312321 0.783064 -0.022580
v -0.283612 1.015230 -0.022580
v -0.283612 1.015230 -0.050266
v -0.312321 0.783064 -0.050266
v 0.282481 1.015230 -0.050266
v 0.311189 0.783064 -0.050266
v 0.282481 1.015230 -0.022580
v 0.311189 0.783064 -0.022580
v -0.000566 0.550899 -0.008136
v -0.000566 1.291737 -0.008136
v -0.000566 0.550899 0.019550
v -0.000566 1.291737 0.019550
v -0.000566 0.783064 0.019550
v -0.000566 1.015230 0.019550
v -0.000566 0.783064 -0.008136
v -0.000566 1.015230 -0.008136
v -0.000564 0.822440 -0.047470
v 0.034536 0.822440 -0.030567
v 0.043205 0.822440 0.007414
v 0.018915 0.822440 0.037872
v -0.020043 0.822440 0.037872
v -0.044332 0.822440 0.007414
v -0.035664 0.822440 -0.030567
v -0.000564 -0.003746 -0.056780
v 0.041815 -0.003746 -0.036372
v 0.052281 -0.003746 0.009485
v 0.022954 -0.003746 0.046260
v -0.024082 -0.003746 0.046260
v -0.053409 -0.003746 0.009485
v -0.042943 -0.003746 -0.036372
v 0.031821 -1.122434 -0.028402
v 0.039819 -1.122434 0.006641
v 0.017408 -1.122434 0.034743
v -0.018536 -1.122434 0.034743
v -0.040947 -1.122434 0.006641
v -0.032949 -1.122434 -0.028402
v -0.000564 -1.122434 -0.043997
v -0.000564 -1.122434 -0.002576
v -0.000564 0.960249 -0.002576
vt 0.049964 0.663246
vt 0.340661 0.663246
vt 0.340661 0.953942
vt 0.049964 0.953942
vt 0.049964 0.663246
vt 0.340661 0.663246
vt 0.340661 0.953942
vt 0.049964 0.953942
vt 0.049964 0.663246
vt 0.340661 0.663246
vt 0.340661 0.953942
vt 0.049964 0.953942
vt 0.049964 0.663246
vt 0.340661 0.663246
vt 0.340661 0.953942
vt 0.049964 0.953942
vt 0.049964 0.663246
vt 0.340661 0.663246
vt 0.340661 0.953942
vt 0.049964 0.953942
vt 0.049964 0.663246
vt 0.340661 0.663246
vt 0.049964 0.953942
vt 0.049964 0.663246
vt 0.340661 0.663246
vt 0.340661 0.953942
vt 0.049964 0.953942
vt 0.049964 0.663246
vt 0.340661 0.663246
vt 0.340661 0.953942
vt 0.049964 0.953942
vt 0.049964 0.663246
vt 0.340661 0.663246
vt 0.340661 0.953942
vt 0.049964 0.953942
vt 0.049964 0.663246
vt 0.340661 0.663246
vt 0.340661 0.953942
vt 0.049964 0.953942
vt 0.340661 0.663246
vt 0.340661 0.953942
vt 0.049964 0.953942
vt 0.049964 0.663246
vt 0.340661 0.663246
vt 0.340661 0.953942
vt 0.049964 0.953942
vt 0.049964 0.663246
vt 0.340661 0.663246
vt 0.340661 0.953942
vt 0.049964 0.953942
vt 0.049964 0.663246
vt 0.340661 0.663246
vt 0.340661 0.953942
vt 0.049964 0.953942
vt 0.049964 0.663246
vt 0.340661 0.663246
vt 0.340661 0.953942
vt 0.049964 0.953942
vt 0.049964 0.663246
vt 0.340661 0.663246
vt 0.340661 0.953942
vt 0.049964 0.953942
vt 0.049964 0.663246
vt 0.340661 0.663246
vt 0.340661 0.953942
vt 0.049964 0.953942
vt 0.049964 0.663246
vt 0.340661 0.663246
vt 0.340661 0.953942
vt 0.049964 0.663246
vt 0.340661 0.953942
vt 0.049964 0.953942
vt 0.340661 0.663246
vt 0.340661 0.953942
vt 0.049964 0.663246
vt 0.340661 0.663246
vt 0.049964 0.953942
vt 0.049964 0.663246
vt 0.340661 0.953942
vt 0.049964 0.953942
vt 0.808594 0.843750
vt 0.808594 0.843750
vt 0.808594 0.843750
vt 0.808594 0.843750
vt 0.808594 0.843750
vt 0.808594 0.843750
vt 0.808594 0.843750
vt 0.808594 0.843750
vt 0.808594 0.843750
vt 0.808594 0.843750
vt 0.808594 0.843750
vt 0.808594 0.843750
vt 0.808594 0.843750
vt 0.808594 0.843750
vt 0.808594 0.843750
vt 0.808594 0.843750
vt 0.808594 0.843750
vt 0.808594 0.843750
vt 0.808594 0.843750
vt 0.808594 0.843750
vt 0.808594 0.843750
vt 0.808594 0.843750
vt 0.808594 0.843750
vn -0.8634 0.5045 0.0000
vn -0.1340 0.0138 -0.9909
vn 0.8634 0.5045 0.0000
vn -0.1340 -0.0138 0.9909
vn 0.0000 -1.0000 0.0000
vn -0.4199 0.9076 0.0000
vn -0.1413 -0.0101 0.9899
vn -0.1403 0.0087 0.9901
vn 0.9899 -0.1419 0.0000
vn 0.9924 0.1227 0.0000
vn -0.1413 0.0101 -0.9899
vn -0.1403 -0.0087 -0.9901
vn -0.9899 -0.1419 0.0000
vn -0.9924 0.1227 0.0000
vn 0.1403 -0.0087 -0.9901
vn 0.1413 0.0101 -0.9899
vn 0.1403 0.0087 0.9901
vn 0.1413 -0.0101 0.9899
vn 0.4199 0.9076 0.0000
vn 0.1340 -0.0138 0.9909
vn 0.1340 0.0138 -0.9909
vn 0.4339 0.0102 -0.9009
vn 0.9749 0.0102 -0.2225
vn 0.7818 0.0102 0.6235
vn 0.0000 0.0102 0.9999
vn -0.7818 0.0102 0.6235
vn -0.9749 0.0102 -0.2225
vn -0.4339 0.0102 -0.9009
vn -0.4339 -0.0103 -0.9009
vn -0.9749 -0.0103 -0.2225
vn -0.7818 -0.0103 0.6235
vn 0.0000 -0.0103 0.9999
vn 0.7818 -0.0103 0.6235
vn 0.9749 -0.0103 -0.2225
vn 0.4339 -0.0103 -0.9009
vn -0.4163 0.2816 -0.8645
vn -0.7502 0.2816 0.5982
vn 0.7502 0.2816 0.5982
vn -0.9355 0.2816 -0.2135
vn 0.0000 0.2816 0.9595
vn 0.9355 0.2816 -0.2135
vn 0.4163 0.2816 -0.8645
usemtl None
s off
f 10/1/1 2/2/1 4/3/1 11/4/1
f 24/5/2 18/6/2 8/7/2 13/8/2
f 13/9/3 8/10/3 6/11/3 15/12/3
f 22/13/4 20/14/4 2/15/4 10/16/4
f 17/17/5 7/18/5 5/19/5 19/20/5
f 18/21/6 4/22/6 2/15/6 20/23/6
f 19/24/7 21/25/7 9/26/7 1/27/7
f 21/28/8 22/29/8 10/30/8 9/31/8
f 7/32/9 14/33/9 16/34/9 5/35/9
f 14/36/10 13/37/10 15/38/10 16/39/10
f 17/17/11 23/40/11 14/41/11 7/42/11
f 23/43/12 24/44/12 13/45/12 14/46/12
f 1/47/13 9/48/13 12/49/13 3/50/13
f 9/51/14 10/52/14 11/53/14 12/54/14
f 12/55/15 11/56/15 24/57/15 23/58/15
f 3/59/16 12/60/16 23/61/16 17/62/16
f 16/63/17 15/64/17 22/65/17 21/66/17
f 5/67/18 16/68/18 21/69/18 19/20/18
f 8/70/19 18/6/19 20/71/19 6/72/19
f 3/59/5 17/73/5 19/74/5 1/27/5
f 15/75/20 6/76/20 20/71/20 22/77/20
f 11/78/21 4/22/21 18/79/21 24/80/21
f 32/81/22 25/82/22 26/83/22 33/84/22
f 33/84/23 26/83/23 27/85/23 34/86/23
f 34/86/24 27/85/24 28/87/24 35/88/24
f 35/88/25 28/87/25 29/89/25 36/90/25
f 36/90/26 29/89/26 30/91/26 37/92/26
f 37/92/27 30/91/27 31/93/27 38/94/27
f 38/94/28 31/93/28 25/82/28 32/81/28
f 44/95/29 38/94/29 32/81/29 45/96/29
f 43/97/30 37/92/30 38/94/30 44/95/30
f 42/98/31 36/90/31 37/92/31 43/97/31
f 41/99/32 35/88/32 36/90/32 42/98/32
f 40/100/33 34/86/33 35/88/33 41/99/33
f 39/101/34 33/84/34 34/86/34 40/100/34
f 45/96/35 32/81/35 33/84/35 39/101/35
f 39/101/5 40/100/5 46/102/5
f 44/95/5 45/96/5 46/102/5
f 42/98/5 43/97/5 46/102/5
f 40/100/5 41/99/5 46/102/5
f 45/96/5 39/101/5 46/102/5
f 43/97/5 44/95/5 46/102/5
f 41/99/5 42/98/5 46/102/5
f 25/82/36 31/93/36 47/103/36
f 30/91/37 29/89/37 47/103/37
f 28/87/38 27/85/38 47/103/38
f 31/93/39 30/91/39 47/103/39
f 29/89/40 28/87/40 47/103/40
f 27/85/41 26/83/41 47/103/41
f 26/83/42 25/82/42 47/103/42
