# Blender v2.79 (sub 0) OBJ File: 'stairs_stone_001.blend'
# www.blender.org
mtllib stairs_stone_001.mtl
o Cube.163_Cube.188
v 2.246379 -0.003595 1.319111
v 2.246379 0.300690 1.319111
v -2.338620 -0.003595 1.319111
v -2.338620 0.300690 1.319111
v -2.338620 0.600690 0.803631
v 2.246379 0.300690 0.803631
v 2.246379 0.600690 0.803631
v -2.338620 0.300690 0.803631
v -2.338620 0.600690 0.303631
v 2.246379 0.600690 0.303631
v -2.338620 0.900690 0.303631
v 2.246379 0.900690 0.303631
v -2.338620 0.900690 -0.196369
v 2.246379 0.900690 -0.196369
v -2.338620 1.200690 -0.196369
v 2.246379 1.200690 -0.196369
v -2.338620 1.200690 -0.696369
v 2.246379 1.200690 -0.696369
v -2.338620 1.500690 -0.696369
v 2.246379 1.500690 -0.696369
v -2.338620 1.500690 -1.196370
v 2.246379 1.500690 -1.196370
v -2.338620 -0.003562 -1.196370
v 2.246379 -0.003562 -1.196370
v -0.223273 1.200690 -0.196369
v 1.841443 1.200690 -0.196369
v 1.060851 1.046792 -0.196369
v 0.817857 1.200690 -0.396254
v -0.427047 0.300690 1.319111
v -1.980788 0.300690 1.319111
v -1.277028 0.182582 1.319111
v -1.131345 0.300690 1.166887
vt 0.131276 0.789863
vt 0.025376 0.909062
vt 0.347832 0.903434
vt 0.086933 0.913813
vt 0.347878 0.909062
vt 0.365731 0.794249
vt 0.379114 0.783292
vt 0.355686 0.807132
vt 0.113562 0.814217
vt 0.101336 0.825999
vt 0.349959 0.824705
vt 0.356015 0.801800
vt 0.089855 0.917303
vt 0.025376 0.916527
vt 0.122645 0.801800
vt 0.088714 0.840864
vt 0.337071 0.835361
vt 0.074294 0.854514
vt 0.332859 0.850735
vt 0.059897 0.872784
vt 0.323317 0.859328
vt 0.025376 0.895055
vt 0.025376 0.918758
vt 0.120083 0.909127
vt 0.184830 0.917367
vt 0.344284 0.918758
vt 0.319584 0.871280
vt 0.209070 0.912638
vt 0.115042 0.913749
vt 0.066819 0.890827
vt 0.070801 0.891926
vt 0.313004 0.875306
vt 0.083031 0.903310
vt 0.310191 0.886486
vt 0.099885 0.903370
vt 0.303950 0.891487
vt 0.120254 0.866922
vt 0.310884 0.866452
vt 0.025376 0.912638
vt 0.165127 0.916527
vn 0.0000 0.0000 1.0000
vn 0.0000 1.0000 -0.0000
vn -0.0000 0.0000 -1.0000
vn -0.0000 -1.0000 -0.0000
vn -1.0000 0.0000 0.0000
vn 1.0000 0.0000 0.0000
vn -0.1374 0.6970 0.7037
vn 0.1011 0.8439 0.5268
vn -0.1161 0.8355 0.5371
vn 0.1216 0.7245 0.6785
usemtl None
s off
f 1/1/1 2/2/1 29/3/1 31/4/1 30/5/1 4/6/1 3/7/1
f 8/8/1 6/9/1 7/10/1 5/11/1
f 8/8/2 4/6/2 30/12/2 32/13/2 29/14/2 2/15/2 6/9/2
f 5/11/2 7/10/2 10/16/2 9/17/2
f 9/17/1 10/16/1 12/18/1 11/19/1
f 11/19/2 12/18/2 14/20/2 13/21/2
f 13/21/1 14/20/1 16/22/1 26/23/1 27/24/1 25/25/1 15/26/1
f 15/27/2 25/28/2 28/29/2 26/30/2 16/22/2 18/31/2 17/32/2
f 17/32/1 18/31/1 20/33/1 19/34/1
f 19/34/2 20/33/2 22/35/2 21/36/2
f 21/36/3 22/35/3 24/37/3 23/38/3
f 1/1/4 3/7/4 23/38/4 24/37/4
f 19/34/5 21/36/5 17/32/5
f 15/27/5 17/32/5 13/21/5
f 11/19/5 13/21/5 9/17/5
f 5/11/5 9/17/5 8/8/5
f 3/7/5 4/6/5 8/8/5
f 21/36/5 23/38/5 17/32/5
f 17/32/5 23/38/5 13/21/5
f 13/21/5 23/38/5 9/17/5
f 9/17/5 23/38/5 8/8/5
f 23/38/5 3/7/5 8/8/5
f 20/33/6 18/31/6 22/35/6
f 16/22/6 14/20/6 18/31/6
f 12/18/6 10/16/6 14/20/6
f 7/10/6 6/9/6 10/16/6
f 2/15/6 1/1/6 6/9/6
f 22/35/6 18/31/6 24/37/6
f 18/31/6 14/20/6 24/37/6
f 14/20/6 10/16/6 24/37/6
f 10/16/6 6/9/6 24/37/6
f 24/37/6 6/9/6 1/1/6
f 27/24/7 26/39/7 28/29/7
f 28/29/8 25/28/8 27/24/8
f 32/13/9 31/4/9 29/14/9
f 31/4/10 32/13/10 30/40/10
