# Blender v2.79 (sub 0) OBJ File: 'tree_fallen_002.blend'
# www.blender.org
mtllib tree_fallen_002.mtl
o Cylinder.036_Cylinder.038
v 1.836830 0.473965 -1.315078
v 1.684725 0.098742 -1.390166
v 1.992432 -0.044449 -1.347566
v 2.345087 0.180026 -1.347661
v 2.258498 0.509564 -1.298520
v 0.957467 0.214689 -3.416265
v 1.028183 0.449850 -3.457468
v 1.129521 0.064184 -3.514977
v 1.306571 0.206326 -3.617188
v 1.243942 0.444681 -3.581645
v 0.105477 0.139370 -4.966292
v 0.101262 0.388203 -4.974244
v 0.343547 0.066427 -4.965718
v 0.486468 0.270179 -4.973314
v 0.336727 0.469046 -4.978584
v -0.109015 0.102739 -6.648005
v -0.137437 0.280972 -6.652291
v 0.065688 0.074955 -6.611944
v 0.145238 0.236018 -6.593945
v 0.019700 0.363343 -6.618879
v 0.312014 0.180395 -8.371130
v 0.299740 0.257358 -8.372982
v 0.387452 0.168398 -8.355560
v 0.421802 0.237946 -8.347789
v 0.367594 0.292927 -8.358555
v -0.096198 0.239720 -6.721251
v -0.051379 0.324815 -6.801852
v -0.073683 0.125750 -6.768687
v -0.014951 0.140408 -6.878605
v -0.001166 0.263437 -6.899102
v -0.890262 0.241569 -7.166696
v -0.858528 0.319191 -7.221550
v -0.849307 0.158231 -7.204362
v -0.792260 0.184348 -7.282496
v -0.797960 0.283826 -7.293119
v -1.565132 0.141091 -7.745510
v -1.549422 0.179518 -7.772666
v -1.544857 0.099834 -7.764156
v -1.516616 0.112764 -7.802838
v -1.519438 0.162010 -7.808096
v 0.217549 0.216137 -7.349648
v 0.184698 0.144158 -7.379529
v 0.184471 0.280260 -7.393774
v 0.131175 0.247911 -7.450925
v 0.131316 0.163796 -7.442120
v 0.666015 0.181771 -7.767099
v 0.644811 0.119948 -7.784114
v 0.625473 0.226722 -7.797054
v 0.579211 0.192676 -7.832583
v 0.591163 0.126687 -7.824585
v 1.006794 0.183194 -8.264631
v 0.996297 0.152589 -8.273055
v 0.986723 0.205447 -8.279462
v 0.963822 0.188594 -8.297050
v 0.969738 0.155924 -8.293090
vt 0.063582 0.657332
vt 0.350481 0.657332
vt 0.350481 0.944231
vt 0.063582 0.944231
vt 0.063582 0.657332
vt 0.350481 0.657332
vt 0.350481 0.944231
vt 0.063582 0.944231
vt 0.063582 0.657332
vt 0.350481 0.657332
vt 0.350481 0.944231
vt 0.063582 0.944231
vt 0.063582 0.657332
vt 0.350481 0.657332
vt 0.350481 0.944231
vt 0.063582 0.944231
vt 0.063582 0.657332
vt 0.350481 0.657332
vt 0.350481 0.944231
vt 0.063582 0.944231
vt 0.063582 0.657332
vt 0.350481 0.657332
vt 0.350481 0.944231
vt 0.063582 0.944231
vt 0.063582 0.657332
vt 0.350481 0.657332
vt 0.350481 0.944231
vt 0.063582 0.944231
vt 0.063582 0.657332
vt 0.350481 0.657332
vt 0.350481 0.944231
vt 0.063582 0.944231
vt 0.063582 0.657332
vt 0.350481 0.657332
vt 0.350481 0.944231
vt 0.063582 0.944231
vt 0.063582 0.657332
vt 0.350481 0.657332
vt 0.350481 0.944231
vt 0.063582 0.944231
vt 0.063582 0.657332
vt 0.350481 0.657332
vt 0.350481 0.944231
vt 0.063582 0.944231
vt 0.063582 0.657332
vt 0.350481 0.657332
vt 0.350481 0.944231
vt 0.063582 0.944231
vt 0.063582 0.657332
vt 0.350481 0.657332
vt 0.350481 0.944231
vt 0.063582 0.944231
vt 0.063582 0.657332
vt 0.350481 0.657332
vt 0.350481 0.944231
vt 0.063582 0.944231
vt 0.063582 0.657332
vt 0.350481 0.657332
vt 0.350481 0.944231
vt 0.063582 0.944231
vt 0.063582 0.657332
vt 0.350481 0.657332
vt 0.350481 0.944231
vt 0.063582 0.944231
vt 0.207031 0.944231
vt 0.343460 0.845110
vt 0.291349 0.684728
vt 0.122714 0.684728
vt 0.070603 0.845110
vt 0.063582 0.657332
vt 0.350481 0.657332
vt 0.350481 0.944231
vt 0.063582 0.944231
vt 0.063582 0.657332
vt 0.350481 0.657332
vt 0.350481 0.944231
vt 0.063582 0.944231
vt 0.063582 0.657332
vt 0.350481 0.657332
vt 0.350481 0.944231
vt 0.063582 0.944231
vt 0.063582 0.657332
vt 0.350481 0.657332
vt 0.350481 0.944231
vt 0.063582 0.944231
vt 0.093288 0.666515
vt 0.092588 0.666564
vt 0.084147 0.753088
vt 0.083785 0.753829
vt 0.083714 0.755021
vt 0.064268 0.944215
vt 0.065672 0.940089
vt 0.092577 0.663354
vt 0.093991 0.657348
vt 0.083837 0.755177
vt 0.084119 0.754076
vt 0.093991 0.663402
vt 0.065342 0.937854
vt 0.063598 0.940251
vt 0.064328 0.937528
vt 0.350481 0.944231
vt 0.350481 0.944231
vt 0.100506 0.657842
vt 0.100542 0.658337
vt 0.161749 0.664312
vt 0.162328 0.664487
vt 0.163011 0.664524
vt 0.293917 0.677280
vt 0.292700 0.677476
vt 0.098271 0.658346
vt 0.094022 0.657348
vt 0.163158 0.664446
vt 0.162421 0.664291
vt 0.098305 0.657348
vt 0.292442 0.678056
vt 0.296894 0.678261
vt 0.293630 0.678566
vn -0.8909 0.3066 0.3350
vn -0.1434 0.9866 0.0776
vn 0.5187 -0.8184 -0.2472
vn 0.8720 0.2881 -0.3957
vn -0.5041 -0.8513 0.1456
vn -0.0478 0.9989 -0.0004
vn 0.7599 0.6246 -0.1802
vn 0.6200 -0.6913 -0.3710
vn -0.8560 0.1673 0.4891
vn 0.7781 0.4109 -0.4751
vn -0.4168 -0.8743 0.2488
vn -0.4399 0.8895 -0.1240
vn -0.2405 -0.9697 0.0438
vn -0.3842 0.9232 0.0051
vn 0.8453 -0.5110 -0.1562
vn -0.9881 -0.0716 0.1363
vn 0.2035 0.0089 -0.9790
vn 0.8817 -0.4510 0.1385
vn -0.9575 -0.1585 -0.2411
vn 0.6968 0.7087 0.1107
vn -0.1407 -0.9869 -0.0789
vn 0.4431 -0.1399 -0.8855
vn 0.1059 0.9242 -0.3670
vn -0.4396 -0.4712 0.7647
vn 0.2028 0.9011 -0.3833
vn 0.0501 -0.9820 -0.1821
vn -0.3449 0.6910 0.6352
vn -0.7849 -0.1101 -0.6098
vn 0.2140 -0.9627 -0.1655
vn -0.5628 0.6180 0.5489
vn 0.5860 -0.0528 -0.8086
vn -0.4960 -0.5481 0.6735
vn -0.1899 -0.1181 0.9747
vn -0.0330 -0.0724 0.9968
vn 0.0806 -0.1263 0.9887
vn -0.6460 -0.1361 -0.7511
vn -0.0485 -0.9937 -0.1012
vn 0.5257 0.6914 0.4956
vn -0.1488 -0.9841 -0.0973
vn -0.2335 0.8916 -0.3880
vn 0.5762 -0.4677 0.6702
vn 0.6032 0.0126 -0.7975
vn -0.3848 0.8634 -0.3263
vn 0.7561 -0.4016 0.5167
vn -0.7536 -0.2119 -0.6222
vn 0.5483 0.7462 0.3777
usemtl None
s off
f 2/1/1 1/2/1 7/3/1 6/4/1
f 7/5/2 10/6/2 15/7/2 12/8/2
f 4/9/3 3/10/3 8/11/3 9/12/3
f 5/13/4 4/14/4 9/15/4 10/16/4
f 3/17/5 2/18/5 6/19/5 8/20/5
f 1/21/6 5/22/6 10/23/6 7/24/6
f 15/25/7 14/26/7 19/27/7 20/28/7
f 9/29/8 8/30/8 13/31/8 14/32/8
f 6/33/9 7/34/9 12/35/9 11/36/9
f 10/37/10 9/38/10 14/39/10 15/40/10
f 8/41/11 6/42/11 11/43/11 13/44/11
f 17/45/12 20/46/12 25/47/12 22/48/12
f 13/49/13 11/50/13 16/51/13 18/52/13
f 12/53/14 15/54/14 20/55/14 17/56/14
f 14/57/15 13/58/15 18/59/15 19/60/15
f 11/61/16 12/62/16 17/63/16 16/64/16
f 21/65/17 22/66/17 25/67/17 24/68/17 23/69/17
f 19/70/18 18/71/18 23/72/18 24/73/18
f 16/74/19 17/75/19 22/76/19 21/77/19
f 20/78/20 19/79/20 24/80/20 25/81/20
f 18/82/21 16/83/21 21/84/21 23/85/21
f 30/86/22 29/87/22 34/88/22 35/89/22
f 32/90/23 35/89/23 40/91/23 37/92/23
f 28/93/24 26/94/24 31/95/24 33/96/24
f 27/97/25 30/86/25 35/89/25 32/90/25
f 29/87/26 28/93/26 33/96/26 34/88/26
f 26/94/27 27/97/27 32/90/27 31/95/27
f 36/98/28 37/92/28 40/91/28 39/99/28 38/100/28
f 34/88/29 33/96/29 38/100/29 39/99/29
f 31/95/30 32/90/30 37/92/30 36/98/30
f 35/89/31 34/88/31 39/99/31 40/91/31
f 33/96/32 31/95/32 36/98/32 38/100/32
f 2/1/33 3/10/33 1/101/33
f 5/13/34 1/2/34 3/102/34
f 4/9/35 5/22/35 3/102/35
f 45/103/36 44/104/36 49/105/36 50/106/36
f 47/107/37 50/106/37 55/108/37 52/109/37
f 43/110/38 41/111/38 46/112/38 48/113/38
f 42/114/39 45/103/39 50/106/39 47/107/39
f 44/104/40 43/110/40 48/113/40 49/105/40
f 41/111/41 42/114/41 47/107/41 46/112/41
f 51/115/42 52/109/42 55/108/42 54/116/42 53/117/42
f 49/105/43 48/113/43 53/117/43 54/116/43
f 46/112/44 47/107/44 52/109/44 51/115/44
f 50/106/45 49/105/45 54/116/45 55/108/45
f 48/113/46 46/112/46 51/115/46 53/117/46
o Cylinder.030_Cylinder.031
v 0.449547 -0.824036 -0.318395
v 0.308180 2.377796 -0.218259
v 0.443301 -0.824036 0.201387
v 0.304381 2.124069 0.097883
v -0.052970 -0.824036 0.356067
v 0.002539 2.592975 0.191963
v -0.353437 -0.824036 -0.068116
v -0.180211 2.504074 -0.066034
v -0.042864 -0.824036 -0.484956
v 0.008686 2.123738 -0.319565
vt 0.044474 0.626505
vt 0.369589 0.626505
vt 0.369589 0.951620
vt 0.044474 0.951620
vt 0.044474 0.626505
vt 0.369589 0.626505
vt 0.369589 0.951620
vt 0.044474 0.951620
vt 0.044474 0.626505
vt 0.369589 0.626505
vt 0.369589 0.951620
vt 0.044474 0.951620
vt 0.044474 0.626505
vt 0.369589 0.626505
vt 0.369589 0.951620
vt 0.044474 0.951620
vt 0.044474 0.626505
vt 0.369589 0.626505
vt 0.369589 0.951620
vt 0.044474 0.951620
vt 0.207031 0.951620
vt 0.361632 0.839295
vt 0.302580 0.657551
vt 0.111482 0.657551
vt 0.052430 0.839296
vt 0.044474 0.626505
vt 0.044474 0.626505
vt 0.044474 0.626505
vn 0.9986 0.0455 0.0258
vn 0.3207 0.0440 0.9461
vn -0.8179 0.0415 0.5739
vn -0.7888 0.0446 -0.6130
vn 0.3070 0.0455 -0.9506
vn 0.0000 -1.0000 0.0000
vn 0.8131 0.4491 0.3702
vn -0.1366 0.5016 -0.8542
vn 0.1129 0.9120 -0.3943
usemtl None
s off
f 56/118/47 57/119/47 59/120/47 58/121/47
f 58/122/48 59/123/48 61/124/48 60/125/48
f 60/126/49 61/127/49 63/128/49 62/129/49
f 62/130/50 63/131/50 65/132/50 64/133/50
f 64/134/51 65/135/51 57/136/51 56/137/51
f 56/138/52 58/139/52 60/140/52 62/141/52 64/142/52
f 59/143/53 57/119/53 61/124/53
f 65/144/54 63/131/54 57/136/54
f 61/145/55 57/119/55 63/128/55
