# Blender v2.79 (sub 0) OBJ File: 'tree_pine_003.blend'
# www.blender.org
mtllib tree_pine_003.mtl
o Cylinder.039_Cylinder.042
v -2.257424 1.143756 -1.729754
v 0.171347 3.200963 -1.841914
v -2.808343 0.814818 0.738496
v 1.908332 2.982631 -1.388171
v -1.200631 1.212237 2.673116
v 2.091010 3.043900 0.517324
v 1.370063 0.764242 2.791402
v 1.178023 2.750578 2.087919
v 2.790969 1.269701 0.698656
v -1.013024 3.036141 2.202886
v 2.278533 1.055646 -1.704596
v -2.228127 3.063115 0.608060
v 0.026282 0.776120 -2.838458
v -1.692536 3.444623 -1.283244
v 2.213363 3.177901 -1.632720
v 0.171546 3.402115 -2.205916
v 2.456756 3.254060 0.598047
v 1.345290 2.924756 2.434873
v -1.190049 3.207597 2.569494
v -2.608567 3.241814 0.693742
v -1.995294 3.624802 -1.525702
v 1.390113 4.778618 -1.043658
v 0.044021 4.532921 -1.666010
v 1.622321 4.871764 0.393991
v 0.797217 4.721776 1.555868
v -0.452073 4.448080 1.498510
v -1.701821 4.427308 0.410986
v -1.286119 4.778595 -0.939120
v 1.571448 4.895557 -1.187216
v 0.044227 4.655593 -1.900435
v 1.859099 4.993219 0.447515
v 0.897368 4.835581 1.761507
v -0.550752 4.559246 1.706384
v -1.946420 4.539044 0.466962
v -1.462358 4.895388 -1.079710
v 0.999816 5.821419 -0.693724
v 0.006942 5.808906 -1.210207
v 1.208335 5.834824 0.291872
v 0.573699 5.921280 1.059503
v -0.467034 5.745996 1.123628
v -1.194848 5.754602 0.361242
v -0.878099 5.938035 -0.691298
v 1.238059 5.927796 -0.880808
v 0.005729 5.923096 -1.520628
v 1.512221 5.944132 0.362161
v 0.708106 6.023154 1.332269
v -0.598756 5.856945 1.400041
v -1.509759 5.873291 0.432813
v -1.111405 6.040831 -0.875048
v 0.729392 7.170408 -0.711405
v 0.095458 7.323487 -1.089236
v 0.811202 7.376407 0.008680
v 0.399978 7.149989 0.652742
v -0.291291 7.098851 0.786680
v -0.604104 7.368494 0.060876
v -0.488961 7.017127 -0.712111
v 0.331977 9.360271 -0.205359
v 0.026214 1.038318 -3.255389
v 2.582465 1.323752 -1.946852
v 3.180022 1.523481 0.787748
v 1.551375 1.024029 3.168355
v -1.366014 1.475424 3.015901
v -3.200372 1.079783 0.828184
v -2.577241 1.406501 -1.984496
v 0.026366 1.443689 0.091131
v 0.029006 -1.203732 -0.252165
v 0.028785 1.505106 -0.254233
v 0.357100 -1.195757 -0.012602
v 0.359641 1.512307 -0.013010
v 0.232230 -1.201278 0.373739
v 0.233382 1.507620 0.376215
v -0.174119 -1.200047 0.373586
v -0.177529 1.496224 0.378381
v -0.299882 -1.201400 -0.012843
v -0.304521 1.497099 -0.014159
vt 0.057165 0.623571
vt 0.364710 0.623571
vt 0.364710 0.931117
vt 0.057165 0.931117
vt 0.057165 0.623571
vt 0.364710 0.623571
vt 0.364710 0.931117
vt 0.057165 0.931117
vt 0.057165 0.623571
vt 0.364710 0.623571
vt 0.364710 0.931117
vt 0.057165 0.931117
vt 0.057165 0.623571
vt 0.364710 0.623571
vt 0.364710 0.931117
vt 0.057165 0.931117
vt 0.057165 0.623571
vt 0.364710 0.623571
vt 0.364710 0.931117
vt 0.057165 0.931117
vt 0.057165 0.623571
vt 0.364710 0.931117
vt 0.057165 0.931117
vt 0.057165 0.623571
vt 0.364710 0.623571
vt 0.364710 0.931117
vt 0.057165 0.931117
vt 0.057165 0.623571
vt 0.364710 0.623571
vt 0.364710 0.931117
vt 0.057165 0.931117
vt 0.057165 0.623571
vt 0.364710 0.623571
vt 0.364710 0.931117
vt 0.057165 0.931117
vt 0.057165 0.623571
vt 0.364710 0.931117
vt 0.057165 0.931117
vt 0.057165 0.623571
vt 0.364710 0.931117
vt 0.057165 0.931117
vt 0.057165 0.623571
vt 0.364710 0.931117
vt 0.057165 0.931117
vt 0.057165 0.623571
vt 0.364710 0.931117
vt 0.057165 0.931117
vt 0.057165 0.623571
vt 0.364710 0.931117
vt 0.057165 0.931117
vt 0.057165 0.623571
vt 0.364710 0.931117
vt 0.057165 0.931117
vt 0.057165 0.623571
vt 0.364710 0.623571
vt 0.364710 0.931117
vt 0.057165 0.931117
vt 0.057165 0.623571
vt 0.364710 0.623571
vt 0.364710 0.931117
vt 0.057165 0.931117
vt 0.057165 0.623571
vt 0.364710 0.623571
vt 0.364710 0.931117
vt 0.057165 0.931117
vt 0.057165 0.623571
vt 0.364710 0.623571
vt 0.364710 0.931117
vt 0.057165 0.931117
vt 0.057165 0.623571
vt 0.364710 0.623571
vt 0.364710 0.931117
vt 0.057165 0.931117
vt 0.057165 0.623571
vt 0.364710 0.623571
vt 0.364710 0.931117
vt 0.057165 0.931117
vt 0.057165 0.623571
vt 0.364710 0.623571
vt 0.364710 0.931117
vt 0.057165 0.931117
vt 0.057165 0.623571
vt 0.364710 0.623571
vt 0.364710 0.931117
vt 0.057165 0.931117
vt 0.057165 0.623571
vt 0.364710 0.623571
vt 0.364710 0.931117
vt 0.057165 0.931117
vt 0.057165 0.623571
vt 0.364710 0.623571
vt 0.364710 0.931117
vt 0.057165 0.931117
vt 0.057165 0.623571
vt 0.364710 0.623571
vt 0.364710 0.931117
vt 0.057165 0.931117
vt 0.057165 0.623571
vt 0.364710 0.623571
vt 0.364710 0.931117
vt 0.057165 0.931117
vt 0.057165 0.623571
vt 0.364710 0.623571
vt 0.364710 0.931117
vt 0.057165 0.931117
vt 0.057165 0.623571
vt 0.364710 0.623571
vt 0.364710 0.931117
vt 0.057165 0.931117
vt 0.057165 0.623571
vt 0.364710 0.623571
vt 0.364710 0.931117
vt 0.057165 0.931117
vt 0.057165 0.623571
vt 0.364710 0.623571
vt 0.364710 0.931117
vt 0.057165 0.931117
vt 0.057165 0.623571
vt 0.364710 0.623571
vt 0.364710 0.931117
vt 0.057165 0.931117
vt 0.057165 0.623571
vt 0.364710 0.623571
vt 0.364710 0.931117
vt 0.057165 0.623571
vt 0.364710 0.623571
vt 0.057165 0.623571
vt 0.364710 0.623571
vt 0.364710 0.931117
vt 0.057165 0.931117
vt 0.057165 0.623571
vt 0.364710 0.623571
vt 0.057165 0.931117
vt 0.057165 0.623571
vt 0.364710 0.623571
vt 0.364710 0.931117
vt 0.057165 0.623571
vt 0.364710 0.623571
vt 0.364710 0.931117
vt 0.057165 0.931117
vt 0.057165 0.623571
vt 0.364710 0.623571
vt 0.364710 0.931117
vt 0.057165 0.931117
vt 0.057165 0.623571
vt 0.364710 0.623571
vt 0.364710 0.931117
vt 0.057165 0.931117
vt 0.057165 0.623571
vt 0.364710 0.623571
vt 0.364710 0.931117
vt 0.057165 0.931117
vt 0.057165 0.623571
vt 0.364710 0.623571
vt 0.364710 0.931117
vt 0.057165 0.931117
vt 0.057165 0.623571
vt 0.364710 0.623571
vt 0.364710 0.931117
vt 0.057165 0.931117
vt 0.057165 0.623571
vt 0.364710 0.623571
vt 0.364710 0.931117
vt 0.057165 0.623571
vt 0.364710 0.623571
vt 0.364710 0.931117
vt 0.057165 0.931117
vt 0.057165 0.623571
vt 0.364710 0.623571
vt 0.364710 0.931117
vt 0.057165 0.931117
vt 0.057165 0.623571
vt 0.364710 0.623571
vt 0.057165 0.931117
vt 0.057165 0.623571
vt 0.364710 0.623571
vt 0.364710 0.931117
vt 0.057165 0.931117
vt 0.057165 0.623571
vt 0.364710 0.623571
vt 0.057165 0.623571
vt 0.364710 0.623571
vt 0.057165 0.623571
vt 0.364710 0.623571
vt 0.057165 0.623571
vt 0.364710 0.623571
vt 0.057165 0.623571
vt 0.057165 0.623571
vt 0.364710 0.623571
vt 0.057165 0.623571
vt 0.364710 0.623571
vt 0.057165 0.623571
vt 0.364710 0.623571
vt 0.364710 0.931117
vt 0.364710 0.931117
vt 0.364710 0.931117
vt 0.364710 0.931117
vt 0.364710 0.623571
vt 0.364710 0.931117
vt 0.057165 0.931117
vt 0.364710 0.623571
vt 0.364710 0.931117
vt 0.057165 0.931117
vt 0.364710 0.623571
vt 0.364710 0.931117
vt 0.057165 0.931117
vt 0.364710 0.623571
vt 0.364710 0.931117
vt 0.057165 0.931117
vt 0.364710 0.623571
vt 0.364710 0.931117
vt 0.057165 0.931117
vt 0.364710 0.623571
vt 0.364710 0.931117
vt 0.057165 0.931117
vt 0.364710 0.623571
vt 0.364710 0.931117
vt 0.057165 0.931117
vt 0.057165 0.623571
vt 0.364710 0.623571
vt 0.364710 0.931117
vt 0.057165 0.623571
vt 0.364710 0.623571
vt 0.057165 0.623571
vt 0.364710 0.623571
vt 0.057165 0.623571
vt 0.364710 0.623571
vt 0.057165 0.623571
vt 0.364710 0.623571
vt 0.057165 0.623571
vt 0.364710 0.623571
vt 0.057165 0.623571
vt 0.364710 0.623571
vt 0.744955 0.788042
vt 0.881475 0.911792
vt 0.761193 0.911792
vt 0.825161 0.767730
vt 0.666157 0.828409
vt 0.859476 0.847298
vt 0.758094 0.719333
vt 0.798899 0.908003
vt 0.888530 0.778091
vt 0.729327 0.868879
vn 0.3292 0.4686 -0.8198
vn 0.8549 0.4896 -0.1713
vn 0.6660 0.5218 0.5331
vn 0.0655 0.4984 0.8645
vn -0.7234 0.4284 0.5415
vn 0.5015 -0.8534 0.1420
vn -0.8898 0.4294 -0.1545
vn -0.2737 0.4852 -0.8305
vn 0.2945 0.4508 -0.8427
vn -0.3972 -0.8759 -0.2739
vn -0.0850 -0.8972 0.4334
vn -0.2334 -0.8714 -0.4315
vn 0.5128 -0.8582 -0.0243
vn -0.3572 -0.8985 0.2553
vn 0.0447 -0.8472 -0.5295
vn -0.3535 -0.8548 -0.3799
vn -0.8102 0.5747 -0.1153
vn 0.0185 0.5393 0.8419
vn 0.8742 0.4664 -0.1349
vn -0.2713 0.4803 -0.8341
vn -0.5572 0.6594 0.5047
vn 0.7120 0.4573 0.5329
vn -0.8422 0.5172 -0.1521
vn -0.3002 -0.8846 0.3568
vn 0.4443 -0.8703 0.2125
vn 0.3265 -0.8613 -0.3892
vn -0.3976 -0.8552 -0.3324
vn 0.1573 -0.8677 0.4715
vn 0.4904 -0.8710 -0.0289
vn 0.2304 -0.9321 0.2795
vn -0.0846 0.4836 0.8712
vn 0.7938 0.5825 -0.1750
vn -0.3635 0.4697 -0.8045
vn -0.6026 0.4310 0.6716
vn 0.6491 0.5582 0.5169
vn 0.3255 0.5380 -0.7776
vn -0.6175 0.2674 -0.7397
vn 0.1772 -0.9282 -0.3271
vn -0.3226 -0.9171 -0.2341
vn 0.1541 -0.9216 0.3564
vn 0.3568 -0.9319 -0.0648
vn -0.2735 -0.9217 -0.2749
vn -0.2800 -0.9264 0.2519
vn -0.8781 0.3726 -0.3002
vn -0.6619 0.4958 0.5622
vn 0.6747 0.4892 0.5527
vn 0.4777 0.2660 -0.8373
vn -0.8330 0.4940 -0.2492
vn -0.0101 0.4448 0.8956
vn 0.8983 0.3895 -0.2033
vn 0.1515 0.3618 0.9199
vn 0.9619 0.2140 -0.1705
vn -0.6327 0.3689 -0.6808
vn -0.7638 0.4240 0.4867
vn 0.7739 0.2497 0.5819
vn 0.5405 0.2813 -0.7929
vn -0.3815 0.5027 -0.7757
vn -0.6716 0.3642 0.6452
vn 0.1220 0.5368 0.8348
vn 0.8933 0.3949 -0.2145
vn -0.4248 0.4059 -0.8092
vn 0.5597 -0.8040 0.2010
vn 0.3423 -0.8029 -0.4881
vn -0.3841 -0.7928 0.4732
vn 0.5915 -0.8039 -0.0630
vn -0.3499 -0.8117 -0.4677
vn -0.1593 -0.7970 0.5826
vn -0.5470 -0.8072 -0.2218
vn -0.0083 -0.9707 -0.2401
vn 0.0092 -0.9750 0.2222
vn 0.1970 -0.9766 -0.0862
vn -0.1620 -0.9730 -0.1642
vn -0.0858 -0.9906 0.1065
vn -0.0490 -0.9738 0.2219
vn 0.2203 -0.9753 0.0173
vn 0.5894 -0.0006 -0.8078
vn 0.9514 -0.0008 0.3080
vn 0.0025 -0.0013 1.0000
vn -0.9512 -0.0016 0.3086
vn -0.5864 -0.0010 -0.8100
usemtl None
s off
f 58/1/1 2/2/1 4/3/1 59/4/1
f 59/5/2 4/6/2 6/7/2 60/8/2
f 60/9/3 6/10/3 8/11/3 61/12/3
f 61/13/4 8/14/4 10/15/4 62/16/4
f 62/17/5 10/18/5 12/19/5 63/20/5
f 8/21/6 6/10/6 17/22/6 18/23/6
f 63/24/7 12/25/7 14/26/7 64/27/7
f 64/28/8 14/29/8 2/30/8 58/31/8
f 15/32/9 16/33/9 23/34/9 22/35/9
f 14/36/10 12/25/10 20/37/10 21/38/10
f 10/39/11 8/14/11 18/40/11 19/41/11
f 2/42/12 14/29/12 21/43/12 16/44/12
f 6/45/13 4/6/13 15/46/13 17/47/13
f 12/48/14 10/18/14 19/49/14 20/50/14
f 4/51/15 2/2/15 16/52/15 15/53/15
f 23/54/16 28/55/16 35/56/16 30/57/16
f 21/58/17 20/59/17 27/60/17 28/61/17
f 19/62/18 18/63/18 25/64/18 26/65/18
f 17/66/19 15/67/19 22/68/19 24/69/19
f 16/70/20 21/71/20 28/72/20 23/73/20
f 20/74/21 19/75/21 26/76/21 27/77/21
f 18/78/22 17/79/22 24/80/22 25/81/22
f 35/82/23 34/83/23 41/84/23 42/85/23
f 27/86/24 26/87/24 33/88/24 34/89/24
f 25/90/25 24/91/25 31/92/25 32/93/25
f 22/94/26 23/95/26 30/96/26 29/97/26
f 28/98/27 27/99/27 34/100/27 35/101/27
f 26/102/28 25/103/28 32/104/28 33/105/28
f 24/106/29 22/107/29 29/108/29 31/109/29
f 39/110/30 38/111/30 45/112/30 46/113/30
f 33/114/31 32/115/31 39/116/31 40/117/31
f 31/118/32 29/119/32 36/120/32 38/121/32
f 30/122/33 35/123/33 37/124/33
f 34/125/34 33/126/34 41/84/34
f 32/127/35 31/128/35 38/129/35 39/130/35
f 29/131/36 30/132/36 37/124/36 36/133/36
f 44/134/37 56/135/37 51/136/37
f 36/137/38 37/138/38 44/139/38 43/140/38
f 42/141/39 41/142/39 48/143/39 49/144/39
f 40/145/40 39/146/40 46/147/40 47/148/40
f 38/149/41 36/150/41 43/151/41 45/152/41
f 37/153/42 42/154/42 49/155/42 44/156/42
f 41/157/43 40/158/43 47/159/43 48/160/43
f 56/161/44 55/162/44 57/163/44
f 48/164/45 47/165/45 54/166/45 55/167/45
f 46/168/46 45/169/46 52/170/46 53/171/46
f 43/172/47 44/173/47 51/136/47 50/174/47
f 49/175/48 48/176/48 55/177/48 56/178/48
f 47/179/49 46/180/49 54/166/49
f 45/181/50 43/182/50 52/170/50
f 54/183/51 53/184/51 57/163/51
f 52/185/52 50/186/52 57/163/52
f 51/187/53 56/135/53 57/163/53
f 55/188/54 54/189/54 57/163/54
f 53/190/55 52/191/55 57/163/55
f 50/192/56 51/193/56 57/163/56
f 37/153/57 35/123/57 42/194/57
f 41/157/58 33/126/58 40/195/58
f 54/183/59 46/180/59 53/196/59
f 52/185/60 43/182/60 50/197/60
f 56/161/61 44/173/61 49/155/61
f 60/9/62 61/198/62 7/199/62 9/200/62
f 58/1/63 59/201/63 11/202/63 13/203/63
f 62/17/64 63/204/64 3/205/64 5/206/64
f 59/5/65 60/207/65 9/208/65 11/209/65
f 64/28/66 58/210/66 13/211/66 1/212/66
f 61/13/67 62/213/67 5/214/67 7/215/67
f 63/24/68 64/216/68 1/217/68 3/218/68
f 9/219/69 7/220/69 65/221/69
f 13/222/70 11/223/70 65/221/70
f 3/224/71 1/225/71 65/221/71
f 7/226/72 5/227/72 65/221/72
f 11/228/73 9/229/73 65/221/73
f 1/230/74 13/231/74 65/221/74
f 5/232/75 3/233/75 65/221/75
f 66/234/76 67/235/76 69/236/76 68/237/76
f 68/237/77 69/236/77 71/238/77 70/239/77
f 70/239/78 71/238/78 73/240/78 72/241/78
f 72/241/79 73/240/79 75/242/79 74/243/79
f 74/243/80 75/242/80 67/235/80 66/234/80
