# Blender v2.79 (sub 0) OBJ File: 'tree_pine_001.blend'
# www.blender.org
mtllib tree_pine_001.mtl
o Cylinder.040
v 0.008381 -1.361598 -0.169711
v 0.008381 1.047939 -0.169711
v 0.189434 -1.361598 -0.038169
v 0.189434 1.047939 -0.038169
v 0.120281 -1.361598 0.174676
v 0.120281 1.047939 0.174676
v -0.103520 -1.361598 0.174676
v -0.103520 1.047939 0.174676
v -0.172672 -1.361598 -0.038169
v -0.172672 1.047939 -0.038169
v 0.043804 2.141808 -1.053004
v -1.596691 0.693898 0.380177
v 0.893001 2.412461 -0.729549
v -0.705235 0.916891 1.498029
v 0.974125 2.140358 0.207173
v 0.724552 0.693898 1.498029
v 0.494419 2.377881 1.066617
v 1.616009 0.972277 0.380177
v -0.481289 2.003511 1.118821
v 1.297855 0.693898 -1.013759
v -1.244259 1.924602 0.321488
v 0.009662 0.853084 -1.634120
v -0.867130 2.565696 -0.677398
v 1.048198 2.560845 -0.853316
v 0.043804 2.290192 -1.251513
v 1.167652 2.288742 0.251344
v 0.580547 2.526265 1.245465
v -0.567417 2.151895 1.297669
v -1.437786 2.072986 0.365659
v -1.022328 2.714080 -0.801166
v 0.660534 3.752804 -0.545634
v 0.051403 3.892879 -0.795817
v 0.823910 3.616069 0.173676
v 0.398197 3.979857 0.632802
v -0.215977 3.636638 0.602254
v -0.759899 3.688633 0.137116
v -0.556156 3.942801 -0.503432
v 0.807857 3.858872 -0.677890
v 0.032284 3.976757 -1.008349
v 1.012592 3.699791 0.224290
v 0.474430 4.089130 0.822766
v -0.313038 3.708204 0.790521
v -0.853596 3.782784 0.153012
v -0.739628 4.054005 -0.631724
v 0.597492 5.107964 -0.571364
v 0.181339 5.169405 -0.774745
v 0.686970 5.016641 -0.108829
v 0.418766 5.132955 0.227830
v -0.067402 4.957501 0.278645
v -0.314839 5.171969 -0.137656
v -0.260327 4.988050 -0.566360
v 0.313541 6.750340 -0.440360
v 0.012394 0.993463 -1.761691
v 1.402599 0.821670 -1.092204
v 1.745960 1.122096 0.412129
v 0.783901 0.821670 1.618508
v -0.759113 1.062324 1.618508
v -1.721173 0.821670 0.412129
v -1.377819 1.215113 -1.092204
v -1.278530 1.058468 -1.013759
v 0.009662 1.000742 0.013539
vt 0.742098 0.893134
vt 0.908886 0.784187
vt 0.870828 0.918046
vt 0.717364 0.794570
vt 0.731789 0.918046
vt 0.800885 0.736575
vt 0.684864 0.783977
vt 0.884538 0.793908
vt 0.792934 0.702111
vt 0.842882 0.886271
vt 0.051081 0.746393
vt 0.261419 0.746393
vt 0.261419 0.956732
vt 0.051081 0.956732
vt 0.051081 0.746393
vt 0.261419 0.746393
vt 0.261419 0.956732
vt 0.051081 0.956732
vt 0.051081 0.746393
vt 0.261419 0.746393
vt 0.261419 0.956732
vt 0.051081 0.956732
vt 0.051081 0.746393
vt 0.261419 0.746393
vt 0.261419 0.956732
vt 0.051081 0.956732
vt 0.051081 0.746393
vt 0.261419 0.746393
vt 0.261419 0.956732
vt 0.051081 0.956732
vt 0.051081 0.746393
vt 0.261419 0.956732
vt 0.051081 0.956732
vt 0.051081 0.746393
vt 0.261419 0.746393
vt 0.261419 0.956732
vt 0.051081 0.956732
vt 0.051081 0.746393
vt 0.261419 0.746393
vt 0.261419 0.956732
vt 0.051081 0.956732
vt 0.051081 0.746393
vt 0.261419 0.746393
vt 0.261419 0.956732
vt 0.051081 0.956732
vt 0.051081 0.746393
vt 0.261419 0.956732
vt 0.051081 0.956732
vt 0.051081 0.746393
vt 0.261419 0.956732
vt 0.051081 0.956732
vt 0.051081 0.746393
vt 0.261419 0.956732
vt 0.051081 0.956732
vt 0.051081 0.746393
vt 0.261419 0.956732
vt 0.051081 0.956732
vt 0.051081 0.746393
vt 0.261419 0.956732
vt 0.051081 0.956732
vt 0.051081 0.746393
vt 0.261419 0.956732
vt 0.051081 0.956732
vt 0.051081 0.746393
vt 0.261419 0.746393
vt 0.261419 0.956732
vt 0.051081 0.956732
vt 0.051081 0.746393
vt 0.261419 0.746393
vt 0.261419 0.956732
vt 0.051081 0.956732
vt 0.051081 0.746393
vt 0.261419 0.746393
vt 0.261419 0.956732
vt 0.051081 0.956732
vt 0.051081 0.746393
vt 0.261419 0.746393
vt 0.261419 0.956732
vt 0.051081 0.956732
vt 0.051081 0.746393
vt 0.261419 0.746393
vt 0.261419 0.956732
vt 0.051081 0.956732
vt 0.051081 0.746393
vt 0.261419 0.746393
vt 0.261419 0.956732
vt 0.051081 0.956732
vt 0.051081 0.746393
vt 0.261419 0.746393
vt 0.261419 0.956732
vt 0.051081 0.956732
vt 0.051081 0.746393
vt 0.261419 0.746393
vt 0.261419 0.956732
vt 0.051081 0.956732
vt 0.051081 0.746393
vt 0.261419 0.746393
vt 0.261419 0.956732
vt 0.051081 0.956732
vt 0.051081 0.746393
vt 0.261419 0.746393
vt 0.261419 0.956732
vt 0.051081 0.956732
vt 0.051081 0.746393
vt 0.261419 0.746393
vt 0.261419 0.956732
vt 0.051081 0.956732
vt 0.051081 0.746393
vt 0.261419 0.746393
vt 0.261419 0.956732
vt 0.051081 0.956732
vt 0.051081 0.746393
vt 0.261419 0.746393
vt 0.261419 0.956732
vt 0.051081 0.956732
vt 0.051081 0.746393
vt 0.261419 0.746393
vt 0.261419 0.956732
vt 0.051081 0.956732
vt 0.051081 0.746393
vt 0.261419 0.746393
vt 0.261419 0.956732
vt 0.051081 0.956732
vt 0.051081 0.746393
vt 0.261419 0.746393
vt 0.261419 0.956732
vt 0.051081 0.956732
vt 0.051081 0.746393
vt 0.261419 0.746393
vt 0.261419 0.956732
vt 0.051081 0.746393
vt 0.261419 0.746393
vt 0.051081 0.746393
vt 0.261419 0.746393
vt 0.261419 0.956732
vt 0.051081 0.956732
vt 0.051081 0.746393
vt 0.261419 0.746393
vt 0.051081 0.956732
vt 0.051081 0.746393
vt 0.261419 0.746393
vt 0.261419 0.956732
vt 0.051081 0.746393
vt 0.261419 0.746393
vt 0.051081 0.746393
vt 0.261419 0.746393
vt 0.051081 0.746393
vt 0.261419 0.956732
vt 0.261419 0.956732
vt 0.261419 0.746393
vt 0.051081 0.746393
vt 0.261419 0.746393
vt 0.051081 0.746393
vt 0.261419 0.746393
vt 0.261419 0.746393
vt 0.261419 0.956732
vt 0.051081 0.956732
vt 0.261419 0.746393
vt 0.261419 0.956732
vt 0.051081 0.956732
vt 0.261419 0.746393
vt 0.261419 0.956732
vt 0.051081 0.956732
vt 0.261419 0.746393
vt 0.261419 0.956732
vt 0.051081 0.956732
vt 0.261419 0.746393
vt 0.261419 0.956732
vt 0.051081 0.956732
vt 0.261419 0.746393
vt 0.261419 0.956732
vt 0.051081 0.956732
vt 0.261419 0.746393
vt 0.261419 0.956732
vt 0.051081 0.956732
vt 0.051081 0.746393
vt 0.261419 0.746393
vt 0.051081 0.746393
vt 0.261419 0.746393
vt 0.261419 0.956732
vt 0.051081 0.746393
vt 0.261419 0.746393
vt 0.051081 0.746393
vt 0.261419 0.746393
vt 0.051081 0.746393
vt 0.261419 0.746393
vt 0.051081 0.746393
vt 0.261419 0.746393
vt 0.051081 0.746393
vt 0.261419 0.746393
vt 0.051081 0.746393
vt 0.261419 0.746393
vn 0.5878 0.0000 -0.8090
vn 0.9511 0.0000 0.3090
vn 0.0000 0.0000 1.0000
vn -0.9511 0.0000 0.3090
vn -0.5878 0.0000 -0.8090
vn 0.3580 0.3937 -0.8467
vn 0.8824 0.4430 -0.1586
vn 0.7251 0.4517 0.5198
vn -0.0015 0.3881 0.9216
vn -0.7186 0.4244 0.5509
vn 0.4507 -0.7674 0.4561
vn -0.9176 0.3833 -0.1057
vn -0.2649 0.4426 -0.8567
vn 0.3365 0.2904 -0.8958
vn -0.4525 -0.6849 -0.5711
vn 0.2897 -0.7366 0.6111
vn -0.5031 -0.7428 -0.4418
vn 0.5902 -0.7637 -0.2616
vn -0.4315 -0.7654 0.4774
vn 0.4163 -0.7599 -0.4993
vn -0.2574 -0.8967 -0.3602
vn -0.9188 0.3727 -0.1301
vn -0.1556 0.4092 0.8991
vn 0.9549 0.2849 -0.0842
vn -0.3173 0.2931 -0.9019
vn -0.6459 0.4069 0.6460
vn 0.8384 0.2754 0.4704
vn -0.9149 0.3913 -0.0989
vn -0.4138 -0.8565 0.3086
vn 0.0357 -0.7984 0.6011
vn 0.0341 -0.8807 -0.4725
vn -0.4380 -0.8074 -0.3953
vn 0.4034 -0.8167 0.4127
vn 0.4277 -0.8671 -0.2553
vn -0.1792 0.4396 0.8801
vn 0.9669 0.1866 -0.1742
vn -0.4091 0.2244 -0.8845
vn -0.6782 0.3930 0.6210
vn 0.7959 0.3285 0.5086
vn 0.4219 0.1355 -0.8964
vn 0.4518 0.1483 -0.8797
vn 0.7961 0.2746 0.5393
vn -0.6884 0.3912 0.6107
vn -0.5080 0.3167 -0.8010
vn -0.6919 0.3860 0.6101
vn -0.4886 0.2195 -0.8445
vn 0.9718 0.1802 -0.1524
vn -0.0403 0.3793 0.9244
vn -0.5259 -0.6496 0.5490
vn 0.7593 -0.6493 -0.0436
vn -0.4216 -0.6053 -0.6751
vn -0.1024 -0.6568 0.7471
vn -0.7167 -0.6170 -0.3250
vn 0.6629 -0.6531 0.3660
vn 0.2622 -0.6518 -0.7116
vn -0.9148 0.3159 -0.2518
vn -0.1150 -0.9894 0.0887
vn -0.1638 -0.9826 0.0881
vn 0.0323 -0.9756 -0.2172
vn 0.1961 -0.9798 0.0391
vn 0.1338 -0.9658 -0.2221
vn -0.0652 -0.9756 0.2097
vn -0.1528 -0.9798 -0.1289
usemtl None
s off
f 1/1/1 2/2/1 4/3/1 3/4/1
f 3/4/2 4/3/2 6/5/2 5/6/2
f 5/6/3 6/5/3 8/7/3 7/8/3
f 7/8/4 8/7/4 10/9/4 9/10/4
f 9/10/5 10/9/5 2/2/5 1/1/5
f 53/11/6 11/12/6 13/13/6 54/14/6
f 54/15/7 13/16/7 15/17/7 55/18/7
f 55/19/8 15/20/8 17/21/8 56/22/8
f 56/23/9 17/24/9 19/25/9 57/26/9
f 57/27/10 19/28/10 21/29/10 58/30/10
f 17/31/11 15/20/11 26/32/11 27/33/11
f 58/34/12 21/35/12 23/36/12 59/37/12
f 59/38/13 23/39/13 11/40/13 53/41/13
f 24/42/14 25/43/14 32/44/14 31/45/14
f 23/46/15 21/35/15 29/47/15 30/48/15
f 19/49/16 17/24/16 27/50/16 28/51/16
f 11/52/17 23/39/17 30/53/17 25/54/17
f 15/55/18 13/16/18 24/56/18 26/57/18
f 21/58/19 19/28/19 28/59/19 29/60/19
f 13/61/20 11/12/20 25/62/20 24/63/20
f 32/64/21 37/65/21 44/66/21 39/67/21
f 30/68/22 29/69/22 36/70/22 37/71/22
f 28/72/23 27/73/23 34/74/23 35/75/23
f 26/76/24 24/77/24 31/78/24 33/79/24
f 25/80/25 30/81/25 37/82/25 32/83/25
f 29/84/26 28/85/26 35/86/26 36/87/26
f 27/88/27 26/89/27 33/90/27 34/91/27
f 44/92/28 43/93/28 50/94/28 51/95/28
f 36/96/29 35/97/29 42/98/29 43/99/29
f 34/100/30 33/101/30 40/102/30 41/103/30
f 31/104/31 32/105/31 39/106/31 38/107/31
f 37/108/32 36/109/32 43/110/32 44/111/32
f 35/112/33 34/113/33 41/114/33 42/115/33
f 33/116/34 31/117/34 38/118/34 40/119/34
f 42/120/35 41/121/35 48/122/35 49/123/35
f 40/124/36 38/125/36 45/126/36 47/127/36
f 39/128/37 44/129/37 46/130/37
f 43/131/38 42/132/38 50/94/38
f 41/133/39 40/134/39 47/135/39 48/136/39
f 38/137/40 39/138/40 46/130/40 45/139/40
f 45/140/41 46/141/41 52/142/41
f 48/143/42 47/144/42 52/142/42
f 50/145/43 49/146/43 52/142/43
f 46/147/44 44/129/44 51/148/44
f 50/145/45 42/132/45 49/149/45
f 46/147/46 51/150/46 52/142/46
f 47/151/47 45/152/47 52/142/47
f 49/153/48 48/154/48 52/142/48
f 57/27/49 58/155/49 12/156/49 14/157/49
f 54/15/50 55/158/50 18/159/50 20/160/50
f 59/38/51 53/161/51 22/162/51 60/163/51
f 56/23/52 57/164/52 14/165/52 16/166/52
f 58/34/53 59/167/53 60/168/53 12/169/53
f 55/19/54 56/170/54 16/171/54 18/172/54
f 53/11/55 54/173/55 20/174/55 22/175/55
f 51/176/56 50/177/56 52/142/56
f 60/178/57 22/179/57 61/180/57
f 22/181/58 20/182/58 61/180/58
f 18/183/59 16/184/59 61/180/59
f 14/185/60 12/186/60 61/180/60
f 12/187/61 60/188/61 61/180/61
f 20/189/62 18/190/62 61/180/62
f 16/191/63 14/192/63 61/180/63
