# Blender v2.79 (sub 0) OBJ File: 'tree_003.blend'
# www.blender.org
mtllib tree_003.mtl
o Cylinder.031_Cylinder.030
v -0.206519 -0.719611 -0.756421
v -0.206519 1.061486 -0.418368
v 0.655506 -0.719611 -0.130123
v 0.334001 1.061486 -0.025659
v 0.326241 -0.719611 0.883247
v 0.127538 1.061486 0.609758
v -0.739278 -0.719611 0.883247
v -0.540576 1.061486 0.609758
v -1.068544 -0.719611 -0.130123
v -0.747035 1.061486 -0.025659
v 0.225201 6.676464 0.020526
v -0.228873 6.634205 -0.313769
v 0.082653 6.486588 0.533702
v -0.459523 6.326980 0.516568
v -0.652057 6.418211 -0.007198
v -0.313538 4.356774 0.344017
v -0.494914 4.356774 -0.214207
v 0.454795 4.356774 -0.214207
v 0.273415 4.356774 0.344017
v -0.020059 4.356774 -0.559209
v -0.950353 8.348742 0.700809
v -1.234506 8.322297 0.491612
v -1.039557 8.229920 1.021949
v -1.378843 8.130039 1.011227
v -1.499328 8.187130 0.683460
v -1.129678 10.442439 1.174545
v -1.384115 10.418759 0.987226
v -1.209552 10.336044 1.462098
v -1.513356 10.246610 1.452497
v -1.621242 10.297729 1.159010
v 0.049166 6.219018 0.032561
v -0.189291 6.511518 -0.282557
v 0.012290 6.416850 0.481137
v -0.248959 6.831618 0.443254
v -0.373541 6.890126 -0.028735
v 1.661057 7.385069 -0.248364
v 1.511833 7.568112 -0.445562
v 1.637982 7.508870 0.032349
v 1.474494 7.768428 0.008643
v 1.396530 7.805040 -0.286722
v 3.083764 8.313514 -0.502281
v 2.899707 8.420792 -0.676952
v 3.007310 8.380596 -0.246254
v 2.776008 8.529334 -0.262690
v 2.709502 8.554176 -0.528876
v 3.839245 9.479549 -0.582208
v 3.655188 9.586826 -0.756879
v 3.762791 9.546631 -0.326181
v 3.531489 9.695369 -0.342617
v 3.464983 9.720211 -0.608803
v 0.527659 13.971437 1.090786
v 0.184447 9.107330 4.417648
v 0.526055 8.903764 3.110361
v 1.189685 9.445333 5.085312
v 4.766163 8.729761 -0.380983
v 4.604568 9.355336 2.882460
v -0.098114 9.851653 -1.545822
v 1.692840 9.379910 -1.156525
v 3.392249 8.513811 -1.198219
v -4.641521 10.268926 0.873770
v -3.136152 9.607207 0.813456
v -1.560073 9.676831 0.604545
v -3.388958 9.882440 4.288764
v -1.906837 9.240941 -1.576685
v -5.173040 9.794980 -0.438050
v -1.350710 9.874464 -4.728883
v -0.885872 9.351335 -4.172919
v 2.394428 8.855857 -4.340444
v 3.769033 8.739882 -3.372531
v 5.899848 10.433138 1.490468
v 5.477574 9.859475 2.244134
v 5.780221 10.642631 -2.523266
v 3.477703 11.184840 6.045684
v 0.525831 10.714269 5.540370
v 0.237174 10.080286 5.523698
v 4.208393 10.538049 5.475229
v -4.619874 11.721669 2.930666
v -2.139832 10.307580 5.738143
v -2.744572 11.266127 5.861096
v -3.440643 12.179090 4.849724
v -5.308081 10.989591 0.128761
v -5.114290 11.571046 -1.111876
v 1.258113 9.666059 -5.256048
v -1.378985 12.758293 -5.733944
v 4.878043 12.085804 3.823179
v -0.992240 11.550900 4.200140
v -2.877524 12.564542 -4.823024
v 3.392862 11.086422 -4.622018
v 5.574238 11.294815 -1.608938
v 1.820516 12.947935 2.884677
v 2.310055 11.873622 4.688282
v 4.674132 11.805437 -2.240380
v -2.709670 12.563181 1.805541
v -2.771577 12.974973 0.490956
v -3.698323 12.660238 -1.979232
v 0.386852 12.963264 -3.613368
v 1.452303 12.563413 -4.722559
v 4.923970 11.183225 -3.421070
v -1.994633 13.183311 -5.201149
v -4.504536 12.410856 -1.114386
v -4.420660 11.796568 0.626525
v -0.303912 12.926477 1.760802
v -1.706714 12.247034 3.440687
v 0.322839 12.065595 2.860174
v 2.628934 13.606532 1.869750
v 4.160694 12.163803 5.062135
v 4.691978 12.556608 1.982938
v 4.601762 9.731685 -3.399876
v 4.419713 10.533484 -4.100508
v -2.252965 10.849838 -5.040328
v -3.521640 11.758549 -4.933095
v -5.251592 11.545388 0.002276
v -1.975144 11.551744 5.490167
v -0.222722 11.277588 5.071987
v 4.813025 11.298491 5.053069
v 5.746017 11.174503 1.566199
v 2.739059 10.178772 -5.220672
v 3.568631 9.372767 -4.632493
v -5.276383 10.367257 -1.575698
v -4.648650 9.544077 -1.958723
v -4.065510 11.537957 4.695363
v -4.570506 10.833486 3.586541
v -3.393399 10.749610 5.329793
v 3.126010 9.801787 5.363629
v 5.429253 9.237828 -0.853689
v 2.498882 8.474000 -2.873818
v 0.430030 8.780376 -3.295051
v -2.994938 9.083197 -2.091883
v -4.270764 9.163302 -0.526450
v -1.179733 8.976625 3.291963
v 3.544024 9.062610 1.740523
v 1.565907 9.635370 0.872978
v 2.928320 9.003799 3.779321
vt 0.747383 0.758476
vt 0.767389 0.828627
vt 0.755397 0.849740
vt 0.682488 0.847221
vt 0.772892 0.867561
vt 0.748044 0.936129
vt 0.794171 0.856708
vt 0.851250 0.901113
vt 0.776159 0.846956
vt 0.775718 0.847199
vt 0.775924 0.846902
vt 0.775922 0.846862
vt 0.791267 0.833124
vt 0.851250 0.792913
vt 0.775916 0.846876
vt 0.775912 0.846861
vt 0.775934 0.846906
vt 0.775937 0.846952
vt 0.775630 0.846757
vt 0.775861 0.846672
vt 0.776093 0.846625
vt 0.775914 0.846848
vt 0.775941 0.846940
vt 0.775952 0.846965
vt 0.775973 0.846993
vt 0.775954 0.846981
vt 0.775940 0.846923
vt 0.775978 0.847052
vt 0.775944 0.846985
vt 0.775982 0.847021
vt 0.950324 0.814204
vt 0.893955 0.852605
vt 0.902599 0.806233
vt 0.902619 0.806146
vt 0.902431 0.806278
vt 0.902516 0.806153
vt 0.902578 0.806222
vt 0.902566 0.806220
vt 0.851304 0.809089
vt 0.865737 0.758476
vt 0.902562 0.806312
vt 0.950324 0.769306
vt 0.902570 0.806219
vt 0.902570 0.806221
vt 0.902571 0.806222
vt 0.902570 0.806221
vt 0.902567 0.806221
vt 0.902571 0.806222
vt 0.902570 0.806223
vt 0.902570 0.806221
vt 0.265026 0.738880
vt 0.265026 0.940807
vt 0.265026 0.940807
vt 0.063099 0.738880
vt 0.063099 0.738880
vt 0.265026 0.738880
vt 0.265026 0.738880
vt 0.265026 0.940807
vt 0.265026 0.940807
vt 0.063099 0.738880
vt 0.063099 0.738880
vt 0.265026 0.738880
vt 0.265026 0.940807
vt 0.063099 0.738880
vt 0.265026 0.738880
vt 0.265026 0.940807
vt 0.063099 0.738880
vt 0.265026 0.738880
vt 0.265026 0.940807
vt 0.265026 0.940807
vt 0.063099 0.738880
vt 0.265026 0.738880
vt 0.265026 0.738880
vt 0.265026 0.940807
vt 0.063099 0.738880
vt 0.265026 0.738880
vt 0.265026 0.940807
vt 0.063099 0.738880
vt 0.265026 0.738880
vt 0.265026 0.940807
vt 0.265026 0.940807
vt 0.265026 0.738880
vt 0.265026 0.940807
vt 0.265026 0.940807
vt 0.063099 0.738880
vt 0.063099 0.738880
vt 0.265026 0.738880
vt 0.265026 0.940807
vt 0.063099 0.738880
vt 0.265026 0.738880
vt 0.265026 0.940807
vt 0.265026 0.940807
vt 0.063099 0.738880
vt 0.265026 0.738880
vt 0.063099 0.738880
vt 0.265026 0.738880
vt 0.265026 0.940807
vt 0.063099 0.738880
vt 0.265026 0.738880
vt 0.063099 0.738880
vt 0.265026 0.738880
vt 0.063099 0.738880
vt 0.265026 0.738880
vt 0.063099 0.738880
vt 0.265026 0.738880
vt 0.265026 0.738880
vt 0.265026 0.940807
vt 0.265026 0.738880
vt 0.265026 0.940807
vt 0.265026 0.940807
vt 0.063099 0.738880
vt 0.063099 0.738880
vt 0.265026 0.940807
vt 0.063099 0.738880
vt 0.265026 0.738880
vt 0.265026 0.738880
vt 0.265026 0.940807
vt 0.063099 0.738880
vt 0.265026 0.738880
vt 0.063099 0.738880
vt 0.265026 0.738880
vt 0.063099 0.738880
vt 0.265026 0.940807
vt 0.063099 0.738880
vt 0.265026 0.940807
vt 0.265026 0.738880
vt 0.265026 0.940807
vt 0.063099 0.738880
vt 0.063099 0.738880
vt 0.265026 0.738880
vt 0.265026 0.940807
vt 0.063099 0.738880
vt 0.265026 0.738880
vt 0.265026 0.940807
vt 0.265026 0.738880
vt 0.063099 0.738880
vt 0.265026 0.940807
vt 0.063099 0.738880
vt 0.063099 0.738880
vt 0.265026 0.738880
vt 0.063099 0.738880
vt 0.265026 0.940807
vt 0.265026 0.738880
vt 0.063099 0.738880
vt 0.265026 0.940807
vt 0.063099 0.738880
vt 0.063099 0.738880
vt 0.265026 0.738880
vt 0.265026 0.940807
vt 0.063099 0.738880
vt 0.265026 0.738880
vt 0.265026 0.738880
vt 0.265026 0.738880
vt 0.265026 0.940807
vt 0.063099 0.738880
vt 0.265026 0.940807
vt 0.063099 0.738880
vt 0.063099 0.738880
vt 0.265026 0.738880
vt 0.265026 0.940807
vt 0.063099 0.738880
vt 0.265026 0.738880
vt 0.265026 0.738880
vt 0.265026 0.940807
vt 0.265026 0.738880
vt 0.265026 0.940807
vt 0.063099 0.738880
vt 0.265026 0.940807
vt 0.063099 0.738880
vt 0.265026 0.738880
vt 0.265026 0.940807
vt 0.063099 0.738880
vt 0.265026 0.738880
vt 0.265026 0.940807
vt 0.063099 0.738880
vt 0.063099 0.738880
vt 0.265026 0.738880
vt 0.265026 0.940807
vt 0.265026 0.940807
vt 0.063099 0.738880
vt 0.265026 0.738880
vt 0.265026 0.940807
vt 0.063099 0.738880
vt 0.265026 0.738880
vt 0.063099 0.738880
vt 0.265026 0.738880
vt 0.265026 0.940807
vt 0.265026 0.940807
vt 0.265026 0.738880
vt 0.265026 0.940807
vt 0.063099 0.738880
vt 0.063099 0.738880
vt 0.265026 0.940807
vt 0.063099 0.738880
vt 0.265026 0.738880
vt 0.265026 0.940807
vt 0.063099 0.738880
vt 0.265026 0.738880
vt 0.265026 0.940807
vt 0.265026 0.738880
vt 0.265026 0.738880
vt 0.265026 0.940807
vt 0.063099 0.738880
vt 0.265026 0.738880
vt 0.265026 0.738880
vt 0.265026 0.940807
vt 0.265026 0.738880
vt 0.265026 0.940807
vt 0.265026 0.738880
vt 0.265026 0.940807
vt 0.063099 0.738880
vt 0.265026 0.940807
vt 0.063099 0.738880
vt 0.063099 0.738880
vt 0.265026 0.738880
vt 0.265026 0.940807
vt 0.063099 0.738880
vt 0.265026 0.940807
vt 0.265026 0.738880
vt 0.265026 0.940807
vt 0.265026 0.738880
vt 0.063099 0.738880
vt 0.265026 0.738880
vt 0.265026 0.940807
vt 0.063099 0.738880
vt 0.265026 0.738880
vt 0.063099 0.738880
vt 0.265026 0.738880
vt 0.265026 0.940807
vt 0.063099 0.738880
vt 0.265026 0.940807
vt 0.063099 0.738880
vt 0.265026 0.738880
vt 0.265026 0.738880
vt 0.063099 0.738880
vt 0.265026 0.738880
vt 0.265026 0.738880
vt 0.265026 0.738880
vt 0.265026 0.940807
vt 0.265026 0.940807
vt 0.063099 0.738880
vt 0.265026 0.738880
vt 0.265026 0.738880
vt 0.265026 0.940807
vt 0.063099 0.738880
vt 0.265026 0.738880
vt 0.063099 0.738880
vt 0.265026 0.940807
vt 0.265026 0.738880
vt 0.265026 0.738880
vt 0.265026 0.940807
vt 0.063099 0.738880
vt 0.265026 0.738880
vt 0.265026 0.940807
vt 0.063099 0.738880
vt 0.265026 0.738880
vt 0.265026 0.940807
vt 0.063099 0.738880
vt 0.265026 0.738880
vt 0.265026 0.738880
vt 0.265026 0.940807
vt 0.063099 0.738880
vt 0.265026 0.940807
vt 0.063099 0.738880
vt 0.265026 0.738880
vt 0.265026 0.738880
vt 0.265026 0.940807
vt 0.063099 0.738880
vt 0.265026 0.738880
vt 0.063099 0.738880
vt 0.265026 0.738880
vt 0.265026 0.940807
vt 0.265026 0.940807
vt 0.265026 0.940807
vt 0.063099 0.738880
vt 0.265026 0.940807
vt 0.265026 0.940807
vn 0.5810 0.1518 -0.7996
vn 0.9400 0.1518 0.3054
vn 0.0000 0.1518 0.9884
vn -0.9429 -0.1008 0.3174
vn -0.9400 0.1518 0.3054
vn -0.5810 0.1518 -0.7996
vn 0.8216 0.4213 0.3841
vn 0.9523 0.0615 0.2988
vn -0.5923 0.0340 -0.8050
vn 0.5804 0.1392 -0.8024
vn -0.0026 -0.0882 0.9961
vn 0.0000 0.0804 0.9968
vn 0.5864 -0.0677 -0.8072
vn -0.5878 -0.0013 -0.8090
vn 0.9509 -0.0172 0.3090
vn -0.9472 0.0901 0.3078
vn -0.9380 -0.1269 0.3227
vn -0.5958 0.0280 -0.8027
vn 0.0414 -0.2447 0.9687
vn 0.4437 0.5873 -0.6769
vn -0.8420 -0.4908 0.2240
vn -0.2801 0.9230 0.2637
vn 0.9614 0.0202 0.2745
vn -0.6260 0.1368 -0.7677
vn 0.0286 -0.2023 0.9789
vn 0.5634 0.2279 -0.7941
vn 0.5864 -0.7223 0.3667
vn -0.4572 0.8637 0.2121
vn -0.3343 0.4071 -0.8500
vn 0.1467 0.1812 0.9724
vn 0.2891 -0.5826 -0.7596
vn -0.4223 0.8792 0.2205
vn 0.7927 -0.4886 0.3647
vn 0.5524 -0.7478 0.3684
vn -0.3769 0.3867 -0.8417
vn 0.0897 0.1830 0.9790
vn 0.2705 -0.6261 -0.7313
vn 0.5429 0.8379 -0.0574
vn -0.4782 0.2521 -0.8413
vn -0.0190 0.0806 0.9966
vn 0.5089 -0.3826 -0.7712
vn -0.8044 0.5384 0.2512
vn -0.2078 -0.8912 0.4033
vn 0.0237 -0.5437 0.8390
vn 0.0234 -0.9661 0.2571
vn 0.0777 0.9867 0.1431
vn 0.3176 0.8845 0.3417
vn -0.1369 0.9433 0.3023
vn 0.2060 0.9426 -0.2626
vn 0.4781 0.5834 -0.6565
vn -0.1555 -0.8740 -0.4604
vn -0.3831 -0.7716 0.5078
vn -0.3052 0.9523 -0.0068
vn -0.5261 0.2549 -0.8113
vn -0.6190 0.7584 -0.2042
vn -0.3031 0.9529 -0.0077
vn -0.3251 0.8980 0.2966
vn -0.5373 0.7869 0.3035
vn -0.5441 0.7930 0.2740
vn -0.4171 0.9087 0.0145
vn -0.0722 0.5785 0.8125
vn 0.3653 0.9099 -0.1963
vn -0.1389 0.9529 0.2694
vn -0.3891 -0.9090 0.1491
vn -0.4321 0.7184 0.5452
vn 0.7404 -0.4654 -0.4850
vn -0.0441 0.8537 0.5189
vn -0.2361 0.8053 0.5438
vn -0.3820 -0.7472 -0.5438
vn -0.0176 -0.9595 -0.2813
vn 0.4171 0.8898 0.1855
vn 0.7219 -0.5967 -0.3504
vn 0.7193 -0.3573 -0.5958
vn 0.7498 0.1018 -0.6538
vn 0.5659 0.3443 -0.7492
vn -0.2108 -0.4689 -0.8578
vn -0.1513 -0.2757 -0.9493
vn -0.2446 -0.2303 -0.9419
vn -0.4972 0.4947 -0.7128
vn -0.7433 0.6262 -0.2356
vn -0.6989 0.5059 -0.5056
vn -0.9900 0.0732 -0.1203
vn -0.9994 0.0228 -0.0269
vn -0.9691 0.1441 0.2004
vn -0.2933 0.9560 0.0057
vn -0.3605 0.9328 -0.0008
vn 0.0362 0.7541 0.6558
vn 0.4905 0.8576 -0.1546
vn 0.2716 0.4032 0.8739
vn 0.1858 0.9724 0.1409
vn 0.0824 -0.0755 0.9937
vn 0.0864 -0.0655 0.9941
vn 0.1894 0.7643 0.6164
vn -0.2189 0.4353 0.8733
vn -0.1179 0.8409 0.5281
vn -0.2405 0.7663 0.5957
vn 0.5980 -0.0308 0.8009
vn 0.5277 0.3899 0.7546
vn 0.7366 0.5512 0.3918
vn 0.9258 0.2942 0.2373
vn 0.8033 0.5915 0.0701
vn 0.9132 -0.2321 0.3350
vn 0.9531 0.1723 0.2489
vn 0.7921 0.6100 -0.0197
vn 0.5197 0.1769 -0.8358
vn 0.6335 -0.7234 -0.2746
vn 0.0593 -0.1029 -0.9929
vn 0.5587 -0.0298 -0.8288
vn 0.1780 -0.4539 -0.8731
vn -0.3773 -0.9250 0.0458
vn 0.1128 -0.6705 -0.7333
vn -0.0839 -0.9740 -0.2106
vn -0.1819 -0.7875 -0.5889
vn -0.6820 0.6871 -0.2505
vn -0.4855 -0.6031 -0.6329
vn -0.8959 0.2596 -0.3606
vn -0.7706 -0.3355 -0.5418
vn 0.7446 -0.5313 0.4041
vn -0.0457 -0.9787 0.2001
vn 0.4327 -0.8065 0.4030
vn -0.8376 -0.3086 0.4509
vn -0.9719 0.1025 0.2119
vn -0.7192 0.6307 0.2916
vn -0.5679 0.3774 0.7315
vn -0.9333 0.1783 0.3117
vn -0.8062 -0.2593 0.5319
vn -0.6554 0.0479 0.7538
vn -0.4015 -0.3613 0.8416
vn -0.7960 -0.5881 0.1432
vn -0.6765 -0.7172 0.1670
vn -0.7068 -0.5450 0.4510
vn -0.4323 -0.6938 0.5761
vn -0.1769 0.0547 0.9827
vn 0.0069 -0.4437 0.8962
vn 0.2376 -0.4776 0.8459
vn -0.0106 -0.5789 0.8153
vn -0.1012 -0.9947 -0.0193
vn 0.9366 0.3484 -0.0375
vn 0.9786 0.2049 -0.0185
vn -0.6384 0.7536 0.1570
vn 0.9558 -0.2907 -0.0437
vn 0.5874 -0.7889 0.1803
vn -0.4345 -0.8647 0.2522
vn 0.1775 -0.9815 -0.0713
vn 0.1128 -0.9769 0.1817
vn -0.0931 -0.9651 -0.2447
vn 0.7636 -0.6352 0.1156
vn 0.2234 0.9240 0.3104
vn 0.2238 0.8206 0.5259
vn -0.2774 -0.9441 -0.1778
vn 0.3148 -0.9391 0.1376
vn 0.0678 -0.9804 0.1851
vn -0.1037 0.9912 -0.0826
vn 0.0092 -0.9673 -0.2533
vn -0.7038 -0.6989 -0.1274
vn 0.1766 -0.9158 -0.3606
vn -0.1009 -0.8182 0.5661
vn 0.1943 -0.9786 -0.0681
vn 0.0647 -0.9795 0.1910
vn 0.0467 -0.9824 0.1810
vn 0.2985 0.9261 -0.2307
vn -0.3583 0.6556 0.6647
vn 0.2256 -0.9734 0.0400
vn -0.0266 -0.9888 0.1470
vn 0.6607 0.6965 -0.2800
vn 0.1016 -0.8935 0.4374
vn -0.2612 -0.8783 0.4004
vn 0.3150 0.3539 -0.8806
vn 0.3355 0.3627 -0.8694
vn -0.0372 -0.9800 -0.1955
usemtl None
s off
f 1/1/1 2/2/1 4/3/1 3/4/1
f 3/4/2 4/3/2 6/5/2 5/6/2
f 5/6/3 6/5/3 8/7/3 7/8/3
f 17/9/4 16/10/4 14/11/4 15/12/4
f 7/8/5 8/7/5 10/13/5 9/14/5
f 9/14/6 10/13/6 2/2/6 1/1/6
f 13/15/7 11/16/7 21/17/7 23/18/7
f 19/19/8 18/20/8 11/16/8 13/15/8
f 20/21/9 17/9/9 15/12/9 12/22/9
f 18/20/10 20/21/10 12/22/10 11/16/10
f 16/10/11 19/19/11 13/15/11 14/11/11
f 8/7/12 6/5/12 19/19/12 16/10/12
f 4/3/13 2/2/13 20/21/13 18/20/13
f 2/2/14 10/13/14 17/9/14 20/21/14
f 6/5/15 4/3/15 18/20/15 19/19/15
f 10/13/16 8/7/16 16/10/16 17/9/16
f 25/23/17 24/24/17 29/25/17 30/26/17
f 12/22/18 15/12/18 25/23/18 22/27/18
f 14/11/19 13/15/19 23/18/19 24/24/19
f 11/16/20 12/22/20 22/27/20 21/17/20
f 15/12/21 14/11/21 24/24/21 25/23/21
f 26/28/22 27/29/22 30/26/22 29/25/22 28/30/22
f 23/18/23 21/17/23 26/28/23 28/30/23
f 22/27/24 25/23/24 30/26/24 27/29/24
f 24/24/25 23/18/25 28/30/25 29/25/25
f 21/17/26 22/27/26 27/29/26 26/28/26
f 33/31/27 31/32/27 36/33/27 38/34/27
f 40/35/28 39/36/28 44/37/28 45/38/28
f 32/39/29 35/40/29 40/35/29 37/41/29
f 34/42/30 33/31/30 38/34/30 39/36/30
f 31/32/31 32/39/31 37/41/31 36/33/31
f 35/40/32 34/42/32 39/36/32 40/35/32
f 43/43/33 41/44/33 46/45/33 48/46/33
f 38/34/34 36/33/34 41/44/34 43/43/34
f 37/41/35 40/35/35 45/38/35 42/47/35
f 39/36/36 38/34/36 43/43/36 44/37/36
f 36/33/37 37/41/37 42/47/37 41/44/37
f 46/45/38 47/48/38 50/49/38 49/50/38 48/46/38
f 42/47/39 45/38/39 50/49/39 47/48/39
f 44/37/40 43/43/40 48/46/40 49/50/40
f 41/44/41 42/47/41 47/48/41 46/45/41
f 45/38/42 44/37/42 49/50/42 50/49/42
f 52/51/43 78/52/43 63/53/43 130/54/43
f 54/55/44 75/56/44 78/52/44
f 133/57/45 54/58/45 52/59/45 53/60/45
f 80/61/46 103/62/46 93/63/46
f 113/64/47 86/65/47 103/66/47 80/61/47
f 114/67/48 91/68/48 104/69/48 86/70/48
f 97/71/49 84/72/49 99/73/49 96/74/49
f 98/75/50 88/76/50 97/77/50
f 127/78/51 67/79/51 83/80/51 68/81/51
f 60/82/52 65/83/52 129/84/52 61/85/52
f 99/86/53 95/87/53 94/88/53
f 84/89/54 87/90/54 99/91/54
f 99/86/55 87/90/55 95/92/55
f 95/93/56 100/94/56 94/88/56
f 94/95/57 93/96/57 51/97/57
f 100/98/58 101/99/58 94/88/58
f 94/95/59 101/99/59 93/63/59
f 101/100/60 80/101/60 93/63/60
f 93/102/61 102/103/61 51/97/61
f 92/104/62 98/105/62 97/106/62 96/74/62
f 93/102/63 103/62/63 102/107/63
f 132/108/64 58/109/64 59/110/64 131/111/64
f 104/112/65 91/68/65 90/113/65
f 108/114/66 69/115/66 118/116/66 109/117/66
f 90/118/67 105/119/67 51/97/67
f 91/120/68 106/121/68 90/113/68
f 128/122/69 120/123/69 110/124/69 66/125/69
f 53/126/70 130/127/70 62/128/70 132/108/70
f 106/129/71 85/130/71 107/131/71
f 125/132/72 108/133/72 72/134/72
f 108/114/73 109/135/73 72/134/73
f 72/136/74 109/135/74 98/137/74
f 109/138/75 88/76/75 98/137/75
f 66/139/76 110/140/76 83/80/76
f 83/141/77 110/140/77 84/142/77
f 110/124/78 111/143/78 84/142/78
f 111/144/79 87/90/79 84/142/79
f 111/144/80 95/87/80 87/145/80
f 82/146/81 100/94/81 95/92/81
f 81/147/82 112/148/82 82/149/82
f 119/150/83 65/151/83 81/152/83 82/149/83
f 81/147/84 77/153/84 112/154/84
f 112/155/85 77/153/85 101/156/85
f 77/157/86 80/101/86 101/156/86
f 79/158/87 113/159/87 80/160/87
f 107/161/88 89/162/88 92/163/88 105/164/88
f 79/158/89 114/165/89 113/166/89
f 113/64/90 114/165/90 86/70/90
f 78/167/91 75/56/91 79/168/91
f 75/169/92 74/170/92 79/168/92
f 79/158/93 74/170/93 114/171/93
f 74/172/94 73/173/94 114/171/94
f 114/67/95 73/173/95 91/174/95
f 73/175/96 106/121/96 91/174/96
f 76/176/97 115/177/97 73/178/97
f 73/175/98 115/177/98 106/179/98
f 115/180/99 85/130/99 106/179/99
f 115/180/100 116/181/100 85/182/100
f 116/183/101 107/184/101 85/182/101
f 71/185/102 70/186/102 115/187/102
f 115/180/103 70/186/103 116/188/103
f 116/183/104 89/162/104 107/131/104
f 109/138/105 117/189/105 88/190/105
f 55/191/106 69/192/106 108/133/106 125/193/106
f 117/194/107 83/195/107 84/142/107
f 109/138/108 118/116/108 117/196/108
f 118/197/109 83/195/109 117/196/109
f 130/54/110 63/198/110 60/199/110 61/85/110
f 118/197/111 68/200/111 83/80/111
f 128/201/112 66/125/112 67/202/112 64/203/112
f 83/141/113 67/79/113 66/125/113
f 111/144/114 82/204/114 95/92/114
f 110/124/115 120/205/115 111/206/115
f 111/144/116 119/207/116 82/149/116
f 111/144/117 120/205/117 119/208/117
f 71/209/118 115/187/118 76/210/118 56/211/118
f 64/203/119 67/79/119 127/212/119 57/213/119
f 133/214/120 56/215/120 76/210/120 124/216/120
f 65/217/121 60/82/121 81/218/121
f 81/147/122 122/219/122 77/220/122
f 77/157/123 121/221/123 80/160/123
f 121/222/124 79/223/124 80/160/124
f 77/157/125 122/219/125 121/224/125
f 122/225/126 123/226/126 121/224/126
f 121/222/127 123/226/127 79/168/127
f 123/227/128 78/228/128 79/168/128
f 81/147/129 60/82/129 122/229/129
f 60/230/130 63/198/130 122/229/130
f 122/225/131 63/198/131 123/231/131
f 63/232/132 78/228/132 123/231/132
f 74/172/133 75/56/133 73/178/133
f 75/169/134 124/233/134 73/178/134
f 73/175/135 124/233/135 76/210/135
f 75/169/136 54/234/136 124/216/136
f 132/235/137 62/236/137 57/237/137 58/109/137
f 116/183/138 72/238/138 89/239/138
f 116/183/139 70/186/139 72/134/139
f 112/155/140 101/99/140 100/240/140 82/146/140
f 70/241/141 125/242/141 72/134/141
f 56/211/142 55/243/142 71/244/142
f 58/245/143 126/246/143 59/110/143
f 59/247/144 126/246/144 69/248/144
f 64/203/145 61/249/145 129/250/145 128/251/145
f 126/252/146 127/253/146 68/81/146
f 71/185/147 55/243/147 125/242/147 70/254/147
f 106/129/148 107/184/148 105/164/148 90/118/148
f 103/255/149 86/65/149 104/256/149 102/107/149
f 128/122/150 129/250/150 120/123/150
f 57/213/151 62/236/151 64/257/151
f 62/128/152 61/249/152 64/257/152
f 96/258/153 99/73/153 94/259/153 51/97/153
f 62/128/154 130/260/154 61/261/154
f 129/262/155 65/151/155 119/208/155 120/123/155
f 126/252/156 68/200/156 118/263/156 69/248/156
f 52/264/157 54/234/157 78/52/157
f 55/191/158 59/265/158 69/248/158
f 56/211/159 131/266/159 55/267/159
f 55/191/160 131/266/160 59/110/160
f 105/268/161 92/163/161 96/269/161 51/97/161
f 102/270/162 104/256/162 90/271/162 51/97/162
f 56/211/163 133/57/163 131/272/163
f 130/54/164 53/126/164 52/59/164
f 72/136/165 98/105/165 92/273/165 89/239/165
f 133/214/166 124/233/166 54/58/166
f 57/213/167 127/253/167 126/274/167 58/245/167
f 88/275/168 117/189/168 97/77/168
f 84/89/169 97/106/169 117/196/169
f 131/266/170 133/276/170 53/277/170 132/235/170
