# Blender v2.79 (sub 0) OBJ File: 'wall_high_wood_001.blend'
# www.blender.org
mtllib wall_high_wood_001.mtl
o Cylinder.004_Cylinder.000
v -0.003243 -0.000001 8.364092
v -0.003243 6.869101 8.364091
v 0.498862 -0.000001 8.728895
v 0.498862 6.869101 8.728894
v 0.307075 -0.000001 9.319155
v 0.307075 6.869101 9.319154
v -0.313561 -0.000001 9.319155
v -0.313561 6.869101 9.319154
v -0.505349 -0.000001 8.728895
v -0.505349 6.869101 8.728894
v -0.003243 7.847797 8.892037
v -0.450454 -0.000001 7.737836
v -0.450454 6.450009 7.737835
v 0.125415 -0.000001 7.506395
v 0.125415 6.450009 7.506394
v 0.523483 -0.000001 7.982557
v 0.523483 6.450009 7.982556
v 0.193633 -0.000001 8.508284
v 0.193633 6.450009 8.508283
v -0.408292 -0.000001 8.357038
v -0.408292 6.450009 8.357038
v -0.003243 7.428706 8.018422
v -0.463561 -0.000001 7.328546
v -0.463561 7.247888 7.328545
v -0.391358 -0.000001 6.712125
v -0.391358 7.247887 6.712124
v 0.217208 -0.000001 6.590311
v 0.217208 7.247887 6.590310
v 0.521117 -0.000001 7.131444
v 0.521117 7.247887 7.131444
v 0.100379 -0.000001 7.587701
v 0.100379 7.247888 7.587700
v -0.003243 8.226584 7.070023
v -0.170327 -0.000001 6.695154
v -0.170327 6.670408 6.695153
v -0.531173 -0.000001 6.190195
v -0.531173 6.670408 6.190194
v -0.162434 -0.000001 5.690973
v -0.162434 6.670408 5.690972
v 0.426299 -0.000001 5.887392
v 0.426299 6.670408 5.887391
v 0.421420 -0.000001 6.508008
v 0.421420 6.670408 6.508008
v -0.003243 7.649105 6.194344
v 0.059955 -0.000001 5.811983
v 0.059955 6.289544 5.811982
v -0.482209 -0.000001 5.509912
v -0.482209 6.289544 5.509911
v -0.362460 -0.000001 4.900938
v -0.362460 6.289544 4.900937
v 0.253715 -0.000001 4.826643
v 0.253715 6.289544 4.826642
v 0.514781 -0.000001 5.389699
v 0.514781 6.289544 5.389699
v -0.003243 7.268240 5.287835
v 0.479659 -0.000001 4.657663
v 0.479659 6.857090 4.657662
v -0.056954 -0.000001 4.969491
v -0.056954 6.857090 4.969491
v -0.519341 -0.000001 4.555498
v -0.519341 6.857090 4.555497
v -0.268498 -0.000001 3.987817
v -0.268498 6.857089 3.987816
v 0.348918 -0.000001 4.050950
v 0.348918 6.857089 4.050949
v -0.003243 7.835786 4.444283
v 0.524348 -0.000001 3.627527
v 0.524348 6.539683 3.627526
v 0.141387 -0.000001 4.115922
v 0.141387 6.539683 4.115921
v -0.441447 -0.000001 3.902627
v -0.441447 6.539683 3.902626
v -0.418698 -0.000001 3.282403
v -0.418698 6.539683 3.282402
v 0.178195 -0.000001 3.112382
v 0.178195 6.539683 3.112381
v -0.003243 7.518379 3.608170
v 0.424384 -0.000002 2.386842
v 0.424384 7.050184 2.386841
v 0.423362 -0.000001 3.007478
v 0.423362 7.050184 3.007477
v -0.167214 -0.000001 3.198289
v -0.167214 7.050184 3.198288
v -0.531188 -0.000001 2.695588
v -0.531188 7.050184 2.695587
v -0.165559 -0.000002 2.194078
v -0.165559 7.050184 2.194077
v -0.003243 8.028881 2.696457
v -0.455657 -0.000002 2.061647
v -0.455657 6.362390 2.061646
v -0.401847 -0.000002 1.443345
v -0.401847 6.362389 1.443344
v 0.202819 -0.000002 1.303453
v 0.202819 6.362389 1.303452
v 0.522712 -0.000002 1.835298
v 0.522712 6.362390 1.835297
v 0.115752 -0.000002 2.303888
v 0.115752 6.362390 2.303887
v -0.003243 7.341086 1.789528
v -0.486604 -0.000002 1.084687
v -0.486604 6.847343 1.084686
v -0.354560 -0.000002 0.478265
v -0.354560 6.847343 0.478264
v 0.262988 -0.000002 0.416444
v 0.262988 6.847343 0.416443
v 0.512614 -0.000002 0.984666
v 0.512614 6.847343 0.984665
v 0.049342 -0.000002 1.397668
v 0.049342 6.847343 1.397667
v -0.003243 7.826040 0.872345
v -0.174542 -0.000002 0.517038
v -0.174542 6.196635 0.517037
v -0.531117 -0.000002 0.009058
v -0.531117 6.196635 0.009057
v -0.158192 -0.000002 -0.487044
v -0.158192 6.196635 -0.487045
v 0.428870 -0.000002 -0.285674
v 0.428870 6.196635 -0.285675
v 0.418765 -0.000002 0.334886
v 0.418765 6.196635 0.334885
v -0.003243 7.175331 0.017655
v 0.524348 3.269841 3.712266
v 0.141387 3.269841 4.200662
v -0.441447 3.269841 3.987374
v -0.418698 3.269841 3.367150
v 0.178195 3.269841 3.197129
v -0.463561 4.253177 7.212815
v -0.391358 4.253177 6.596391
v 0.217208 4.253177 6.474576
v 0.521117 4.253177 7.015714
v 0.100379 4.253178 7.471967
v -0.174542 1.520640 0.461129
v -0.531117 1.520640 -0.046843
v -0.158192 1.520640 -0.542945
v 0.428870 1.520640 -0.341574
v 0.418765 1.520640 0.278978
vt 0.018647 0.876533
vt 0.040841 0.872069
vt 0.029954 0.867352
vt 0.027341 0.889839
vt 0.022104 0.876248
vt 0.042682 0.885682
vt 0.028138 0.886464
vt 0.043469 0.869808
vt 0.039718 0.883881
vt 0.032151 0.877203
vt 0.028615 0.864153
vt 0.100100 0.848166
vt 0.089374 0.828912
vt 0.088252 0.840274
vt 0.109877 0.836022
vt 0.098711 0.844852
vt 0.101350 0.822971
vt 0.106297 0.836320
vt 0.086302 0.827048
vt 0.100526 0.826468
vt 0.096632 0.835365
vt 0.085530 0.842619
vt 0.779984 0.203439
vt 0.711751 0.272738
vt 0.711965 0.272435
vt 0.779834 0.203493
vt 0.712008 0.272375
vt 0.779943 0.203597
vt 0.711735 0.272545
vt 0.780015 0.203467
vt 0.711565 0.272773
vt 0.693629 0.291001
vt 0.780085 0.203309
vt 0.084190 0.840668
vt 0.074833 0.860971
vt 0.084877 0.855061
vt 0.068459 0.839887
vt 0.082360 0.843681
vt 0.062855 0.854607
vt 0.070759 0.842559
vt 0.075123 0.864485
vt 0.066107 0.853245
vt 0.075787 0.851103
vt 0.088309 0.855870
vt 0.693756 0.656511
vt 0.702559 0.673617
vt 0.703856 0.663785
vt 0.684868 0.666871
vt 0.694907 0.659513
vt 0.691974 0.678526
vt 0.688078 0.666704
vt 0.705254 0.675368
vt 0.692808 0.675421
vt 0.696441 0.667808
vt 0.706355 0.661763
vt 0.961339 0.090786
vt 0.945368 0.096726
vt 0.954016 0.098946
vt 0.953301 0.081922
vt 0.958799 0.091408
vt 0.942387 0.086827
vt 0.953107 0.084529
vt 0.943679 0.098722
vt 0.944807 0.087817
vt 0.951219 0.091885
vt 0.955392 0.101169
vt 0.204771 0.813112
vt 0.330328 0.703811
vt 0.330143 0.704069
vt 0.204720 0.813060
vt 0.330264 0.704018
vt 0.204342 0.813216
vt 0.330600 0.703798
vt 0.204172 0.813629
vt 0.330597 0.703612
vt 0.358648 0.679298
vt 0.204465 0.813372
vt 0.674252 0.633185
vt 0.660145 0.647634
vt 0.670586 0.645629
vt 0.661204 0.627747
vt 0.671906 0.635079
vt 0.652000 0.638476
vt 0.662280 0.630563
vt 0.659359 0.650545
vt 0.655011 0.638323
vt 0.663985 0.639446
vt 0.673112 0.647275
vt 0.070123 0.838735
vt 0.050253 0.829497
vt 0.055967 0.839271
vt 0.070892 0.823228
vt 0.067028 0.836857
vt 0.056382 0.817704
vt 0.068150 0.825591
vt 0.046645 0.829797
vt 0.057783 0.821043
vt 0.059836 0.830452
vt 0.055138 0.842795
vt 0.039179 0.863142
vt 0.061343 0.858689
vt 0.050479 0.853979
vt 0.047864 0.876435
vt 0.042642 0.862857
vt 0.063190 0.872282
vt 0.048663 0.873053
vt 0.063977 0.856423
vt 0.060221 0.870478
vt 0.052670 0.863811
vt 0.049137 0.850774
vt 0.905057 0.109422
vt 0.697909 0.291627
vt 0.698045 0.291524
vt 0.903560 0.110002
vt 0.698132 0.291394
vt 0.902602 0.111108
vt 0.698062 0.291423
vt 0.903017 0.111586
vt 0.697902 0.291544
vt 0.675102 0.311653
vt 0.904220 0.110752
vt 0.080621 0.926944
vt 0.089178 0.916783
vt 0.059603 0.939215
vt 0.075428 0.919452
vt 0.086687 0.912970
vt 0.927697 0.053683
vt 0.914170 0.063914
vt 0.917512 0.067536
vt 0.910301 0.073132
vt 0.908557 0.071208
vt 0.934368 0.094050
vt 0.945746 0.073590
vt 0.922352 0.099578
vt 0.916974 0.093647
vt 0.923824 0.082334
vn 0.5878 -0.0000 -0.8090
vn 0.9511 0.0000 0.3090
vn 0.0000 0.0000 1.0000
vn -0.8717 0.4000 0.2832
vn -0.9511 0.0000 0.3090
vn -0.5878 -0.0000 -0.8090
vn 0.8717 0.4000 0.2832
vn -0.5387 0.4000 -0.7415
vn 0.5387 0.4000 -0.7415
vn 0.0000 0.4000 0.9165
vn -0.3729 -0.0000 -0.9279
vn 0.7672 -0.0000 -0.6414
vn 0.8471 0.0000 0.5315
vn -0.2234 0.4000 0.8889
vn -0.2437 0.0000 0.9699
vn -0.9977 0.0000 0.0679
vn 0.7032 0.4000 -0.5878
vn -0.9144 0.4000 0.0623
vn -0.3418 0.4000 -0.8504
vn 0.7764 0.4000 0.4871
vn -0.9932 0.0045 -0.1163
vn -0.1961 0.0379 -0.9798
vn 0.8717 0.0189 -0.4896
vn 0.6738 0.4000 0.6213
vn 0.7349 -0.0262 0.6777
vn -0.4173 -0.0351 0.9081
vn -0.1799 0.4000 -0.8987
vn -0.3827 0.4000 0.8328
vn -0.9103 0.4000 -0.1066
vn 0.7991 0.4000 -0.4488
vn -0.8136 0.0000 0.5814
vn -0.8044 -0.0000 -0.5941
vn 0.3165 -0.0000 -0.9486
vn 0.9165 0.4000 0.0072
vn 1.0000 0.0000 0.0079
vn 0.3015 0.0000 0.9535
vn -0.7372 0.4000 -0.5445
vn 0.2764 0.4000 0.8739
vn -0.7457 0.4000 0.5329
vn 0.2901 0.4000 -0.8694
vn -0.4867 0.0000 0.8736
vn -0.9812 -0.0000 -0.1929
vn -0.1197 -0.0000 -0.9928
vn 0.8315 0.4000 -0.3855
vn 0.9072 -0.0000 -0.4206
vn 0.6804 0.0000 0.7328
vn -0.8993 0.4000 -0.1768
vn 0.6236 0.4000 0.6717
vn -0.4461 0.4000 0.8006
vn -0.1097 0.4000 -0.9099
vn 0.5024 0.0000 0.8646
vn -0.6670 0.0000 0.7450
vn -0.9147 -0.0000 -0.4042
vn 0.0932 0.4000 -0.9118
vn 0.1017 -0.0000 -0.9948
vn 0.9776 -0.0000 -0.2107
vn -0.6114 0.4000 0.6828
vn 0.8960 0.4000 -0.1931
vn 0.4605 0.4000 0.7924
vn -0.8383 0.4000 -0.3704
vn 0.7868 0.0160 0.6170
vn -0.3436 0.0243 0.9388
vn -0.9993 -0.0009 -0.0367
vn -0.2511 0.4000 -0.8815
vn -0.2739 -0.0249 -0.9614
vn 0.8299 -0.0145 -0.5577
vn -0.3150 0.4000 0.8607
vn 0.7607 0.4000 -0.5112
vn 0.7212 0.4000 0.5655
vn -0.9159 0.4000 -0.0336
vn 1.0000 0.0000 0.0016
vn 0.3074 0.0000 0.9516
vn -0.8100 0.0000 0.5865
vn -0.7406 0.4000 -0.5399
vn -0.8081 -0.0000 -0.5891
vn 0.3106 -0.0000 -0.9505
vn 0.2818 0.4000 0.8721
vn 0.2847 0.4000 -0.8712
vn 0.9165 0.4000 0.0015
vn -0.7424 0.4000 0.5375
vn -0.9962 -0.0000 -0.0867
vn -0.2254 -0.0000 -0.9743
vn 0.8569 -0.0000 -0.5154
vn 0.6920 0.4000 0.6010
vn 0.7550 0.0000 0.6557
vn -0.3903 0.0000 0.9207
vn -0.2066 0.4000 -0.8929
vn -0.3577 0.4000 0.8438
vn -0.9131 0.4000 -0.0795
vn 0.7854 0.4000 -0.4724
vn -0.9771 -0.0000 -0.2128
vn -0.0996 -0.0000 -0.9950
vn 0.9155 -0.0000 -0.4022
vn 0.6099 0.4000 0.6841
vn 0.6654 0.0000 0.7464
vn -0.5043 0.0000 0.8635
vn -0.0913 0.4000 -0.9120
vn -0.4622 0.4000 0.7915
vn -0.8955 0.4000 -0.1950
vn 0.8391 0.4000 -0.3686
vn -0.8185 -0.0069 0.5745
vn -0.7993 0.0072 -0.6009
vn 0.3244 0.0113 -0.9458
vn 0.9164 0.4000 0.0149
vn 0.9999 -0.0002 0.0163
vn 0.2935 -0.0114 0.9559
vn -0.7326 0.4000 -0.5507
vn 0.2690 0.4000 0.8762
vn -0.7502 0.4000 0.5266
vn 0.2974 0.4000 -0.8669
vn 0.8299 0.0145 -0.5577
vn -0.2739 0.0249 -0.9614
vn -0.9993 0.0009 -0.0367
vn -0.3436 -0.0243 0.9388
vn 0.7868 -0.0160 0.6170
vn -0.4174 0.0247 0.9084
vn 0.7350 0.0184 0.6778
vn 0.8718 -0.0133 -0.4896
vn -0.1962 -0.0267 -0.9802
vn -0.9932 -0.0032 -0.1163
vn 0.2933 0.0351 0.9554
vn 0.9999 0.0006 0.0163
vn 0.3243 -0.0348 -0.9453
vn -0.7991 -0.0221 -0.6007
vn -0.8183 0.0211 0.5744
usemtl None
s off
f 1/1/1 2/2/1 4/3/1 3/4/1
f 3/4/2 4/3/2 6/5/2 5/6/2
f 5/6/3 6/5/3 8/7/3 7/8/3
f 10/9/4 8/7/4 11/10/4
f 7/8/5 8/7/5 10/9/5 9/11/5
f 9/11/6 10/9/6 2/2/6 1/1/6
f 6/5/7 4/3/7 11/10/7
f 2/2/8 10/9/8 11/10/8
f 4/3/9 2/2/9 11/10/9
f 8/7/10 6/5/10 11/10/10
f 12/12/11 13/13/11 15/14/11 14/15/11
f 14/15/12 15/14/12 17/16/12 16/17/12
f 16/17/13 17/16/13 19/18/13 18/19/13
f 21/20/14 19/18/14 22/21/14
f 18/19/15 19/18/15 21/20/15 20/22/15
f 20/22/16 21/20/16 13/13/16 12/12/16
f 17/16/17 15/14/17 22/21/17
f 13/13/18 21/20/18 22/21/18
f 15/14/19 13/13/19 22/21/19
f 19/18/20 17/16/20 22/21/20
f 127/23/21 24/24/21 26/25/21 128/26/21
f 128/26/22 26/25/22 28/27/22 129/28/22
f 129/28/23 28/27/23 30/29/23 130/30/23
f 32/31/24 30/29/24 33/32/24
f 130/30/25 30/29/25 32/31/25 131/33/25
f 131/33/26 32/31/26 24/24/26 127/23/26
f 28/27/27 26/25/27 33/32/27
f 24/24/28 32/31/28 33/32/28
f 26/25/29 24/24/29 33/32/29
f 30/29/30 28/27/30 33/32/30
f 34/34/31 35/35/31 37/36/31 36/37/31
f 36/37/32 37/36/32 39/38/32 38/39/32
f 38/39/33 39/38/33 41/40/33 40/41/33
f 43/42/34 41/40/34 44/43/34
f 40/41/35 41/40/35 43/42/35 42/44/35
f 42/44/36 43/42/36 35/35/36 34/34/36
f 39/38/37 37/36/37 44/43/37
f 35/35/38 43/42/38 44/43/38
f 37/36/39 35/35/39 44/43/39
f 41/40/40 39/38/40 44/43/40
f 45/45/41 46/46/41 48/47/41 47/48/41
f 47/48/42 48/47/42 50/49/42 49/50/42
f 49/50/43 50/49/43 52/51/43 51/52/43
f 54/53/44 52/51/44 55/54/44
f 51/52/45 52/51/45 54/53/45 53/55/45
f 53/55/46 54/53/46 46/46/46 45/45/46
f 50/49/47 48/47/47 55/54/47
f 46/46/48 54/53/48 55/54/48
f 48/47/49 46/46/49 55/54/49
f 52/51/50 50/49/50 55/54/50
f 56/56/51 57/57/51 59/58/51 58/59/51
f 58/59/52 59/58/52 61/60/52 60/61/52
f 60/61/53 61/60/53 63/62/53 62/63/53
f 65/64/54 63/62/54 66/65/54
f 62/63/55 63/62/55 65/64/55 64/66/55
f 64/66/56 65/64/56 57/57/56 56/56/56
f 61/60/57 59/58/57 66/65/57
f 57/57/58 65/64/58 66/65/58
f 59/58/59 57/57/59 66/65/59
f 63/62/60 61/60/60 66/65/60
f 122/67/61 68/68/61 70/69/61 123/70/61
f 123/70/62 70/69/62 72/71/62 124/72/62
f 124/72/63 72/71/63 74/73/63 125/74/63
f 76/75/64 74/73/64 77/76/64
f 125/74/65 74/73/65 76/75/65 126/77/65
f 126/77/66 76/75/66 68/68/66 122/67/66
f 72/71/67 70/69/67 77/76/67
f 68/68/68 76/75/68 77/76/68
f 70/69/69 68/68/69 77/76/69
f 74/73/70 72/71/70 77/76/70
f 78/78/71 79/79/71 81/80/71 80/81/71
f 80/81/72 81/80/72 83/82/72 82/83/72
f 82/83/73 83/82/73 85/84/73 84/85/73
f 87/86/74 85/84/74 88/87/74
f 84/85/75 85/84/75 87/86/75 86/88/75
f 86/88/76 87/86/76 79/79/76 78/78/76
f 83/82/77 81/80/77 88/87/77
f 79/79/78 87/86/78 88/87/78
f 81/80/79 79/79/79 88/87/79
f 85/84/80 83/82/80 88/87/80
f 89/89/81 90/90/81 92/91/81 91/92/81
f 91/92/82 92/91/82 94/93/82 93/94/82
f 93/94/83 94/93/83 96/95/83 95/96/83
f 98/97/84 96/95/84 99/98/84
f 95/96/85 96/95/85 98/97/85 97/99/85
f 97/99/86 98/97/86 90/90/86 89/89/86
f 94/93/87 92/91/87 99/98/87
f 90/90/88 98/97/88 99/98/88
f 92/91/89 90/90/89 99/98/89
f 96/95/90 94/93/90 99/98/90
f 100/100/91 101/101/91 103/102/91 102/103/91
f 102/103/92 103/102/92 105/104/92 104/105/92
f 104/105/93 105/104/93 107/106/93 106/107/93
f 109/108/94 107/106/94 110/109/94
f 106/107/95 107/106/95 109/108/95 108/110/95
f 108/110/96 109/108/96 101/101/96 100/100/96
f 105/104/97 103/102/97 110/109/97
f 101/101/98 109/108/98 110/109/98
f 103/102/99 101/101/99 110/109/99
f 107/106/100 105/104/100 110/109/100
f 132/111/101 112/112/101 114/113/101 133/114/101
f 133/114/102 114/113/102 116/115/102 134/116/102
f 134/116/103 116/115/103 118/117/103 135/118/103
f 120/119/104 118/117/104 121/120/104
f 135/118/105 118/117/105 120/119/105 136/121/105
f 136/121/106 120/119/106 112/112/106 132/111/106
f 116/115/107 114/113/107 121/120/107
f 112/112/108 120/119/108 121/120/108
f 114/113/109 112/112/109 121/120/109
f 118/117/110 116/115/110 121/120/110
f 75/122/111 126/77/111 122/67/111 67/123/111
f 73/124/112 125/74/112 126/77/112 75/122/112
f 71/125/113 124/72/113 125/74/113 73/124/113
f 69/126/114 123/70/114 124/72/114 71/125/114
f 67/123/115 122/67/115 123/70/115 69/126/115
f 31/127/116 131/33/116 127/23/116 23/128/116
f 29/129/117 130/30/117 131/33/117 31/127/117
f 27/130/118 129/28/118 130/30/118 29/129/118
f 25/131/119 128/26/119 129/28/119 27/130/119
f 23/128/120 127/23/120 128/26/120 25/131/120
f 119/132/121 136/121/121 132/111/121 111/133/121
f 117/134/122 135/118/122 136/121/122 119/132/122
f 115/135/123 134/116/123 135/118/123 117/134/123
f 113/136/124 133/114/124 134/116/124 115/135/124
f 111/133/125 132/111/125 133/114/125 113/136/125
