# Blender v2.79 (sub 0) OBJ File: 'well_002.blend'
# www.blender.org
mtllib well_002.mtl
o Cube.135_Cube.153
v 0.001952 0.609404 -1.591500
v 0.001951 1.439189 -1.173480
v 0.909225 0.609404 -1.296709
v 0.663519 1.439189 -0.958524
v 1.469951 0.609404 -0.524936
v 1.072390 1.439189 -0.395761
v 1.469951 0.609404 0.429028
v 1.072390 1.439189 0.299852
v 0.909225 0.609404 1.200801
v 0.663519 1.439189 0.862615
v 0.001951 0.609404 1.495592
v 0.001951 1.439189 1.077572
v -0.905322 0.609404 1.200801
v -0.659616 1.439189 0.862615
v -1.466048 0.609404 0.429028
v -1.068487 1.439189 0.299852
v -1.466048 0.609404 -0.524936
v -1.068487 1.439189 -0.395761
v -0.905322 0.609404 -1.296710
v -0.659616 1.439189 -0.958524
v 0.909225 1.439189 -1.296709
v 0.001952 1.439189 -1.591500
v 1.469951 1.439189 -0.524936
v 0.001951 1.439189 1.495592
v -0.905322 1.439189 1.200801
v -1.466048 1.439189 0.429028
v -1.466048 1.439189 -0.524936
v -0.905322 1.439189 -1.296710
v 0.663519 -3.509700 -0.958524
v 0.001951 -3.509700 -1.173480
v 1.072390 -3.509700 -0.395761
v 1.072390 -3.509700 0.299852
v 0.663519 -3.509700 0.862615
v 0.001951 -3.509700 1.077572
v -0.659616 -3.509700 0.862615
v -1.068487 -3.509700 0.299852
v -1.068487 -3.509700 -0.395761
v -0.659616 -3.509700 -0.958524
v 1.162314 0.609404 -1.645056
v 1.879457 0.609404 -0.657993
v 1.879457 0.609404 0.562084
v 1.162313 0.609404 1.549147
v 0.001951 0.609404 1.926171
v -1.158411 0.609404 1.549147
v -1.875553 0.609404 -0.657993
v -1.158410 0.609404 -1.645056
v 0.001952 -3.805734 -2.022080
v 1.162314 -3.805734 -1.645056
v 1.879457 -3.805734 -0.657993
v 1.879457 -3.805734 0.562084
v 1.162313 -3.805734 1.549147
v 0.001951 -3.805734 1.926171
v -1.158411 -3.805734 1.549147
v -1.875553 -3.805734 0.562084
v -1.875553 -3.805734 -0.657993
v -1.158410 -3.805734 -1.645056
v 0.909225 1.204371 1.200801
v 0.395032 1.439189 1.367872
v 0.808577 1.439189 1.062271
v 1.049301 1.439189 0.754869
v 1.286136 1.205992 0.682027
v 1.291109 1.439189 0.370919
v 1.469951 1.270041 0.429028
v 1.469951 1.439189 -0.045017
v 0.660573 0.609404 -1.808081
v 0.001952 0.609404 -1.771554
v 0.001952 0.411908 -2.022080
v -0.651133 0.609404 -1.809880
v -1.305319 0.609404 1.346945
v -1.875553 0.426964 0.562084
v -1.679159 0.609404 0.498272
v -1.875553 0.609404 -0.267509
v -1.875553 0.407861 0.241081
v -1.480073 0.405041 1.106417
v -1.503439 0.609404 0.776930
vt 0.206814 0.779648
vt 0.205978 0.781088
vt 0.204797 0.780860
vt 0.204792 0.779416
vt 0.203653 0.781277
vt 0.202848 0.780065
vt 0.203290 0.781808
vt 0.202810 0.782266
vt 0.201636 0.781797
vt 0.202637 0.782727
vt 0.202687 0.783704
vt 0.201501 0.784097
vt 0.203284 0.784278
vt 0.203594 0.784809
vt 0.202639 0.786021
vt 0.204876 0.785202
vt 0.204802 0.787068
vt 0.206206 0.784648
vt 0.207566 0.785931
vt 0.206731 0.783552
vt 0.208495 0.783553
vt 0.204877 0.784577
vt 0.203952 0.784301
vt 0.204836 0.782929
vt 0.204809 0.782949
vt 0.206748 0.782065
vt 0.208261 0.781322
vt 0.205672 0.781601
vt 0.204812 0.781400
vt 0.203973 0.781737
vt 0.203406 0.782503
vt 0.203121 0.782396
vt 0.203394 0.783487
vt 0.203080 0.783596
vt 0.203058 0.783041
vt 0.205793 0.784195
vt 0.206256 0.783366
vt 0.206228 0.782336
vt 0.204896 0.782911
vt 0.204859 0.782938
vt 0.204816 0.782964
vt 0.204797 0.782980
vt 0.204791 0.782966
vt 0.204864 0.782910
vt 0.204885 0.782897
vt 0.204901 0.782897
vt 0.204801 0.778662
vt 0.205724 0.778732
vt 0.207063 0.779178
vt 0.209424 0.783416
vt 0.209250 0.784288
vt 0.208046 0.786308
vt 0.200764 0.781486
vt 0.202328 0.779283
vt 0.208352 0.779961
vt 0.209263 0.780782
vt 0.201937 0.786842
vt 0.200567 0.784306
vt 0.207507 0.778246
vt 0.358442 0.837863
vt 0.297731 0.923210
vt 0.197290 0.956326
vt 0.207108 0.786951
vt 0.208504 0.786986
vt 0.206875 0.788392
vt 0.204513 0.788403
vt 0.205452 0.788175
vt 0.103958 0.909331
vt 0.056141 0.823926
vt 0.056141 0.728578
vt 0.112867 0.648018
vt 0.209553 0.613987
vt 0.311919 0.644024
vt 0.378919 0.732334
vt 0.209554 0.785699
vn 0.3090 0.0000 -0.9511
vn 0.8090 0.0000 -0.5878
vn 1.0000 0.0000 0.0000
vn 0.8090 0.0000 0.5878
vn 0.3090 0.0000 0.9511
vn -0.3090 0.0000 0.9511
vn -0.8090 0.0000 0.5878
vn -1.0000 0.0000 0.0000
vn -0.8090 0.0000 -0.5878
vn -0.3090 0.0000 -0.9511
vn 0.0000 1.0000 0.0000
vn -0.5899 0.6668 0.4554
vn 0.6446 0.5741 0.5048
vn 0.6816 0.5371 0.4969
vn 0.4802 0.5892 0.6498
vn 0.4860 0.6956 0.5292
vn 0.6955 0.5695 0.4380
vn 0.6158 0.7421 0.2648
vn 0.0363 0.7848 -0.6187
vn -0.0343 0.7849 -0.6187
vn -0.5698 0.7391 0.3593
vn -0.8705 0.3883 0.3025
vn -0.6875 0.7249 -0.0431
vn -0.8207 0.5312 0.2105
usemtl None
s off
f 1/1/1 22/2/1 21/3/1 3/4/1
f 3/4/2 21/3/2 23/5/2 5/6/2
f 5/6/3 23/5/3 64/7/3 63/8/3 7/9/3
f 7/9/4 63/8/4 61/10/4 57/11/4 9/12/4
f 9/12/5 57/11/5 58/13/5 24/14/5 11/15/5
f 11/15/6 24/14/6 25/16/6 13/17/6
f 13/17/7 25/16/7 26/18/7 15/19/7
f 15/19/8 26/18/8 27/20/8 17/21/8
f 14/22/1 12/23/1 34/24/1 35/25/1
f 17/21/9 27/20/9 28/26/9 19/27/9
f 19/27/10 28/26/10 22/2/10 1/1/10
f 2/28/11 4/29/11 21/3/11 22/2/11
f 4/29/11 6/30/11 23/5/11 21/3/11
f 6/30/11 8/31/11 62/32/11 64/7/11 23/5/11
f 8/31/11 10/33/11 59/34/11 60/35/11 62/32/11
f 10/33/11 12/23/11 24/14/11 58/13/11 59/34/11
f 12/23/11 14/22/11 25/16/11 24/14/11
f 14/22/11 16/36/11 26/18/11 25/16/11
f 16/36/11 18/37/11 27/20/11 26/18/11
f 18/37/11 20/38/11 28/26/11 27/20/11
f 20/38/11 2/28/11 22/2/11 28/26/11
f 29/39/11 30/40/11 38/41/11 37/42/11 36/43/11 35/25/11 34/24/11 33/44/11 32/45/11 31/46/11
f 8/31/8 6/30/8 31/46/8 32/45/8
f 2/28/5 20/38/5 38/41/5 30/40/5
f 16/36/2 14/22/2 35/25/2 36/43/2
f 10/33/9 8/31/9 32/45/9 33/44/9
f 4/29/6 2/28/6 30/40/6 29/39/6
f 18/37/3 16/36/3 36/43/3 37/42/3
f 12/23/10 10/33/10 33/44/10 34/24/10
f 6/30/7 4/29/7 29/39/7 31/46/7
f 20/38/4 18/37/4 37/42/4 38/41/4
f 1/1/11 3/4/11 39/47/11 65/48/11 66/49/11
f 15/19/11 17/21/11 45/50/11 72/51/11 71/52/11
f 5/6/11 7/9/11 41/53/11 40/54/11
f 19/27/11 1/1/11 66/49/11 68/55/11 46/56/11
f 9/12/11 11/15/11 43/57/11 42/58/11
f 46/56/10 68/55/10 67/59/10 47/60/10 56/61/10
f 45/50/9 46/56/9 56/61/9 55/62/9
f 75/63/12 70/64/12 74/65/12
f 44/66/7 69/67/7 74/65/7 70/64/7 54/68/7 53/69/7
f 43/57/6 44/66/6 53/69/6 52/70/6
f 42/58/5 43/57/5 52/70/5 51/71/5
f 41/53/4 42/58/4 51/71/4 50/72/4
f 40/54/3 41/53/3 50/72/3 49/73/3
f 39/47/2 40/54/2 49/73/2 48/74/2
f 11/15/11 13/17/11 44/66/11 43/57/11
f 7/9/11 9/12/11 42/58/11 41/53/11
f 17/21/11 19/27/11 46/56/11 45/50/11
f 3/4/11 5/6/11 40/54/11 39/47/11
f 13/17/11 15/19/11 71/52/11 75/63/11 69/67/11 44/66/11
f 57/11/13 60/35/13 59/34/13
f 57/11/14 61/10/14 60/35/14
f 57/11/15 59/34/15 58/13/15
f 62/32/16 61/10/16 63/8/16
f 60/35/17 61/10/17 62/32/17
f 64/7/18 62/32/18 63/8/18
f 66/49/19 67/59/19 68/55/19
f 67/59/1 65/48/1 39/47/1 48/74/1 47/60/1
f 67/59/20 66/49/20 65/48/20
f 70/64/21 75/63/21 71/52/21
f 70/64/8 73/75/8 72/51/8 45/50/8 55/62/8 54/68/8
f 75/63/22 74/65/22 69/67/22
f 71/52/23 73/75/23 70/64/23
f 73/75/24 71/52/24 72/51/24
