# Blender v2.79 (sub 0) OBJ File: 'window_small_003.blend'
# www.blender.org
o Plane.005
v -1.030091 0.518381 0.385055
v -1.015539 -0.521737 0.385054
v 1.005067 0.516240 0.385054
v 0.997070 -0.519869 0.385054
v -0.985389 0.014828 0.458840
v 0.984448 -0.015459 0.479354
v 0.718971 -0.025402 0.463053
v 0.373350 -0.038607 0.462387
v 0.077703 -0.029709 0.457341
v -0.153159 0.003321 0.446106
v -0.404384 0.032264 0.440978
v -0.727418 0.018892 0.444539
v -0.985028 -0.235664 0.492650
v -0.988107 -0.460754 0.473385
v 0.969917 -0.485736 0.448792
v 0.973553 -0.249993 0.481324
v -0.699312 -0.493193 0.462875
v -0.690479 -0.269984 0.504496
v -0.384544 -0.489661 0.492446
v -0.374252 -0.258784 0.515842
v -0.125372 -0.453659 0.480456
v -0.123802 -0.226345 0.515716
v 0.130778 -0.426058 0.449218
v 0.111590 -0.206196 0.488960
v 0.409027 -0.433737 0.439346
v 0.396676 -0.212743 0.480271
v 0.694854 -0.462696 0.445187
v 0.702652 -0.228517 0.489149
v -0.984181 0.535742 0.413850
v 0.970910 0.509910 0.485702
v 0.720909 0.498800 0.432202
v 0.388855 0.482400 0.440659
v 0.090461 0.479451 0.452686
v -0.155196 0.486377 0.410416
v -0.444324 0.519967 0.399841
v -0.741533 0.536164 0.412671
v -0.454721 0.401163 0.465412
v -0.441876 0.246725 0.473603
v -0.163849 0.180664 0.490059
v -0.169847 0.344431 0.477467
v 0.065641 0.296276 0.516448
v 0.061701 0.117602 0.516564
v 0.363456 0.112175 0.522638
v 0.367376 0.297389 0.518467
v 0.729009 0.325284 0.503141
v 0.728110 0.142809 0.515549
v 0.987729 0.170343 0.523280
v 0.980949 0.345484 0.526267
v -0.989809 0.395205 0.483320
v -0.996357 0.224314 0.502635
v -0.759243 0.246887 0.481652
v -0.760464 0.409471 0.473313
v -1.233427 -0.737462 -0.612897
v -1.233427 -0.494594 -0.612897
v 1.230135 -0.737462 -0.612898
v 1.230135 -0.494594 -0.612898
v -1.233427 -0.737462 0.718696
v -1.233427 -0.494594 0.718696
v 1.230135 -0.737462 0.718695
v 1.230135 -0.494594 0.718695
v -1.233427 0.500017 -0.612897
v -1.233427 0.742535 -0.612897
v 1.230135 0.500017 -0.612898
v 1.230135 0.742535 -0.612898
v -1.233427 0.500017 0.612715
v -1.233427 0.742536 0.612715
v 1.230135 0.500017 0.612714
v 1.230135 0.742536 0.612714
v -0.996632 -0.494725 -0.612897
v -1.234320 -0.494725 -0.612897
v -0.996632 0.499444 -0.612897
v -1.234320 0.499444 -0.612897
v -0.996632 -0.498094 0.616354
v -1.234321 -0.494725 0.616354
v -1.011589 0.502567 0.616354
v -1.234321 0.499444 0.616354
v 1.229050 -0.494725 -0.612898
v 0.991297 -0.494725 -0.612898
v 1.229050 0.499444 -0.612898
v 0.991297 0.499444 -0.612898
v 1.229050 -0.494725 0.616353
v 0.991298 -0.494725 0.616353
v 1.229050 0.499444 0.616353
v 1.000904 0.499444 0.616353
vt 0.591165 0.262797
vt 0.593975 0.076490
vt 0.954480 0.077218
vt 0.955710 0.262811
vt 0.845397 0.824080
vt 0.850028 0.794917
vt 0.901084 0.793730
vt 0.902847 0.827727
vt 0.853171 0.757387
vt 0.900983 0.754126
vt 0.795986 0.824627
vt 0.802138 0.794673
vt 0.806734 0.757441
vt 0.757362 0.829827
vt 0.762935 0.790262
vt 0.763738 0.752176
vt 0.715446 0.833938
vt 0.721643 0.784123
vt 0.720622 0.745548
vt 0.661723 0.830281
vt 0.669076 0.781330
vt 0.668031 0.743500
vt 0.618784 0.828264
vt 0.619878 0.786175
vt 0.619880 0.748567
vt 0.946162 0.791514
vt 0.946938 0.830570
vt 0.946862 0.751919
vt 0.705375 0.896059
vt 0.753753 0.888074
vt 0.755126 0.914490
vt 0.706594 0.918859
vt 0.793584 0.880309
vt 0.843256 0.881678
vt 0.846061 0.914936
vt 0.796568 0.912469
vt 0.903525 0.887871
vt 0.945906 0.891292
vt 0.943671 0.919326
vt 0.901165 0.919219
vt 0.615869 0.892394
vt 0.654079 0.895833
vt 0.656834 0.919328
vt 0.616402 0.918533
vt 0.903881 0.857152
vt 0.843242 0.850994
vt 0.793509 0.850975
vt 0.755530 0.860429
vt 0.708322 0.870179
vt 0.655014 0.868601
vt 0.615358 0.863747
vt 0.947142 0.862255
vt 0.197497 0.815195
vt 0.201869 0.845585
vt 0.223000 0.821797
vt 0.207466 0.833013
vt 0.074957 0.821797
vt 0.090490 0.833013
vt 0.096087 0.845585
vt 0.100459 0.815195
vt 0.300043 0.781502
vt 0.235961 0.815139
vt 0.151563 0.784679
vt 0.136187 0.781457
vt 0.179526 0.796067
vt 0.164151 0.792844
vt 0.078923 0.815102
vt 0.074957 0.781502
vt 0.074957 0.885826
vt 0.102513 0.868747
vt 0.137461 0.857588
vt 0.133547 0.848859
vt 0.162212 0.848893
vt 0.179170 0.845641
vt 0.127910 0.860971
vt 0.131414 0.885826
vt 0.117911 0.900284
vt 0.074957 0.903060
vt 0.168818 0.919975
vt 0.193414 0.914154
vt 0.160742 0.906224
vt 0.162082 0.913801
vt 0.119200 0.885882
vt 0.127360 0.903060
vn 0.0000 -0.0000 1.0000
vn -0.0141 0.1155 0.9932
vn -0.0383 -0.1836 0.9823
vn 0.0100 0.1414 0.9899
vn 0.0279 -0.1780 0.9836
vn 0.0391 0.2474 0.9681
vn 0.1309 -0.1590 0.9786
vn -0.0115 0.2661 0.9639
vn 0.0407 -0.1279 0.9909
vn -0.0205 0.2241 0.9743
vn -0.0608 -0.1390 0.9884
vn 0.0138 0.1722 0.9850
vn -0.0176 -0.1341 0.9908
vn -0.0144 0.0649 0.9978
vn -0.0055 -0.1605 0.9870
vn 0.0357 0.4503 0.8921
vn 0.0132 0.3574 0.9339
vn -0.1622 0.3013 0.9396
vn 0.0077 0.4372 0.8993
vn 0.0490 0.4520 0.8906
vn -0.1111 0.3825 0.9172
vn 0.0072 0.3830 0.9237
vn 0.0291 -0.3330 0.9425
vn 0.0272 0.0447 0.9986
vn -0.1431 -0.3104 0.9398
vn -0.1320 0.0360 0.9906
vn 0.0211 -0.1524 0.9881
vn 0.0263 0.0532 0.9982
vn 0.0793 -0.1738 0.9816
vn 0.0597 0.0815 0.9949
vn -0.0255 -0.2619 0.9648
vn -0.0625 0.0253 0.9977
vn -0.0262 -0.3739 0.9271
vn -0.0133 0.0121 0.9998
vn -0.0758 -0.2002 0.9768
vn -0.0368 0.0630 0.9973
vn 1.0000 0.0000 -0.0000
vn -1.0000 0.0000 0.0000
vn 0.0000 -1.0000 0.0000
vn 0.0000 1.0000 -0.0000
vn -0.0068 1.0000 -0.0013
vn -0.0071 -1.0000 -0.0014
vn 1.0000 0.0075 0.0061
vn -1.0000 0.0048 0.0039
s off
f 1/1/1 2/2/1 4/3/1 3/4/1
f 8/5/2 26/6/2 28/7/2 7/8/2
f 26/6/3 25/9/3 27/10/3 28/7/3
f 9/11/4 24/12/4 26/6/4 8/5/4
f 24/12/5 23/13/5 25/9/5 26/6/5
f 10/14/6 22/15/6 24/12/6 9/11/6
f 22/15/7 21/16/7 23/13/7 24/12/7
f 11/17/8 20/18/8 22/15/8 10/14/8
f 20/18/9 19/19/9 21/16/9 22/15/9
f 12/20/10 18/21/10 20/18/10 11/17/10
f 18/21/11 17/22/11 19/19/11 20/18/11
f 5/23/12 13/24/12 18/21/12 12/20/12
f 13/24/13 14/25/13 17/22/13 18/21/13
f 7/8/14 28/7/14 16/26/14 6/27/14
f 28/7/15 27/10/15 15/28/15 16/26/15
f 37/29/16 40/30/16 34/31/16 35/32/16
f 41/33/17 44/34/17 32/35/17 33/36/17
f 45/37/18 48/38/18 30/39/18 31/40/18
f 49/41/19 52/42/19 36/43/19 29/44/19
f 52/42/20 37/29/20 35/32/20 36/43/20
f 40/30/21 41/33/21 33/36/21 34/31/21
f 44/34/22 45/37/22 31/40/22 32/35/22
f 8/5/23 7/8/23 46/45/23 43/46/23
f 43/46/24 46/45/24 45/37/24 44/34/24
f 10/14/25 9/11/25 42/47/25 39/48/25
f 39/48/26 42/47/26 41/33/26 40/30/26
f 12/20/27 11/17/27 38/49/27 51/50/27
f 51/50/28 38/49/28 37/29/28 52/42/28
f 5/23/29 12/20/29 51/50/29 50/51/29
f 50/51/30 51/50/30 52/42/30 49/41/30
f 7/8/31 6/27/31 47/52/31 46/45/31
f 46/45/32 47/52/32 48/38/32 45/37/32
f 9/11/33 8/5/33 43/46/33 42/47/33
f 42/47/34 43/46/34 44/34/34 41/33/34
f 11/17/35 10/14/35 39/48/35 38/49/35
f 38/49/36 39/48/36 40/30/36 37/29/36
f 55/53/37 56/54/37 60/55/37 59/56/37
f 59/56/1 60/55/1 58/57/1 57/58/1
f 57/58/38 58/57/38 54/59/38 53/60/38
f 55/53/39 59/56/39 57/58/39 53/60/39
f 60/55/40 56/54/40 54/59/40 58/57/40
f 63/61/37 64/62/37 68/63/37 67/64/37
f 67/64/1 68/63/1 66/65/1 65/66/1
f 65/66/38 66/65/38 62/67/38 61/68/38
f 63/61/39 67/64/39 65/66/39 61/68/39
f 68/63/40 64/62/40 62/67/40 66/65/40
f 71/69/41 72/70/41 76/71/41 75/72/41
f 75/72/1 76/71/1 74/73/1 73/74/1
f 73/74/42 74/73/42 70/75/42 69/76/42
f 71/69/43 75/72/43 73/74/43 69/76/43
f 76/71/38 72/70/38 70/75/38 74/73/38
f 79/77/40 80/78/40 84/79/40 83/80/40
f 83/80/1 84/79/1 82/81/1 81/82/1
f 81/82/39 82/81/39 78/83/39 77/84/39
f 79/77/37 83/80/37 81/82/37 77/84/37
f 84/79/44 80/78/44 78/83/44 82/81/44
