# Blender v2.79 (sub 0) OBJ File: 'window_extended_002.blend'
# www.blender.org
o Cube.154_Cube.177
v -1.019127 -1.415880 1.177575
v -1.019127 1.286463 1.177575
v -1.019127 -1.415880 -0.390311
v -1.019127 2.065856 -0.390311
v 0.980873 -1.415880 1.177574
v 0.980873 1.286463 1.177574
v 0.980872 -1.415880 -0.390312
v 0.980872 2.065856 -0.390312
v -1.019127 -1.415880 0.536176
v -1.019127 1.676160 0.536176
v 0.980873 -1.415880 0.536175
v 0.980873 1.676160 0.536175
v -1.009066 1.885937 0.266477
v -1.019127 2.101287 -0.036902
v 0.980873 2.101287 -0.036904
v 0.990934 1.885937 0.266475
v -0.019128 2.065856 -0.390312
v 0.980874 1.393574 1.242653
v -1.019127 1.393574 1.242654
v -0.019128 -1.415880 -0.390312
v -0.019127 -1.415880 1.177575
v -0.019127 1.286463 1.177575
v -0.019127 1.676160 0.536175
v -0.019127 -1.415880 0.536175
v -0.019127 2.101287 -0.036903
v -0.009066 1.885937 0.266476
v -0.019126 1.393574 1.242653
v -0.161388 1.431031 1.083512
v 0.862754 1.458439 0.978107
v -0.161388 1.506506 1.129368
v 0.862754 1.533914 1.023960
v -0.903998 1.458439 0.978108
v -0.903997 1.533914 1.023961
v -0.152394 1.118283 1.454377
v -0.803949 1.118283 1.454377
v -0.152394 1.225394 1.519455
v -0.803949 1.225394 1.519456
v 0.734378 1.087719 1.504681
v 0.094381 1.087719 1.504681
v 0.734378 1.194830 1.569759
v 0.094381 1.194830 1.569760
v -0.998065 1.974835 0.241372
v -1.008126 2.190185 -0.062007
v -0.008126 2.190185 -0.062007
v 0.991874 2.190185 -0.062008
v 1.001935 1.974835 0.241371
v 0.001935 1.974835 0.241372
v -0.846937 1.666278 0.703866
v -0.179437 1.666278 0.703866
v -0.839593 1.755175 0.678762
v -0.172093 1.755175 0.678761
v 0.066740 1.702103 0.637543
v 0.651976 1.702103 0.637543
v 0.658414 1.791002 0.612438
v 0.073179 1.791002 0.612439
v 1.103337 1.286828 1.059303
v 1.103337 -1.573049 1.059303
v 1.103337 1.286828 1.297668
v 1.103337 -1.573049 1.297668
v 0.864971 1.286828 1.059303
v 0.864971 -1.573049 1.059303
v 0.864971 1.286828 1.297668
v 0.864971 -1.573049 1.297668
v -1.139047 -1.573049 1.297670
v -1.139047 1.286828 1.297670
v -1.139047 -1.573049 1.059304
v -1.139047 1.286828 1.059304
v -0.900682 -1.573049 1.297669
v -0.900682 1.286828 1.297669
v -0.900682 -1.573049 1.059304
v -0.900682 1.286828 1.059304
v 1.133422 2.113346 -0.399590
v 1.133422 2.368549 -0.244683
v 0.834884 2.113346 -0.399590
v 0.834884 2.368549 -0.244682
v 0.834885 1.191301 1.694778
v 1.133424 1.191301 1.694778
v 1.133424 0.936097 1.539871
v 0.834885 0.936097 1.539871
v -0.871787 2.113346 -0.399589
v -0.871787 2.368549 -0.244681
v -1.170326 2.113346 -0.399588
v -1.170326 2.368549 -0.244681
v -1.170325 1.191301 1.694780
v -0.871786 1.191301 1.694779
v -0.871786 0.936097 1.539872
v -1.170325 0.936097 1.539872
v 0.914692 -1.457654 1.060203
v -0.918921 -1.457654 1.060205
v 0.914693 -1.457654 1.272899
v -0.918920 -1.457654 1.272901
v 0.914692 -1.244958 1.060203
v -0.918921 -1.244958 1.060205
v 0.914693 -1.244958 1.272899
v -0.918920 -1.244958 1.272901
v -1.114765 -1.457654 -0.281588
v -1.114764 -1.457654 1.140146
v -0.902069 -1.457654 -0.281588
v -0.902068 -1.457654 1.140145
v -1.114765 -1.244958 -0.281588
v -1.114764 -1.244958 1.140146
v -0.902069 -1.244958 -0.281588
v -0.902068 -1.244958 1.140145
v 0.849560 -1.457654 -0.281590
v 0.849561 -1.457654 1.140144
v 1.062256 -1.457654 -0.281590
v 1.062257 -1.457654 1.140144
v 0.849560 -1.244958 -0.281590
v 0.849561 -1.244958 1.140144
v 1.062256 -1.244958 -0.281590
v 1.062257 -1.244958 1.140144
v -0.825406 -2.666840 -0.192264
v -0.825405 -1.385430 1.089147
v -0.825406 -2.500880 -0.358226
v -0.825405 -1.219469 0.923184
v -0.590703 -2.666840 -0.192264
v -0.590702 -1.385430 1.089147
v -0.590703 -2.500880 -0.358226
v -0.590702 -1.219469 0.923184
v 0.787772 -2.666840 -0.192265
v 0.787772 -1.385430 1.089146
v 0.787771 -2.500880 -0.358227
v 0.787772 -1.219469 0.923183
v 0.553068 -2.666840 -0.192264
v 0.553069 -1.385430 1.089146
v 0.553068 -2.500880 -0.358227
v 0.553069 -1.219469 0.923184
vt 0.716556 0.764741
vt 0.660672 0.916313
vt 0.597526 0.918230
vt 0.676212 0.714023
vt 0.825092 0.756587
vt 0.892112 0.918230
vt 0.844406 0.910107
vt 0.805550 0.784368
vt 0.769452 0.779712
vt 0.777754 0.918113
vt 0.703380 0.907312
vt 0.736964 0.785136
vt 0.767753 0.745804
vt 0.759435 0.672485
vt 0.863276 0.685986
vt 0.964974 0.917028
vt 0.905693 0.269965
vt 0.813061 0.264478
vt 0.814139 0.255736
vt 0.907206 0.261514
vt 0.812918 0.297730
vt 0.720720 0.302336
vt 0.718917 0.269612
vt 0.828631 0.172744
vt 0.712879 0.158048
vt 0.724062 0.069973
vt 0.831599 0.085475
vt 0.927077 0.081004
vt 0.851551 0.072257
vt 0.894501 0.069797
vt 0.722318 0.037778
vt 0.752506 0.057853
vt 0.753429 0.060302
vt 0.953445 0.172744
vt 0.923579 0.407534
vt 0.813840 0.407534
vt 0.822938 0.311168
vt 0.894858 0.338864
vt 0.904057 0.302336
vt 0.824582 0.302434
vt 0.900136 0.333905
vt 0.762931 0.302731
vt 0.765943 0.309428
vt 0.712879 0.362418
vt 0.730213 0.331550
vt 0.918717 0.372764
vt 0.809601 0.067953
vt 0.809656 0.070098
vt 0.834002 0.060408
vt 0.851968 0.071461
vt 0.893106 0.070208
vt 0.916679 0.058019
vt 0.719460 0.260906
vt 0.717944 0.226833
vt 0.814992 0.218344
vt 0.910866 0.232122
vt 0.712879 0.219695
vt 0.727247 0.178062
vt 0.730774 0.185290
vt 0.782542 0.172842
vt 0.782292 0.181201
vt 0.814216 0.206896
vt 0.838937 0.176725
vt 0.887475 0.187570
vt 0.885263 0.195548
vt 0.839793 0.184937
vt 0.913545 0.224395
vt 0.231269 0.619608
vt 0.287509 0.688528
vt 0.226572 0.753098
vt 0.170332 0.684178
vt 0.286121 0.631665
vt 0.286360 0.741041
vt 0.171481 0.631665
vt 0.171720 0.741041
vt 0.101218 0.736786
vt 0.158081 0.620757
vt 0.158081 0.735398
vt 0.036648 0.675849
vt 0.048705 0.735637
vt 0.105568 0.619608
vt 0.048705 0.620997
vt 0.170137 0.680545
vt 0.174035 0.753763
vt 0.295488 0.818902
vt 0.236518 0.760047
vt 0.174035 0.876719
vt 0.170332 0.811110
vt 0.291784 0.876250
vt 0.229302 0.869965
vt 0.291784 0.753292
vt 0.037119 0.858433
vt 0.102258 0.736980
vt 0.043404 0.795950
vt 0.160075 0.858433
vt 0.094467 0.862137
vt 0.159606 0.740685
vt 0.153321 0.803167
vt 0.036648 0.740684
vt 0.175195 0.968370
vt 0.221178 0.880087
vt 0.170332 0.920069
vt 0.262393 0.968075
vt 0.175195 0.877209
vt 0.267257 0.925214
vt 0.262393 0.876913
vt 0.216411 0.965196
vt 0.267451 0.877281
vt 0.345664 0.920491
vt 0.312805 0.876913
vt 0.267832 0.958165
vt 0.351800 0.877281
vt 0.306827 0.958532
vt 0.352181 0.958164
vt 0.273968 0.914955
vt 0.295683 0.792668
vt 0.376934 0.837640
vt 0.296051 0.838022
vt 0.339260 0.759809
vt 0.333725 0.831505
vt 0.376934 0.753292
vt 0.377302 0.798646
vt 0.296051 0.753673
vt 0.114980 0.862331
vt 0.062265 0.933740
vt 0.036648 0.862623
vt 0.126860 0.928858
vt 0.142070 0.862623
vt 0.068116 0.963041
vt 0.146254 0.965178
vt 0.046660 0.892118
vt 0.314760 0.622510
vt 0.305603 0.689466
vt 0.393039 0.619608
vt 0.370343 0.691710
vt 0.365690 0.721225
vt 0.287703 0.623906
vt 0.384237 0.649487
vt 0.287703 0.726547
vn -1.0000 0.0000 0.0000
vn 1.0000 0.0000 -0.0000
vn 0.0000 0.0000 1.0000
vn 0.0000 -1.0000 0.0000
vn -0.0000 -0.2718 -0.9624
vn -0.0000 0.9950 -0.0998
vn 0.0000 0.9285 0.3714
vn 0.0000 0.8546 0.5193
vn -0.8329 -0.2873 0.4729
vn 0.0092 0.9108 0.4127
vn 0.1013 -0.5166 0.8502
vn -0.1391 -0.5142 0.8463
vn -0.9191 0.2628 0.2936
vn -0.0105 0.9115 0.4112
vn 0.9404 0.1887 0.2828
vn 0.0000 -0.5193 0.8546
vn -0.0000 -0.8546 -0.5193
vn 0.9248 -0.1976 0.3252
vn 0.8407 -0.2811 0.4627
vn -0.9587 -0.1476 0.2430
vn 0.0000 0.8154 0.5788
vn -0.8785 0.2116 0.4282
vn 0.0000 0.2718 0.9624
vn 0.9290 0.0087 0.3701
vn 0.0000 0.8936 0.4488
vn 0.6966 0.1309 0.7054
vn -0.9473 0.1697 0.2718
vn 0.0000 0.8961 0.4439
vn -0.0000 0.0000 -1.0000
vn -0.0000 -0.8548 -0.5189
vn 0.0000 -0.5189 0.8548
vn 0.0000 0.8548 0.5189
vn 0.0000 1.0000 0.0000
vn -0.0000 0.7071 -0.7071
vn 0.0000 -0.7071 0.7071
s off
f 9/1/1 10/2/1 4/3/1 3/4/1
f 11/5/2 12/6/2 6/7/2 5/8/2
f 21/9/3 22/10/3 2/11/3 1/12/3
f 24/13/4 11/5/4 5/8/4 21/9/4
f 20/14/4 7/15/4 11/5/4 24/13/4
f 7/15/2 8/16/2 12/6/2 11/5/2
f 1/12/1 2/11/1 10/2/1 9/1/1
f 15/17/5 25/18/5 44/19/5 45/20/5
f 17/21/6 4/22/6 14/23/6 25/18/6
f 23/24/7 10/25/7 19/26/7 27/27/7
f 18/28/8 27/27/8 41/29/8 40/30/8
f 19/26/9 2/31/9 35/32/9 37/33/9
f 12/34/7 23/24/7 27/27/7 18/28/7
f 16/35/10 26/36/10 30/37/10 31/38/10
f 8/39/6 17/21/6 25/18/6 15/17/6
f 3/4/4 20/14/4 24/13/4 9/1/4
f 9/1/4 24/13/4 21/9/4 1/12/4
f 5/8/3 6/7/3 22/10/3 21/9/3
f 28/40/11 29/41/11 31/38/11 30/37/11
f 32/42/12 28/40/12 30/37/12 33/43/12
f 13/44/13 10/45/13 32/42/13 33/43/13
f 26/36/14 13/44/14 33/43/14 30/37/14
f 12/46/15 16/35/15 31/38/15 29/41/15
f 35/32/16 34/47/16 36/48/16 37/33/16
f 2/31/17 22/49/17 34/47/17 35/32/17
f 22/49/18 27/27/18 36/48/18 34/47/18
f 27/27/8 19/26/8 37/33/8 36/48/8
f 39/50/16 38/51/16 40/30/16 41/29/16
f 6/52/19 18/28/19 40/30/19 38/51/19
f 22/49/17 6/52/17 38/51/17 39/50/17
f 27/27/20 22/49/20 39/50/20 41/29/20
f 44/19/21 43/53/21 42/54/21 47/55/21
f 45/20/21 44/19/21 47/55/21 46/56/21
f 25/18/5 14/23/5 43/53/5 44/19/5
f 42/54/22 13/57/22 48/58/22 50/59/22
f 48/58/23 49/60/23 51/61/23 50/59/23
f 26/62/24 47/55/24 51/61/24 49/60/24
f 47/55/25 42/54/25 50/59/25 51/61/25
f 52/63/23 53/64/23 54/65/23 55/66/23
f 16/67/26 46/56/26 54/65/26 53/64/26
f 47/55/27 26/62/27 52/63/27 55/66/27
f 46/56/28 47/55/28 55/66/28 54/65/28
f 61/68/4 57/69/4 59/70/4 63/71/4
f 59/70/3 58/72/3 62/73/3 63/71/3
f 57/69/2 56/74/2 58/72/2 59/70/2
f 61/68/29 60/75/29 56/74/29 57/69/29
f 63/71/1 62/73/1 60/75/1 61/68/1
f 64/76/1 65/77/1 67/78/1 66/79/1
f 66/79/29 67/78/29 71/80/29 70/81/29
f 70/81/2 71/80/2 69/82/2 68/83/2
f 68/83/3 69/82/3 65/77/3 64/76/3
f 66/79/4 70/81/4 68/83/4 64/76/4
f 73/84/2 77/85/2 78/86/2 72/87/2
f 72/87/30 78/86/30 79/88/30 74/89/30
f 74/89/1 79/88/1 76/90/1 75/91/1
f 79/88/31 78/86/31 77/85/31 76/90/31
f 75/91/32 76/90/32 77/85/32 73/84/32
f 81/92/2 85/93/2 86/94/2 80/95/2
f 80/95/30 86/94/30 87/96/30 82/97/30
f 82/97/1 87/96/1 84/98/1 83/99/1
f 87/96/31 86/94/31 85/93/31 84/98/31
f 83/99/32 84/98/32 85/93/32 81/92/32
f 91/100/3 90/101/3 94/102/3 95/103/3
f 89/104/4 88/105/4 90/101/4 91/100/4
f 93/106/29 92/107/29 88/105/29 89/104/29
f 95/103/33 94/102/33 92/107/33 93/106/33
f 99/108/2 98/109/2 102/110/2 103/111/2
f 97/112/4 96/113/4 98/109/4 99/108/4
f 101/114/1 100/115/1 96/113/1 97/112/1
f 103/111/33 102/110/33 100/115/33 101/114/33
f 107/116/2 106/117/2 110/118/2 111/119/2
f 105/120/4 104/121/4 106/117/4 107/116/4
f 109/122/1 108/123/1 104/121/1 105/120/1
f 111/119/33 110/118/33 108/123/33 109/122/33
f 112/124/1 113/125/1 115/126/1 114/127/1
f 114/127/34 115/126/34 119/128/34 118/129/34
f 118/129/2 119/128/2 117/130/2 116/131/2
f 116/131/35 117/130/35 113/125/35 112/124/35
f 120/132/2 122/133/2 123/134/2 121/135/2
f 122/133/34 126/136/34 127/137/34 123/134/34
f 126/136/1 124/138/1 125/139/1 127/137/1
f 124/138/35 120/132/35 121/135/35 125/139/35
