# Blender v2.79 (sub 0) OBJ File: 'window_small_006.blend'
# www.blender.org
o Cube.003_Cube.004
v -0.517870 -1.177772 0.423205
v 0.594960 -0.064942 0.423204
v -0.594961 -1.100681 0.423205
v 0.517870 0.012149 0.423204
v -0.517870 -1.177772 0.337760
v 0.594960 -0.064942 0.337759
v -0.594961 -1.100681 0.337760
v 0.517870 0.012149 0.337759
v -0.517870 -0.535982 0.423205
v 0.594960 0.576849 0.423204
v -0.594961 -0.458891 0.423205
v 0.517870 0.653939 0.423204
v -0.517870 -0.535982 0.337760
v 0.594960 0.576849 0.337759
v -0.594961 -0.458891 0.337760
v 0.517870 0.653939 0.337759
v -0.517870 0.073910 0.423205
v 0.594960 1.186740 0.423204
v -0.594961 0.151000 0.423205
v 0.517870 1.263831 0.423204
v -0.517870 0.073910 0.337760
v 0.594960 1.186740 0.337759
v -0.594961 0.151000 0.337760
v 0.517870 1.263831 0.337759
v 0.517870 -1.177772 0.337759
v -0.594961 -0.064942 0.337760
v 0.594960 -1.100681 0.337759
v -0.517870 0.012149 0.337760
v 0.517870 -1.177772 0.423204
v -0.594961 -0.064942 0.423205
v 0.594960 -1.100681 0.423204
v -0.517870 0.012149 0.423205
v 0.517870 -0.535982 0.337759
v -0.594961 0.576849 0.337760
v 0.594960 -0.458891 0.337759
v -0.517870 0.653939 0.337760
v 0.517870 -0.535982 0.423204
v -0.594961 0.576849 0.423205
v 0.594960 -0.458891 0.423204
v -0.517870 0.653939 0.423205
v 0.517870 0.073910 0.337759
v -0.594961 1.186740 0.337760
v 0.594960 0.151000 0.337759
v -0.517870 1.263831 0.337760
v 0.517870 0.073910 0.423204
v -0.594961 1.186740 0.423205
v 0.594960 0.151000 0.423204
v -0.517870 1.263831 0.423205
v 0.621373 -1.197573 0.564496
v 0.621373 1.300279 0.564496
v -0.621373 -1.197573 0.564496
v -0.621373 1.300279 0.564496
v 0.835835 -1.412036 -0.394130
v 0.835835 1.514741 -0.394130
v -0.835835 -1.412036 -0.394130
v -0.835835 1.514741 -0.394130
v -0.835835 -1.412036 0.564496
v 0.835835 -1.412036 0.564496
v 0.835835 1.514741 0.564496
v -0.835835 1.514741 0.564496
v -0.433334 -1.009535 0.451463
v 0.433335 -1.009535 0.451463
v 0.433335 1.112240 0.451463
v -0.433334 1.112240 0.451463
v -0.621373 -1.197573 0.451463
v 0.621373 -1.197573 0.451463
v 0.621373 1.300279 0.451463
v -0.621373 1.300279 0.451463
v -0.433334 -1.009535 0.349417
v 0.433335 -1.009535 0.349417
v 0.433335 1.112240 0.349417
v -0.433334 1.112240 0.349417
vt 0.880107 0.693564
vt 0.695397 0.693564
vt 0.695397 0.680768
vt 0.880107 0.680768
vt 0.695397 0.670739
vt 0.880107 0.670740
vt 0.880107 0.703592
vt 0.695397 0.703592
vt 0.880107 0.726510
vt 0.695397 0.726510
vt 0.695397 0.713714
vt 0.880107 0.713714
vt 0.695397 0.703686
vt 0.880107 0.703686
vt 0.880107 0.736538
vt 0.695397 0.736538
vt 0.880107 0.825349
vt 0.695397 0.825348
vt 0.695397 0.812553
vt 0.880107 0.812553
vt 0.695397 0.802524
vt 0.880107 0.802524
vt 0.880107 0.835377
vt 0.695397 0.835377
vt 0.695397 0.736632
vt 0.880107 0.736632
vt 0.880107 0.746660
vt 0.695397 0.746660
vt 0.880107 0.759456
vt 0.695397 0.759456
vt 0.880107 0.769485
vt 0.695397 0.769484
vt 0.695397 0.769578
vt 0.880107 0.769578
vt 0.880107 0.779607
vt 0.695397 0.779607
vt 0.880107 0.792402
vt 0.695397 0.792402
vt 0.880107 0.802431
vt 0.695397 0.802430
vt 0.695397 0.835470
vt 0.880107 0.835470
vt 0.880107 0.845499
vt 0.695397 0.845499
vt 0.880106 0.858295
vt 0.695397 0.858295
vt 0.880106 0.868323
vt 0.695397 0.868323
vt 0.184112 0.824816
vt 0.138239 0.821868
vt 0.141747 0.817439
vt 0.180387 0.821191
vt 0.139172 0.736830
vt 0.129388 0.828830
vt 0.066401 0.887803
vt 0.066401 0.626302
vt 0.262814 0.682509
vt 0.262814 0.944010
vt 0.190042 0.833483
vt 0.199827 0.741482
vt 0.190975 0.748444
vt 0.145103 0.745496
vt 0.180876 0.758031
vt 0.175902 0.814524
vt 0.173003 0.811693
vt 0.178172 0.761331
vt 0.187467 0.752874
vt 0.148828 0.749122
vt 0.153312 0.755789
vt 0.148339 0.812281
vt 0.953027 0.031469
vt 0.953027 0.312281
vt 0.838325 0.312281
vt 0.838325 0.031469
vt 0.151043 0.808982
vt 0.156212 0.758620
vn 0.0000 -0.0000 1.0000
vn -0.7071 0.7071 0.0000
vn 0.7071 -0.7071 0.0000
vn 0.7071 0.7071 0.0000
vn -0.7071 -0.7071 0.0000
vn 0.0000 -1.0000 0.0000
vn -1.0000 0.0000 0.0000
vn 1.0000 0.0000 -0.0000
vn 0.0000 1.0000 -0.0000
s off
f 1/1/1 2/2/1 4/3/1 3/4/1
f 3/4/2 4/3/2 8/5/2 7/6/2
f 5/7/3 6/8/3 2/2/3 1/1/3
f 9/9/1 10/10/1 12/11/1 11/12/1
f 11/12/2 12/11/2 16/13/2 15/14/2
f 13/15/3 14/16/3 10/10/3 9/9/3
f 17/17/1 18/18/1 20/19/1 19/20/1
f 19/20/2 20/19/2 24/21/2 23/22/2
f 21/23/3 22/24/3 18/18/3 17/17/3
f 27/25/4 28/26/4 32/27/4 31/28/4
f 31/28/1 32/27/1 30/29/1 29/30/1
f 29/30/5 30/29/5 26/31/5 25/32/5
f 35/33/4 36/34/4 40/35/4 39/36/4
f 39/36/1 40/35/1 38/37/1 37/38/1
f 37/38/5 38/37/5 34/39/5 33/40/5
f 43/41/4 44/42/4 48/43/4 47/44/4
f 47/44/1 48/43/1 46/45/1 45/46/1
f 45/46/5 46/45/5 42/47/5 41/48/5
f 50/49/6 52/50/6 68/51/6 67/52/6
f 57/53/7 60/54/7 56/55/7 55/56/7
f 53/57/8 54/58/8 59/59/8 58/60/8
f 57/53/6 55/56/6 53/57/6 58/60/6
f 56/55/9 60/54/9 59/59/9 54/58/9
f 49/61/1 51/62/1 57/53/1 58/60/1
f 50/49/1 49/61/1 58/60/1 59/59/1
f 52/50/1 50/49/1 59/59/1 60/54/1
f 51/62/1 52/50/1 60/54/1 57/53/1
f 62/63/7 63/64/7 71/65/7 70/66/7
f 51/62/9 49/61/9 66/67/9 65/68/9
f 52/50/8 51/62/8 65/68/8 68/51/8
f 49/61/7 50/49/7 67/52/7 66/67/7
f 62/63/1 61/69/1 65/68/1 66/67/1
f 63/64/1 62/63/1 66/67/1 67/52/1
f 64/70/1 63/64/1 67/52/1 68/51/1
f 61/69/1 64/70/1 68/51/1 65/68/1
f 70/71/1 71/72/1 72/73/1 69/74/1
f 63/64/6 64/70/6 72/75/6 71/65/6
f 61/69/9 62/63/9 70/66/9 69/76/9
f 64/70/8 61/69/8 69/76/8 72/75/8
